%TF.GenerationSoftware,KiCad,Pcbnew,10.0.6*%
%TF.CreationDate,2026-09-09T21:08:25+08:00*%
%TF.ProjectId,JXBadge_V1,4a584261-6467-4655-9f56-312e6b696361,rev?*%
%TF.SameCoordinates,Original*%
%TF.FileFunction,Soldermask,Bot*%
%TF.FilePolarity,Negative*%
%FSLAX46Y46*%
G04 Gerber Fmt 4.6, Leading zero omitted, Abs format (unit mm)*
G04 Created by KiCad (PCBNEW 10.0.6) date 2026-09-09 21:08:25*
%MOMM*%
%LPD*%
G01*
G04 APERTURE LIST*
G04 APERTURE END LIST*
G36*
X80318133Y-112133821D02*
G01*
X80385956Y-112172979D01*
X80441334Y-112228357D01*
X80480492Y-112296180D01*
X80500761Y-112371827D01*
X80500761Y-112450143D01*
X80480492Y-112525790D01*
X80441334Y-112593613D01*
X80385956Y-112648991D01*
X80318133Y-112688149D01*
X80242486Y-112708418D01*
X80164170Y-112708418D01*
X80088523Y-112688149D01*
X80020700Y-112648991D01*
X79965322Y-112593613D01*
X79926164Y-112525790D01*
X79905895Y-112450143D01*
X79905895Y-112371827D01*
X79926164Y-112296180D01*
X79965322Y-112228357D01*
X80020700Y-112172979D01*
X80088523Y-112133821D01*
X80164170Y-112113552D01*
X80242486Y-112113552D01*
X80318133Y-112133821D01*
G37*
G36*
X79468133Y-110661578D02*
G01*
X79535956Y-110700736D01*
X79591334Y-110756114D01*
X79630492Y-110823937D01*
X79650761Y-110899584D01*
X79650761Y-110977900D01*
X79630492Y-111053547D01*
X79591334Y-111121370D01*
X79535956Y-111176748D01*
X79468133Y-111215906D01*
X79392486Y-111236175D01*
X79314170Y-111236175D01*
X79238523Y-111215906D01*
X79170700Y-111176748D01*
X79115322Y-111121370D01*
X79076164Y-111053547D01*
X79055895Y-110977900D01*
X79055895Y-110899584D01*
X79076164Y-110823937D01*
X79115322Y-110756114D01*
X79170700Y-110700736D01*
X79238523Y-110661578D01*
X79314170Y-110641309D01*
X79392486Y-110641309D01*
X79468133Y-110661578D01*
G37*
G36*
X118635686Y-103725341D02*
G01*
X118689577Y-103727989D01*
X118696210Y-103729308D01*
X118710316Y-103730233D01*
X118737562Y-103737533D01*
X118806099Y-103751166D01*
X118838448Y-103764565D01*
X118861610Y-103770772D01*
X118882377Y-103782762D01*
X118914722Y-103796160D01*
X118972816Y-103834977D01*
X118997257Y-103849088D01*
X119003946Y-103855777D01*
X119012481Y-103861480D01*
X119095619Y-103944618D01*
X119101321Y-103953152D01*
X119108012Y-103959843D01*
X119122124Y-103984286D01*
X119160939Y-104042377D01*
X119174335Y-104074718D01*
X119186328Y-104095490D01*
X119192535Y-104118655D01*
X119205933Y-104151000D01*
X119219565Y-104219533D01*
X119226867Y-104246784D01*
X119226867Y-104256241D01*
X119228870Y-104266311D01*
X119228870Y-104383888D01*
X119226867Y-104393957D01*
X119226867Y-104403416D01*
X119219564Y-104430669D01*
X119205933Y-104499199D01*
X119192535Y-104531541D01*
X119186328Y-104554710D01*
X119174334Y-104575483D01*
X119160939Y-104607822D01*
X119122128Y-104665905D01*
X119108012Y-104690357D01*
X119101319Y-104697049D01*
X119095619Y-104705581D01*
X119012481Y-104788719D01*
X119003949Y-104794419D01*
X118997257Y-104801112D01*
X118972805Y-104815228D01*
X118914722Y-104854039D01*
X118882383Y-104867434D01*
X118861610Y-104879428D01*
X118838441Y-104885635D01*
X118806099Y-104899033D01*
X118737576Y-104912662D01*
X118710316Y-104919967D01*
X118696203Y-104920891D01*
X118689577Y-104922210D01*
X118635691Y-104924858D01*
X118632000Y-104925100D01*
X118630768Y-104925100D01*
X117833232Y-104925100D01*
X117832000Y-104925100D01*
X117828308Y-104924858D01*
X117774422Y-104922210D01*
X117767795Y-104920891D01*
X117753684Y-104919967D01*
X117726426Y-104912663D01*
X117657900Y-104899033D01*
X117625555Y-104885635D01*
X117602390Y-104879428D01*
X117581618Y-104867435D01*
X117549277Y-104854039D01*
X117491186Y-104815224D01*
X117466743Y-104801112D01*
X117460052Y-104794421D01*
X117451518Y-104788719D01*
X117368380Y-104705581D01*
X117362677Y-104697046D01*
X117355988Y-104690357D01*
X117341877Y-104665916D01*
X117303060Y-104607822D01*
X117289662Y-104575477D01*
X117277672Y-104554710D01*
X117271465Y-104531548D01*
X117258066Y-104499199D01*
X117244433Y-104430663D01*
X117237133Y-104403416D01*
X117237133Y-104393958D01*
X117235130Y-104383888D01*
X117235130Y-104266311D01*
X117237133Y-104256240D01*
X117237133Y-104246784D01*
X117244433Y-104219539D01*
X117258066Y-104151000D01*
X117271466Y-104118648D01*
X117277672Y-104095490D01*
X117289660Y-104074724D01*
X117303060Y-104042377D01*
X117341881Y-103984275D01*
X117355988Y-103959843D01*
X117362675Y-103953155D01*
X117368380Y-103944618D01*
X117451518Y-103861480D01*
X117460055Y-103855775D01*
X117466743Y-103849088D01*
X117491175Y-103834981D01*
X117549277Y-103796160D01*
X117581624Y-103782760D01*
X117602390Y-103770772D01*
X117625548Y-103764566D01*
X117657900Y-103751166D01*
X117726440Y-103737532D01*
X117753684Y-103730233D01*
X117767787Y-103729308D01*
X117774422Y-103727989D01*
X117828313Y-103725341D01*
X117832000Y-103725100D01*
X118632000Y-103725100D01*
X118635686Y-103725341D01*
G37*
G36*
X122715486Y-103725341D02*
G01*
X122769377Y-103727989D01*
X122776010Y-103729308D01*
X122790116Y-103730233D01*
X122817362Y-103737533D01*
X122885899Y-103751166D01*
X122918248Y-103764565D01*
X122941410Y-103770772D01*
X122962177Y-103782762D01*
X122994522Y-103796160D01*
X123052616Y-103834977D01*
X123077057Y-103849088D01*
X123083746Y-103855777D01*
X123092281Y-103861480D01*
X123175419Y-103944618D01*
X123181121Y-103953152D01*
X123187812Y-103959843D01*
X123201924Y-103984286D01*
X123240739Y-104042377D01*
X123254135Y-104074718D01*
X123266128Y-104095490D01*
X123272335Y-104118655D01*
X123285733Y-104151000D01*
X123299365Y-104219533D01*
X123306667Y-104246784D01*
X123306667Y-104256241D01*
X123308670Y-104266311D01*
X123308670Y-104383888D01*
X123306667Y-104393957D01*
X123306667Y-104403416D01*
X123299364Y-104430669D01*
X123285733Y-104499199D01*
X123272335Y-104531541D01*
X123266128Y-104554710D01*
X123254134Y-104575483D01*
X123240739Y-104607822D01*
X123201928Y-104665905D01*
X123187812Y-104690357D01*
X123181119Y-104697049D01*
X123175419Y-104705581D01*
X123092281Y-104788719D01*
X123083749Y-104794419D01*
X123077057Y-104801112D01*
X123052605Y-104815228D01*
X122994522Y-104854039D01*
X122962183Y-104867434D01*
X122941410Y-104879428D01*
X122918241Y-104885635D01*
X122885899Y-104899033D01*
X122817376Y-104912662D01*
X122790116Y-104919967D01*
X122776003Y-104920891D01*
X122769377Y-104922210D01*
X122715491Y-104924858D01*
X122711800Y-104925100D01*
X122710568Y-104925100D01*
X122113032Y-104925100D01*
X122111800Y-104925100D01*
X122108108Y-104924858D01*
X122054222Y-104922210D01*
X122047595Y-104920891D01*
X122033484Y-104919967D01*
X122006226Y-104912663D01*
X121937700Y-104899033D01*
X121905355Y-104885635D01*
X121882190Y-104879428D01*
X121861418Y-104867435D01*
X121829077Y-104854039D01*
X121770986Y-104815224D01*
X121746543Y-104801112D01*
X121739852Y-104794421D01*
X121731318Y-104788719D01*
X121648180Y-104705581D01*
X121642477Y-104697046D01*
X121635788Y-104690357D01*
X121621677Y-104665916D01*
X121582860Y-104607822D01*
X121569462Y-104575477D01*
X121557472Y-104554710D01*
X121551265Y-104531548D01*
X121537866Y-104499199D01*
X121524233Y-104430663D01*
X121516933Y-104403416D01*
X121516933Y-104393958D01*
X121514930Y-104383888D01*
X121514930Y-104266311D01*
X121516933Y-104256240D01*
X121516933Y-104246784D01*
X121524233Y-104219539D01*
X121537866Y-104151000D01*
X121551266Y-104118648D01*
X121557472Y-104095490D01*
X121569460Y-104074724D01*
X121582860Y-104042377D01*
X121621681Y-103984275D01*
X121635788Y-103959843D01*
X121642475Y-103953155D01*
X121648180Y-103944618D01*
X121731318Y-103861480D01*
X121739855Y-103855775D01*
X121746543Y-103849088D01*
X121770975Y-103834981D01*
X121829077Y-103796160D01*
X121861424Y-103782760D01*
X121882190Y-103770772D01*
X121905348Y-103764566D01*
X121937700Y-103751166D01*
X122006240Y-103737532D01*
X122033484Y-103730233D01*
X122047587Y-103729308D01*
X122054222Y-103727989D01*
X122108113Y-103725341D01*
X122111800Y-103725100D01*
X122711800Y-103725100D01*
X122715486Y-103725341D01*
G37*
G36*
X77991242Y-102938060D02*
G01*
X78104281Y-103003323D01*
X78196577Y-103095619D01*
X78261840Y-103208658D01*
X78295622Y-103334737D01*
X78295622Y-103465263D01*
X78261840Y-103591342D01*
X78196577Y-103704381D01*
X78104281Y-103796677D01*
X77991242Y-103861940D01*
X77865163Y-103895722D01*
X77734637Y-103895722D01*
X77608558Y-103861940D01*
X77495519Y-103796677D01*
X77403223Y-103704381D01*
X77337960Y-103591342D01*
X77304178Y-103465263D01*
X77304178Y-103334737D01*
X77337960Y-103208658D01*
X77403223Y-103095619D01*
X77495519Y-103003323D01*
X77608558Y-102938060D01*
X77734637Y-102904278D01*
X77865163Y-102904278D01*
X77991242Y-102938060D01*
G37*
G36*
X118846905Y-102622736D02*
G01*
X118914728Y-102661894D01*
X118970106Y-102717272D01*
X119009264Y-102785095D01*
X119029533Y-102860742D01*
X119029533Y-102939058D01*
X119009264Y-103014705D01*
X118970106Y-103082528D01*
X118914728Y-103137906D01*
X118846905Y-103177064D01*
X118771258Y-103197333D01*
X118692942Y-103197333D01*
X118617295Y-103177064D01*
X118549472Y-103137906D01*
X118494094Y-103082528D01*
X118454936Y-103014705D01*
X118434667Y-102939058D01*
X118434667Y-102860742D01*
X118454936Y-102785095D01*
X118494094Y-102717272D01*
X118549472Y-102661894D01*
X118617295Y-102622736D01*
X118692942Y-102602467D01*
X118771258Y-102602467D01*
X118846905Y-102622736D01*
G37*
G36*
X118846905Y-96822936D02*
G01*
X118914728Y-96862094D01*
X118970106Y-96917472D01*
X119009264Y-96985295D01*
X119029533Y-97060942D01*
X119029533Y-97139258D01*
X119009264Y-97214905D01*
X118970106Y-97282728D01*
X118914728Y-97338106D01*
X118846905Y-97377264D01*
X118771258Y-97397533D01*
X118692942Y-97397533D01*
X118617295Y-97377264D01*
X118549472Y-97338106D01*
X118494094Y-97282728D01*
X118454936Y-97214905D01*
X118434667Y-97139258D01*
X118434667Y-97060942D01*
X118454936Y-96985295D01*
X118494094Y-96917472D01*
X118549472Y-96862094D01*
X118617295Y-96822936D01*
X118692942Y-96802667D01*
X118771258Y-96802667D01*
X118846905Y-96822936D01*
G37*
G36*
X77991242Y-96138060D02*
G01*
X78104281Y-96203323D01*
X78196577Y-96295619D01*
X78261840Y-96408658D01*
X78295622Y-96534737D01*
X78295622Y-96665263D01*
X78261840Y-96791342D01*
X78196577Y-96904381D01*
X78104281Y-96996677D01*
X77991242Y-97061940D01*
X77865163Y-97095722D01*
X77734637Y-97095722D01*
X77608558Y-97061940D01*
X77495519Y-96996677D01*
X77403223Y-96904381D01*
X77337960Y-96791342D01*
X77304178Y-96665263D01*
X77304178Y-96534737D01*
X77337960Y-96408658D01*
X77403223Y-96295619D01*
X77495519Y-96203323D01*
X77608558Y-96138060D01*
X77734637Y-96104278D01*
X77865163Y-96104278D01*
X77991242Y-96138060D01*
G37*
G36*
X118635686Y-95075141D02*
G01*
X118689577Y-95077789D01*
X118696210Y-95079108D01*
X118710316Y-95080033D01*
X118737562Y-95087333D01*
X118806099Y-95100966D01*
X118838448Y-95114365D01*
X118861610Y-95120572D01*
X118882377Y-95132562D01*
X118914722Y-95145960D01*
X118972816Y-95184777D01*
X118997257Y-95198888D01*
X119003946Y-95205577D01*
X119012481Y-95211280D01*
X119095619Y-95294418D01*
X119101321Y-95302952D01*
X119108012Y-95309643D01*
X119122124Y-95334086D01*
X119160939Y-95392177D01*
X119174335Y-95424518D01*
X119186328Y-95445290D01*
X119192535Y-95468455D01*
X119205933Y-95500800D01*
X119219565Y-95569333D01*
X119226867Y-95596584D01*
X119226867Y-95606041D01*
X119228870Y-95616111D01*
X119228870Y-95733688D01*
X119226867Y-95743757D01*
X119226867Y-95753216D01*
X119219564Y-95780469D01*
X119205933Y-95848999D01*
X119192535Y-95881341D01*
X119186328Y-95904510D01*
X119174334Y-95925283D01*
X119160939Y-95957622D01*
X119122128Y-96015705D01*
X119108012Y-96040157D01*
X119101319Y-96046849D01*
X119095619Y-96055381D01*
X119012481Y-96138519D01*
X119003949Y-96144219D01*
X118997257Y-96150912D01*
X118972805Y-96165028D01*
X118914722Y-96203839D01*
X118882383Y-96217234D01*
X118861610Y-96229228D01*
X118838441Y-96235435D01*
X118806099Y-96248833D01*
X118737576Y-96262462D01*
X118710316Y-96269767D01*
X118696203Y-96270691D01*
X118689577Y-96272010D01*
X118635691Y-96274658D01*
X118632000Y-96274900D01*
X118630768Y-96274900D01*
X117833232Y-96274900D01*
X117832000Y-96274900D01*
X117828308Y-96274658D01*
X117774422Y-96272010D01*
X117767795Y-96270691D01*
X117753684Y-96269767D01*
X117726426Y-96262463D01*
X117657900Y-96248833D01*
X117625555Y-96235435D01*
X117602390Y-96229228D01*
X117581618Y-96217235D01*
X117549277Y-96203839D01*
X117491186Y-96165024D01*
X117466743Y-96150912D01*
X117460052Y-96144221D01*
X117451518Y-96138519D01*
X117368380Y-96055381D01*
X117362677Y-96046846D01*
X117355988Y-96040157D01*
X117341877Y-96015716D01*
X117303060Y-95957622D01*
X117289662Y-95925277D01*
X117277672Y-95904510D01*
X117271465Y-95881348D01*
X117258066Y-95848999D01*
X117244433Y-95780463D01*
X117237133Y-95753216D01*
X117237133Y-95743758D01*
X117235130Y-95733688D01*
X117235130Y-95616111D01*
X117237133Y-95606040D01*
X117237133Y-95596584D01*
X117244433Y-95569339D01*
X117258066Y-95500800D01*
X117271466Y-95468448D01*
X117277672Y-95445290D01*
X117289660Y-95424524D01*
X117303060Y-95392177D01*
X117341881Y-95334075D01*
X117355988Y-95309643D01*
X117362675Y-95302955D01*
X117368380Y-95294418D01*
X117451518Y-95211280D01*
X117460055Y-95205575D01*
X117466743Y-95198888D01*
X117491175Y-95184781D01*
X117549277Y-95145960D01*
X117581624Y-95132560D01*
X117602390Y-95120572D01*
X117625548Y-95114366D01*
X117657900Y-95100966D01*
X117726440Y-95087332D01*
X117753684Y-95080033D01*
X117767787Y-95079108D01*
X117774422Y-95077789D01*
X117828313Y-95075141D01*
X117832000Y-95074900D01*
X118632000Y-95074900D01*
X118635686Y-95075141D01*
G37*
G36*
X122715486Y-95075141D02*
G01*
X122769377Y-95077789D01*
X122776010Y-95079108D01*
X122790116Y-95080033D01*
X122817362Y-95087333D01*
X122885899Y-95100966D01*
X122918248Y-95114365D01*
X122941410Y-95120572D01*
X122962177Y-95132562D01*
X122994522Y-95145960D01*
X123052616Y-95184777D01*
X123077057Y-95198888D01*
X123083746Y-95205577D01*
X123092281Y-95211280D01*
X123175419Y-95294418D01*
X123181121Y-95302952D01*
X123187812Y-95309643D01*
X123201924Y-95334086D01*
X123240739Y-95392177D01*
X123254135Y-95424518D01*
X123266128Y-95445290D01*
X123272335Y-95468455D01*
X123285733Y-95500800D01*
X123299365Y-95569333D01*
X123306667Y-95596584D01*
X123306667Y-95606041D01*
X123308670Y-95616111D01*
X123308670Y-95733688D01*
X123306667Y-95743757D01*
X123306667Y-95753216D01*
X123299364Y-95780469D01*
X123285733Y-95848999D01*
X123272335Y-95881341D01*
X123266128Y-95904510D01*
X123254134Y-95925283D01*
X123240739Y-95957622D01*
X123201928Y-96015705D01*
X123187812Y-96040157D01*
X123181119Y-96046849D01*
X123175419Y-96055381D01*
X123092281Y-96138519D01*
X123083749Y-96144219D01*
X123077057Y-96150912D01*
X123052605Y-96165028D01*
X122994522Y-96203839D01*
X122962183Y-96217234D01*
X122941410Y-96229228D01*
X122918241Y-96235435D01*
X122885899Y-96248833D01*
X122817376Y-96262462D01*
X122790116Y-96269767D01*
X122776003Y-96270691D01*
X122769377Y-96272010D01*
X122715491Y-96274658D01*
X122711800Y-96274900D01*
X122710568Y-96274900D01*
X122113032Y-96274900D01*
X122111800Y-96274900D01*
X122108108Y-96274658D01*
X122054222Y-96272010D01*
X122047595Y-96270691D01*
X122033484Y-96269767D01*
X122006226Y-96262463D01*
X121937700Y-96248833D01*
X121905355Y-96235435D01*
X121882190Y-96229228D01*
X121861418Y-96217235D01*
X121829077Y-96203839D01*
X121770986Y-96165024D01*
X121746543Y-96150912D01*
X121739852Y-96144221D01*
X121731318Y-96138519D01*
X121648180Y-96055381D01*
X121642477Y-96046846D01*
X121635788Y-96040157D01*
X121621677Y-96015716D01*
X121582860Y-95957622D01*
X121569462Y-95925277D01*
X121557472Y-95904510D01*
X121551265Y-95881348D01*
X121537866Y-95848999D01*
X121524233Y-95780463D01*
X121516933Y-95753216D01*
X121516933Y-95743758D01*
X121514930Y-95733688D01*
X121514930Y-95616111D01*
X121516933Y-95606040D01*
X121516933Y-95596584D01*
X121524233Y-95569339D01*
X121537866Y-95500800D01*
X121551266Y-95468448D01*
X121557472Y-95445290D01*
X121569460Y-95424524D01*
X121582860Y-95392177D01*
X121621681Y-95334075D01*
X121635788Y-95309643D01*
X121642475Y-95302955D01*
X121648180Y-95294418D01*
X121731318Y-95211280D01*
X121739855Y-95205575D01*
X121746543Y-95198888D01*
X121770975Y-95184781D01*
X121829077Y-95145960D01*
X121861424Y-95132560D01*
X121882190Y-95120572D01*
X121905348Y-95114366D01*
X121937700Y-95100966D01*
X122006240Y-95087332D01*
X122033484Y-95080033D01*
X122047587Y-95079108D01*
X122054222Y-95077789D01*
X122108113Y-95075141D01*
X122111800Y-95074900D01*
X122711800Y-95074900D01*
X122715486Y-95075141D01*
G37*
G36*
X79468233Y-88783921D02*
G01*
X79536056Y-88823079D01*
X79591434Y-88878457D01*
X79630592Y-88946280D01*
X79650861Y-89021927D01*
X79650861Y-89100243D01*
X79630592Y-89175890D01*
X79591434Y-89243713D01*
X79536056Y-89299091D01*
X79468233Y-89338249D01*
X79392586Y-89358518D01*
X79314270Y-89358518D01*
X79238623Y-89338249D01*
X79170800Y-89299091D01*
X79115422Y-89243713D01*
X79076264Y-89175890D01*
X79055995Y-89100243D01*
X79055995Y-89021927D01*
X79076264Y-88946280D01*
X79115422Y-88878457D01*
X79170800Y-88823079D01*
X79238623Y-88783921D01*
X79314270Y-88763652D01*
X79392586Y-88763652D01*
X79468233Y-88783921D01*
G37*
G36*
X80318233Y-87311678D02*
G01*
X80386056Y-87350836D01*
X80441434Y-87406214D01*
X80480592Y-87474037D01*
X80500861Y-87549684D01*
X80500861Y-87628000D01*
X80480592Y-87703647D01*
X80441434Y-87771470D01*
X80386056Y-87826848D01*
X80318233Y-87866006D01*
X80242586Y-87886275D01*
X80164270Y-87886275D01*
X80088623Y-87866006D01*
X80020800Y-87826848D01*
X79965422Y-87771470D01*
X79926264Y-87703647D01*
X79905995Y-87628000D01*
X79905995Y-87549684D01*
X79926264Y-87474037D01*
X79965422Y-87406214D01*
X80020800Y-87350836D01*
X80088623Y-87311678D01*
X80164270Y-87291409D01*
X80242586Y-87291409D01*
X80318233Y-87311678D01*
G37*
M02*
