%TF.GenerationSoftware,KiCad,Pcbnew,10.0.6*%
%TF.CreationDate,2026-09-09T21:08:25+08:00*%
%TF.ProjectId,JXBadge_V1,4a584261-6467-4655-9f56-312e6b696361,rev?*%
%TF.SameCoordinates,Original*%
%TF.FileFunction,Legend,Top*%
%TF.FilePolarity,Positive*%
%FSLAX46Y46*%
G04 Gerber Fmt 4.6, Leading zero omitted, Abs format (unit mm)*
G04 Created by KiCad (PCBNEW 10.0.6) date 2026-09-09 21:08:25*
%MOMM*%
%LPD*%
G01*
G04 APERTURE LIST*
%ADD10C,0.120000*%
%ADD11C,0.220000*%
%ADD12C,0.219999*%
G04 APERTURE END LIST*
D10*
X75373707Y-99796000D02*
X76018000Y-99796000D01*
X75999900Y-95500000D02*
X79599899Y-95500000D01*
X75999900Y-104500000D02*
X75999900Y-95500000D01*
X76018000Y-98272000D02*
X75423268Y-98272000D01*
X78184842Y-111440277D02*
X78505017Y-111255424D01*
X78194787Y-89281908D02*
X79615805Y-86820633D01*
X78531667Y-88698416D02*
X78211854Y-88513772D01*
X79184842Y-86827671D02*
X79505017Y-87012524D01*
X79314900Y-93713898D02*
X79314900Y-94860600D01*
X79314900Y-94860600D02*
X80273800Y-94860600D01*
X79478367Y-112941316D02*
X79158554Y-113125959D01*
X79599899Y-95500000D02*
X79599899Y-96628900D01*
X79599899Y-98315483D02*
X79599899Y-99168900D01*
X79599899Y-100831100D02*
X79599899Y-101684516D01*
X79599899Y-103371100D02*
X79599899Y-104500000D01*
X79600000Y-104500000D02*
X75999900Y-104500000D01*
X79615805Y-113179366D02*
X78194787Y-110718091D01*
X80798284Y-89344518D02*
X81258234Y-88547862D01*
X81126200Y-93539400D02*
X82085100Y-93539400D01*
X81214900Y-105239400D02*
X81214900Y-106286388D01*
X81258234Y-111452137D02*
X80798284Y-110655481D01*
X81514900Y-107339400D02*
X81785358Y-107339400D01*
X81514900Y-108660600D02*
X81514900Y-107339400D01*
X82085100Y-93539400D02*
X82085100Y-94860600D01*
X82085100Y-94860600D02*
X81126200Y-94860600D01*
X82149212Y-105239400D02*
X81214900Y-105239400D01*
X82250000Y-95250000D02*
X82250000Y-95949999D01*
X82339400Y-99114900D02*
X82339400Y-100073800D01*
X82339400Y-101885100D02*
X82339400Y-100926200D01*
X82350953Y-97550100D02*
X82351046Y-98250099D01*
X82473800Y-108660600D02*
X81514900Y-108660600D01*
X82629400Y-94899000D02*
X83251949Y-94899000D01*
X82629400Y-96301099D02*
X82629400Y-94899000D01*
X82639400Y-102114900D02*
X82639400Y-103073800D01*
X83326200Y-108660600D02*
X84285100Y-108660600D01*
X83660600Y-99114900D02*
X82339400Y-99114900D01*
X83660600Y-100073800D02*
X83660600Y-99114900D01*
X83660600Y-100999961D02*
X83660600Y-101885100D01*
X83660600Y-101885100D02*
X82339400Y-101885100D01*
X83833161Y-111000800D02*
X83833161Y-109999200D01*
X83899400Y-96301099D02*
X82629400Y-96301099D01*
X83931484Y-109897600D02*
X84841161Y-109897600D01*
X83960500Y-98645800D02*
X82910299Y-98645800D01*
X83960600Y-102114900D02*
X82639400Y-102114900D01*
X83960600Y-103073800D02*
X83960600Y-102114900D01*
X83985099Y-105239400D02*
X83985099Y-106560600D01*
X83985099Y-106560600D02*
X83345833Y-106560600D01*
X84010100Y-96000000D02*
X84010100Y-95220100D01*
X84235400Y-97638500D02*
X83980399Y-97893500D01*
X84239400Y-84014900D02*
X85560600Y-84014900D01*
X84239400Y-84973800D02*
X84239400Y-84014900D01*
X84239400Y-86785100D02*
X85560600Y-86785100D01*
X84239400Y-91614900D02*
X84239400Y-92573800D01*
X84239400Y-94385100D02*
X84239400Y-93426200D01*
X84241005Y-98154026D02*
X83980399Y-97893500D01*
X84247542Y-97893500D02*
X83980399Y-97893500D01*
X84285100Y-107339400D02*
X83867117Y-107339400D01*
X84339400Y-103714900D02*
X84339400Y-104034533D01*
X84339400Y-106485099D02*
X84339400Y-105526199D01*
X84339400Y-106814900D02*
X84339400Y-107773800D01*
X84339400Y-109585100D02*
X84339400Y-108626200D01*
X84340499Y-97143400D02*
X85172414Y-97143400D01*
X84340499Y-98643500D02*
X85490500Y-98643500D01*
X84738252Y-106485099D02*
X84339400Y-106485099D01*
X84738252Y-106814900D02*
X84339400Y-106814900D01*
X84841161Y-111102400D02*
X83931484Y-111102400D01*
X84986766Y-96300100D02*
X85500100Y-96300100D01*
X84987249Y-91614900D02*
X84239400Y-91614900D01*
X85084544Y-94899999D02*
X84400100Y-94899999D01*
D11*
X85337400Y-111650000D02*
G75*
G02*
X85117400Y-111650000I-110000J0D01*
G01*
X85117400Y-111650000D02*
G75*
G02*
X85337400Y-111650000I110000J0D01*
G01*
D10*
X85358839Y-111102400D02*
X86268516Y-111102400D01*
X85361460Y-109585100D02*
X84339400Y-109585100D01*
D11*
X85537400Y-100050000D02*
G75*
G02*
X85317400Y-100050000I-110000J0D01*
G01*
X85317400Y-100050000D02*
G75*
G02*
X85537400Y-100050000I110000J0D01*
G01*
D10*
X85490500Y-98056105D02*
X85490500Y-98623400D01*
X85500100Y-96300100D02*
X85800100Y-96000000D01*
X85560600Y-84014900D02*
X85560600Y-84973800D01*
X85560600Y-86785100D02*
X85560600Y-85826200D01*
X85560600Y-92426276D02*
X85560600Y-91934533D01*
X85560600Y-93426200D02*
X85560600Y-94385100D01*
X85560600Y-94385100D02*
X84239400Y-94385100D01*
X85660600Y-103714900D02*
X84339400Y-103714900D01*
X85660600Y-104673800D02*
X85660600Y-103714900D01*
X85660600Y-105845833D02*
X85660600Y-106485099D01*
X85660600Y-107773800D02*
X85660600Y-106814900D01*
X85660600Y-108626200D02*
X85660600Y-109216292D01*
X85800100Y-96000000D02*
X85800100Y-95375078D01*
D11*
X85937400Y-90850000D02*
G75*
G02*
X85717400Y-90850000I-110000J0D01*
G01*
X85717400Y-90850000D02*
G75*
G02*
X85937400Y-90850000I110000J0D01*
G01*
D10*
X85914900Y-83439399D02*
X85914900Y-84760600D01*
X85914900Y-84760600D02*
X86873800Y-84760600D01*
X86077400Y-114850000D02*
X86977400Y-114850000D01*
X86268516Y-109897600D02*
X85358839Y-109897600D01*
X86277400Y-103250000D02*
X87177400Y-103250000D01*
X86366839Y-111000800D02*
X86366839Y-109999200D01*
D11*
X86530800Y-86950000D02*
G75*
G02*
X86310800Y-86950000I-110000J0D01*
G01*
X86310800Y-86950000D02*
G75*
G02*
X86530800Y-86950000I110000J0D01*
G01*
D12*
X86709999Y-104095000D02*
G75*
G02*
X86490001Y-104095000I-109999J0D01*
G01*
X86490001Y-104095000D02*
G75*
G02*
X86709999Y-104095000I109999J0D01*
G01*
D10*
X86870800Y-88486000D02*
X86870800Y-89113900D01*
X86873800Y-83439399D02*
X85914900Y-83439399D01*
X86877400Y-93045073D02*
X86877400Y-92154926D01*
X86977400Y-111950000D02*
X86077400Y-111950000D01*
X86977400Y-112895030D02*
X86977400Y-111950000D01*
X86977400Y-114850000D02*
X86977400Y-113904969D01*
X87110100Y-110749699D02*
X87110100Y-109949700D01*
X87177400Y-100350000D02*
X86277400Y-100350000D01*
X87177400Y-101295030D02*
X87177400Y-100350000D01*
X87177400Y-103250000D02*
X87177400Y-102304969D01*
X87261500Y-104108800D02*
X87561500Y-104107500D01*
X87277400Y-94050000D02*
X88177400Y-94050000D01*
X87439399Y-95614900D02*
X87439399Y-96573800D01*
X87439399Y-98385100D02*
X87439399Y-97426200D01*
X87561500Y-104110100D02*
X87261500Y-104108800D01*
X87726199Y-83439399D02*
X88685099Y-83439399D01*
X88025861Y-109639900D02*
X87419800Y-109639900D01*
X88049900Y-104299900D02*
X89517300Y-104299900D01*
X88049900Y-109299900D02*
X88049900Y-104299900D01*
X88049900Y-109299900D02*
X90012320Y-109299900D01*
X88177400Y-91149999D02*
X87277400Y-91149999D01*
X88177400Y-92095030D02*
X88177400Y-91149999D01*
X88177400Y-94050000D02*
X88177400Y-93104969D01*
X88219800Y-111059599D02*
X87419800Y-111059599D01*
X88270800Y-87300000D02*
X87270700Y-87300000D01*
X88270800Y-87300000D02*
X88270800Y-88164000D01*
X88270800Y-89435900D02*
X88270800Y-90299900D01*
X88270800Y-90299900D02*
X87270700Y-90299900D01*
X88664900Y-101839400D02*
X89132056Y-101839400D01*
X88664900Y-103160600D02*
X88664900Y-101839400D01*
X88685099Y-84760600D02*
X87726199Y-84760600D01*
X88760600Y-95614900D02*
X87439399Y-95614900D01*
X88760600Y-97426200D02*
X88760600Y-98385100D01*
X88760600Y-98385100D02*
X87439399Y-98385100D01*
X88780300Y-111059999D02*
X89580200Y-111059999D01*
X88955279Y-109640400D02*
X89580200Y-109640400D01*
X89610000Y-93999800D02*
X89610000Y-93199700D01*
X89614900Y-94539400D02*
X90573800Y-94539400D01*
X89614900Y-95835671D02*
X89614900Y-94539400D01*
X89614900Y-96438540D02*
X89614900Y-96164329D01*
X89614900Y-98711603D02*
X89614900Y-97839113D01*
X89614900Y-99639400D02*
X90573800Y-99639400D01*
X89614900Y-100960600D02*
X89614900Y-99639400D01*
X89623800Y-103160600D02*
X88664900Y-103160600D01*
X89714900Y-116339400D02*
X89714900Y-116713324D01*
X89714900Y-117660600D02*
X90673800Y-117660600D01*
X89729199Y-111900100D02*
X90729300Y-111900100D01*
X89729199Y-114900000D02*
X89729199Y-114036000D01*
X89729199Y-114900000D02*
X90729300Y-114900000D01*
X89890000Y-109950200D02*
X89890000Y-110750300D01*
X90063700Y-104846300D02*
X89517300Y-104300600D01*
X90204993Y-96139400D02*
X90573800Y-96139400D01*
X90314900Y-109939399D02*
X90314900Y-111260600D01*
X90314900Y-111260600D02*
X91273800Y-111260600D01*
X90349999Y-89627900D02*
X90349999Y-90389900D01*
X90394740Y-92890000D02*
X89919800Y-92890000D01*
X90476199Y-103160600D02*
X91435099Y-103160600D01*
X90501000Y-89475800D02*
X90947224Y-89475800D01*
X90573800Y-95860600D02*
X90303342Y-95860600D01*
X90573800Y-99060600D02*
X90106644Y-99060600D01*
X90573800Y-100960600D02*
X89614900Y-100960600D01*
X90609500Y-104299900D02*
X90063700Y-104846300D01*
X90673800Y-116339400D02*
X89714900Y-116339400D01*
X90719700Y-94309600D02*
X89919800Y-94309600D01*
X91129200Y-113714000D02*
X91129200Y-113086100D01*
X91189900Y-119980200D02*
X91189900Y-120780200D01*
X91190400Y-119419700D02*
X91190400Y-118619800D01*
X91273800Y-109939399D02*
X90314900Y-109939399D01*
X91280200Y-94310100D02*
X92055957Y-94310100D01*
X91426200Y-95860600D02*
X92385100Y-95860600D01*
X91426200Y-99060600D02*
X92385100Y-99060600D01*
X91426199Y-100960600D02*
X92385099Y-100960600D01*
X91435099Y-101839400D02*
X90476199Y-101839400D01*
X91435099Y-103160600D02*
X91435099Y-101839400D01*
X91498999Y-92324100D02*
X90482600Y-92324100D01*
X91499962Y-97460600D02*
X92114642Y-97460600D01*
X91500200Y-118310000D02*
X92300300Y-118310000D01*
X91526199Y-116339400D02*
X92485099Y-116339400D01*
D11*
X91689200Y-115250000D02*
G75*
G02*
X91469200Y-115250000I-110000J0D01*
G01*
X91469200Y-115250000D02*
G75*
G02*
X91689200Y-115250000I110000J0D01*
G01*
D10*
X91650000Y-90119512D02*
X91650000Y-90389900D01*
X91650000Y-92172000D02*
X91650000Y-91410000D01*
X91714900Y-102039400D02*
X92673800Y-102039400D01*
X91714900Y-103360600D02*
X91714900Y-102039400D01*
X91949900Y-104299900D02*
X90609500Y-104299900D01*
X91949900Y-109299900D02*
X91949900Y-104299900D01*
X92126200Y-109939399D02*
X93085100Y-109939399D01*
X92163815Y-99639400D02*
X91426199Y-99639400D01*
X92237577Y-97739400D02*
X91426200Y-97739400D01*
X92299700Y-121089900D02*
X91499700Y-121089900D01*
X92385100Y-94539400D02*
X91426200Y-94539400D01*
X92385100Y-95860600D02*
X92385100Y-94539400D01*
X92385100Y-96139400D02*
X91426200Y-96139400D01*
X92385100Y-96986963D02*
X92385100Y-96139400D01*
X92385100Y-99060600D02*
X92385100Y-98063467D01*
X92389900Y-93200300D02*
X92389900Y-93875300D01*
X92485099Y-116339400D02*
X92485099Y-117660600D01*
X92485099Y-117660600D02*
X91526199Y-117660600D01*
X92583161Y-94349200D02*
X92583161Y-95252281D01*
X92609600Y-119980200D02*
X92609600Y-120780200D01*
X92610000Y-119419700D02*
X92610000Y-118619800D01*
X92660000Y-93749800D02*
X92660000Y-92949700D01*
X92660000Y-96749800D02*
X92660000Y-95949700D01*
X92673800Y-103360600D02*
X91714900Y-103360600D01*
X92681484Y-95452400D02*
X93591161Y-95452400D01*
X93085100Y-109939399D02*
X93085100Y-111260600D01*
X93085100Y-111260600D02*
X92126200Y-111260600D01*
X93089900Y-87880199D02*
X93089900Y-88680200D01*
X93090400Y-87319700D02*
X93090400Y-86519799D01*
X93230100Y-116467500D02*
X95369000Y-116467500D01*
X93230100Y-117293900D02*
X93230100Y-116467500D01*
X93230100Y-121707500D02*
X93230100Y-120256200D01*
D11*
X93360100Y-115300000D02*
G75*
G02*
X93140100Y-115300000I-110000J0D01*
G01*
X93140100Y-115300000D02*
G75*
G02*
X93360100Y-115300000I110000J0D01*
G01*
D10*
X93400200Y-86210000D02*
X94200300Y-86210000D01*
X93526199Y-103360600D02*
X94485099Y-103360600D01*
X93591161Y-94247600D02*
X92681484Y-94247600D01*
X93650000Y-90050000D02*
X93650000Y-89225000D01*
X93650000Y-91800000D02*
X94200000Y-91800000D01*
X93650000Y-92700000D02*
X93650000Y-91800000D01*
X93769701Y-92640000D02*
X92969800Y-92640000D01*
X93769700Y-95640001D02*
X92969800Y-95640001D01*
X93769700Y-97059600D02*
X92969800Y-97059600D01*
X93769700Y-97140000D02*
X93019793Y-97140000D01*
X93769700Y-98559600D02*
X92969799Y-98559600D01*
X93789900Y-114080199D02*
X93789900Y-114880200D01*
X93790400Y-113519700D02*
X93790400Y-112719799D01*
X93839400Y-98914900D02*
X93839400Y-99406643D01*
X93839400Y-101685099D02*
X93839400Y-101414641D01*
X94100200Y-112410000D02*
X94900300Y-112410000D01*
X94108839Y-94247600D02*
X95018516Y-94247600D01*
X94199700Y-88989899D02*
X93399700Y-88989899D01*
X94200000Y-90050000D02*
X93650000Y-90050000D01*
X94330200Y-92640400D02*
X95130201Y-92640400D01*
X94330200Y-95640401D02*
X95130200Y-95640401D01*
X94330200Y-97060100D02*
X94984745Y-97060100D01*
X94330199Y-98560100D02*
X95130200Y-98560100D01*
X94425000Y-89150000D02*
X95250000Y-89150000D01*
X94438000Y-90191500D02*
X95037272Y-90191500D01*
X94438000Y-91608500D02*
X94438000Y-90191500D01*
X94485099Y-102039400D02*
X93673723Y-102039400D01*
X94485099Y-102438252D02*
X94485099Y-102039400D01*
X94509599Y-87880199D02*
X94509599Y-88680200D01*
X94509999Y-87319700D02*
X94509999Y-86519799D01*
X94647600Y-107070872D02*
X94647600Y-107342179D01*
X94647600Y-108833372D02*
X94647600Y-108258839D01*
X94824700Y-115189900D02*
X94099700Y-115189900D01*
X94839291Y-94060100D02*
X95130201Y-94060100D01*
X94949999Y-87450000D02*
X94949999Y-88750000D01*
X94949999Y-88750000D02*
X95441228Y-88750000D01*
X95018516Y-95452400D02*
X94108839Y-95452400D01*
X95116839Y-94349200D02*
X95116839Y-95350800D01*
X95160600Y-98914900D02*
X93839400Y-98914900D01*
X95160600Y-99873800D02*
X95160600Y-98914900D01*
X95160600Y-100726199D02*
X95160600Y-101685099D01*
X95160600Y-101685099D02*
X93839400Y-101685099D01*
X95209600Y-114080199D02*
X95209600Y-114880200D01*
X95210000Y-90199800D02*
X95210000Y-89399700D01*
X95210000Y-113519700D02*
X95210000Y-112719799D01*
X95250000Y-89150000D02*
X95250000Y-89525000D01*
X95250000Y-91848648D02*
X95250000Y-92700000D01*
X95262000Y-90464956D02*
X95262000Y-91608500D01*
X95262000Y-91608500D02*
X94438000Y-91608500D01*
D11*
X95460000Y-88500000D02*
G75*
G02*
X95240000Y-88500000I-110000J0D01*
G01*
X95240000Y-88500000D02*
G75*
G02*
X95460000Y-88500000I110000J0D01*
G01*
D10*
X95390000Y-104080300D02*
X95390000Y-104880200D01*
X95390400Y-103519800D02*
X95390400Y-102719799D01*
X95439900Y-92950300D02*
X95439900Y-93750300D01*
X95439900Y-95950300D02*
X95439900Y-96600300D01*
X95439899Y-97450300D02*
X95439899Y-98250300D01*
X95539400Y-98914900D02*
X95539400Y-99873800D01*
X95539400Y-101685100D02*
X95539400Y-100726200D01*
X95700300Y-102410100D02*
X96500300Y-102410100D01*
X95750800Y-106733161D02*
X94847718Y-106733161D01*
X95750800Y-109266839D02*
X94814879Y-109266839D01*
D11*
X95902500Y-90599900D02*
G75*
G02*
X95682500Y-90599900I-110000J0D01*
G01*
X95682500Y-90599900D02*
G75*
G02*
X95902500Y-90599900I110000J0D01*
G01*
D10*
X95852400Y-107741161D02*
X95852400Y-106831484D01*
X95852400Y-108258839D02*
X95852400Y-109168516D01*
X95923900Y-91048651D02*
X95923900Y-91697399D01*
X96319700Y-89090000D02*
X95519799Y-89090000D01*
X96319700Y-90509600D02*
X95519799Y-90509600D01*
X96499800Y-105190000D02*
X95699700Y-105190000D01*
X96610100Y-109699700D02*
X96610100Y-108899700D01*
X96809599Y-104080300D02*
X96809599Y-104880200D01*
X96810099Y-103519800D02*
X96810099Y-102719799D01*
X96839900Y-107080199D02*
X96839900Y-107880200D01*
X96840400Y-106519700D02*
X96840400Y-105719799D01*
X96860600Y-98914900D02*
X95539400Y-98914900D01*
X96860600Y-99873800D02*
X96860600Y-98914900D01*
X96860600Y-100726200D02*
X96860600Y-101685100D01*
X96860600Y-101685100D02*
X95539400Y-101685100D01*
X96880199Y-89090400D02*
X97680200Y-89090400D01*
D11*
X97260000Y-101850000D02*
G75*
G02*
X97040000Y-101850000I-110000J0D01*
G01*
X97040000Y-101850000D02*
G75*
G02*
X97260000Y-101850000I110000J0D01*
G01*
D10*
X97390401Y-99769800D02*
X97390401Y-99018284D01*
X97489636Y-105410000D02*
X97950300Y-105410000D01*
X97700300Y-98660100D02*
X98500300Y-98660100D01*
X97719800Y-108589900D02*
X96919800Y-108589900D01*
X97719800Y-110009599D02*
X96919800Y-110009599D01*
X97949700Y-108189900D02*
X97149700Y-108189900D01*
X97989899Y-89800300D02*
X97989899Y-90200300D01*
X98094307Y-101730000D02*
X97825653Y-101730000D01*
X98094307Y-104270000D02*
X97557000Y-104270000D01*
X98210100Y-87299700D02*
X98210100Y-86499700D01*
X98230000Y-88170000D02*
X99345217Y-88170000D01*
X98230000Y-90230000D02*
X98230000Y-88170000D01*
X98259599Y-107080199D02*
X98259599Y-107880200D01*
X98259999Y-106519700D02*
X98259999Y-105719799D01*
X98280300Y-110009999D02*
X99080200Y-110009999D01*
X98499800Y-101440000D02*
X97699700Y-101440000D01*
X98588800Y-106503600D02*
X99998800Y-106503600D01*
X98588800Y-112453600D02*
X99998800Y-112453600D01*
X98809600Y-100330300D02*
X98809600Y-101130200D01*
X98939999Y-82685633D02*
X98939999Y-78714366D01*
X99319800Y-86189900D02*
X98519799Y-86189900D01*
X99319800Y-87609600D02*
X98519799Y-87609600D01*
X99370000Y-88343734D02*
X99370000Y-90230000D01*
X99370000Y-90230000D02*
X98230000Y-90230000D01*
X99390000Y-108900200D02*
X99390000Y-109700300D01*
X99843000Y-101730000D02*
X99305692Y-101730000D01*
X99843000Y-104270000D02*
X99305692Y-104270000D01*
X99860000Y-107749800D02*
X99860000Y-106949700D01*
X99880299Y-86190400D02*
X100680200Y-86190400D01*
X99998800Y-104696400D02*
X98588800Y-104696400D01*
X99998800Y-110646400D02*
X98588800Y-110646400D01*
D11*
X100110000Y-84400000D02*
G75*
G02*
X99890000Y-84400000I-110000J0D01*
G01*
X99890000Y-84400000D02*
G75*
G02*
X100110000Y-84400000I110000J0D01*
G01*
D10*
X100189400Y-99259120D02*
X100189400Y-99873800D01*
X100189400Y-101685099D02*
X100189400Y-100726199D01*
X100190400Y-88869700D02*
X100190400Y-88069799D01*
X100255253Y-87610000D02*
X100680200Y-87610000D01*
X100500200Y-87760000D02*
X101300300Y-87760000D01*
X100801200Y-104696400D02*
X102211200Y-104696400D01*
X100801200Y-110646400D02*
X102211200Y-110646400D01*
X100969700Y-106640000D02*
X100169800Y-106640000D01*
X100969700Y-108059600D02*
X100169800Y-108059600D01*
X100990000Y-86500200D02*
X100990000Y-87300300D01*
X101060000Y-78714366D02*
X101060000Y-82685633D01*
X101299700Y-90539899D02*
X100499700Y-90539899D01*
X101314900Y-86039400D02*
X101314900Y-87360600D01*
X101314900Y-87360600D02*
X102273800Y-87360600D01*
X101510600Y-98914900D02*
X100314041Y-98914900D01*
X101510600Y-99873800D02*
X101510600Y-98914900D01*
X101510600Y-100726199D02*
X101510600Y-101685099D01*
X101510600Y-101685099D02*
X100189400Y-101685099D01*
X101530200Y-108060100D02*
X102330200Y-108060100D01*
X101609600Y-89430199D02*
X101609600Y-90230200D01*
X101610000Y-88869700D02*
X101610000Y-88069799D01*
X101689400Y-98914900D02*
X101689400Y-99873800D01*
X101689400Y-101685099D02*
X101689400Y-100726199D01*
X102211200Y-106503600D02*
X100801200Y-106503600D01*
X102211200Y-112453600D02*
X100801200Y-112453600D01*
X102273800Y-86039400D02*
X101314900Y-86039400D01*
X102363600Y-104848800D02*
X102363600Y-106351200D01*
X102363600Y-110798800D02*
X102363600Y-112301200D01*
D11*
X102510000Y-108900000D02*
G75*
G02*
X102290000Y-108900000I-110000J0D01*
G01*
X102290000Y-108900000D02*
G75*
G02*
X102510000Y-108900000I110000J0D01*
G01*
D10*
X102402600Y-91023699D02*
X103076300Y-91023699D01*
X102402600Y-98176099D02*
X103076300Y-98176099D01*
X102487105Y-98914900D02*
X101689400Y-98914900D01*
X102639900Y-106950300D02*
X102639900Y-107750300D01*
X102667537Y-106207250D02*
X102667537Y-104492750D01*
X102882509Y-104270500D02*
X103988081Y-104270500D01*
X103000000Y-108074999D02*
X103000000Y-107100000D01*
X103010600Y-99873800D02*
X103010600Y-99259120D01*
X103010600Y-100726199D02*
X103010600Y-101685099D01*
X103010600Y-101685099D02*
X101689400Y-101685099D01*
X103076300Y-91023699D02*
X103076300Y-91697399D01*
X103076300Y-98176099D02*
X103076300Y-97502500D01*
X103126200Y-86039400D02*
X104085100Y-86039400D01*
X103139400Y-109814900D02*
X104036818Y-109814900D01*
X103139400Y-110773800D02*
X103139400Y-109814900D01*
X103139400Y-111626200D02*
X103139400Y-112585100D01*
X103139400Y-112585100D02*
X104460600Y-112585100D01*
X103514900Y-90089400D02*
X104473800Y-90089400D01*
X103514900Y-91410600D02*
X103514900Y-91086532D01*
X103514900Y-91589400D02*
X104473800Y-91589400D01*
X103514900Y-92910600D02*
X103514900Y-91589400D01*
X103514900Y-94410600D02*
X103514900Y-93438396D01*
X103514900Y-94589400D02*
X104473800Y-94589400D01*
X103514900Y-94913467D02*
X103514900Y-94589400D01*
X103514900Y-96089400D02*
X104473800Y-96089400D01*
X103514900Y-97410600D02*
X103514900Y-96089400D01*
X103514900Y-97589400D02*
X104473800Y-97589400D01*
X103514900Y-98910600D02*
X103514900Y-97589400D01*
X103590000Y-100630300D02*
X103590000Y-101430201D01*
X103590400Y-100069801D02*
X103590400Y-99269800D01*
X103900300Y-98960101D02*
X104700300Y-98960101D01*
X104006644Y-93089400D02*
X104473800Y-93089400D01*
X104014900Y-122239400D02*
X104973800Y-122239400D01*
X104085100Y-86039400D02*
X104085100Y-87360600D01*
X104085100Y-87360600D02*
X103126200Y-87360600D01*
X104460600Y-110011597D02*
X104460600Y-110773800D01*
X104460600Y-112585100D02*
X104460600Y-111626200D01*
X104473800Y-91410600D02*
X103514900Y-91410600D01*
X104473800Y-92910600D02*
X103514900Y-92910600D01*
X104473800Y-94410600D02*
X103514900Y-94410600D01*
X104473800Y-95910600D02*
X103514900Y-95910600D01*
X104473800Y-97410600D02*
X103514900Y-97410600D01*
X104473800Y-98910600D02*
X103514900Y-98910600D01*
X104604751Y-116467500D02*
X106670100Y-116467500D01*
X104699800Y-101740000D02*
X103899700Y-101740000D01*
X104739400Y-110011597D02*
X104739400Y-110773800D01*
X104739400Y-112585100D02*
X104739400Y-111626200D01*
X104973800Y-123560600D02*
X104014900Y-123560600D01*
X105010099Y-100069801D02*
X105010099Y-99269800D01*
X105011839Y-104270500D02*
X106137884Y-104270500D01*
X105190000Y-101080244D02*
X105190000Y-101430201D01*
X105190400Y-100069801D02*
X105190400Y-99391013D01*
X105326200Y-91410600D02*
X106285100Y-91410600D01*
X105326199Y-92910600D02*
X105940879Y-92910600D01*
X105326200Y-94410600D02*
X106285100Y-94410600D01*
X105326200Y-95910600D02*
X106260513Y-95910600D01*
X105326200Y-97410600D02*
X106285100Y-97410600D01*
X105326200Y-98910600D02*
X106285100Y-98910600D01*
X105600300Y-98960100D02*
X106300300Y-98960100D01*
X105826200Y-123560600D02*
X106785100Y-123560600D01*
X106000000Y-107100000D02*
X106000000Y-109100000D01*
X106060600Y-109814900D02*
X104963754Y-109814900D01*
X106060600Y-110773800D02*
X106060600Y-109814900D01*
X106060600Y-111626200D02*
X106060600Y-112585100D01*
X106060600Y-112585100D02*
X104739400Y-112585100D01*
X106186752Y-97589400D02*
X105326200Y-97589400D01*
X106285100Y-90089400D02*
X105326200Y-90089400D01*
X106285100Y-91410600D02*
X106285100Y-90089400D01*
X106285099Y-91589400D02*
X105326199Y-91589400D01*
X106285099Y-92761030D02*
X106285099Y-91589400D01*
X106285100Y-93089400D02*
X105326200Y-93089400D01*
X106285100Y-94410600D02*
X106285100Y-93089400D01*
X106285100Y-94589400D02*
X105326200Y-94589400D01*
X106285100Y-96089400D02*
X105326200Y-96089400D01*
X106285100Y-97410600D02*
X106285100Y-96089400D01*
X106285100Y-98910600D02*
X106285100Y-97938396D01*
X106299800Y-101740000D02*
X105499700Y-101740000D01*
X106332383Y-104471582D02*
X106332383Y-104884716D01*
X106332383Y-105649011D02*
X106332383Y-106186083D01*
X106360100Y-107749700D02*
X106360100Y-106949700D01*
X106609600Y-100630300D02*
X106609600Y-101430201D01*
X106610100Y-100069801D02*
X106610100Y-99269800D01*
X106670100Y-116467500D02*
X106670100Y-117258800D01*
X106670100Y-120221100D02*
X106670100Y-121707500D01*
X106670100Y-121707500D02*
X93230100Y-121707500D01*
X106785100Y-122239400D02*
X105826200Y-122239400D01*
X106785100Y-123560600D02*
X106785100Y-122239400D01*
X107290001Y-99530300D02*
X107290001Y-100330200D01*
X107290401Y-98969800D02*
X107290401Y-98169800D01*
X107333161Y-106100800D02*
X107333161Y-105099200D01*
X107333161Y-109800799D02*
X107333161Y-108799200D01*
X107431484Y-104997600D02*
X108341161Y-104997600D01*
X107431484Y-108697600D02*
X108341161Y-108697600D01*
X107469800Y-106639901D02*
X106669800Y-106639901D01*
X107469800Y-108059600D02*
X106669800Y-108059600D01*
D11*
X107619800Y-111150000D02*
G75*
G02*
X107399800Y-111150000I-110000J0D01*
G01*
X107399800Y-111150000D02*
G75*
G02*
X107619800Y-111150000I110000J0D01*
G01*
D10*
X107514900Y-120339400D02*
X108473800Y-120339400D01*
X107514900Y-121660600D02*
X107514900Y-120339400D01*
X107600300Y-97860100D02*
X108400300Y-97860100D01*
X107959800Y-113345073D02*
X107959800Y-112454926D01*
X108030300Y-108060000D02*
X108830200Y-108060000D01*
X108341161Y-106202400D02*
X107431484Y-106202400D01*
X108341161Y-109902399D02*
X107431484Y-109902399D01*
X108359800Y-114350000D02*
X109259800Y-114350000D01*
X108399800Y-100640000D02*
X107599700Y-100640000D01*
X108473800Y-121660600D02*
X107514900Y-121660600D01*
X108709600Y-99530300D02*
X108709600Y-100330200D01*
X108710100Y-98969800D02*
X108710100Y-98169800D01*
X108858839Y-106202400D02*
X109768516Y-106202400D01*
X108858839Y-109902399D02*
X109768516Y-109902399D01*
X109114900Y-90139400D02*
X110073800Y-90139400D01*
X109114900Y-91460600D02*
X109114900Y-90139400D01*
X109140000Y-106950200D02*
X109140000Y-107750300D01*
X109259800Y-111450000D02*
X108359800Y-111450000D01*
X109259800Y-111748430D02*
X109259800Y-111450000D01*
X109259800Y-114350000D02*
X109259800Y-113404969D01*
X109323600Y-92061300D02*
X112034773Y-92061300D01*
X109323600Y-97338700D02*
X109323600Y-92061300D01*
X109326200Y-121660600D02*
X110285100Y-121660600D01*
X109768516Y-104997600D02*
X108858839Y-104997600D01*
X109768516Y-108697600D02*
X108858839Y-108697600D01*
X109866839Y-106100800D02*
X109866839Y-105099200D01*
X109866839Y-109800799D02*
X109866839Y-108799200D01*
X110073800Y-91460600D02*
X109114900Y-91460600D01*
X110137576Y-120339400D02*
X109326200Y-120339400D01*
X110285100Y-121660600D02*
X110285100Y-121037392D01*
X110439400Y-106914900D02*
X110439400Y-107873800D01*
X110439400Y-109685100D02*
X110439400Y-108726200D01*
X110450000Y-86050000D02*
X110450000Y-84181100D01*
X110450000Y-86050000D02*
X111318900Y-86050000D01*
X110531254Y-102800000D02*
X110531254Y-103639999D01*
X110796191Y-103551660D02*
X114203809Y-103551660D01*
X110796191Y-105548340D02*
X114203809Y-105548340D01*
X111760600Y-106914900D02*
X110439400Y-106914900D01*
X111760600Y-107873800D02*
X111760600Y-106914900D01*
X111760600Y-108726200D02*
X111760600Y-109685100D01*
X111760600Y-109685100D02*
X110439400Y-109685100D01*
X111885100Y-90139400D02*
X110926200Y-90139400D01*
X111885100Y-91460600D02*
X111885100Y-90139400D01*
X111919922Y-103551660D02*
X111919922Y-105548340D01*
D11*
X112060900Y-99050000D02*
G75*
G02*
X111840900Y-99050000I-110000J0D01*
G01*
X111840900Y-99050000D02*
G75*
G02*
X112060900Y-99050000I110000J0D01*
G01*
D10*
X112744280Y-113417368D02*
X113309799Y-113417368D01*
X112744280Y-114613340D02*
X112744280Y-110986660D01*
X112955079Y-92061300D02*
X113676400Y-92061300D01*
X113210799Y-98460800D02*
X114989200Y-98460800D01*
X113210799Y-101539200D02*
X114989200Y-101539200D01*
X113240000Y-115244538D02*
X113959999Y-115244538D01*
X113468900Y-82175000D02*
X111430800Y-82175000D01*
X113514900Y-106539400D02*
X113514900Y-107860600D01*
X113514900Y-107860600D02*
X114473800Y-107860600D01*
X113676400Y-92061300D02*
X113676400Y-97338700D01*
X113676400Y-97338700D02*
X109323600Y-97338700D01*
X113700000Y-89200000D02*
X113700000Y-90200100D01*
X113700000Y-89200000D02*
X114564000Y-89200000D01*
D12*
X113959999Y-87200000D02*
G75*
G02*
X113740001Y-87200000I-109999J0D01*
G01*
X113740001Y-87200000D02*
G75*
G02*
X113959999Y-87200000I109999J0D01*
G01*
D10*
X113875318Y-113417368D02*
X114455719Y-113417368D01*
X114102440Y-86050000D02*
X114450000Y-86050000D01*
D11*
X114360000Y-92050000D02*
G75*
G02*
X114140000Y-92050000I-110000J0D01*
G01*
X114140000Y-92050000D02*
G75*
G02*
X114360000Y-92050000I110000J0D01*
G01*
D10*
X114450000Y-86050000D02*
X114450000Y-84181100D01*
X114455719Y-114613340D02*
X114455719Y-110986660D01*
X114473800Y-106539400D02*
X113514900Y-106539400D01*
X115473723Y-106539400D02*
X116285100Y-106539400D01*
D11*
X115940100Y-97405000D02*
G75*
G02*
X115720100Y-97405000I-110000J0D01*
G01*
X115720100Y-97405000D02*
G75*
G02*
X115940100Y-97405000I110000J0D01*
G01*
D10*
X115835900Y-89200000D02*
X116502414Y-89200000D01*
X116285100Y-106539400D02*
X116285100Y-107860600D01*
X116285100Y-107860600D02*
X115326200Y-107860600D01*
X116514900Y-105739400D02*
X116514900Y-107060600D01*
X116514900Y-107060600D02*
X117473800Y-107060600D01*
X116699900Y-89907387D02*
X116699900Y-90200100D01*
X116739400Y-83814900D02*
X116739400Y-84773800D01*
X116739400Y-86585100D02*
X116739400Y-85626200D01*
X117473800Y-105739400D02*
X116514900Y-105739400D01*
X118060600Y-83814900D02*
X116739400Y-83814900D01*
X118060600Y-84773800D02*
X118060600Y-83814900D01*
X118060600Y-86585100D02*
X116739400Y-86585100D01*
X118326200Y-105739400D02*
X119285100Y-105739400D01*
X119285100Y-105739400D02*
X119285100Y-107060600D01*
X119285100Y-107060600D02*
X118326200Y-107060600D01*
X121288561Y-104469000D02*
X119450500Y-104469000D01*
X121288950Y-95529000D02*
X119450100Y-95529000D01*
X124216865Y-95529000D02*
X123550100Y-95529000D01*
X124217085Y-104469000D02*
X123550500Y-104469000D01*
X82133333Y-116563855D02*
X82133333Y-115763855D01*
X82133333Y-115763855D02*
X82380952Y-115763855D01*
X82380952Y-115763855D02*
X82442857Y-115801950D01*
X82442857Y-115801950D02*
X82473810Y-115840045D01*
X82473810Y-115840045D02*
X82504762Y-115916236D01*
X82504762Y-115916236D02*
X82504762Y-116030521D01*
X82504762Y-116030521D02*
X82473810Y-116106712D01*
X82473810Y-116106712D02*
X82442857Y-116144807D01*
X82442857Y-116144807D02*
X82380952Y-116182902D01*
X82380952Y-116182902D02*
X82133333Y-116182902D01*
X82721429Y-115763855D02*
X82876191Y-116563855D01*
X82876191Y-116563855D02*
X83000000Y-115992426D01*
X83000000Y-115992426D02*
X83123810Y-116563855D01*
X83123810Y-116563855D02*
X83278572Y-115763855D01*
X83897619Y-116563855D02*
X83680952Y-116182902D01*
X83526190Y-116563855D02*
X83526190Y-115763855D01*
X83526190Y-115763855D02*
X83773809Y-115763855D01*
X83773809Y-115763855D02*
X83835714Y-115801950D01*
X83835714Y-115801950D02*
X83866667Y-115840045D01*
X83866667Y-115840045D02*
X83897619Y-115916236D01*
X83897619Y-115916236D02*
X83897619Y-116030521D01*
X83897619Y-116030521D02*
X83866667Y-116106712D01*
X83866667Y-116106712D02*
X83835714Y-116144807D01*
X83835714Y-116144807D02*
X83773809Y-116182902D01*
X83773809Y-116182902D02*
X83526190Y-116182902D01*
X89320238Y-118544807D02*
X89536905Y-118544807D01*
X89629762Y-118963855D02*
X89320238Y-118963855D01*
X89320238Y-118963855D02*
X89320238Y-118163855D01*
X89320238Y-118163855D02*
X89629762Y-118163855D01*
X89908333Y-118963855D02*
X89908333Y-118163855D01*
X89908333Y-118163855D02*
X90279762Y-118963855D01*
X90279762Y-118963855D02*
X90279762Y-118163855D01*
X108527380Y-104263855D02*
X108527380Y-103463855D01*
X108527380Y-103463855D02*
X108682142Y-103463855D01*
X108682142Y-103463855D02*
X108774999Y-103501950D01*
X108774999Y-103501950D02*
X108836904Y-103578140D01*
X108836904Y-103578140D02*
X108867857Y-103654331D01*
X108867857Y-103654331D02*
X108898809Y-103806712D01*
X108898809Y-103806712D02*
X108898809Y-103920998D01*
X108898809Y-103920998D02*
X108867857Y-104073379D01*
X108867857Y-104073379D02*
X108836904Y-104149569D01*
X108836904Y-104149569D02*
X108774999Y-104225760D01*
X108774999Y-104225760D02*
X108682142Y-104263855D01*
X108682142Y-104263855D02*
X108527380Y-104263855D01*
X109177380Y-103959093D02*
X109672619Y-103959093D01*
X108727380Y-101963855D02*
X108727380Y-101163855D01*
X108727380Y-101163855D02*
X108882142Y-101163855D01*
X108882142Y-101163855D02*
X108974999Y-101201950D01*
X108974999Y-101201950D02*
X109036904Y-101278140D01*
X109036904Y-101278140D02*
X109067857Y-101354331D01*
X109067857Y-101354331D02*
X109098809Y-101506712D01*
X109098809Y-101506712D02*
X109098809Y-101620998D01*
X109098809Y-101620998D02*
X109067857Y-101773379D01*
X109067857Y-101773379D02*
X109036904Y-101849569D01*
X109036904Y-101849569D02*
X108974999Y-101925760D01*
X108974999Y-101925760D02*
X108882142Y-101963855D01*
X108882142Y-101963855D02*
X108727380Y-101963855D01*
X109377380Y-101659093D02*
X109872619Y-101659093D01*
X109624999Y-101963855D02*
X109624999Y-101354331D01*
X109195238Y-116663855D02*
X109597619Y-116663855D01*
X109597619Y-116663855D02*
X109380952Y-116968617D01*
X109380952Y-116968617D02*
X109473809Y-116968617D01*
X109473809Y-116968617D02*
X109535714Y-117006712D01*
X109535714Y-117006712D02*
X109566666Y-117044807D01*
X109566666Y-117044807D02*
X109597619Y-117120998D01*
X109597619Y-117120998D02*
X109597619Y-117311474D01*
X109597619Y-117311474D02*
X109566666Y-117387664D01*
X109566666Y-117387664D02*
X109535714Y-117425760D01*
X109535714Y-117425760D02*
X109473809Y-117463855D01*
X109473809Y-117463855D02*
X109288095Y-117463855D01*
X109288095Y-117463855D02*
X109226190Y-117425760D01*
X109226190Y-117425760D02*
X109195238Y-117387664D01*
X109783333Y-116663855D02*
X110000000Y-117463855D01*
X110000000Y-117463855D02*
X110216667Y-116663855D01*
X110371429Y-116663855D02*
X110773810Y-116663855D01*
X110773810Y-116663855D02*
X110557143Y-116968617D01*
X110557143Y-116968617D02*
X110650000Y-116968617D01*
X110650000Y-116968617D02*
X110711905Y-117006712D01*
X110711905Y-117006712D02*
X110742857Y-117044807D01*
X110742857Y-117044807D02*
X110773810Y-117120998D01*
X110773810Y-117120998D02*
X110773810Y-117311474D01*
X110773810Y-117311474D02*
X110742857Y-117387664D01*
X110742857Y-117387664D02*
X110711905Y-117425760D01*
X110711905Y-117425760D02*
X110650000Y-117463855D01*
X110650000Y-117463855D02*
X110464286Y-117463855D01*
X110464286Y-117463855D02*
X110402381Y-117425760D01*
X110402381Y-117425760D02*
X110371429Y-117387664D01*
X117108333Y-110563855D02*
X117325000Y-111363855D01*
X117325000Y-111363855D02*
X117541667Y-110563855D01*
X117975000Y-110944807D02*
X118067857Y-110982902D01*
X118067857Y-110982902D02*
X118098810Y-111020998D01*
X118098810Y-111020998D02*
X118129762Y-111097188D01*
X118129762Y-111097188D02*
X118129762Y-111211474D01*
X118129762Y-111211474D02*
X118098810Y-111287664D01*
X118098810Y-111287664D02*
X118067857Y-111325760D01*
X118067857Y-111325760D02*
X118005952Y-111363855D01*
X118005952Y-111363855D02*
X117758333Y-111363855D01*
X117758333Y-111363855D02*
X117758333Y-110563855D01*
X117758333Y-110563855D02*
X117975000Y-110563855D01*
X117975000Y-110563855D02*
X118036905Y-110601950D01*
X118036905Y-110601950D02*
X118067857Y-110640045D01*
X118067857Y-110640045D02*
X118098810Y-110716236D01*
X118098810Y-110716236D02*
X118098810Y-110792426D01*
X118098810Y-110792426D02*
X118067857Y-110868617D01*
X118067857Y-110868617D02*
X118036905Y-110906712D01*
X118036905Y-110906712D02*
X117975000Y-110944807D01*
X117975000Y-110944807D02*
X117758333Y-110944807D01*
X118408333Y-110563855D02*
X118408333Y-111211474D01*
X118408333Y-111211474D02*
X118439286Y-111287664D01*
X118439286Y-111287664D02*
X118470238Y-111325760D01*
X118470238Y-111325760D02*
X118532143Y-111363855D01*
X118532143Y-111363855D02*
X118655952Y-111363855D01*
X118655952Y-111363855D02*
X118717857Y-111325760D01*
X118717857Y-111325760D02*
X118748810Y-111287664D01*
X118748810Y-111287664D02*
X118779762Y-111211474D01*
X118779762Y-111211474D02*
X118779762Y-110563855D01*
X119058333Y-111325760D02*
X119151190Y-111363855D01*
X119151190Y-111363855D02*
X119305952Y-111363855D01*
X119305952Y-111363855D02*
X119367857Y-111325760D01*
X119367857Y-111325760D02*
X119398809Y-111287664D01*
X119398809Y-111287664D02*
X119429762Y-111211474D01*
X119429762Y-111211474D02*
X119429762Y-111135283D01*
X119429762Y-111135283D02*
X119398809Y-111059093D01*
X119398809Y-111059093D02*
X119367857Y-111020998D01*
X119367857Y-111020998D02*
X119305952Y-110982902D01*
X119305952Y-110982902D02*
X119182143Y-110944807D01*
X119182143Y-110944807D02*
X119120238Y-110906712D01*
X119120238Y-110906712D02*
X119089285Y-110868617D01*
X119089285Y-110868617D02*
X119058333Y-110792426D01*
X119058333Y-110792426D02*
X119058333Y-110716236D01*
X119058333Y-110716236D02*
X119089285Y-110640045D01*
X119089285Y-110640045D02*
X119120238Y-110601950D01*
X119120238Y-110601950D02*
X119182143Y-110563855D01*
X119182143Y-110563855D02*
X119336904Y-110563855D01*
X119336904Y-110563855D02*
X119429762Y-110601950D01*
X113701950Y-119295237D02*
X113663855Y-119357142D01*
X113663855Y-119357142D02*
X113663855Y-119449999D01*
X113663855Y-119449999D02*
X113701950Y-119542856D01*
X113701950Y-119542856D02*
X113778140Y-119604761D01*
X113778140Y-119604761D02*
X113854331Y-119635714D01*
X113854331Y-119635714D02*
X114006712Y-119666666D01*
X114006712Y-119666666D02*
X114120998Y-119666666D01*
X114120998Y-119666666D02*
X114273379Y-119635714D01*
X114273379Y-119635714D02*
X114349569Y-119604761D01*
X114349569Y-119604761D02*
X114425760Y-119542856D01*
X114425760Y-119542856D02*
X114463855Y-119449999D01*
X114463855Y-119449999D02*
X114463855Y-119388095D01*
X114463855Y-119388095D02*
X114425760Y-119295237D01*
X114425760Y-119295237D02*
X114387664Y-119264285D01*
X114387664Y-119264285D02*
X114120998Y-119264285D01*
X114120998Y-119264285D02*
X114120998Y-119388095D01*
X114463855Y-118985714D02*
X113663855Y-118985714D01*
X113663855Y-118985714D02*
X114463855Y-118614285D01*
X114463855Y-118614285D02*
X113663855Y-118614285D01*
X114463855Y-118304762D02*
X113663855Y-118304762D01*
X113663855Y-118304762D02*
X113663855Y-118150000D01*
X113663855Y-118150000D02*
X113701950Y-118057143D01*
X113701950Y-118057143D02*
X113778140Y-117995238D01*
X113778140Y-117995238D02*
X113854331Y-117964285D01*
X113854331Y-117964285D02*
X114006712Y-117933333D01*
X114006712Y-117933333D02*
X114120998Y-117933333D01*
X114120998Y-117933333D02*
X114273379Y-117964285D01*
X114273379Y-117964285D02*
X114349569Y-117995238D01*
X114349569Y-117995238D02*
X114425760Y-118057143D01*
X114425760Y-118057143D02*
X114463855Y-118150000D01*
X114463855Y-118150000D02*
X114463855Y-118304762D01*
X78014285Y-92744807D02*
X78128571Y-92782902D01*
X78128571Y-92782902D02*
X78166666Y-92820998D01*
X78166666Y-92820998D02*
X78204762Y-92897188D01*
X78204762Y-92897188D02*
X78204762Y-93011474D01*
X78204762Y-93011474D02*
X78166666Y-93087664D01*
X78166666Y-93087664D02*
X78128571Y-93125760D01*
X78128571Y-93125760D02*
X78052381Y-93163855D01*
X78052381Y-93163855D02*
X77747619Y-93163855D01*
X77747619Y-93163855D02*
X77747619Y-92363855D01*
X77747619Y-92363855D02*
X78014285Y-92363855D01*
X78014285Y-92363855D02*
X78090476Y-92401950D01*
X78090476Y-92401950D02*
X78128571Y-92440045D01*
X78128571Y-92440045D02*
X78166666Y-92516236D01*
X78166666Y-92516236D02*
X78166666Y-92592426D01*
X78166666Y-92592426D02*
X78128571Y-92668617D01*
X78128571Y-92668617D02*
X78090476Y-92706712D01*
X78090476Y-92706712D02*
X78014285Y-92744807D01*
X78014285Y-92744807D02*
X77747619Y-92744807D01*
X78700000Y-92363855D02*
X78852381Y-92363855D01*
X78852381Y-92363855D02*
X78928571Y-92401950D01*
X78928571Y-92401950D02*
X79004762Y-92478140D01*
X79004762Y-92478140D02*
X79042857Y-92630521D01*
X79042857Y-92630521D02*
X79042857Y-92897188D01*
X79042857Y-92897188D02*
X79004762Y-93049569D01*
X79004762Y-93049569D02*
X78928571Y-93125760D01*
X78928571Y-93125760D02*
X78852381Y-93163855D01*
X78852381Y-93163855D02*
X78700000Y-93163855D01*
X78700000Y-93163855D02*
X78623809Y-93125760D01*
X78623809Y-93125760D02*
X78547619Y-93049569D01*
X78547619Y-93049569D02*
X78509523Y-92897188D01*
X78509523Y-92897188D02*
X78509523Y-92630521D01*
X78509523Y-92630521D02*
X78547619Y-92478140D01*
X78547619Y-92478140D02*
X78623809Y-92401950D01*
X78623809Y-92401950D02*
X78700000Y-92363855D01*
X79538095Y-92363855D02*
X79690476Y-92363855D01*
X79690476Y-92363855D02*
X79766666Y-92401950D01*
X79766666Y-92401950D02*
X79842857Y-92478140D01*
X79842857Y-92478140D02*
X79880952Y-92630521D01*
X79880952Y-92630521D02*
X79880952Y-92897188D01*
X79880952Y-92897188D02*
X79842857Y-93049569D01*
X79842857Y-93049569D02*
X79766666Y-93125760D01*
X79766666Y-93125760D02*
X79690476Y-93163855D01*
X79690476Y-93163855D02*
X79538095Y-93163855D01*
X79538095Y-93163855D02*
X79461904Y-93125760D01*
X79461904Y-93125760D02*
X79385714Y-93049569D01*
X79385714Y-93049569D02*
X79347618Y-92897188D01*
X79347618Y-92897188D02*
X79347618Y-92630521D01*
X79347618Y-92630521D02*
X79385714Y-92478140D01*
X79385714Y-92478140D02*
X79461904Y-92401950D01*
X79461904Y-92401950D02*
X79538095Y-92363855D01*
X80109523Y-92363855D02*
X80566666Y-92363855D01*
X80338094Y-93163855D02*
X80338094Y-92363855D01*
X78238095Y-107763855D02*
X77971428Y-107382902D01*
X77780952Y-107763855D02*
X77780952Y-106963855D01*
X77780952Y-106963855D02*
X78085714Y-106963855D01*
X78085714Y-106963855D02*
X78161904Y-107001950D01*
X78161904Y-107001950D02*
X78199999Y-107040045D01*
X78199999Y-107040045D02*
X78238095Y-107116236D01*
X78238095Y-107116236D02*
X78238095Y-107230521D01*
X78238095Y-107230521D02*
X78199999Y-107306712D01*
X78199999Y-107306712D02*
X78161904Y-107344807D01*
X78161904Y-107344807D02*
X78085714Y-107382902D01*
X78085714Y-107382902D02*
X77780952Y-107382902D01*
X78580952Y-107344807D02*
X78847618Y-107344807D01*
X78961904Y-107763855D02*
X78580952Y-107763855D01*
X78580952Y-107763855D02*
X78580952Y-106963855D01*
X78580952Y-106963855D02*
X78961904Y-106963855D01*
X79266666Y-107725760D02*
X79380952Y-107763855D01*
X79380952Y-107763855D02*
X79571428Y-107763855D01*
X79571428Y-107763855D02*
X79647619Y-107725760D01*
X79647619Y-107725760D02*
X79685714Y-107687664D01*
X79685714Y-107687664D02*
X79723809Y-107611474D01*
X79723809Y-107611474D02*
X79723809Y-107535283D01*
X79723809Y-107535283D02*
X79685714Y-107459093D01*
X79685714Y-107459093D02*
X79647619Y-107420998D01*
X79647619Y-107420998D02*
X79571428Y-107382902D01*
X79571428Y-107382902D02*
X79419047Y-107344807D01*
X79419047Y-107344807D02*
X79342857Y-107306712D01*
X79342857Y-107306712D02*
X79304762Y-107268617D01*
X79304762Y-107268617D02*
X79266666Y-107192426D01*
X79266666Y-107192426D02*
X79266666Y-107116236D01*
X79266666Y-107116236D02*
X79304762Y-107040045D01*
X79304762Y-107040045D02*
X79342857Y-107001950D01*
X79342857Y-107001950D02*
X79419047Y-106963855D01*
X79419047Y-106963855D02*
X79609524Y-106963855D01*
X79609524Y-106963855D02*
X79723809Y-107001950D01*
X80066667Y-107344807D02*
X80333333Y-107344807D01*
X80447619Y-107763855D02*
X80066667Y-107763855D01*
X80066667Y-107763855D02*
X80066667Y-106963855D01*
X80066667Y-106963855D02*
X80447619Y-106963855D01*
X80676191Y-106963855D02*
X81133334Y-106963855D01*
X80904762Y-107763855D02*
X80904762Y-106963855D01*
X105609523Y-114944807D02*
X105723809Y-114982902D01*
X105723809Y-114982902D02*
X105761904Y-115020998D01*
X105761904Y-115020998D02*
X105800000Y-115097188D01*
X105800000Y-115097188D02*
X105800000Y-115211474D01*
X105800000Y-115211474D02*
X105761904Y-115287664D01*
X105761904Y-115287664D02*
X105723809Y-115325760D01*
X105723809Y-115325760D02*
X105647619Y-115363855D01*
X105647619Y-115363855D02*
X105342857Y-115363855D01*
X105342857Y-115363855D02*
X105342857Y-114563855D01*
X105342857Y-114563855D02*
X105609523Y-114563855D01*
X105609523Y-114563855D02*
X105685714Y-114601950D01*
X105685714Y-114601950D02*
X105723809Y-114640045D01*
X105723809Y-114640045D02*
X105761904Y-114716236D01*
X105761904Y-114716236D02*
X105761904Y-114792426D01*
X105761904Y-114792426D02*
X105723809Y-114868617D01*
X105723809Y-114868617D02*
X105685714Y-114906712D01*
X105685714Y-114906712D02*
X105609523Y-114944807D01*
X105609523Y-114944807D02*
X105342857Y-114944807D01*
X106104761Y-115135283D02*
X106485714Y-115135283D01*
X106028571Y-115363855D02*
X106295238Y-114563855D01*
X106295238Y-114563855D02*
X106561904Y-115363855D01*
X106714285Y-114563855D02*
X107171428Y-114563855D01*
X106942856Y-115363855D02*
X106942856Y-114563855D01*
X108161904Y-85944807D02*
X108276190Y-85982902D01*
X108276190Y-85982902D02*
X108314285Y-86020998D01*
X108314285Y-86020998D02*
X108352381Y-86097188D01*
X108352381Y-86097188D02*
X108352381Y-86211474D01*
X108352381Y-86211474D02*
X108314285Y-86287664D01*
X108314285Y-86287664D02*
X108276190Y-86325760D01*
X108276190Y-86325760D02*
X108200000Y-86363855D01*
X108200000Y-86363855D02*
X107895238Y-86363855D01*
X107895238Y-86363855D02*
X107895238Y-85563855D01*
X107895238Y-85563855D02*
X108161904Y-85563855D01*
X108161904Y-85563855D02*
X108238095Y-85601950D01*
X108238095Y-85601950D02*
X108276190Y-85640045D01*
X108276190Y-85640045D02*
X108314285Y-85716236D01*
X108314285Y-85716236D02*
X108314285Y-85792426D01*
X108314285Y-85792426D02*
X108276190Y-85868617D01*
X108276190Y-85868617D02*
X108238095Y-85906712D01*
X108238095Y-85906712D02*
X108161904Y-85944807D01*
X108161904Y-85944807D02*
X107895238Y-85944807D01*
X108695238Y-86059093D02*
X109304762Y-86059093D01*
X117461904Y-89944807D02*
X117576190Y-89982902D01*
X117576190Y-89982902D02*
X117614285Y-90020998D01*
X117614285Y-90020998D02*
X117652381Y-90097188D01*
X117652381Y-90097188D02*
X117652381Y-90211474D01*
X117652381Y-90211474D02*
X117614285Y-90287664D01*
X117614285Y-90287664D02*
X117576190Y-90325760D01*
X117576190Y-90325760D02*
X117500000Y-90363855D01*
X117500000Y-90363855D02*
X117195238Y-90363855D01*
X117195238Y-90363855D02*
X117195238Y-89563855D01*
X117195238Y-89563855D02*
X117461904Y-89563855D01*
X117461904Y-89563855D02*
X117538095Y-89601950D01*
X117538095Y-89601950D02*
X117576190Y-89640045D01*
X117576190Y-89640045D02*
X117614285Y-89716236D01*
X117614285Y-89716236D02*
X117614285Y-89792426D01*
X117614285Y-89792426D02*
X117576190Y-89868617D01*
X117576190Y-89868617D02*
X117538095Y-89906712D01*
X117538095Y-89906712D02*
X117461904Y-89944807D01*
X117461904Y-89944807D02*
X117195238Y-89944807D01*
X117995238Y-90059093D02*
X118604762Y-90059093D01*
X118300000Y-90363855D02*
X118300000Y-89754331D01*
%TO.C,TP1*%
X110700000Y-119000000D02*
G75*
G02*
X109300000Y-119000000I-700000J0D01*
G01*
X109300000Y-119000000D02*
G75*
G02*
X110700000Y-119000000I700000J0D01*
G01*
%TO.C,TP6*%
X119000000Y-112900000D02*
G75*
G02*
X117600000Y-112900000I-700000J0D01*
G01*
X117600000Y-112900000D02*
G75*
G02*
X119000000Y-112900000I700000J0D01*
G01*
%TO.C,TP8*%
X86000000Y-116400000D02*
G75*
G02*
X84600000Y-116400000I-700000J0D01*
G01*
X84600000Y-116400000D02*
G75*
G02*
X86000000Y-116400000I700000J0D01*
G01*
%TO.C,TP2*%
X112900000Y-118900000D02*
G75*
G02*
X111500000Y-118900000I-700000J0D01*
G01*
X111500000Y-118900000D02*
G75*
G02*
X112900000Y-118900000I700000J0D01*
G01*
%TO.C,TP7*%
X104900000Y-114100000D02*
G75*
G02*
X103500000Y-114100000I-700000J0D01*
G01*
X103500000Y-114100000D02*
G75*
G02*
X104900000Y-114100000I700000J0D01*
G01*
%TO.C,TP3*%
X88300000Y-116400000D02*
G75*
G02*
X86900000Y-116400000I-700000J0D01*
G01*
X86900000Y-116400000D02*
G75*
G02*
X88300000Y-116400000I700000J0D01*
G01*
%TD*%
M02*
