%TF.GenerationSoftware,KiCad,Pcbnew,10.0.6*%
%TF.CreationDate,2026-09-09T21:08:25+08:00*%
%TF.ProjectId,JXBadge_V1,4a584261-6467-4655-9f56-312e6b696361,rev?*%
%TF.SameCoordinates,Original*%
%TF.FileFunction,Copper,L3,Inr*%
%TF.FilePolarity,Positive*%
%FSLAX46Y46*%
G04 Gerber Fmt 4.6, Leading zero omitted, Abs format (unit mm)*
G04 Created by KiCad (PCBNEW 10.0.6) date 2026-09-09 21:08:25*
%MOMM*%
%LPD*%
G01*
G04 APERTURE LIST*
%TA.AperFunction,ComponentPad*%
%ADD10O,2.000000X1.200000*%
%TD*%
%TA.AperFunction,ComponentPad*%
%ADD11O,1.800000X1.200000*%
%TD*%
%TA.AperFunction,ViaPad*%
%ADD12C,0.500000*%
%TD*%
%TA.AperFunction,ViaPad*%
%ADD13C,0.450000*%
%TD*%
%TA.AperFunction,Conductor*%
%ADD14C,0.127000*%
%TD*%
%TA.AperFunction,Conductor*%
%ADD15C,0.150000*%
%TD*%
%TA.AperFunction,Conductor*%
%ADD16C,0.300000*%
%TD*%
%TA.AperFunction,Conductor*%
%ADD17C,0.508000*%
%TD*%
%TA.AperFunction,Conductor*%
%ADD18C,0.650000*%
%TD*%
%TA.AperFunction,Conductor*%
%ADD19C,0.254000*%
%TD*%
G04 APERTURE END LIST*
D10*
%TO.N,GND*%
%TO.C,J2*%
X118232000Y-104325100D03*
D11*
X122411800Y-104325100D03*
D10*
X118232000Y-95674900D03*
D11*
X122411800Y-95674900D03*
%TD*%
D12*
%TO.N,VDD_SPI*%
X109315600Y-97052300D03*
X110396600Y-90800000D03*
X114970700Y-84347000D03*
%TO.N,FLASH_CS*%
X106456000Y-93587800D03*
X111903400Y-90800000D03*
X115544000Y-97312700D03*
%TO.N,STRAP45*%
X98900200Y-91842500D03*
X118050000Y-85953400D03*
%TO.N,GND*%
X98714700Y-102900100D03*
X98100000Y-101400000D03*
X100500000Y-93600000D03*
X110200000Y-109300000D03*
X98500000Y-111550000D03*
X99500000Y-94600000D03*
X84172500Y-106667600D03*
X95100000Y-89800000D03*
X108850000Y-99950000D03*
X99000000Y-85200000D03*
X83634500Y-112331000D03*
X81191600Y-91988200D03*
X92100000Y-87400000D03*
X100500000Y-95600000D03*
X90800000Y-107800000D03*
X99500000Y-93600000D03*
X98500000Y-95600000D03*
X97500000Y-85200000D03*
X99500000Y-95600000D03*
X103500000Y-101050000D03*
X96000000Y-85200000D03*
X98500000Y-105600000D03*
X100500000Y-94600000D03*
X90852600Y-86833200D03*
X100900000Y-87650000D03*
X106000000Y-114500000D03*
X94500000Y-86500000D03*
X110595000Y-120565000D03*
X89200000Y-107800000D03*
X90800000Y-105800000D03*
X89200000Y-105800000D03*
X94500000Y-85200000D03*
X86698900Y-95140700D03*
X110200000Y-105600000D03*
X98500000Y-94600000D03*
X94000000Y-87000000D03*
X98500000Y-93600000D03*
X94187500Y-107451000D03*
X83708500Y-94512700D03*
X88916500Y-96246600D03*
X80640800Y-110629500D03*
X104600000Y-109750000D03*
X85800000Y-111350000D03*
X91750000Y-98000000D03*
X93150000Y-95650000D03*
X116753200Y-92770100D03*
X85879800Y-113291000D03*
X80903600Y-89129500D03*
X92100000Y-88500000D03*
X90300000Y-92750000D03*
X106700000Y-101050000D03*
X92500000Y-90250000D03*
X110682300Y-86411800D03*
X109300000Y-107350000D03*
D13*
X95160000Y-92540000D03*
D12*
X100550000Y-108250000D03*
X104500000Y-106700000D03*
X104227000Y-118124000D03*
X90000000Y-106800000D03*
X92600000Y-93350000D03*
X96000000Y-86500000D03*
X112162000Y-100350000D03*
%TO.N,CC1*%
X115003000Y-106448000D03*
X116358000Y-101406000D03*
%TO.N,VDD_RF*%
X92017600Y-89765800D03*
X88400000Y-93400000D03*
X91000000Y-89350000D03*
X95350000Y-94850000D03*
X91700000Y-92750000D03*
%TO.N,BAT*%
X88053400Y-84970500D03*
X103577000Y-113477000D03*
X115200000Y-89703700D03*
X94253700Y-108705000D03*
X85521800Y-89662800D03*
X97045400Y-92399400D03*
X93427600Y-90558500D03*
%TO.N,CHRG_N*%
X84094700Y-96344700D03*
X91996300Y-106650000D03*
%TO.N,LED_CHG_A*%
X84085900Y-86331800D03*
X85538500Y-94911600D03*
%TO.N,CHIP_EN*%
X80581600Y-105850000D03*
X85446900Y-91461700D03*
X85530300Y-92069700D03*
D13*
X96650000Y-93199800D03*
D12*
X94074100Y-97075900D03*
%TO.N,BOOT*%
X83750000Y-92246600D03*
D13*
X97100000Y-93599900D03*
D12*
X90200000Y-89000000D03*
%TO.N,BL_PWM*%
X82796600Y-108000000D03*
D13*
X96650000Y-93999900D03*
D12*
X88000000Y-104400000D03*
X92600000Y-94000000D03*
%TO.N,I2C_SCL*%
X82200000Y-89900000D03*
X103800000Y-118600000D03*
X108400000Y-118200000D03*
X100300000Y-104300000D03*
X84179500Y-104474000D03*
X88300000Y-98600000D03*
X111200000Y-103400000D03*
X109300000Y-101250000D03*
X88500000Y-94200000D03*
X103500000Y-117499000D03*
X107300000Y-101400000D03*
D13*
X97100000Y-94400000D03*
D12*
X99300000Y-100200000D03*
D13*
%TO.N,I2C_SDA*%
X96650000Y-94800000D03*
D12*
X103250000Y-114550000D03*
X97400000Y-101600000D03*
X103000000Y-108200000D03*
X95450000Y-99100000D03*
%TO.N,CTP_INT*%
X95400000Y-100500000D03*
X104900000Y-98900000D03*
D13*
X97100000Y-95199800D03*
D12*
X102600000Y-103800000D03*
X107700000Y-104200000D03*
X104250000Y-115350000D03*
X94503400Y-102700000D03*
D13*
%TO.N,IMU_INT*%
X96650000Y-95599900D03*
D12*
X97987700Y-104544000D03*
%TO.N,CTP_RST*%
X93675100Y-99858900D03*
D13*
X97100000Y-95999900D03*
D12*
X103788822Y-114920111D03*
X89600000Y-99500000D03*
X95000000Y-102300000D03*
X89000000Y-95600000D03*
X92300000Y-99500000D03*
X104800000Y-113400000D03*
D13*
%TO.N,LCD_RST*%
X96650000Y-96400000D03*
D12*
X99251500Y-117205000D03*
X100200000Y-98800000D03*
%TO.N,BAT_ADC*%
X92353400Y-96396500D03*
X89500000Y-96000000D03*
X89600000Y-98300000D03*
X95400000Y-97850000D03*
%TO.N,LCD_D3*%
X96400000Y-107400000D03*
X96379700Y-113324000D03*
D13*
X96650000Y-97199800D03*
D12*
X95400000Y-105200000D03*
X97300000Y-100200000D03*
X93200000Y-100300000D03*
%TO.N,LCD_CS*%
X101750000Y-117217000D03*
X95976300Y-98189300D03*
X96830200Y-114445000D03*
D13*
%TO.N,LCD_D0*%
X97300000Y-97400000D03*
D12*
X100427000Y-114574000D03*
%TO.N,LCD_SCK*%
X100750000Y-115350000D03*
D13*
X97700000Y-97000000D03*
D12*
X102200000Y-117700000D03*
%TO.N,LCD_D1*%
X90600000Y-112700000D03*
X109300000Y-106500000D03*
X107400000Y-117500000D03*
X109300000Y-104100000D03*
X99750100Y-114500000D03*
D13*
X98100000Y-97400000D03*
D12*
X98500000Y-113500000D03*
X97600000Y-117600000D03*
%TO.N,LCD_D2*%
X98925100Y-97271378D03*
X99248300Y-115128000D03*
X99752100Y-97219300D03*
X103457600Y-100365400D03*
X100836600Y-102808900D03*
%TO.N,+3V3*%
X91000000Y-92450000D03*
X100785000Y-91916500D03*
X96407300Y-91172600D03*
X106900000Y-106450000D03*
X106900000Y-105650000D03*
X82278791Y-93928400D03*
X89000000Y-104400000D03*
X90475200Y-109247000D03*
X85839600Y-105394000D03*
X82200000Y-90600000D03*
X97250000Y-99350000D03*
X87800000Y-91600000D03*
X97900000Y-89800000D03*
X92996600Y-102700000D03*
X101750000Y-89850000D03*
X84000000Y-99800000D03*
X85800000Y-90800000D03*
%TO.N,FLASH_WP_MCU*%
X104797000Y-98250000D03*
X102258000Y-96400000D03*
%TO.N,FLASH_Q_MCU*%
X104900000Y-91600000D03*
D13*
X101900000Y-91950000D03*
D12*
%TO.N,CHG_ALLOW*%
X102288000Y-89365600D03*
X106962000Y-90510900D03*
X106864000Y-89589000D03*
X104880000Y-115599000D03*
X103705000Y-120996000D03*
%TO.N,VBUS*%
X112882000Y-103593000D03*
X116385000Y-97599700D03*
X114303000Y-100203000D03*
X83053400Y-88285700D03*
X83437100Y-111137300D03*
X86240500Y-101998000D03*
X82414300Y-104253000D03*
X109600000Y-108200000D03*
X114303600Y-92015000D03*
%TO.N,VSYS*%
X113600000Y-113415100D03*
X101400000Y-104471300D03*
X101400000Y-112717000D03*
X78846300Y-97569300D03*
X116396100Y-93513100D03*
%TO.N,DONE_N*%
X83351000Y-97121200D03*
X91490700Y-108943000D03*
%TO.N,LED_DONE_A*%
X81473000Y-103486000D03*
X85631400Y-97587200D03*
%TO.N,CHG_ALLOW_BASE*%
X106760000Y-121779000D03*
X107885000Y-112426000D03*
%TO.N,BAT_SENSE*%
X89382500Y-90538000D03*
X90461600Y-96219500D03*
%TO.N,BL_SOURCE*%
X91506600Y-115871000D03*
X89832700Y-112613000D03*
%TO.N,PWR_EN*%
X100690000Y-113960000D03*
X81471900Y-98999800D03*
X83659200Y-100531000D03*
X85072300Y-115513000D03*
%TO.N,LEDA*%
X89552400Y-117187000D03*
X95279800Y-115341000D03*
%TO.N,BL_BASE*%
X82774800Y-109722000D03*
X84751900Y-111477000D03*
%TO.N,CHG_INHIBIT*%
X93595900Y-100946000D03*
X109433000Y-112214000D03*
X87751800Y-99819700D03*
%TO.N,CC2*%
X120996000Y-106199000D03*
X118714000Y-98620000D03*
%TO.N,FLASH_WP*%
X106454000Y-97942500D03*
X113525000Y-94063900D03*
%TD*%
%TO.N,VDD_SPI*%
D14*
X107800000Y-92800000D02*
X107700000Y-92900000D01*
X106600000Y-94400000D02*
X106700000Y-94500000D01*
X108500000Y-92100000D02*
X108400000Y-92200000D01*
X108100000Y-92500000D02*
X108000000Y-92600000D01*
D15*
X114970700Y-84551000D02*
X114970700Y-84347000D01*
D14*
X110200000Y-90900000D02*
X110100000Y-91000000D01*
X108700000Y-96500000D02*
X108800000Y-96600000D01*
X108400000Y-96200000D02*
X108500000Y-96300000D01*
X110000000Y-91100000D02*
X109900000Y-91100000D01*
X106300000Y-93100000D02*
X106200000Y-93200000D01*
X108800000Y-91800000D02*
X108700000Y-91900000D01*
X108600000Y-96400000D02*
X108700000Y-96500000D01*
X109300000Y-91300000D02*
X109200000Y-91400000D01*
X109500000Y-91100000D02*
X109400000Y-91200000D01*
X106400000Y-94200000D02*
X106500000Y-94300000D01*
X107000000Y-94800000D02*
X107100000Y-94900000D01*
X106000000Y-93600000D02*
X106000000Y-93700000D01*
X108500000Y-96300000D02*
X108600000Y-96400000D01*
X107300000Y-93100000D02*
X107200000Y-93100000D01*
X108600000Y-92000000D02*
X108500000Y-92100000D01*
X108000000Y-92600000D02*
X107900000Y-92700000D01*
X106700000Y-94500000D02*
X106800000Y-94600000D01*
X109800000Y-91100000D02*
X109700000Y-91100000D01*
X109600000Y-91100000D02*
X109500000Y-91100000D01*
X106900000Y-94700000D02*
X107000000Y-94800000D01*
X108100000Y-95900000D02*
X108200000Y-96000000D01*
X107400000Y-93100000D02*
X107300000Y-93100000D01*
X106400000Y-93100000D02*
X106300000Y-93100000D01*
X106600000Y-93100000D02*
X106500000Y-93100000D01*
X107200000Y-95000000D02*
X107300000Y-95100000D01*
X106500000Y-94300000D02*
X106600000Y-94400000D01*
X108900000Y-91700000D02*
X108800000Y-91800000D01*
X106300000Y-94100000D02*
X106400000Y-94200000D01*
X107800000Y-95600000D02*
X107900000Y-95700000D01*
X109400000Y-91200000D02*
X109300000Y-91300000D01*
X106100000Y-93900000D02*
X106200000Y-94000000D01*
X108200000Y-96000000D02*
X108300000Y-96100000D01*
X107100000Y-94900000D02*
X107200000Y-95000000D01*
X106500000Y-93100000D02*
X106400000Y-93100000D01*
X108300000Y-96100000D02*
X108400000Y-96200000D01*
X106000000Y-93700000D02*
X106000000Y-93800000D01*
X107900000Y-92700000D02*
X107800000Y-92800000D01*
X108200000Y-92400000D02*
X108100000Y-92500000D01*
X107700000Y-95500000D02*
X107800000Y-95600000D01*
X106200000Y-93200000D02*
X106100000Y-93300000D01*
X107500000Y-93100000D02*
X107400000Y-93100000D01*
X106900000Y-93100000D02*
X106800000Y-93100000D01*
X109900000Y-91100000D02*
X109800000Y-91100000D01*
D15*
X113906800Y-85614900D02*
X114970700Y-84551000D01*
D14*
X107600000Y-95400000D02*
X107700000Y-95500000D01*
X110396600Y-90800000D02*
X110200000Y-90900000D01*
X108000000Y-95800000D02*
X108100000Y-95900000D01*
X109200000Y-91400000D02*
X109100000Y-91500000D01*
X107000000Y-93100000D02*
X106900000Y-93100000D01*
X107500000Y-95300000D02*
X107600000Y-95400000D01*
X109700000Y-91100000D02*
X109600000Y-91100000D01*
X110100000Y-91000000D02*
X110000000Y-91100000D01*
X107900000Y-95700000D02*
X108000000Y-95800000D01*
X109000000Y-91600000D02*
X108900000Y-91700000D01*
X107700000Y-92900000D02*
X107600000Y-93000000D01*
X107300000Y-95100000D02*
X107400000Y-95200000D01*
X108400000Y-92200000D02*
X108300000Y-92300000D01*
D15*
X106000700Y-93317000D02*
X113702800Y-85614900D01*
D14*
X106000000Y-93400000D02*
X106000000Y-93500000D01*
X107600000Y-93000000D02*
X107500000Y-93100000D01*
X106800000Y-94600000D02*
X106900000Y-94700000D01*
X106700000Y-93100000D02*
X106600000Y-93100000D01*
X108300000Y-92300000D02*
X108200000Y-92400000D01*
X107400000Y-95200000D02*
X107500000Y-95300000D01*
X106000000Y-93500000D02*
X106000000Y-93600000D01*
D15*
X109231500Y-97052300D02*
X106000700Y-93821500D01*
D14*
X108700000Y-91900000D02*
X108600000Y-92000000D01*
X107100000Y-93100000D02*
X107000000Y-93100000D01*
X107200000Y-93100000D02*
X107100000Y-93100000D01*
X106800000Y-93100000D02*
X106700000Y-93100000D01*
X109100000Y-91500000D02*
X109000000Y-91600000D01*
D15*
X113702800Y-85614900D02*
X113906800Y-85614900D01*
D14*
X106200000Y-94000000D02*
X106300000Y-94100000D01*
%TO.N,FLASH_CS*%
X111903400Y-90800000D02*
X113400000Y-92296600D01*
D15*
X113705000Y-93589400D02*
X115544000Y-95427600D01*
X115544000Y-95427600D02*
X115544000Y-97312700D01*
D14*
X113400000Y-92296600D02*
X113400000Y-93589400D01*
D15*
X106458000Y-93589400D02*
X106456000Y-93587800D01*
X113705000Y-93589400D02*
X106458000Y-93589400D01*
%TO.N,GND*%
X83634500Y-112331000D02*
X84920200Y-112331000D01*
X90800000Y-107800000D02*
X91149000Y-107451000D01*
X87804800Y-96246600D02*
X86698900Y-95140700D01*
X84920200Y-112331000D02*
X85879800Y-113291000D01*
X91149000Y-107451000D02*
X94187500Y-107451000D01*
D16*
X118232000Y-95674900D02*
X116953300Y-95674900D01*
X116953300Y-92970200D02*
X116753200Y-92770100D01*
X98714600Y-102900100D02*
X98714700Y-102900100D01*
X116953300Y-95674900D02*
X116953300Y-92970200D01*
X98100000Y-101400000D02*
X98714600Y-102014600D01*
D15*
X88916500Y-96246600D02*
X87804800Y-96246600D01*
X81191600Y-91995800D02*
X81191600Y-91988200D01*
X83708500Y-94512700D02*
X81191600Y-91995800D01*
D16*
X109444100Y-87650000D02*
X100900000Y-87650000D01*
X98714600Y-102014600D02*
X98714600Y-102900100D01*
X92100000Y-87400000D02*
X91419400Y-87400000D01*
X91419400Y-87400000D02*
X90852600Y-86833200D01*
X110682300Y-86411800D02*
X109444100Y-87650000D01*
%TO.N,CC1*%
D15*
X115003000Y-102762000D02*
X116358000Y-101406000D01*
X115003000Y-106448000D02*
X115003000Y-102762000D01*
%TO.N,VDD_RF*%
D17*
X91700000Y-90050000D02*
X91700000Y-92750000D01*
X91000000Y-89350000D02*
X91700000Y-90050000D01*
D16*
X90800000Y-93400000D02*
X91000000Y-93400000D01*
X88600000Y-93400000D02*
X88800000Y-93400000D01*
X91200000Y-93400000D02*
X91000000Y-93400000D01*
X91200000Y-93400000D02*
X91400000Y-93400000D01*
X88800000Y-93400000D02*
X89000000Y-93400000D01*
D17*
X91700000Y-92750000D02*
X91700000Y-94050000D01*
D16*
X91400000Y-93400000D02*
X91600000Y-93400000D01*
X90000000Y-93400000D02*
X90200000Y-93400000D01*
X90400000Y-93400000D02*
X90600000Y-93400000D01*
X88400000Y-93400000D02*
X88600000Y-93400000D01*
X90800000Y-93400000D02*
X90600000Y-93400000D01*
X91600000Y-93400000D02*
X91800000Y-93400000D01*
X90000000Y-93400000D02*
X89800000Y-93400000D01*
X89200000Y-93400000D02*
X89000000Y-93400000D01*
D17*
X92500000Y-94850000D02*
X95350000Y-94850000D01*
D16*
X89600000Y-93400000D02*
X89400000Y-93400000D01*
X90400000Y-93400000D02*
X90200000Y-93400000D01*
X89600000Y-93400000D02*
X89800000Y-93400000D01*
X89200000Y-93400000D02*
X89400000Y-93400000D01*
D17*
X91700000Y-94050000D02*
X92500000Y-94850000D01*
%TO.N,BAT*%
D18*
X103577000Y-113477000D02*
X103577000Y-113155000D01*
X95900000Y-92699400D02*
X96200000Y-92399400D01*
X103577000Y-113155000D02*
X99127000Y-108705000D01*
X88053400Y-84970500D02*
X88053400Y-87131200D01*
X93427600Y-90558500D02*
X93427600Y-93100000D01*
X99127000Y-108705000D02*
X94253700Y-108705000D01*
X88053400Y-87131200D02*
X85521800Y-89662800D01*
X95900000Y-93100000D02*
X95900000Y-92699400D01*
X93727600Y-93400000D02*
X95600000Y-93400000D01*
X96200000Y-92399400D02*
X97045400Y-92399400D01*
X95600000Y-93400000D02*
X95900000Y-93100000D01*
X93427600Y-93100000D02*
X93727600Y-93400000D01*
%TO.N,CHRG_N*%
D15*
X84094700Y-96825900D02*
X84094700Y-96344700D01*
X91996300Y-104728000D02*
X84094700Y-96825900D01*
X91996300Y-106650000D02*
X91996300Y-104728000D01*
%TO.N,LED_CHG_A*%
X81546600Y-88224100D02*
X81546600Y-90919700D01*
X82193600Y-88224100D02*
X81546600Y-88224100D01*
X81546600Y-90919700D02*
X85538500Y-94911600D01*
X84085900Y-86331800D02*
X82193600Y-88224100D01*
%TO.N,CHIP_EN*%
X80581600Y-98808500D02*
X80581600Y-105850000D01*
X85186300Y-93200000D02*
X85200000Y-93200000D01*
X94074100Y-97075900D02*
X87474200Y-97075900D01*
X87474200Y-97075900D02*
X86004000Y-95605700D01*
X85186300Y-92000000D02*
X85186300Y-93200000D01*
X86000000Y-94000000D02*
X85800000Y-93800000D01*
X85600000Y-93600000D02*
X85400000Y-93400000D01*
X85530300Y-92069700D02*
X85269700Y-92069700D01*
X85400000Y-93400000D02*
X85200000Y-93200000D01*
X83784400Y-95605700D02*
X80581600Y-98808500D01*
X86000000Y-94200000D02*
X86000000Y-94000000D01*
X86004000Y-95605700D02*
X83784400Y-95605700D01*
X85800000Y-93800000D02*
X85600000Y-93600000D01*
X86004000Y-94292400D02*
X86004000Y-95605700D01*
X85269700Y-92069700D02*
X85200000Y-92000000D01*
X85200000Y-92000000D02*
X85446900Y-91461700D01*
X85200000Y-92000000D02*
X85186300Y-92000000D01*
%TO.N,BOOT*%
D14*
X96700000Y-91800000D02*
X96800000Y-91800000D01*
X90300000Y-89000000D02*
X90400000Y-89000000D01*
X94400000Y-90800000D02*
X94500000Y-90900000D01*
X95800000Y-91200000D02*
X95900000Y-91300000D01*
X97100000Y-91800000D02*
X97200000Y-91900000D01*
X91700000Y-89300000D02*
X91800000Y-89300000D01*
X91100000Y-88900000D02*
X91200000Y-88900000D01*
X97400000Y-92900000D02*
X97400000Y-93000000D01*
X93700000Y-90100000D02*
X93800000Y-90200000D01*
X96100000Y-91500000D02*
X96200000Y-91600000D01*
X92400000Y-89500000D02*
X92500000Y-89600000D01*
X97300000Y-91900000D02*
X97400000Y-92000000D01*
X93300000Y-90000000D02*
X93400000Y-90000000D01*
X96200000Y-91600000D02*
X96300000Y-91700000D01*
X90900000Y-88900000D02*
X91000000Y-88900000D01*
X92300000Y-89400000D02*
X92400000Y-89500000D01*
X92500000Y-89600000D02*
X92600000Y-89700000D01*
X93100000Y-90000000D02*
X93200000Y-90000000D01*
X91200000Y-88900000D02*
X91300000Y-89000000D01*
X94100000Y-90500000D02*
X94200000Y-90600000D01*
X95100000Y-90900000D02*
X95200000Y-90900000D01*
X92000000Y-89300000D02*
X92100000Y-89300000D01*
X94500000Y-90900000D02*
X94600000Y-90900000D01*
X91300000Y-89000000D02*
X91400000Y-89100000D01*
X97600000Y-92300000D02*
X97600000Y-92400000D01*
X93800000Y-90200000D02*
X93900000Y-90300000D01*
X94700000Y-90900000D02*
X94800000Y-90900000D01*
X94300000Y-90700000D02*
X94400000Y-90800000D01*
X91400000Y-89100000D02*
X91500000Y-89200000D01*
X92700000Y-89800000D02*
X92800000Y-89900000D01*
X96000000Y-91400000D02*
X96100000Y-91500000D01*
X92900000Y-90000000D02*
X93000000Y-90000000D01*
X97500000Y-92700000D02*
X97500000Y-92800000D01*
X92800000Y-89900000D02*
X92900000Y-90000000D01*
X97500000Y-92100000D02*
X97600000Y-92200000D01*
X97600000Y-92200000D02*
X97600000Y-92300000D01*
X96600000Y-91800000D02*
X96700000Y-91800000D01*
X94000000Y-90400000D02*
X94100000Y-90500000D01*
X93900000Y-90300000D02*
X94000000Y-90400000D01*
X91800000Y-89300000D02*
X91900000Y-89300000D01*
X96400000Y-91800000D02*
X96500000Y-91800000D01*
X97400000Y-92000000D02*
X97500000Y-92100000D01*
X95300000Y-90900000D02*
X95400000Y-90900000D01*
X97600000Y-92400000D02*
X97600000Y-92500000D01*
X93200000Y-90000000D02*
X93300000Y-90000000D01*
X95200000Y-90900000D02*
X95300000Y-90900000D01*
X92100000Y-89300000D02*
X92200000Y-89300000D01*
X90200000Y-89000000D02*
X90300000Y-89000000D01*
X95600000Y-91000000D02*
X95700000Y-91100000D01*
X97600000Y-92500000D02*
X97600000Y-92600000D01*
X95400000Y-90900000D02*
X95500000Y-90900000D01*
X91000000Y-88900000D02*
X91100000Y-88900000D01*
X91600000Y-89300000D02*
X91700000Y-89300000D01*
X95000000Y-90900000D02*
X95100000Y-90900000D01*
X96900000Y-91800000D02*
X97000000Y-91800000D01*
X93500000Y-90000000D02*
X93600000Y-90000000D01*
X90500000Y-89000000D02*
X90600000Y-89000000D01*
X91500000Y-89200000D02*
X91600000Y-89300000D01*
X96500000Y-91800000D02*
X96600000Y-91800000D01*
X97500000Y-92800000D02*
X97400000Y-92900000D01*
X92200000Y-89300000D02*
X92300000Y-89400000D01*
X97600000Y-92600000D02*
X97500000Y-92700000D01*
X94600000Y-90900000D02*
X94700000Y-90900000D01*
X96800000Y-91800000D02*
X96900000Y-91800000D01*
X90400000Y-89000000D02*
X90500000Y-89000000D01*
X97200000Y-91900000D02*
X97300000Y-91900000D01*
X93400000Y-90000000D02*
X93500000Y-90000000D01*
X93000000Y-90000000D02*
X93100000Y-90000000D01*
X97000000Y-91800000D02*
X97100000Y-91800000D01*
X94800000Y-90900000D02*
X94900000Y-90900000D01*
X95700000Y-91100000D02*
X95800000Y-91200000D01*
X92600000Y-89700000D02*
X92700000Y-89800000D01*
X91900000Y-89300000D02*
X92000000Y-89300000D01*
X90600000Y-89000000D02*
X90700000Y-89000000D01*
X90700000Y-89000000D02*
X90800000Y-88900000D01*
X95500000Y-90900000D02*
X95600000Y-91000000D01*
X95900000Y-91300000D02*
X96000000Y-91400000D01*
X97400000Y-93000000D02*
X97100000Y-93599900D01*
X96300000Y-91700000D02*
X96400000Y-91800000D01*
X90800000Y-88900000D02*
X90900000Y-88900000D01*
X93600000Y-90000000D02*
X93700000Y-90100000D01*
X94200000Y-90600000D02*
X94300000Y-90700000D01*
X94900000Y-90900000D02*
X95000000Y-90900000D01*
%TO.N,BL_PWM*%
D15*
X94000000Y-94000000D02*
X94200000Y-94000000D01*
X86600000Y-104400000D02*
X86800000Y-104400000D01*
X87200000Y-104400000D02*
X87400000Y-104400000D01*
X85600000Y-104800000D02*
X85800000Y-104600000D01*
X95400000Y-94000000D02*
X95600000Y-94000000D01*
X85400000Y-105000000D02*
X85600000Y-104800000D01*
X85200000Y-105400000D02*
X85400000Y-105200000D01*
X87400000Y-104400000D02*
X87600000Y-104400000D01*
X85200000Y-105600000D02*
X85200000Y-105400000D01*
X87800000Y-104400000D02*
X88000000Y-104400000D01*
X94200000Y-94000000D02*
X94400000Y-94000000D01*
X92800000Y-94000000D02*
X93000000Y-94000000D01*
X84200000Y-107200000D02*
X84400000Y-107200000D01*
X96000000Y-94000000D02*
X96650000Y-93999900D01*
X87000000Y-104400000D02*
X87200000Y-104400000D01*
X83400000Y-107600000D02*
X83800000Y-107200000D01*
X83200000Y-107800000D02*
X83400000Y-107600000D01*
X95200000Y-94000000D02*
X95400000Y-94000000D01*
X83800000Y-107200000D02*
X84000000Y-107200000D01*
X95600000Y-94000000D02*
X95800000Y-94000000D01*
X84400000Y-107200000D02*
X84600000Y-107000000D01*
X93600000Y-94000000D02*
X93800000Y-94000000D01*
X93200000Y-94000000D02*
X93400000Y-94000000D01*
X95800000Y-94000000D02*
X96000000Y-94000000D01*
X85200000Y-105800000D02*
X85200000Y-105600000D01*
X84600000Y-107000000D02*
X84800000Y-106800000D01*
X85200000Y-106200000D02*
X85200000Y-106000000D01*
X85800000Y-104600000D02*
X86000000Y-104400000D01*
X85400000Y-105200000D02*
X85400000Y-105000000D01*
X86200000Y-104400000D02*
X86400000Y-104400000D01*
X86400000Y-104400000D02*
X86600000Y-104400000D01*
X85200000Y-106400000D02*
X85200000Y-106200000D01*
X94600000Y-94000000D02*
X94800000Y-94000000D01*
X85200000Y-106000000D02*
X85200000Y-105800000D01*
X87600000Y-104400000D02*
X87800000Y-104400000D01*
X84800000Y-106800000D02*
X85000000Y-106600000D01*
X85000000Y-106600000D02*
X85200000Y-106400000D01*
X95000000Y-94000000D02*
X95200000Y-94000000D01*
X86800000Y-104400000D02*
X87000000Y-104400000D01*
X94800000Y-94000000D02*
X95000000Y-94000000D01*
X92600000Y-94000000D02*
X92800000Y-94000000D01*
X84000000Y-107200000D02*
X84200000Y-107200000D01*
X93800000Y-94000000D02*
X94000000Y-94000000D01*
X86000000Y-104400000D02*
X86200000Y-104400000D01*
X93000000Y-94000000D02*
X93200000Y-94000000D01*
X82796600Y-108000000D02*
X83200000Y-107800000D01*
X94400000Y-94000000D02*
X94600000Y-94000000D01*
X93400000Y-94000000D02*
X93600000Y-94000000D01*
%TO.N,I2C_SCL*%
X94000000Y-98600000D02*
X94200000Y-98600000D01*
D14*
X103500000Y-106600000D02*
X103600000Y-106700000D01*
X101800000Y-105800000D02*
X101700000Y-105700000D01*
X109700000Y-102100000D02*
X109800000Y-102200000D01*
X88800000Y-98700000D02*
X88700000Y-98700000D01*
D15*
X98200000Y-98800000D02*
X98400000Y-98800000D01*
X97000000Y-98800000D02*
X97200000Y-98800000D01*
D14*
X108200000Y-102300000D02*
X108100000Y-102200000D01*
X102500000Y-106500000D02*
X102700000Y-106600000D01*
D15*
X93200000Y-98600000D02*
X93400000Y-98600000D01*
D14*
X102300000Y-106300000D02*
X102200000Y-106200000D01*
X102000000Y-106000000D02*
X101900000Y-105900000D01*
D15*
X96200000Y-98800000D02*
X96400000Y-98800000D01*
D14*
X108200000Y-102700000D02*
X108200000Y-102600000D01*
D15*
X98000000Y-98800000D02*
X98200000Y-98800000D01*
D14*
X100600000Y-99000000D02*
X100700000Y-98900000D01*
D15*
X91800000Y-98600000D02*
X92000000Y-98600000D01*
D14*
X104500000Y-118500000D02*
X104400000Y-118600000D01*
X100600000Y-104600000D02*
X100500000Y-104500000D01*
X107400000Y-118200000D02*
X107300000Y-118200000D01*
X107500000Y-105100000D02*
X107600000Y-105000000D01*
X107900000Y-102000000D02*
X107800000Y-101900000D01*
D15*
X97200000Y-98800000D02*
X97400000Y-98800000D01*
D14*
X107500000Y-105600000D02*
X107500000Y-105500000D01*
X106100000Y-118200000D02*
X106000000Y-118200000D01*
D15*
X97400000Y-98800000D02*
X97600000Y-98800000D01*
D14*
X107100000Y-107000000D02*
X107200000Y-106900000D01*
D15*
X93400000Y-98600000D02*
X93600000Y-98600000D01*
X97600000Y-98800000D02*
X98000000Y-98800000D01*
D14*
X88200000Y-93900000D02*
X88000000Y-93700000D01*
X88600000Y-98700000D02*
X88500000Y-98700000D01*
X104000000Y-107100000D02*
X104100000Y-107200000D01*
X100700000Y-98700000D02*
X100600000Y-98600000D01*
X101900000Y-105900000D02*
X101800000Y-105800000D01*
X103600000Y-106700000D02*
X103700000Y-106800000D01*
D15*
X98800000Y-98800000D02*
X99000000Y-98800000D01*
D14*
X104900000Y-107200000D02*
X105000000Y-107200000D01*
X107900000Y-118200000D02*
X107800000Y-118200000D01*
X109500000Y-101900000D02*
X109600000Y-102000000D01*
X105600000Y-107200000D02*
X105700000Y-107200000D01*
X87600000Y-92100000D02*
X87500000Y-92000000D01*
X86800000Y-91100000D02*
X86700000Y-91000000D01*
X99200000Y-98800000D02*
X99950000Y-99550000D01*
X106900000Y-107200000D02*
X107000000Y-107100000D01*
X107400000Y-106600000D02*
X107500000Y-106500000D01*
X107500000Y-105800000D02*
X107500000Y-105700000D01*
X98300000Y-95000000D02*
X98200000Y-94900000D01*
D15*
X98600000Y-98800000D02*
X98800000Y-98800000D01*
D14*
X87500000Y-92000000D02*
X87400000Y-91900000D01*
X108200000Y-103000000D02*
X108200000Y-102900000D01*
X101500000Y-105500000D02*
X101400000Y-105400000D01*
X102100000Y-106100000D02*
X102000000Y-106000000D01*
X106700000Y-118200000D02*
X106600000Y-118200000D01*
X108100000Y-104400000D02*
X108200000Y-104300000D01*
X104700000Y-107200000D02*
X104800000Y-107200000D01*
X109900000Y-102300000D02*
X110000000Y-102400000D01*
X106900000Y-118200000D02*
X106800000Y-118200000D01*
X101200000Y-105200000D02*
X101100000Y-105100000D01*
X101600000Y-105600000D02*
X101500000Y-105500000D01*
X107500000Y-106100000D02*
X107500000Y-106000000D01*
D15*
X93800000Y-98600000D02*
X94000000Y-98600000D01*
X96000000Y-98800000D02*
X96200000Y-98800000D01*
X91400000Y-98800000D02*
X91600000Y-98600000D01*
X94800000Y-98600000D02*
X95000000Y-98600000D01*
D14*
X110400000Y-102800000D02*
X110500000Y-102900000D01*
X105700000Y-118200000D02*
X105600000Y-118200000D01*
X107200000Y-106900000D02*
X107300000Y-106800000D01*
X85600000Y-90200000D02*
X85500000Y-90200000D01*
X97900000Y-94800000D02*
X97800000Y-94700000D01*
X107300000Y-101400000D02*
X107800000Y-101900000D01*
X87700000Y-92200000D02*
X87600000Y-92100000D01*
X104200000Y-118600000D02*
X104100000Y-118600000D01*
D15*
X93000000Y-98600000D02*
X93200000Y-98600000D01*
D14*
X109800000Y-102200000D02*
X109900000Y-102300000D01*
X82600000Y-90200000D02*
X82500000Y-90200000D01*
D15*
X95600000Y-98600000D02*
X95800000Y-98800000D01*
D14*
X100300000Y-96700000D02*
X100200000Y-96600000D01*
X87900000Y-93000000D02*
X87900000Y-92900000D01*
X110700000Y-103100000D02*
X110800000Y-103200000D01*
X103000000Y-106600000D02*
X103100000Y-106600000D01*
D15*
X95800000Y-98800000D02*
X96000000Y-98800000D01*
D14*
X99500000Y-100000000D02*
X99600000Y-99900000D01*
X100200000Y-96600000D02*
X100100000Y-96500000D01*
X107700000Y-118200000D02*
X107600000Y-118200000D01*
X88000000Y-93600000D02*
X87900000Y-93500000D01*
X110000000Y-102400000D02*
X110100000Y-102500000D01*
D15*
X96400000Y-98800000D02*
X96600000Y-98800000D01*
D14*
X99600000Y-99900000D02*
X99700000Y-99800000D01*
D15*
X92000000Y-98600000D02*
X92200000Y-98600000D01*
D14*
X104200000Y-107200000D02*
X104300000Y-107200000D01*
X108200000Y-104200000D02*
X108200000Y-104100000D01*
X104800000Y-118200000D02*
X104700000Y-118300000D01*
X110600000Y-103000000D02*
X110700000Y-103100000D01*
X85000000Y-90200000D02*
X84900000Y-90200000D01*
X98100000Y-94900000D02*
X98000000Y-94800000D01*
X103400000Y-106600000D02*
X103500000Y-106600000D01*
X109300000Y-101700000D02*
X109500000Y-101900000D01*
X108100000Y-102200000D02*
X108000000Y-102100000D01*
X107600000Y-118200000D02*
X107500000Y-118200000D01*
X105000000Y-118200000D02*
X104900000Y-118200000D01*
X107600000Y-105000000D02*
X107700000Y-104900000D01*
D15*
X95400000Y-98600000D02*
X95600000Y-98600000D01*
X95000000Y-98600000D02*
X95200000Y-98600000D01*
D14*
X103200000Y-106600000D02*
X103300000Y-106600000D01*
X108000000Y-102100000D02*
X107900000Y-102000000D01*
D15*
X93600000Y-98600000D02*
X93800000Y-98600000D01*
D14*
X104500000Y-107200000D02*
X104600000Y-107200000D01*
D15*
X92600000Y-98600000D02*
X92800000Y-98600000D01*
D14*
X91400000Y-98800000D02*
X89000000Y-98800000D01*
X86200000Y-90500000D02*
X86100000Y-90400000D01*
X106200000Y-107200000D02*
X106300000Y-107200000D01*
X105800000Y-107200000D02*
X105900000Y-107200000D01*
X83800000Y-90200000D02*
X83700000Y-90200000D01*
X100800000Y-104800000D02*
X100700000Y-104700000D01*
X106500000Y-118200000D02*
X106400000Y-118200000D01*
D15*
X94200000Y-98600000D02*
X94400000Y-98600000D01*
D14*
X97700000Y-94700000D02*
X97100000Y-94400000D01*
X99600000Y-96100000D02*
X99500000Y-96100000D01*
X109300000Y-101250000D02*
X109300000Y-101700000D01*
X84800000Y-90200000D02*
X84700000Y-90200000D01*
X106300000Y-118200000D02*
X106200000Y-118200000D01*
X107500000Y-106400000D02*
X107500000Y-106300000D01*
D15*
X95200000Y-98600000D02*
X95400000Y-98600000D01*
D14*
X88300000Y-94000000D02*
X88200000Y-93900000D01*
X105200000Y-118200000D02*
X105100000Y-118200000D01*
D15*
X98400000Y-98800000D02*
X98600000Y-98800000D01*
D14*
X84200000Y-90200000D02*
X84100000Y-90200000D01*
X104300000Y-118600000D02*
X104200000Y-118600000D01*
X108200000Y-103900000D02*
X108200000Y-103800000D01*
X100300000Y-99300000D02*
X100400000Y-99200000D01*
X108200000Y-102500000D02*
X108200000Y-102400000D01*
X87900000Y-92600000D02*
X87900000Y-92500000D01*
X100500000Y-97300000D02*
X100500000Y-97200000D01*
D15*
X99000000Y-98800000D02*
X99200000Y-98800000D01*
X92200000Y-98600000D02*
X92400000Y-98600000D01*
D14*
X108200000Y-103200000D02*
X108200000Y-103100000D01*
X87200000Y-91500000D02*
X87100000Y-91400000D01*
D15*
X96600000Y-98800000D02*
X96800000Y-98800000D01*
D14*
X103900000Y-107000000D02*
X104000000Y-107100000D01*
X107100000Y-118200000D02*
X107000000Y-118200000D01*
X110500000Y-102900000D02*
X110600000Y-103000000D01*
X103700000Y-106800000D02*
X103800000Y-106900000D01*
X98400000Y-95100000D02*
X98300000Y-95000000D01*
X108200000Y-102800000D02*
X108200000Y-102700000D01*
X101000000Y-105000000D02*
X100900000Y-104900000D01*
X105400000Y-118200000D02*
X105300000Y-118200000D01*
D15*
X94600000Y-98600000D02*
X94800000Y-98600000D01*
D14*
X102400000Y-106400000D02*
X102300000Y-106300000D01*
X108200000Y-103400000D02*
X108200000Y-103300000D01*
X86400000Y-90700000D02*
X86300000Y-90600000D01*
X109600000Y-102000000D02*
X109700000Y-102100000D01*
X99700000Y-99800000D02*
X99800000Y-99700000D01*
X107500000Y-105300000D02*
X107500000Y-105200000D01*
X85800000Y-90300000D02*
X85700000Y-90200000D01*
X100700000Y-98900000D02*
X100700000Y-98800000D01*
X87800000Y-92300000D02*
X87700000Y-92200000D01*
X110100000Y-102500000D02*
X110200000Y-102600000D01*
X108000000Y-104600000D02*
X108100000Y-104500000D01*
X108200000Y-104100000D02*
X108200000Y-104000000D01*
X102800000Y-106600000D02*
X102900000Y-106600000D01*
X87900000Y-92800000D02*
X87900000Y-92700000D01*
X99400000Y-96100000D02*
X99300000Y-96000000D01*
D15*
X92800000Y-98600000D02*
X93000000Y-98600000D01*
D14*
X86000000Y-90400000D02*
X85900000Y-90300000D01*
X87900000Y-92400000D02*
X87800000Y-92300000D01*
X82800000Y-90200000D02*
X82700000Y-90200000D01*
X99800000Y-96200000D02*
X99700000Y-96100000D01*
X83500000Y-90200000D02*
X83400000Y-90200000D01*
D15*
X96800000Y-98800000D02*
X97000000Y-98800000D01*
D14*
X107300000Y-106800000D02*
X107400000Y-106700000D01*
X100500000Y-97400000D02*
X100500000Y-97300000D01*
X101700000Y-105700000D02*
X101600000Y-105600000D01*
X107900000Y-104700000D02*
X108000000Y-104600000D01*
D15*
X91600000Y-98600000D02*
X91800000Y-98600000D01*
D14*
X100000000Y-96400000D02*
X99900000Y-96300000D01*
X107800000Y-104800000D02*
X107900000Y-104700000D01*
X107500000Y-106000000D02*
X107500000Y-105900000D01*
D15*
X92400000Y-98600000D02*
X92600000Y-98600000D01*
D14*
X100100000Y-96500000D02*
X100000000Y-96400000D01*
X106400000Y-107200000D02*
X106500000Y-107200000D01*
X100500000Y-97700000D02*
X100500000Y-97600000D01*
X104300000Y-107200000D02*
X104400000Y-107200000D01*
X101300000Y-105300000D02*
X101200000Y-105200000D01*
X110900000Y-103300000D02*
X111000000Y-103400000D01*
X110800000Y-103200000D02*
X110900000Y-103300000D01*
X86900000Y-91200000D02*
X86800000Y-91100000D01*
X100500000Y-98200000D02*
X100500000Y-98100000D01*
X84000000Y-90200000D02*
X83900000Y-90200000D01*
X110200000Y-102600000D02*
X110300000Y-102700000D01*
X105900000Y-118200000D02*
X105800000Y-118200000D01*
X83700000Y-90200000D02*
X83600000Y-90200000D01*
X104700000Y-118300000D02*
X104600000Y-118400000D01*
X100400000Y-96800000D02*
X100300000Y-96700000D01*
X98900000Y-95300000D02*
X98800000Y-95200000D01*
X107200000Y-118200000D02*
X107100000Y-118200000D01*
X107500000Y-105500000D02*
X107500000Y-105400000D01*
X105200000Y-107200000D02*
X105300000Y-107200000D01*
X98600000Y-95100000D02*
X98500000Y-95100000D01*
X100500000Y-99200000D02*
X100600000Y-99100000D01*
X99800000Y-99700000D02*
X99950000Y-99550000D01*
X107500000Y-106300000D02*
X107500000Y-106200000D01*
X86500000Y-90800000D02*
X86400000Y-90700000D01*
X89000000Y-98800000D02*
X88900000Y-98700000D01*
X105400000Y-107200000D02*
X105500000Y-107200000D01*
X101100000Y-105100000D02*
X101000000Y-105000000D01*
X108200000Y-103600000D02*
X108200000Y-103500000D01*
X102200000Y-106200000D02*
X102100000Y-106100000D01*
X98800000Y-95200000D02*
X98700000Y-95100000D01*
X87300000Y-91600000D02*
X87200000Y-91500000D01*
X108200000Y-103800000D02*
X108200000Y-103700000D01*
X85200000Y-90200000D02*
X85100000Y-90200000D01*
X100500000Y-97100000D02*
X100500000Y-97000000D01*
X83400000Y-90200000D02*
X83300000Y-90200000D01*
X105600000Y-118200000D02*
X105500000Y-118200000D01*
X87400000Y-91800000D02*
X87300000Y-91700000D01*
X87000000Y-91300000D02*
X86900000Y-91200000D01*
X86600000Y-90900000D02*
X86500000Y-90800000D01*
X99000000Y-95500000D02*
X98900000Y-95400000D01*
X84400000Y-90200000D02*
X84300000Y-90200000D01*
X103800000Y-106900000D02*
X103900000Y-107000000D01*
X87900000Y-93500000D02*
X87900000Y-93400000D01*
X99900000Y-96300000D02*
X99800000Y-96200000D01*
X100500000Y-97900000D02*
X100500000Y-97800000D01*
X87100000Y-91400000D02*
X87000000Y-91300000D01*
X107000000Y-107100000D02*
X107100000Y-107000000D01*
X99100000Y-95900000D02*
X99000000Y-95800000D01*
X83000000Y-90200000D02*
X82900000Y-90200000D01*
X99950000Y-99550000D02*
X100200000Y-99300000D01*
X100500000Y-98100000D02*
X100500000Y-98000000D01*
X106600000Y-107200000D02*
X106700000Y-107200000D01*
X86700000Y-91000000D02*
X86600000Y-90900000D01*
D15*
X94400000Y-98600000D02*
X94600000Y-98600000D01*
D14*
X107700000Y-104900000D02*
X107800000Y-104800000D01*
X105900000Y-107200000D02*
X106000000Y-107200000D01*
X100500000Y-97600000D02*
X100500000Y-97500000D01*
X106800000Y-107200000D02*
X106900000Y-107200000D01*
X100700000Y-104700000D02*
X100600000Y-104600000D01*
X87900000Y-93200000D02*
X87900000Y-93100000D01*
X100500000Y-96900000D02*
X100400000Y-96800000D01*
X108100000Y-118200000D02*
X108000000Y-118200000D01*
X83200000Y-90200000D02*
X83100000Y-90200000D01*
X101400000Y-105400000D02*
X101300000Y-105300000D01*
X85400000Y-90200000D02*
X85300000Y-90200000D01*
X87900000Y-93300000D02*
X87900000Y-93200000D01*
X86300000Y-90600000D02*
X86200000Y-90500000D01*
X99000000Y-95700000D02*
X99000000Y-95600000D01*
X100500000Y-98400000D02*
X100500000Y-98300000D01*
X100900000Y-104900000D02*
X100800000Y-104800000D01*
X99200000Y-96000000D02*
X99100000Y-95900000D01*
X106100000Y-107200000D02*
X106200000Y-107200000D01*
X100600000Y-98500000D02*
X100500000Y-98400000D01*
X82500000Y-90200000D02*
X82400000Y-90100000D01*
X110300000Y-102700000D02*
X110400000Y-102800000D01*
X104600000Y-118400000D02*
X104500000Y-118500000D01*
X84600000Y-90200000D02*
X84500000Y-90200000D01*
X102500000Y-106500000D02*
X102400000Y-106400000D01*
X105000000Y-107200000D02*
X105100000Y-107200000D01*
%TO.N,I2C_SDA*%
X99100000Y-104300000D02*
X99000000Y-104200000D01*
X98000000Y-102600000D02*
X97900000Y-102500000D01*
X100400000Y-105600000D02*
X100300000Y-105500000D01*
X102800000Y-108000000D02*
X102700000Y-107900000D01*
X101500000Y-106700000D02*
X101400000Y-106600000D01*
X99900000Y-105100000D02*
X99800000Y-105000000D01*
X100800000Y-106000000D02*
X100700000Y-105900000D01*
X98600000Y-103800000D02*
X98500000Y-103700000D01*
X97900000Y-102500000D02*
X97800000Y-102400000D01*
X101100000Y-106300000D02*
X101000000Y-106200000D01*
X98800000Y-104000000D02*
X98700000Y-103900000D01*
X97800000Y-102400000D02*
X97700000Y-102300000D01*
X98900000Y-104100000D02*
X98800000Y-104000000D01*
X99400000Y-104600000D02*
X99300000Y-104500000D01*
X98700000Y-103900000D02*
X98600000Y-103800000D01*
X102300000Y-107500000D02*
X102200000Y-107400000D01*
X100900000Y-106100000D02*
X100800000Y-106000000D01*
X99000000Y-104200000D02*
X98900000Y-104100000D01*
X99500000Y-104700000D02*
X99400000Y-104600000D01*
X101800000Y-107000000D02*
X101700000Y-106900000D01*
X101300000Y-106500000D02*
X101200000Y-106400000D01*
X98200000Y-103400000D02*
X98200000Y-103300000D01*
X102500000Y-107700000D02*
X102400000Y-107600000D01*
X100500000Y-105700000D02*
X100400000Y-105600000D01*
X102700000Y-107900000D02*
X102600000Y-107800000D01*
X102100000Y-107300000D02*
X102000000Y-107200000D01*
X101200000Y-106400000D02*
X101100000Y-106300000D01*
X102900000Y-108100000D02*
X102800000Y-108000000D01*
X102600000Y-107800000D02*
X102500000Y-107700000D01*
X98100000Y-103100000D02*
X98100000Y-103000000D01*
X98100000Y-102700000D02*
X98000000Y-102600000D01*
X100200000Y-105400000D02*
X100100000Y-105300000D01*
X99300000Y-104500000D02*
X99200000Y-104400000D01*
X98100000Y-103000000D02*
X98100000Y-102900000D01*
X98200000Y-103300000D02*
X98100000Y-103200000D01*
X100000000Y-105200000D02*
X99900000Y-105100000D01*
X102000000Y-107200000D02*
X101900000Y-107100000D01*
X102400000Y-107600000D02*
X102300000Y-107500000D01*
X103000000Y-108200000D02*
X102900000Y-108100000D01*
X101400000Y-106600000D02*
X101300000Y-106500000D01*
X101900000Y-107100000D02*
X101800000Y-107000000D01*
X99600000Y-104800000D02*
X99500000Y-104700000D01*
X100100000Y-105300000D02*
X100000000Y-105200000D01*
X101700000Y-106900000D02*
X101600000Y-106800000D01*
X101000000Y-106200000D02*
X100900000Y-106100000D01*
X100700000Y-105900000D02*
X100600000Y-105800000D01*
X101600000Y-106800000D02*
X101500000Y-106700000D01*
X100600000Y-105800000D02*
X100500000Y-105700000D01*
X97700000Y-102200000D02*
X97400000Y-101600000D01*
X97700000Y-102300000D02*
X97700000Y-102200000D01*
X99200000Y-104400000D02*
X99100000Y-104300000D01*
X98500000Y-103700000D02*
X98400000Y-103600000D01*
X99800000Y-105000000D02*
X99700000Y-104900000D01*
X98100000Y-103200000D02*
X98100000Y-103100000D01*
X98100000Y-102900000D02*
X98100000Y-102800000D01*
X99700000Y-104900000D02*
X99600000Y-104800000D01*
X98300000Y-103500000D02*
X98200000Y-103400000D01*
X100300000Y-105500000D02*
X100200000Y-105400000D01*
X102200000Y-107400000D02*
X102100000Y-107300000D01*
X98100000Y-102800000D02*
X98100000Y-102700000D01*
X98400000Y-103600000D02*
X98300000Y-103500000D01*
%TO.N,CTP_INT*%
X107500000Y-103900000D02*
X107500000Y-104000000D01*
X100800000Y-103300000D02*
X100700000Y-103300000D01*
X107500000Y-103200000D02*
X107500000Y-103300000D01*
X99900000Y-102500000D02*
X99800000Y-102400000D01*
X104900000Y-98900000D02*
X104900000Y-99000000D01*
X107400000Y-102500000D02*
X107400000Y-102600000D01*
X102100000Y-103500000D02*
X102000000Y-103500000D01*
X106000000Y-101100000D02*
X106100000Y-101200000D01*
X106300000Y-101400000D02*
X106400000Y-101500000D01*
X101500000Y-103300000D02*
X101400000Y-103300000D01*
X107200000Y-102300000D02*
X107300000Y-102400000D01*
X106100000Y-101200000D02*
X106200000Y-101300000D01*
X97400000Y-100900000D02*
X97300000Y-100900000D01*
X100600000Y-103200000D02*
X100500000Y-103100000D01*
X100400000Y-103000000D02*
X100300000Y-102900000D01*
X107500000Y-103100000D02*
X107500000Y-103200000D01*
X102400000Y-103700000D02*
X102300000Y-103600000D01*
X107000000Y-102100000D02*
X107100000Y-102200000D01*
X107500000Y-104000000D02*
X107600000Y-104100000D01*
X107500000Y-103400000D02*
X107500000Y-103500000D01*
X104900000Y-99400000D02*
X104900000Y-99500000D01*
X99700000Y-102300000D02*
X99600000Y-102200000D01*
X104250000Y-112850000D02*
X94503400Y-103103400D01*
X96300000Y-100900000D02*
X96200000Y-100900000D01*
X100700000Y-103300000D02*
X100600000Y-103200000D01*
X104900000Y-99100000D02*
X104900000Y-99200000D01*
X105400000Y-100500000D02*
X105500000Y-100600000D01*
X101100000Y-103300000D02*
X101000000Y-103300000D01*
X107500000Y-103000000D02*
X107500000Y-103100000D01*
X95900000Y-100900000D02*
X95800000Y-100900000D01*
X95800000Y-100900000D02*
X95700000Y-100800000D01*
X106900000Y-102000000D02*
X107000000Y-102100000D01*
X101400000Y-103300000D02*
X101300000Y-103300000D01*
X104900000Y-99000000D02*
X104900000Y-99100000D01*
X98700000Y-101300000D02*
X98600000Y-101200000D01*
X107300000Y-102400000D02*
X107400000Y-102500000D01*
X97700000Y-100900000D02*
X97600000Y-100900000D01*
X104900000Y-99700000D02*
X104900000Y-99800000D01*
X104900000Y-99300000D02*
X104900000Y-99400000D01*
X97500000Y-100900000D02*
X97400000Y-100900000D01*
X106700000Y-101800000D02*
X106800000Y-101900000D01*
X102500000Y-103700000D02*
X102400000Y-103700000D01*
X106200000Y-101300000D02*
X106300000Y-101400000D01*
X107500000Y-102700000D02*
X107500000Y-102800000D01*
X100100000Y-102700000D02*
X100000000Y-102600000D01*
X101200000Y-103300000D02*
X101100000Y-103300000D01*
X105000000Y-100100000D02*
X105100000Y-100200000D01*
X107100000Y-102200000D02*
X107200000Y-102300000D01*
X101900000Y-103500000D02*
X101800000Y-103400000D01*
X104900000Y-100000000D02*
X105000000Y-100100000D01*
X104900000Y-99200000D02*
X104900000Y-99300000D01*
X105100000Y-100200000D02*
X105200000Y-100300000D01*
X105300000Y-100400000D02*
X105400000Y-100500000D01*
X99300000Y-101900000D02*
X99200000Y-101800000D01*
X107500000Y-103800000D02*
X107500000Y-103900000D01*
X106500000Y-101600000D02*
X106600000Y-101700000D01*
X99600000Y-102200000D02*
X99500000Y-102100000D01*
X104250000Y-115350000D02*
X104250000Y-112850000D01*
X105500000Y-100600000D02*
X105600000Y-100700000D01*
X102300000Y-103600000D02*
X102200000Y-103600000D01*
X107500000Y-103600000D02*
X107500000Y-103700000D01*
X97300000Y-100900000D02*
X97200000Y-100900000D01*
X96500000Y-100900000D02*
X96400000Y-100900000D01*
X104900000Y-99600000D02*
X104900000Y-99700000D01*
X104900000Y-99900000D02*
X104900000Y-100000000D01*
X101600000Y-103300000D02*
X101500000Y-103300000D01*
X101800000Y-103400000D02*
X101700000Y-103400000D01*
X107400000Y-102600000D02*
X107500000Y-102700000D01*
X100900000Y-103300000D02*
X100800000Y-103300000D01*
X100300000Y-102900000D02*
X100200000Y-102800000D01*
X106600000Y-101700000D02*
X106700000Y-101800000D01*
X98900000Y-101500000D02*
X98800000Y-101400000D01*
X105700000Y-100800000D02*
X105800000Y-100900000D01*
X96900000Y-100900000D02*
X96800000Y-100900000D01*
X96800000Y-100900000D02*
X96700000Y-100900000D01*
X99500000Y-102100000D02*
X99300000Y-101900000D01*
X98600000Y-101200000D02*
X98500000Y-101100000D01*
X96400000Y-100900000D02*
X96300000Y-100900000D01*
X100000000Y-102600000D02*
X99900000Y-102500000D01*
X104900000Y-99800000D02*
X104900000Y-99900000D01*
X102000000Y-103500000D02*
X101900000Y-103500000D01*
X97600000Y-100900000D02*
X97500000Y-100900000D01*
X105600000Y-100700000D02*
X105700000Y-100800000D01*
X102200000Y-103600000D02*
X102100000Y-103500000D01*
X104900000Y-99500000D02*
X104900000Y-99600000D01*
X101700000Y-103400000D02*
X101600000Y-103300000D01*
X94503400Y-103103400D02*
X94503400Y-102700000D01*
X99200000Y-101800000D02*
X99100000Y-101700000D01*
X101000000Y-103300000D02*
X100900000Y-103300000D01*
X99100000Y-101700000D02*
X99000000Y-101600000D01*
X96100000Y-100900000D02*
X96000000Y-100900000D01*
X100200000Y-102800000D02*
X100100000Y-102700000D01*
X106800000Y-101900000D02*
X106900000Y-102000000D01*
X95700000Y-100800000D02*
X95600000Y-100700000D01*
X107500000Y-102800000D02*
X107500000Y-102900000D01*
X98400000Y-101000000D02*
X98300000Y-101000000D01*
X98500000Y-101100000D02*
X98400000Y-101000000D01*
X99800000Y-102400000D02*
X99700000Y-102300000D01*
X102600000Y-103800000D02*
X102500000Y-103700000D01*
X107600000Y-104100000D02*
X107700000Y-104200000D01*
X96600000Y-100900000D02*
X96500000Y-100900000D01*
X98100000Y-100900000D02*
X98000000Y-100900000D01*
X107500000Y-102900000D02*
X107500000Y-103000000D01*
X98800000Y-101400000D02*
X98700000Y-101300000D01*
X100500000Y-103100000D02*
X100400000Y-103000000D01*
X99000000Y-101600000D02*
X98900000Y-101500000D01*
X97200000Y-100900000D02*
X97100000Y-100900000D01*
X105200000Y-100300000D02*
X105300000Y-100400000D01*
X106400000Y-101500000D02*
X106500000Y-101600000D01*
X96700000Y-100900000D02*
X96600000Y-100900000D01*
X98200000Y-100900000D02*
X98100000Y-100900000D01*
X97900000Y-100900000D02*
X97800000Y-100900000D01*
X107500000Y-103700000D02*
X107500000Y-103800000D01*
X105800000Y-100900000D02*
X105900000Y-101000000D01*
X97100000Y-100900000D02*
X97000000Y-100900000D01*
X105900000Y-101000000D02*
X106000000Y-101100000D01*
X98000000Y-100900000D02*
X97900000Y-100900000D01*
X97800000Y-100900000D02*
X97700000Y-100900000D01*
X98300000Y-101000000D02*
X98200000Y-100900000D01*
X101300000Y-103300000D02*
X101200000Y-103300000D01*
X107500000Y-103300000D02*
X107500000Y-103400000D01*
X97000000Y-100900000D02*
X96900000Y-100900000D01*
X107500000Y-103500000D02*
X107500000Y-103600000D01*
%TO.N,CTP_RST*%
X93500000Y-96100000D02*
X93600000Y-96100000D01*
X90000000Y-95500000D02*
X90100000Y-95500000D01*
X92200000Y-99500000D02*
X92100000Y-99500000D01*
X90100000Y-95500000D02*
X90200000Y-95500000D01*
X99800000Y-106800000D02*
X99700000Y-106700000D01*
X101000000Y-108700000D02*
X101000000Y-108600000D01*
X94300000Y-96100000D02*
X94400000Y-96100000D01*
X104600000Y-112900000D02*
X104500000Y-112800000D01*
X98700000Y-106100000D02*
X98600000Y-106100000D01*
X91300000Y-99500000D02*
X91200000Y-99500000D01*
X90200000Y-95500000D02*
X90300000Y-95500000D01*
X101200000Y-109400000D02*
X101100000Y-109300000D01*
X91900000Y-95500000D02*
X92000000Y-95500000D01*
X92800000Y-96000000D02*
X92900000Y-96100000D01*
X89900000Y-95500000D02*
X90000000Y-95500000D01*
X94000000Y-96100000D02*
X94100000Y-96100000D01*
X101800000Y-110000000D02*
X101700000Y-109900000D01*
X103700000Y-111900000D02*
X103600000Y-111800000D01*
X90100000Y-99500000D02*
X90000000Y-99500000D01*
X100700000Y-107700000D02*
X100600000Y-107600000D01*
X89200000Y-95600000D02*
X89300000Y-95600000D01*
X90800000Y-95500000D02*
X90900000Y-95500000D01*
X99700000Y-106700000D02*
X99600000Y-106600000D01*
X95000000Y-96100000D02*
X95100000Y-96100000D01*
X103600000Y-111800000D02*
X103500000Y-111700000D01*
X97500000Y-105300000D02*
X97500000Y-105200000D01*
X89000000Y-95600000D02*
X89100000Y-95600000D01*
X97500000Y-105000000D02*
X97500000Y-104900000D01*
X103400000Y-111600000D02*
X103300000Y-111500000D01*
X95100000Y-96100000D02*
X95200000Y-96100000D01*
X89300000Y-95600000D02*
X89400000Y-95500000D01*
X95500000Y-96100000D02*
X95600000Y-96100000D01*
X94600000Y-96100000D02*
X94700000Y-96100000D01*
X97100000Y-104400000D02*
X97000000Y-104300000D01*
X103800000Y-112000000D02*
X103700000Y-111900000D01*
X95800000Y-103100000D02*
X95700000Y-103000000D01*
X96200000Y-103500000D02*
X96100000Y-103400000D01*
X99000000Y-106100000D02*
X98900000Y-106100000D01*
X104200000Y-112400000D02*
X104100000Y-112300000D01*
X101000000Y-109100000D02*
X101000000Y-109000000D01*
X98300000Y-106000000D02*
X98200000Y-106000000D01*
X92200000Y-95500000D02*
X92300000Y-95500000D01*
X101000000Y-108600000D02*
X101000000Y-108500000D01*
X96300000Y-103600000D02*
X96200000Y-103500000D01*
X101000000Y-108400000D02*
X101000000Y-108300000D01*
X95300000Y-102600000D02*
X95200000Y-102500000D01*
X95500000Y-102800000D02*
X95400000Y-102700000D01*
X90900000Y-95500000D02*
X91000000Y-95500000D01*
X102700000Y-110900000D02*
X102600000Y-110800000D01*
X90600000Y-95500000D02*
X90700000Y-95500000D01*
X89500000Y-95500000D02*
X89600000Y-95500000D01*
X93900000Y-96100000D02*
X94000000Y-96100000D01*
X95700000Y-96100000D02*
X95800000Y-96100000D01*
X101900000Y-110100000D02*
X101800000Y-110000000D01*
X96300000Y-96100000D02*
X96400000Y-96000000D01*
X99200000Y-106200000D02*
X99100000Y-106100000D01*
X93700000Y-96100000D02*
X93800000Y-96100000D01*
X95900000Y-96100000D02*
X96000000Y-96100000D01*
X97600000Y-105400000D02*
X97500000Y-105300000D01*
X104000000Y-112200000D02*
X103900000Y-112100000D01*
X91900000Y-99500000D02*
X91800000Y-99500000D01*
X93000000Y-96100000D02*
X93100000Y-96100000D01*
X89800000Y-95500000D02*
X89900000Y-95500000D01*
X98900000Y-106100000D02*
X98800000Y-106100000D01*
X95600000Y-102900000D02*
X95500000Y-102800000D01*
X100300000Y-107300000D02*
X100200000Y-107200000D01*
X102000000Y-110200000D02*
X101900000Y-110100000D01*
X100400000Y-107400000D02*
X100300000Y-107300000D01*
X102200000Y-110400000D02*
X102100000Y-110300000D01*
X98500000Y-106100000D02*
X98400000Y-106100000D01*
X93100000Y-96100000D02*
X93200000Y-96100000D01*
X94400000Y-96100000D02*
X94500000Y-96100000D01*
X92100000Y-99500000D02*
X92000000Y-99500000D01*
X104300000Y-112500000D02*
X104200000Y-112400000D01*
X101000000Y-109000000D02*
X101000000Y-108900000D01*
X102600000Y-110800000D02*
X102500000Y-110700000D01*
X89100000Y-95600000D02*
X89200000Y-95600000D01*
X91000000Y-95500000D02*
X91100000Y-95500000D01*
X96500000Y-103800000D02*
X96400000Y-103700000D01*
X89600000Y-95500000D02*
X89700000Y-95500000D01*
X101500000Y-109700000D02*
X101400000Y-109600000D01*
X95200000Y-96100000D02*
X95300000Y-96100000D01*
X95700000Y-103000000D02*
X95600000Y-102900000D01*
X90500000Y-95500000D02*
X90600000Y-95500000D01*
X93200000Y-96100000D02*
X93300000Y-96100000D01*
X103200000Y-111400000D02*
X103100000Y-111300000D01*
X102300000Y-110500000D02*
X102200000Y-110400000D01*
X104500000Y-112700000D02*
X104400000Y-112600000D01*
X100800000Y-107800000D02*
X100700000Y-107700000D01*
X89400000Y-95500000D02*
X89500000Y-95500000D01*
X98100000Y-105900000D02*
X98000000Y-105800000D01*
X93300000Y-96100000D02*
X93400000Y-96100000D01*
X101000000Y-108500000D02*
X101000000Y-108400000D01*
X99100000Y-106100000D02*
X99000000Y-106100000D01*
X90800000Y-99500000D02*
X90700000Y-99500000D01*
X101000000Y-108900000D02*
X101000000Y-108800000D01*
X98600000Y-106100000D02*
X98500000Y-106100000D01*
X97500000Y-105200000D02*
X97500000Y-105100000D01*
X97000000Y-104300000D02*
X96900000Y-104200000D01*
X89700000Y-99500000D02*
X89600000Y-99500000D01*
X96000000Y-103300000D02*
X95900000Y-103200000D01*
X103900000Y-112100000D02*
X103800000Y-112000000D01*
X90400000Y-99500000D02*
X90300000Y-99500000D01*
X97800000Y-105600000D02*
X97700000Y-105500000D01*
X89700000Y-95500000D02*
X89800000Y-95500000D01*
X94500000Y-96100000D02*
X94600000Y-96100000D01*
X104600000Y-113100000D02*
X104600000Y-113000000D01*
X97500000Y-104900000D02*
X97500000Y-104800000D01*
X92000000Y-99500000D02*
X91900000Y-99500000D01*
X100000000Y-107000000D02*
X99900000Y-106900000D01*
X102100000Y-110300000D02*
X102000000Y-110200000D01*
X104600000Y-113200000D02*
X104600000Y-113100000D01*
X91600000Y-95500000D02*
X91700000Y-95500000D01*
X100900000Y-107900000D02*
X100800000Y-107800000D01*
X91100000Y-99500000D02*
X91000000Y-99500000D01*
X98800000Y-106100000D02*
X98700000Y-106100000D01*
X99400000Y-106400000D02*
X99300000Y-106300000D01*
X101300000Y-109500000D02*
X101200000Y-109400000D01*
X97300000Y-104600000D02*
X97200000Y-104500000D01*
X91400000Y-95500000D02*
X91500000Y-95500000D01*
X98000000Y-105800000D02*
X97900000Y-105700000D01*
X97200000Y-104500000D02*
X97100000Y-104400000D01*
X97900000Y-105700000D02*
X97800000Y-105600000D01*
X93800000Y-96100000D02*
X93900000Y-96100000D01*
X96100000Y-96100000D02*
X96200000Y-96100000D01*
X92600000Y-95800000D02*
X92700000Y-95900000D01*
X90500000Y-99500000D02*
X90400000Y-99500000D01*
X97500000Y-104800000D02*
X97400000Y-104700000D01*
X103100000Y-111300000D02*
X103000000Y-111200000D01*
X91500000Y-95500000D02*
X91600000Y-95500000D01*
X91200000Y-95500000D02*
X91300000Y-95500000D01*
X95400000Y-96100000D02*
X95500000Y-96100000D01*
X89900000Y-99500000D02*
X89800000Y-99500000D01*
X90200000Y-99500000D02*
X90100000Y-99500000D01*
X104400000Y-112600000D02*
X104300000Y-112500000D01*
X101000000Y-108000000D02*
X100900000Y-107900000D01*
X96500000Y-96000000D02*
X97100000Y-95999900D01*
X91500000Y-99500000D02*
X91400000Y-99500000D01*
X99600000Y-106600000D02*
X99500000Y-106500000D01*
X101000000Y-108100000D02*
X101000000Y-108000000D01*
X95300000Y-96100000D02*
X95400000Y-96100000D01*
X91800000Y-95500000D02*
X91900000Y-95500000D01*
X90400000Y-95500000D02*
X90500000Y-95500000D01*
X91400000Y-99500000D02*
X91300000Y-99500000D01*
X99500000Y-106500000D02*
X99400000Y-106400000D01*
X94900000Y-96100000D02*
X95000000Y-96100000D01*
X96900000Y-104200000D02*
X96800000Y-104100000D01*
X96800000Y-104100000D02*
X96700000Y-104000000D01*
X99300000Y-106300000D02*
X99200000Y-106200000D01*
X91800000Y-99500000D02*
X91700000Y-99500000D01*
X96400000Y-96000000D02*
X96500000Y-96000000D01*
X97700000Y-105500000D02*
X97600000Y-105400000D01*
X101700000Y-109900000D02*
X101600000Y-109800000D01*
X103500000Y-111700000D02*
X103400000Y-111600000D01*
X98200000Y-106000000D02*
X98100000Y-105900000D01*
X92000000Y-95500000D02*
X92100000Y-95500000D01*
X92300000Y-95500000D02*
X92400000Y-95600000D01*
X90300000Y-95500000D02*
X90400000Y-95500000D01*
X95800000Y-96100000D02*
X95900000Y-96100000D01*
X103000000Y-111200000D02*
X102900000Y-111100000D01*
X91300000Y-95500000D02*
X91400000Y-95500000D01*
X91700000Y-95500000D02*
X91800000Y-95500000D01*
X101100000Y-109300000D02*
X101000000Y-109200000D01*
X94800000Y-96100000D02*
X94900000Y-96100000D01*
X94200000Y-96100000D02*
X94300000Y-96100000D01*
X100100000Y-107100000D02*
X100000000Y-107000000D01*
X91600000Y-99500000D02*
X91500000Y-99500000D01*
X96400000Y-103700000D02*
X96300000Y-103600000D01*
X101000000Y-108800000D02*
X101000000Y-108700000D01*
X93600000Y-96100000D02*
X93700000Y-96100000D01*
X102500000Y-110700000D02*
X102400000Y-110600000D01*
X90300000Y-99500000D02*
X90200000Y-99500000D01*
X95600000Y-96100000D02*
X95700000Y-96100000D01*
X90700000Y-99500000D02*
X90600000Y-99500000D01*
X92500000Y-95700000D02*
X92600000Y-95800000D01*
X95400000Y-102700000D02*
X95300000Y-102600000D01*
X101000000Y-108300000D02*
X101000000Y-108200000D01*
X104100000Y-112300000D02*
X104000000Y-112200000D01*
X104800000Y-113400000D02*
X104700000Y-113300000D01*
X96700000Y-104000000D02*
X96600000Y-103900000D01*
X94700000Y-96100000D02*
X94800000Y-96100000D01*
X91200000Y-99500000D02*
X91100000Y-99500000D01*
X102400000Y-110600000D02*
X102300000Y-110500000D01*
X92900000Y-96100000D02*
X93000000Y-96100000D01*
X93400000Y-96100000D02*
X93500000Y-96100000D01*
X96100000Y-103400000D02*
X96000000Y-103300000D01*
X90000000Y-99500000D02*
X89900000Y-99500000D01*
X97400000Y-104700000D02*
X97300000Y-104600000D01*
X98400000Y-106100000D02*
X98300000Y-106000000D01*
X96200000Y-96100000D02*
X96300000Y-96100000D01*
X91100000Y-95500000D02*
X91200000Y-95500000D01*
X91700000Y-99500000D02*
X91600000Y-99500000D01*
X95200000Y-102500000D02*
X95100000Y-102400000D01*
X101000000Y-109200000D02*
X101000000Y-109100000D01*
X102800000Y-111000000D02*
X102700000Y-110900000D01*
X90900000Y-99500000D02*
X90800000Y-99500000D01*
X100200000Y-107200000D02*
X100100000Y-107100000D01*
X104700000Y-113300000D02*
X104600000Y-113200000D01*
X95100000Y-102400000D02*
X95000000Y-102300000D01*
X90700000Y-95500000D02*
X90800000Y-95500000D01*
X101400000Y-109600000D02*
X101300000Y-109500000D01*
X96000000Y-96100000D02*
X96100000Y-96100000D01*
X102900000Y-111100000D02*
X102800000Y-111000000D01*
X92300000Y-99500000D02*
X92200000Y-99500000D01*
X92700000Y-95900000D02*
X92800000Y-96000000D01*
X99900000Y-106900000D02*
X99800000Y-106800000D01*
X96600000Y-103900000D02*
X96500000Y-103800000D01*
X104600000Y-113000000D02*
X104600000Y-112900000D01*
X101000000Y-108200000D02*
X101000000Y-108100000D01*
X95900000Y-103200000D02*
X95800000Y-103100000D01*
X92100000Y-95500000D02*
X92200000Y-95500000D01*
X101600000Y-109800000D02*
X101500000Y-109700000D01*
X100500000Y-107500000D02*
X100400000Y-107400000D01*
X89800000Y-99500000D02*
X89700000Y-99500000D01*
X90600000Y-99500000D02*
X90500000Y-99500000D01*
X94100000Y-96100000D02*
X94200000Y-96100000D01*
X92400000Y-95600000D02*
X92500000Y-95700000D01*
X97500000Y-105100000D02*
X97500000Y-105000000D01*
X104500000Y-112800000D02*
X104500000Y-112700000D01*
X100600000Y-107600000D02*
X100500000Y-107500000D01*
X91000000Y-99500000D02*
X90900000Y-99500000D01*
X103300000Y-111500000D02*
X103200000Y-111400000D01*
%TO.N,LCD_RST*%
X100200000Y-97400000D02*
X100200000Y-97300000D01*
X98800000Y-96600000D02*
X98700000Y-96600000D01*
X100200000Y-97800000D02*
X100200000Y-97700000D01*
X100200000Y-98800000D02*
X100200000Y-98700000D01*
X99000000Y-96700000D02*
X98900000Y-96700000D01*
X98000000Y-96500000D02*
X97900000Y-96500000D01*
X100200000Y-98100000D02*
X100200000Y-98000000D01*
X99300000Y-96700000D02*
X99200000Y-96700000D01*
X100200000Y-97700000D02*
X100200000Y-97600000D01*
X100200000Y-97300000D02*
X100200000Y-97200000D01*
X98400000Y-96500000D02*
X98300000Y-96500000D01*
X100200000Y-98500000D02*
X100200000Y-98400000D01*
X100200000Y-97000000D02*
X100100000Y-96900000D01*
X97600000Y-96500000D02*
X97500000Y-96500000D01*
X98900000Y-96700000D02*
X98800000Y-96600000D01*
X100000000Y-96800000D02*
X99900000Y-96800000D01*
X99800000Y-96700000D02*
X99700000Y-96700000D01*
X98500000Y-96500000D02*
X98400000Y-96500000D01*
X99400000Y-96700000D02*
X99300000Y-96700000D01*
X100200000Y-98600000D02*
X100200000Y-98500000D01*
X99200000Y-96700000D02*
X99100000Y-96700000D01*
X97300000Y-96500000D02*
X96650000Y-96400000D01*
X100200000Y-97200000D02*
X100200000Y-97100000D01*
X100200000Y-97500000D02*
X100200000Y-97400000D01*
X100200000Y-98400000D02*
X100200000Y-98300000D01*
X99900000Y-96800000D02*
X99800000Y-96700000D01*
X97900000Y-96500000D02*
X97800000Y-96500000D01*
X100200000Y-98200000D02*
X100200000Y-98100000D01*
X98600000Y-96500000D02*
X98500000Y-96500000D01*
X97500000Y-96500000D02*
X97400000Y-96500000D01*
X100100000Y-96900000D02*
X100000000Y-96800000D01*
X97700000Y-96500000D02*
X97600000Y-96500000D01*
X98100000Y-96500000D02*
X98000000Y-96500000D01*
X99700000Y-96700000D02*
X99600000Y-96700000D01*
X100200000Y-98700000D02*
X100200000Y-98600000D01*
X98200000Y-96500000D02*
X98100000Y-96500000D01*
X100200000Y-97600000D02*
X100200000Y-97500000D01*
X99600000Y-96700000D02*
X99500000Y-96700000D01*
X97800000Y-96500000D02*
X97700000Y-96500000D01*
X98700000Y-96600000D02*
X98600000Y-96500000D01*
X100200000Y-98300000D02*
X100200000Y-98200000D01*
X99500000Y-96700000D02*
X99400000Y-96700000D01*
X97400000Y-96500000D02*
X97300000Y-96500000D01*
X99100000Y-96700000D02*
X99000000Y-96700000D01*
X100200000Y-97100000D02*
X100200000Y-97000000D01*
X100200000Y-98000000D02*
X100200000Y-97900000D01*
X98300000Y-96500000D02*
X98200000Y-96500000D01*
X100200000Y-97900000D02*
X100200000Y-97800000D01*
%TO.N,BAT_ADC*%
X92700000Y-97500000D02*
X92600000Y-97500000D01*
X90400000Y-96700000D02*
X90500000Y-96700000D01*
X89800000Y-98100000D02*
X89700000Y-98200000D01*
X94800000Y-97800000D02*
X94700000Y-97800000D01*
X91500000Y-97500000D02*
X91400000Y-97500000D01*
X92600000Y-97500000D02*
X92500000Y-97500000D01*
X90800000Y-96700000D02*
X90900000Y-96700000D01*
X92000000Y-97500000D02*
X91900000Y-97500000D01*
X89500000Y-96000000D02*
X89600000Y-96000000D01*
X94000000Y-97600000D02*
X93900000Y-97500000D01*
X95200000Y-97800000D02*
X95100000Y-97800000D01*
X90500000Y-97500000D02*
X90400000Y-97500000D01*
X90700000Y-97500000D02*
X90600000Y-97500000D01*
X89900000Y-98000000D02*
X89800000Y-98100000D01*
X94300000Y-97600000D02*
X94200000Y-97600000D01*
X92500000Y-97500000D02*
X92400000Y-97500000D01*
X89700000Y-98200000D02*
X89600000Y-98300000D01*
X91200000Y-97500000D02*
X91100000Y-97500000D01*
X93100000Y-97500000D02*
X93000000Y-97500000D01*
X91200000Y-96700000D02*
X91300000Y-96700000D01*
X91700000Y-96600000D02*
X92353400Y-96396500D01*
X91800000Y-97500000D02*
X91700000Y-97500000D01*
X93200000Y-97500000D02*
X93100000Y-97500000D01*
X94100000Y-97600000D02*
X94000000Y-97600000D01*
X91000000Y-96700000D02*
X91100000Y-96700000D01*
X93600000Y-97500000D02*
X93500000Y-97500000D01*
X94700000Y-97800000D02*
X94600000Y-97800000D01*
X94500000Y-97800000D02*
X94400000Y-97700000D01*
X93000000Y-97500000D02*
X92900000Y-97500000D01*
X90300000Y-96700000D02*
X90400000Y-96700000D01*
X91300000Y-96700000D02*
X91400000Y-96700000D01*
X94400000Y-97700000D02*
X94300000Y-97600000D01*
X91900000Y-97500000D02*
X91800000Y-97500000D01*
X91400000Y-97500000D02*
X91300000Y-97500000D01*
X92300000Y-97500000D02*
X92200000Y-97500000D01*
X91500000Y-96700000D02*
X91600000Y-96700000D01*
X90500000Y-96700000D02*
X90600000Y-96700000D01*
X93400000Y-97500000D02*
X93300000Y-97500000D01*
X93500000Y-97500000D02*
X93400000Y-97500000D01*
X90700000Y-96700000D02*
X90800000Y-96700000D01*
X89800000Y-96200000D02*
X89900000Y-96300000D01*
X89700000Y-96100000D02*
X89800000Y-96200000D01*
X93700000Y-97500000D02*
X93600000Y-97500000D01*
X92900000Y-97500000D02*
X92800000Y-97500000D01*
X89600000Y-96000000D02*
X89700000Y-96100000D01*
X92800000Y-97500000D02*
X92700000Y-97500000D01*
X90100000Y-96500000D02*
X90200000Y-96600000D01*
X90300000Y-97600000D02*
X90200000Y-97700000D01*
X90800000Y-97500000D02*
X90700000Y-97500000D01*
X94200000Y-97600000D02*
X94100000Y-97600000D01*
X90900000Y-97500000D02*
X90800000Y-97500000D01*
X89900000Y-96300000D02*
X90000000Y-96400000D01*
X93300000Y-97500000D02*
X93200000Y-97500000D01*
X95100000Y-97800000D02*
X95000000Y-97800000D01*
X91400000Y-96700000D02*
X91500000Y-96700000D01*
X91600000Y-96700000D02*
X91700000Y-96600000D01*
X91000000Y-97500000D02*
X90900000Y-97500000D01*
X92200000Y-97500000D02*
X92100000Y-97500000D01*
X91100000Y-97500000D02*
X91000000Y-97500000D01*
X92100000Y-97500000D02*
X92000000Y-97500000D01*
X90000000Y-96400000D02*
X90100000Y-96500000D01*
X91300000Y-97500000D02*
X91200000Y-97500000D01*
X90600000Y-97500000D02*
X90500000Y-97500000D01*
X90900000Y-96700000D02*
X91000000Y-96700000D01*
X90100000Y-97800000D02*
X90000000Y-97900000D01*
X90400000Y-97500000D02*
X90300000Y-97600000D01*
X93900000Y-97500000D02*
X93800000Y-97500000D01*
X90000000Y-97900000D02*
X89900000Y-98000000D01*
X91700000Y-97500000D02*
X91600000Y-97500000D01*
X95000000Y-97800000D02*
X94900000Y-97800000D01*
X94900000Y-97800000D02*
X94800000Y-97800000D01*
X90200000Y-96600000D02*
X90300000Y-96700000D01*
X95400000Y-97850000D02*
X95200000Y-97800000D01*
X92400000Y-97500000D02*
X92300000Y-97500000D01*
X90600000Y-96700000D02*
X90700000Y-96700000D01*
X90200000Y-97700000D02*
X90100000Y-97800000D01*
X91100000Y-96700000D02*
X91200000Y-96700000D01*
X93800000Y-97500000D02*
X93700000Y-97500000D01*
X94600000Y-97800000D02*
X94500000Y-97800000D01*
X91600000Y-97500000D02*
X91500000Y-97500000D01*
%TO.N,LCD_D3*%
X96300000Y-106100000D02*
X96200000Y-106000000D01*
X96100000Y-99600000D02*
X96200000Y-99600000D01*
X96400000Y-106700000D02*
X96400000Y-106600000D01*
X95200000Y-99500000D02*
X95300000Y-99600000D01*
X93800000Y-99400000D02*
X93900000Y-99400000D01*
X94700000Y-99400000D02*
X94800000Y-99400000D01*
X93900000Y-99400000D02*
X94000000Y-99400000D01*
X96400000Y-106900000D02*
X96400000Y-106800000D01*
X95000000Y-99400000D02*
X95100000Y-99400000D01*
X96000000Y-99600000D02*
X96100000Y-99600000D01*
X93200000Y-100300000D02*
X93200000Y-100200000D01*
X93200000Y-99900000D02*
X93200000Y-99800000D01*
X95700000Y-105500000D02*
X95600000Y-105400000D01*
X96400000Y-106300000D02*
X96400000Y-106200000D01*
X96400000Y-107000000D02*
X96400000Y-106900000D01*
X96400000Y-107200000D02*
X96400000Y-107100000D01*
X97100000Y-100000000D02*
X97200000Y-100100000D01*
X94200000Y-99400000D02*
X94300000Y-99400000D01*
X96400000Y-106800000D02*
X96400000Y-106700000D01*
X93200000Y-99700000D02*
X93300000Y-99600000D01*
X94600000Y-99400000D02*
X94700000Y-99400000D01*
X95500000Y-99600000D02*
X95600000Y-99600000D01*
X95600000Y-99600000D02*
X95700000Y-99600000D01*
X96000000Y-105800000D02*
X95900000Y-105700000D01*
X93200000Y-99800000D02*
X93200000Y-99700000D01*
X95900000Y-105700000D02*
X95800000Y-105600000D01*
X93400000Y-99500000D02*
X93500000Y-99400000D01*
X97200000Y-100100000D02*
X97300000Y-100200000D01*
X94100000Y-99400000D02*
X94200000Y-99400000D01*
X96500000Y-99600000D02*
X96600000Y-99600000D01*
X95100000Y-99400000D02*
X95200000Y-99500000D01*
X96400000Y-106400000D02*
X96400000Y-106300000D01*
X94900000Y-99400000D02*
X95000000Y-99400000D01*
X96800000Y-99700000D02*
X96900000Y-99800000D01*
X96700000Y-99600000D02*
X96800000Y-99700000D01*
X95600000Y-105400000D02*
X95500000Y-105300000D01*
X96400000Y-99600000D02*
X96500000Y-99600000D01*
X93200000Y-100200000D02*
X93200000Y-100100000D01*
X96400000Y-106600000D02*
X96400000Y-106500000D01*
D15*
X96520200Y-113324000D02*
X96379700Y-113324000D01*
D14*
X96400000Y-107100000D02*
X96400000Y-107000000D01*
X96200000Y-106000000D02*
X96100000Y-105900000D01*
X96400000Y-106200000D02*
X96300000Y-106100000D01*
X93700000Y-99400000D02*
X93800000Y-99400000D01*
X93200000Y-100000000D02*
X93200000Y-99900000D01*
X96900000Y-99800000D02*
X97000000Y-99900000D01*
X95900000Y-99600000D02*
X96000000Y-99600000D01*
X94800000Y-99400000D02*
X94900000Y-99400000D01*
X95800000Y-105600000D02*
X95700000Y-105500000D01*
X96300000Y-99600000D02*
X96400000Y-99600000D01*
X96600000Y-99600000D02*
X96700000Y-99600000D01*
X97000000Y-99900000D02*
X97100000Y-100000000D01*
X94500000Y-99400000D02*
X94600000Y-99400000D01*
X96200000Y-99600000D02*
X96300000Y-99600000D01*
X93600000Y-99400000D02*
X93700000Y-99400000D01*
X95400000Y-99600000D02*
X95500000Y-99600000D01*
X96100000Y-105900000D02*
X96000000Y-105800000D01*
X95500000Y-105300000D02*
X95400000Y-105200000D01*
X95700000Y-99600000D02*
X95800000Y-99600000D01*
X95800000Y-99600000D02*
X95900000Y-99600000D01*
X93200000Y-100100000D02*
X93200000Y-100000000D01*
X95300000Y-99600000D02*
X95400000Y-99600000D01*
X96400000Y-107300000D02*
X96400000Y-107200000D01*
X93300000Y-99600000D02*
X93400000Y-99500000D01*
X93500000Y-99400000D02*
X93600000Y-99400000D01*
X94000000Y-99400000D02*
X94100000Y-99400000D01*
X96400000Y-106500000D02*
X96400000Y-106400000D01*
X94300000Y-99400000D02*
X94400000Y-99400000D01*
X94400000Y-99400000D02*
X94500000Y-99400000D01*
X96400000Y-107400000D02*
X96400000Y-107300000D01*
%TO.N,LCD_CS*%
D15*
X96830200Y-114445000D02*
X97177300Y-114445000D01*
X99949100Y-117217000D02*
X101750000Y-117217000D01*
X97177300Y-114445000D02*
X99949100Y-117217000D01*
%TO.N,LCD_SCK*%
D14*
X101200000Y-116000000D02*
X101100000Y-115900000D01*
X101400000Y-116200000D02*
X101300000Y-116100000D01*
X101900000Y-116700000D02*
X101800000Y-116600000D01*
X102100000Y-116900000D02*
X102000000Y-116800000D01*
X101300000Y-116100000D02*
X101200000Y-116000000D01*
X102200000Y-117200000D02*
X102200000Y-117100000D01*
X101500000Y-116300000D02*
X101400000Y-116200000D01*
X102000000Y-116800000D02*
X101900000Y-116700000D01*
X101100000Y-115900000D02*
X100750000Y-115350000D01*
X102200000Y-117300000D02*
X102200000Y-117200000D01*
X102200000Y-117100000D02*
X102200000Y-117000000D01*
X102200000Y-117000000D02*
X102100000Y-116900000D01*
X102200000Y-117700000D02*
X102200000Y-117600000D01*
X101800000Y-116600000D02*
X101700000Y-116500000D01*
X102200000Y-117500000D02*
X102200000Y-117400000D01*
X102200000Y-117600000D02*
X102200000Y-117500000D01*
X101600000Y-116400000D02*
X101500000Y-116300000D01*
X101700000Y-116500000D02*
X101600000Y-116400000D01*
X102200000Y-117400000D02*
X102200000Y-117300000D01*
%TO.N,LCD_D1*%
X104900000Y-117500000D02*
X105000000Y-117500000D01*
X104200000Y-117500000D02*
X104300000Y-117500000D01*
X91400000Y-112700000D02*
X91300000Y-112700000D01*
X98000000Y-117600000D02*
X98100000Y-117600000D01*
X101800000Y-118000000D02*
X101900000Y-118100000D01*
X105900000Y-117500000D02*
X106000000Y-117500000D01*
X95500000Y-112700000D02*
X95400000Y-112700000D01*
X109300000Y-104200000D02*
X109300000Y-104100000D01*
X94500000Y-112700000D02*
X94400000Y-112700000D01*
X105400000Y-117500000D02*
X105500000Y-117500000D01*
X99000000Y-117600000D02*
X99100000Y-117700000D01*
X99100000Y-117700000D02*
X99200000Y-117700000D01*
X97700000Y-117600000D02*
X97800000Y-117600000D01*
X102300000Y-118200000D02*
X102400000Y-118100000D01*
X103800000Y-117900000D02*
X103900000Y-117800000D01*
X104100000Y-117600000D02*
X104200000Y-117500000D01*
X92000000Y-112700000D02*
X91900000Y-112700000D01*
X93000000Y-112700000D02*
X92900000Y-112700000D01*
X100600000Y-117700000D02*
X100700000Y-117700000D01*
X93900000Y-112700000D02*
X93800000Y-112700000D01*
X97300000Y-112700000D02*
X97200000Y-112700000D01*
X98100000Y-113100000D02*
X98000000Y-113000000D01*
X102000000Y-118100000D02*
X102100000Y-118200000D01*
X109300000Y-106200000D02*
X109300000Y-106100000D01*
X96100000Y-112700000D02*
X96000000Y-112700000D01*
X96500000Y-112700000D02*
X96400000Y-112700000D01*
X96700000Y-112700000D02*
X96600000Y-112700000D01*
X97100000Y-112700000D02*
X97000000Y-112700000D01*
X105800000Y-117500000D02*
X105900000Y-117500000D01*
X99500000Y-117700000D02*
X99600000Y-117700000D01*
X99900000Y-117700000D02*
X100000000Y-117700000D01*
X92900000Y-112700000D02*
X92800000Y-112700000D01*
X107000000Y-117500000D02*
X107100000Y-117500000D01*
X105300000Y-117500000D02*
X105400000Y-117500000D01*
X94900000Y-112700000D02*
X94800000Y-112700000D01*
X106900000Y-117500000D02*
X107000000Y-117500000D01*
X98600000Y-117600000D02*
X98700000Y-117600000D01*
X101000000Y-117700000D02*
X101100000Y-117700000D01*
X96800000Y-112700000D02*
X96700000Y-112700000D01*
X97400000Y-112700000D02*
X97300000Y-112700000D01*
X98200000Y-117600000D02*
X98300000Y-117600000D01*
X90900000Y-112700000D02*
X90800000Y-112700000D01*
X98000000Y-113000000D02*
X97900000Y-112900000D01*
X105200000Y-117500000D02*
X105300000Y-117500000D01*
X106500000Y-117500000D02*
X106600000Y-117500000D01*
X98100000Y-117600000D02*
X98200000Y-117600000D01*
X96900000Y-112700000D02*
X96800000Y-112700000D01*
X97900000Y-117600000D02*
X98000000Y-117600000D01*
X106400000Y-117500000D02*
X106500000Y-117500000D01*
X101700000Y-117900000D02*
X101800000Y-118000000D01*
X99300000Y-117700000D02*
X99400000Y-117700000D01*
X104400000Y-117500000D02*
X104500000Y-117500000D01*
X106000000Y-117500000D02*
X106100000Y-117500000D01*
X100800000Y-117700000D02*
X100900000Y-117700000D01*
X96000000Y-112700000D02*
X95900000Y-112700000D01*
X109300000Y-104500000D02*
X109300000Y-104400000D01*
X92600000Y-112700000D02*
X92500000Y-112700000D01*
X107100000Y-117500000D02*
X107200000Y-117500000D01*
X100200000Y-117700000D02*
X100300000Y-117700000D01*
X103100000Y-118000000D02*
X103200000Y-118000000D01*
X99400000Y-117700000D02*
X99500000Y-117700000D01*
X93800000Y-112700000D02*
X93700000Y-112700000D01*
X109300000Y-105800000D02*
X109300000Y-105700000D01*
X105000000Y-117500000D02*
X105100000Y-117500000D01*
X94300000Y-112700000D02*
X94200000Y-112700000D01*
X93300000Y-112700000D02*
X93200000Y-112700000D01*
X109300000Y-105600000D02*
X109300000Y-105500000D01*
X109300000Y-104900000D02*
X109300000Y-104800000D01*
X98400000Y-117600000D02*
X98500000Y-117600000D01*
X95800000Y-112700000D02*
X95700000Y-112700000D01*
X95600000Y-112700000D02*
X95500000Y-112700000D01*
X93400000Y-112700000D02*
X93300000Y-112700000D01*
X94700000Y-112700000D02*
X94600000Y-112700000D01*
X98300000Y-117600000D02*
X98400000Y-117600000D01*
X109300000Y-105100000D02*
X109300000Y-105000000D01*
X109300000Y-106400000D02*
X109300000Y-106300000D01*
X104600000Y-117500000D02*
X104700000Y-117500000D01*
X95900000Y-112700000D02*
X95800000Y-112700000D01*
X105700000Y-117500000D02*
X105800000Y-117500000D01*
X92300000Y-112700000D02*
X92200000Y-112700000D01*
X91700000Y-112700000D02*
X91600000Y-112700000D01*
X104300000Y-117500000D02*
X104400000Y-117500000D01*
X106600000Y-117500000D02*
X106700000Y-117500000D01*
X97700000Y-112700000D02*
X97600000Y-112700000D01*
X94100000Y-112700000D02*
X94000000Y-112700000D01*
X100300000Y-117700000D02*
X100400000Y-117700000D01*
X91500000Y-112700000D02*
X91400000Y-112700000D01*
X109300000Y-106500000D02*
X109300000Y-106400000D01*
X103500000Y-118000000D02*
X103600000Y-118000000D01*
X94200000Y-112700000D02*
X94100000Y-112700000D01*
X104000000Y-117700000D02*
X104100000Y-117600000D01*
X96300000Y-112700000D02*
X96200000Y-112700000D01*
X98800000Y-117600000D02*
X98900000Y-117600000D01*
X101500000Y-117700000D02*
X101600000Y-117800000D01*
X99600000Y-117700000D02*
X99700000Y-117700000D01*
X95100000Y-112700000D02*
X95000000Y-112700000D01*
X91800000Y-112700000D02*
X91700000Y-112700000D01*
X102400000Y-118100000D02*
X102500000Y-118100000D01*
X93600000Y-112700000D02*
X93500000Y-112700000D01*
X98500000Y-113500000D02*
X98400000Y-113400000D01*
X109300000Y-105000000D02*
X109300000Y-104900000D01*
X103600000Y-118000000D02*
X103700000Y-117900000D01*
X105500000Y-117500000D02*
X105600000Y-117500000D01*
X92200000Y-112700000D02*
X92100000Y-112700000D01*
X105600000Y-117500000D02*
X105700000Y-117500000D01*
X107200000Y-117500000D02*
X107300000Y-117500000D01*
X102100000Y-118200000D02*
X102200000Y-118200000D01*
X104700000Y-117500000D02*
X104800000Y-117500000D01*
X100000000Y-117700000D02*
X100100000Y-117700000D01*
X95400000Y-112700000D02*
X95300000Y-112700000D01*
X101100000Y-117700000D02*
X101200000Y-117700000D01*
X91000000Y-112700000D02*
X90900000Y-112700000D01*
X106100000Y-117500000D02*
X106200000Y-117500000D01*
X101400000Y-117700000D02*
X101500000Y-117700000D01*
X109300000Y-105300000D02*
X109300000Y-105200000D01*
X100500000Y-117700000D02*
X100600000Y-117700000D01*
X95700000Y-112700000D02*
X95600000Y-112700000D01*
X106200000Y-117500000D02*
X106300000Y-117500000D01*
X97200000Y-112700000D02*
X97100000Y-112700000D01*
X102700000Y-118000000D02*
X102800000Y-118000000D01*
X92800000Y-112700000D02*
X92700000Y-112700000D01*
X97800000Y-117600000D02*
X97900000Y-117600000D01*
X96200000Y-112700000D02*
X96100000Y-112700000D01*
X106800000Y-117500000D02*
X106900000Y-117500000D01*
X99700000Y-117700000D02*
X99800000Y-117700000D01*
X90800000Y-112700000D02*
X90700000Y-112700000D01*
X97000000Y-112700000D02*
X96900000Y-112700000D01*
X98900000Y-117600000D02*
X99000000Y-117600000D01*
X98500000Y-117600000D02*
X98600000Y-117600000D01*
X103000000Y-118000000D02*
X103100000Y-118000000D01*
X98700000Y-117600000D02*
X98800000Y-117600000D01*
X109300000Y-105400000D02*
X109300000Y-105300000D01*
X104800000Y-117500000D02*
X104900000Y-117500000D01*
X95300000Y-112700000D02*
X95200000Y-112700000D01*
X109300000Y-106300000D02*
X109300000Y-106200000D01*
X95000000Y-112700000D02*
X94900000Y-112700000D01*
X91100000Y-112700000D02*
X91000000Y-112700000D01*
X92700000Y-112700000D02*
X92600000Y-112700000D01*
X101600000Y-117800000D02*
X101700000Y-117900000D01*
X102600000Y-118000000D02*
X102700000Y-118000000D01*
X97500000Y-112700000D02*
X97400000Y-112700000D01*
X105100000Y-117500000D02*
X105200000Y-117500000D01*
X109300000Y-106100000D02*
X109300000Y-106000000D01*
X94600000Y-112700000D02*
X94500000Y-112700000D01*
X109300000Y-106000000D02*
X109300000Y-105900000D01*
X94000000Y-112700000D02*
X93900000Y-112700000D01*
X103700000Y-117900000D02*
X103800000Y-117900000D01*
X93200000Y-112700000D02*
X93100000Y-112700000D01*
X102800000Y-118000000D02*
X102900000Y-118000000D01*
X102200000Y-118200000D02*
X102300000Y-118200000D01*
X92400000Y-112700000D02*
X92300000Y-112700000D01*
X92500000Y-112700000D02*
X92400000Y-112700000D01*
X103400000Y-118000000D02*
X103500000Y-118000000D01*
X109300000Y-104300000D02*
X109300000Y-104200000D01*
X109300000Y-105900000D02*
X109300000Y-105800000D01*
X106700000Y-117500000D02*
X106800000Y-117500000D01*
X98400000Y-113400000D02*
X98300000Y-113300000D01*
X107300000Y-117500000D02*
X107400000Y-117500000D01*
X100700000Y-117700000D02*
X100800000Y-117700000D01*
X92100000Y-112700000D02*
X92000000Y-112700000D01*
X96600000Y-112700000D02*
X96500000Y-112700000D01*
X106300000Y-117500000D02*
X106400000Y-117500000D01*
X109300000Y-105500000D02*
X109300000Y-105400000D01*
X109300000Y-105700000D02*
X109300000Y-105600000D01*
X109300000Y-105200000D02*
X109300000Y-105100000D01*
X98300000Y-113300000D02*
X98200000Y-113200000D01*
X97900000Y-112900000D02*
X97800000Y-112800000D01*
X91600000Y-112700000D02*
X91500000Y-112700000D01*
X102900000Y-118000000D02*
X103000000Y-118000000D01*
X104500000Y-117500000D02*
X104600000Y-117500000D01*
X97800000Y-112800000D02*
X97700000Y-112700000D01*
X95200000Y-112700000D02*
X95100000Y-112700000D01*
X100100000Y-117700000D02*
X100200000Y-117700000D01*
X93500000Y-112700000D02*
X93400000Y-112700000D01*
X103900000Y-117800000D02*
X104000000Y-117700000D01*
X101200000Y-117700000D02*
X101300000Y-117700000D01*
X100400000Y-117700000D02*
X100500000Y-117700000D01*
X96400000Y-112700000D02*
X96300000Y-112700000D01*
X93700000Y-112700000D02*
X93600000Y-112700000D01*
X99200000Y-117700000D02*
X99300000Y-117700000D01*
X97600000Y-117600000D02*
X97700000Y-117600000D01*
X94400000Y-112700000D02*
X94300000Y-112700000D01*
X101300000Y-117700000D02*
X101400000Y-117700000D01*
X98200000Y-113200000D02*
X98100000Y-113100000D01*
X91900000Y-112700000D02*
X91800000Y-112700000D01*
X101900000Y-118100000D02*
X102000000Y-118100000D01*
X109300000Y-104400000D02*
X109300000Y-104300000D01*
X103200000Y-118000000D02*
X103300000Y-118000000D01*
X94800000Y-112700000D02*
X94700000Y-112700000D01*
X103300000Y-118000000D02*
X103400000Y-118000000D01*
X109300000Y-104700000D02*
X109300000Y-104600000D01*
X90700000Y-112700000D02*
X90600000Y-112700000D01*
X102500000Y-118100000D02*
X102600000Y-118000000D01*
X99800000Y-117700000D02*
X99900000Y-117700000D01*
X93100000Y-112700000D02*
X93000000Y-112700000D01*
X109300000Y-104800000D02*
X109300000Y-104700000D01*
X100900000Y-117700000D02*
X101000000Y-117700000D01*
X91200000Y-112700000D02*
X91100000Y-112700000D01*
X97600000Y-112700000D02*
X97500000Y-112700000D01*
X91300000Y-112700000D02*
X91200000Y-112700000D01*
X109300000Y-104600000D02*
X109300000Y-104500000D01*
%TO.N,LCD_D2*%
X103457600Y-100365400D02*
X101014100Y-102808900D01*
X101014100Y-102808900D02*
X100836600Y-102808900D01*
%TO.N,+3V3*%
D19*
X99700000Y-90750000D02*
X98850000Y-90750000D01*
D16*
X82800000Y-90600000D02*
X83000000Y-90600000D01*
D19*
X102350000Y-100750000D02*
X98650000Y-100750000D01*
D18*
X103600000Y-91700000D02*
X101750000Y-89850000D01*
D16*
X89400000Y-91600000D02*
X89600000Y-91600000D01*
D18*
X106900000Y-102800000D02*
X103600000Y-99500000D01*
X103600000Y-99500000D02*
X103600000Y-91700000D01*
D16*
X91000000Y-92450000D02*
X90149999Y-91600000D01*
X89600000Y-91600000D02*
X89800000Y-91600000D01*
X88800000Y-91600000D02*
X89000000Y-91600000D01*
X87200000Y-102200000D02*
X87000000Y-102000000D01*
X82400000Y-90600000D02*
X82600000Y-90600000D01*
D19*
X103600000Y-99500000D02*
X102350000Y-100750000D01*
D16*
X88600000Y-91600000D02*
X88800000Y-91600000D01*
X100041000Y-91172600D02*
X100785000Y-91916500D01*
X87800000Y-91600000D02*
X88000000Y-91600000D01*
X86800000Y-101800000D02*
X86600000Y-101600000D01*
X85000000Y-90600000D02*
X84800000Y-90600000D01*
X85600000Y-100600000D02*
X85400000Y-100400000D01*
X84000000Y-90600000D02*
X84200000Y-90600000D01*
D18*
X106900000Y-106450000D02*
X106900000Y-105650000D01*
D16*
X89200000Y-91600000D02*
X89400000Y-91600000D01*
X88000000Y-91600000D02*
X88200000Y-91600000D01*
X89000000Y-91600000D02*
X89200000Y-91600000D01*
X83200000Y-90600000D02*
X83400000Y-90600000D01*
X87600000Y-103400000D02*
X87600000Y-103200000D01*
X86400000Y-101400000D02*
X86200000Y-101200000D01*
X85800000Y-90800000D02*
X85600000Y-90600000D01*
D19*
X98650000Y-100750000D02*
X97250000Y-99350000D01*
D16*
X87400000Y-102600000D02*
X87400000Y-102400000D01*
X84800000Y-99800000D02*
X84600000Y-99800000D01*
X96407300Y-91172600D02*
X100041000Y-91172600D01*
X88800000Y-104200000D02*
X88600000Y-104000000D01*
X88400000Y-103800000D02*
X88200000Y-103800000D01*
D18*
X106900000Y-105650000D02*
X106900000Y-102800000D01*
D16*
X87400000Y-103000000D02*
X87400000Y-102800000D01*
X88000000Y-103800000D02*
X87800000Y-103600000D01*
X89692300Y-109247000D02*
X90475200Y-109247000D01*
X84400000Y-90600000D02*
X84600000Y-90600000D01*
X86000000Y-101000000D02*
X85800000Y-100800000D01*
X83600000Y-90600000D02*
X83800000Y-90600000D01*
X88200000Y-91600000D02*
X88400000Y-91600000D01*
X85400000Y-90600000D02*
X85200000Y-90600000D01*
X85839600Y-105394000D02*
X89692300Y-109247000D01*
X84400000Y-99800000D02*
X84200000Y-99800000D01*
X88400000Y-91600000D02*
X88600000Y-91600000D01*
D19*
X100600000Y-89850000D02*
X99700000Y-90750000D01*
X101750000Y-89850000D02*
X100600000Y-89850000D01*
D16*
X90149999Y-91600000D02*
X87800000Y-91600000D01*
X85200000Y-100200000D02*
X85000000Y-100000000D01*
D19*
X98850000Y-90750000D02*
X97900000Y-89800000D01*
%TO.N,CHG_ALLOW*%
D15*
X105685000Y-91787900D02*
X105685000Y-99059900D01*
X106946000Y-115345000D02*
X105134000Y-115345000D01*
X106640000Y-89365600D02*
X102288000Y-89365600D01*
X108778000Y-110793000D02*
X109887000Y-111902000D01*
X109887000Y-111902000D02*
X109887000Y-112405000D01*
X105134000Y-115345000D02*
X104880000Y-115599000D01*
X106962000Y-90510900D02*
X105685000Y-91787900D01*
X108778000Y-102153000D02*
X108778000Y-110793000D01*
X109887000Y-112405000D02*
X106946000Y-115345000D01*
X106864000Y-89589000D02*
X106640000Y-89365600D01*
X105685000Y-99059900D02*
X108778000Y-102153000D01*
%TO.N,VBUS*%
D18*
X111800000Y-104800000D02*
X111600000Y-105000000D01*
X110200000Y-107200000D02*
X110200000Y-107400000D01*
X112600000Y-104000000D02*
X112400000Y-104200000D01*
X112200000Y-104400000D02*
X112000000Y-104600000D01*
X111600000Y-105000000D02*
X111600000Y-105200000D01*
X111400000Y-105400000D02*
X111200000Y-105600000D01*
X112882000Y-103593000D02*
X112600000Y-104000000D01*
X110200000Y-107000000D02*
X110200000Y-107200000D01*
X110200000Y-107400000D02*
X110000000Y-107600000D01*
X111600000Y-105200000D02*
X111400000Y-105400000D01*
X111000000Y-105800000D02*
X110800000Y-106000000D01*
X110200000Y-106800000D02*
X110200000Y-107000000D01*
X110600000Y-106200000D02*
X110400000Y-106400000D01*
X114303000Y-102173000D02*
X114303000Y-100203000D01*
X110400000Y-106400000D02*
X110200000Y-106600000D01*
X114303000Y-100203000D02*
X116385000Y-98120200D01*
X112000000Y-104600000D02*
X111800000Y-104800000D01*
X83053400Y-88285700D02*
X83060800Y-88278300D01*
X110000000Y-107800000D02*
X109800000Y-108000000D01*
X110200000Y-106600000D02*
X110200000Y-106800000D01*
X110800000Y-106000000D02*
X110600000Y-106200000D01*
X110000000Y-107600000D02*
X110000000Y-107800000D01*
X112882000Y-103593000D02*
X114303000Y-102173000D01*
X116385000Y-98120200D02*
X116385000Y-97599700D01*
X109800000Y-108000000D02*
X109600000Y-108200000D01*
X111200000Y-105600000D02*
X111000000Y-105800000D01*
X112400000Y-104200000D02*
X112200000Y-104400000D01*
%TO.N,VSYS*%
X87568100Y-109017900D02*
X82687100Y-109017900D01*
X101400000Y-112717000D02*
X98504100Y-112717000D01*
X98504100Y-112717000D02*
X97738600Y-111951500D01*
X101400000Y-104176300D02*
X101400000Y-104471300D01*
X79524600Y-105855400D02*
X79524600Y-98247600D01*
X101400000Y-113718900D02*
X101400000Y-112717000D01*
X110247700Y-116767400D02*
X104448500Y-116767400D01*
X104448500Y-116767400D02*
X101400000Y-113718900D01*
X97738600Y-111951500D02*
X90501700Y-111951500D01*
X82687100Y-109017900D02*
X79524600Y-105855400D01*
X90501700Y-111951500D02*
X87568100Y-109017900D01*
X79524600Y-98247600D02*
X78846300Y-97569300D01*
X113600000Y-113415100D02*
X110247700Y-116767400D01*
%TO.N,DONE_N*%
D15*
X90000100Y-103770000D02*
X90000100Y-105960000D01*
X90523600Y-106484000D02*
X90523600Y-107276000D01*
X83351000Y-97121200D02*
X90000100Y-103770000D01*
X91299900Y-108943000D02*
X91490700Y-108943000D01*
X90331900Y-107468000D02*
X90331900Y-107975000D01*
X90523600Y-107276000D02*
X90331900Y-107468000D01*
X90331900Y-107975000D02*
X91299900Y-108943000D01*
X90000100Y-105960000D02*
X90523600Y-106484000D01*
%TO.N,LED_DONE_A*%
X81004500Y-103017000D02*
X81004500Y-98779800D01*
X84690900Y-95884400D02*
X85631400Y-96824900D01*
X85631400Y-96824900D02*
X85631400Y-97587200D01*
X83899900Y-95884400D02*
X84690900Y-95884400D01*
X81473000Y-103486000D02*
X81004500Y-103017000D01*
X81004500Y-98779800D02*
X83899900Y-95884400D01*
%TO.N,PWR_EN*%
X86567100Y-113980000D02*
X100670000Y-113980000D01*
X85072300Y-115475000D02*
X86567100Y-113980000D01*
X82128100Y-98999800D02*
X81471900Y-98999800D01*
X83659200Y-100531000D02*
X82128100Y-98999800D01*
X85072300Y-115475000D02*
X85072300Y-115513000D01*
X100670000Y-113980000D02*
X100690000Y-113960000D01*
%TO.N,LEDA*%
X93433800Y-117187000D02*
X95279800Y-115341000D01*
X89552400Y-117187000D02*
X93433800Y-117187000D01*
%TO.N,BL_BASE*%
X82774800Y-109722000D02*
X84530200Y-111477000D01*
X84530200Y-111477000D02*
X84751900Y-111477000D01*
%TO.N,CHG_INHIBIT*%
X108327000Y-111107000D02*
X109433000Y-112214000D01*
X105230000Y-111107000D02*
X108327000Y-111107000D01*
X93595900Y-100946000D02*
X88877700Y-100946000D01*
X93595900Y-100946000D02*
X95068500Y-100946000D01*
X88877700Y-100946000D02*
X87751800Y-99819700D01*
X95068500Y-100946000D02*
X105230000Y-111107000D01*
%TO.N,FLASH_WP*%
X113525000Y-94063900D02*
X109646000Y-97942500D01*
X109646000Y-97942500D02*
X106454000Y-97942500D01*
%TD*%
M02*
