M48
; DRILL file KiCad 10.0.6 date 2026-09-09T21:08:26
; FORMAT={-:-/ absolute / metric / decimal}
; #@! TF.CreationDate,2026-09-09T21:08:26+08:00
; #@! TF.GenerationSoftware,Kicad,Pcbnew,10.0.6
; #@! TF.FileFunction,Plated,1,4,PTH
FMAT,2
METRIC
; #@! TA.AperFunction,Plated,PTH,ViaDrill
T1C0.200
; #@! TA.AperFunction,Plated,PTH,ViaDrill
T2C0.250
; #@! TA.AperFunction,Plated,PTH,ComponentDrill
T3C0.800
%
G90
G05
T1
X95.16Y-92.54
X96.65Y-93.2
X96.65Y-94.0
X96.65Y-94.8
X96.65Y-95.6
X96.65Y-96.4
X96.65Y-97.2
X97.1Y-93.6
X97.1Y-94.4
X97.1Y-95.2
X97.1Y-96.0
X97.3Y-97.4
X97.7Y-97.0
X98.1Y-97.4
X101.9Y-91.95
T2
X78.846Y-97.569
X80.582Y-105.85
X80.641Y-110.629
X80.904Y-89.129
X81.192Y-91.988
X81.472Y-99.0
X81.473Y-103.486
X82.2Y-89.9
X82.2Y-90.6
X82.279Y-93.928
X82.414Y-104.253
X82.775Y-109.722
X82.797Y-108.0
X83.053Y-88.286
X83.351Y-97.121
X83.437Y-111.137
X83.635Y-112.331
X83.659Y-100.531
X83.709Y-94.513
X83.75Y-92.247
X84.0Y-99.8
X84.086Y-86.332
X84.095Y-96.345
X84.172Y-106.668
X84.179Y-104.474
X84.752Y-111.477
X85.072Y-115.513
X85.447Y-91.462
X85.522Y-89.663
X85.53Y-92.07
X85.538Y-94.912
X85.631Y-97.587
X85.8Y-90.8
X85.8Y-111.35
X85.84Y-105.394
X85.88Y-113.291
X86.24Y-101.998
X86.699Y-95.141
X87.752Y-99.82
X87.8Y-91.6
X88.0Y-104.4
X88.053Y-84.971
X88.3Y-98.6
X88.4Y-93.4
X88.5Y-94.2
X88.916Y-96.247
X89.0Y-95.6
X89.0Y-104.4
X89.2Y-105.8
X89.2Y-107.8
X89.382Y-90.538
X89.5Y-96.0
X89.552Y-117.187
X89.6Y-98.3
X89.6Y-99.5
X89.833Y-112.613
X90.0Y-106.8
X90.2Y-89.0
X90.3Y-92.75
X90.462Y-96.219
X90.475Y-109.247
X90.6Y-112.7
X90.8Y-105.8
X90.8Y-107.8
X90.853Y-86.833
X91.0Y-89.35
X91.0Y-92.45
X91.491Y-108.943
X91.507Y-115.871
X91.7Y-92.75
X91.75Y-98.0
X91.996Y-106.65
X92.018Y-89.766
X92.1Y-87.4
X92.1Y-88.5
X92.3Y-99.5
X92.353Y-96.396
X92.5Y-90.25
X92.6Y-93.35
X92.6Y-94.0
X92.997Y-102.7
X93.15Y-95.65
X93.2Y-100.3
X93.428Y-90.558
X93.596Y-100.946
X93.675Y-99.859
X94.0Y-87.0
X94.074Y-97.076
X94.188Y-107.451
X94.254Y-108.705
X94.5Y-85.2
X94.5Y-86.5
X94.503Y-102.7
X95.0Y-102.3
X95.1Y-89.8
X95.28Y-115.341
X95.35Y-94.85
X95.4Y-97.85
X95.4Y-100.5
X95.4Y-105.2
X95.45Y-99.1
X95.976Y-98.189
X96.0Y-85.2
X96.0Y-86.5
X96.38Y-113.324
X96.4Y-107.4
X96.407Y-91.173
X96.83Y-114.445
X97.045Y-92.399
X97.25Y-99.35
X97.3Y-100.2
X97.4Y-101.6
X97.5Y-85.2
X97.6Y-117.6
X97.9Y-89.8
X97.988Y-104.544
X98.1Y-101.4
X98.5Y-93.6
X98.5Y-94.6
X98.5Y-95.6
X98.5Y-105.6
X98.5Y-111.55
X98.5Y-113.5
X98.715Y-102.9
X98.9Y-91.843
X98.925Y-97.271
X99.0Y-85.2
X99.248Y-115.128
X99.251Y-117.205
X99.3Y-100.2
X99.5Y-93.6
X99.5Y-94.6
X99.5Y-95.6
X99.75Y-114.5
X99.752Y-97.219
X100.2Y-98.8
X100.3Y-104.3
X100.427Y-114.574
X100.5Y-93.6
X100.5Y-94.6
X100.5Y-95.6
X100.55Y-108.25
X100.69Y-113.96
X100.75Y-115.35
X100.785Y-91.916
X100.837Y-102.809
X100.9Y-87.65
X101.4Y-104.471
X101.4Y-112.717
X101.75Y-89.85
X101.75Y-117.217
X102.2Y-117.7
X102.258Y-96.4
X102.288Y-89.366
X102.6Y-103.8
X103.0Y-108.2
X103.25Y-114.55
X103.458Y-100.365
X103.5Y-101.05
X103.5Y-117.499
X103.577Y-113.477
X103.705Y-120.996
X103.789Y-114.92
X103.8Y-118.6
X104.227Y-118.124
X104.25Y-115.35
X104.5Y-106.7
X104.6Y-109.75
X104.797Y-98.25
X104.8Y-113.4
X104.88Y-115.599
X104.9Y-91.6
X104.9Y-98.9
X106.0Y-114.5
X106.454Y-97.942
X106.456Y-93.588
X106.7Y-101.05
X106.76Y-121.779
X106.864Y-89.589
X106.9Y-105.65
X106.9Y-106.45
X106.962Y-90.511
X107.3Y-101.4
X107.4Y-117.5
X107.7Y-104.2
X107.885Y-112.426
X108.4Y-118.2
X108.85Y-99.95
X109.3Y-101.25
X109.3Y-104.1
X109.3Y-106.5
X109.3Y-107.35
X109.316Y-97.052
X109.433Y-112.214
X109.6Y-108.2
X110.2Y-105.6
X110.2Y-109.3
X110.397Y-90.8
X110.595Y-120.565
X110.682Y-86.412
X111.2Y-103.4
X111.903Y-90.8
X112.162Y-100.35
X112.882Y-103.593
X113.525Y-94.064
X113.6Y-113.415
X114.303Y-100.203
X114.304Y-92.015
X114.971Y-84.347
X115.003Y-106.448
X115.2Y-89.704
X115.544Y-97.313
X116.358Y-101.406
X116.385Y-97.6
X116.396Y-93.513
X116.753Y-92.77
X118.05Y-85.953
X118.714Y-98.62
X120.996Y-106.199
T3
X117.882Y-95.675G85X118.582Y-95.675
G05
X117.882Y-104.325G85X118.582Y-104.325
G05
X122.212Y-95.675G85X122.612Y-95.675
G05
X122.212Y-104.325G85X122.612Y-104.325
G05
M30
