%TF.GenerationSoftware,KiCad,Pcbnew,10.0.6*%
%TF.CreationDate,2026-09-09T21:08:25+08:00*%
%TF.ProjectId,JXBadge_V1,4a584261-6467-4655-9f56-312e6b696361,rev?*%
%TF.SameCoordinates,Original*%
%TF.FileFunction,Copper,L2,Inr*%
%TF.FilePolarity,Positive*%
%FSLAX46Y46*%
G04 Gerber Fmt 4.6, Leading zero omitted, Abs format (unit mm)*
G04 Created by KiCad (PCBNEW 10.0.6) date 2026-09-09 21:08:25*
%MOMM*%
%LPD*%
G01*
G04 APERTURE LIST*
%TA.AperFunction,ComponentPad*%
%ADD10O,2.000000X1.200000*%
%TD*%
%TA.AperFunction,ComponentPad*%
%ADD11O,1.800000X1.200000*%
%TD*%
%TA.AperFunction,ViaPad*%
%ADD12C,0.500000*%
%TD*%
%TA.AperFunction,ViaPad*%
%ADD13C,0.450000*%
%TD*%
G04 APERTURE END LIST*
D10*
%TO.N,GND*%
%TO.C,J2*%
X118232000Y-104325100D03*
D11*
X122411800Y-104325100D03*
D10*
X118232000Y-95674900D03*
D11*
X122411800Y-95674900D03*
%TD*%
D12*
%TO.N,VDD_SPI*%
X109315600Y-97052300D03*
X110396600Y-90800000D03*
X114970700Y-84347000D03*
%TO.N,FLASH_CS*%
X106456000Y-93587800D03*
X111903400Y-90800000D03*
X115544000Y-97312700D03*
%TO.N,STRAP45*%
X98900200Y-91842500D03*
X118050000Y-85953400D03*
%TO.N,GND*%
X98714700Y-102900100D03*
X98100000Y-101400000D03*
X100500000Y-93600000D03*
X110200000Y-109300000D03*
X98500000Y-111550000D03*
X99500000Y-94600000D03*
X84172500Y-106667600D03*
X95100000Y-89800000D03*
X108850000Y-99950000D03*
X99000000Y-85200000D03*
X83634500Y-112331000D03*
X81191600Y-91988200D03*
X92100000Y-87400000D03*
X100500000Y-95600000D03*
X90800000Y-107800000D03*
X99500000Y-93600000D03*
X98500000Y-95600000D03*
X97500000Y-85200000D03*
X99500000Y-95600000D03*
X103500000Y-101050000D03*
X96000000Y-85200000D03*
X98500000Y-105600000D03*
X100500000Y-94600000D03*
X90852600Y-86833200D03*
X100900000Y-87650000D03*
X106000000Y-114500000D03*
X94500000Y-86500000D03*
X110595000Y-120565000D03*
X89200000Y-107800000D03*
X90800000Y-105800000D03*
X89200000Y-105800000D03*
X94500000Y-85200000D03*
X86698900Y-95140700D03*
X110200000Y-105600000D03*
X98500000Y-94600000D03*
X94000000Y-87000000D03*
X98500000Y-93600000D03*
X94187500Y-107451000D03*
X83708500Y-94512700D03*
X88916500Y-96246600D03*
X80640800Y-110629500D03*
X104600000Y-109750000D03*
X85800000Y-111350000D03*
X91750000Y-98000000D03*
X93150000Y-95650000D03*
X116753200Y-92770100D03*
X85879800Y-113291000D03*
X80903600Y-89129500D03*
X92100000Y-88500000D03*
X90300000Y-92750000D03*
X106700000Y-101050000D03*
X92500000Y-90250000D03*
X110682300Y-86411800D03*
X109300000Y-107350000D03*
D13*
X95160000Y-92540000D03*
D12*
X100550000Y-108250000D03*
X104500000Y-106700000D03*
X104227000Y-118124000D03*
X90000000Y-106800000D03*
X92600000Y-93350000D03*
X96000000Y-86500000D03*
X112162000Y-100350000D03*
%TO.N,CC1*%
X115003000Y-106448000D03*
X116358000Y-101406000D03*
%TO.N,VDD_RF*%
X92017600Y-89765800D03*
X88400000Y-93400000D03*
X91000000Y-89350000D03*
X95350000Y-94850000D03*
X91700000Y-92750000D03*
%TO.N,BAT*%
X88053400Y-84970500D03*
X103577000Y-113477000D03*
X115200000Y-89703700D03*
X94253700Y-108705000D03*
X85521800Y-89662800D03*
X97045400Y-92399400D03*
X93427600Y-90558500D03*
%TO.N,CHRG_N*%
X84094700Y-96344700D03*
X91996300Y-106650000D03*
%TO.N,LED_CHG_A*%
X84085900Y-86331800D03*
X85538500Y-94911600D03*
%TO.N,CHIP_EN*%
X80581600Y-105850000D03*
X85446900Y-91461700D03*
X85530300Y-92069700D03*
D13*
X96650000Y-93199800D03*
D12*
X94074100Y-97075900D03*
%TO.N,BOOT*%
X83750000Y-92246600D03*
D13*
X97100000Y-93599900D03*
D12*
X90200000Y-89000000D03*
%TO.N,BL_PWM*%
X82796600Y-108000000D03*
D13*
X96650000Y-93999900D03*
D12*
X88000000Y-104400000D03*
X92600000Y-94000000D03*
%TO.N,I2C_SCL*%
X82200000Y-89900000D03*
X103800000Y-118600000D03*
X108400000Y-118200000D03*
X100300000Y-104300000D03*
X84179500Y-104474000D03*
X88300000Y-98600000D03*
X111200000Y-103400000D03*
X109300000Y-101250000D03*
X88500000Y-94200000D03*
X103500000Y-117499000D03*
X107300000Y-101400000D03*
D13*
X97100000Y-94400000D03*
D12*
X99300000Y-100200000D03*
D13*
%TO.N,I2C_SDA*%
X96650000Y-94800000D03*
D12*
X103250000Y-114550000D03*
X97400000Y-101600000D03*
X103000000Y-108200000D03*
X95450000Y-99100000D03*
%TO.N,CTP_INT*%
X95400000Y-100500000D03*
X104900000Y-98900000D03*
D13*
X97100000Y-95199800D03*
D12*
X102600000Y-103800000D03*
X107700000Y-104200000D03*
X104250000Y-115350000D03*
X94503400Y-102700000D03*
D13*
%TO.N,IMU_INT*%
X96650000Y-95599900D03*
D12*
X97987700Y-104544000D03*
%TO.N,CTP_RST*%
X93675100Y-99858900D03*
D13*
X97100000Y-95999900D03*
D12*
X103788822Y-114920111D03*
X89600000Y-99500000D03*
X95000000Y-102300000D03*
X89000000Y-95600000D03*
X92300000Y-99500000D03*
X104800000Y-113400000D03*
D13*
%TO.N,LCD_RST*%
X96650000Y-96400000D03*
D12*
X99251500Y-117205000D03*
X100200000Y-98800000D03*
%TO.N,BAT_ADC*%
X92353400Y-96396500D03*
X89500000Y-96000000D03*
X89600000Y-98300000D03*
X95400000Y-97850000D03*
%TO.N,LCD_D3*%
X96400000Y-107400000D03*
X96379700Y-113324000D03*
D13*
X96650000Y-97199800D03*
D12*
X95400000Y-105200000D03*
X97300000Y-100200000D03*
X93200000Y-100300000D03*
%TO.N,LCD_CS*%
X101750000Y-117217000D03*
X95976300Y-98189300D03*
X96830200Y-114445000D03*
D13*
%TO.N,LCD_D0*%
X97300000Y-97400000D03*
D12*
X100427000Y-114574000D03*
%TO.N,LCD_SCK*%
X100750000Y-115350000D03*
D13*
X97700000Y-97000000D03*
D12*
X102200000Y-117700000D03*
%TO.N,LCD_D1*%
X90600000Y-112700000D03*
X109300000Y-106500000D03*
X107400000Y-117500000D03*
X109300000Y-104100000D03*
X99750100Y-114500000D03*
D13*
X98100000Y-97400000D03*
D12*
X98500000Y-113500000D03*
X97600000Y-117600000D03*
%TO.N,LCD_D2*%
X98925100Y-97271378D03*
X99248300Y-115128000D03*
X99752100Y-97219300D03*
X103457600Y-100365400D03*
X100836600Y-102808900D03*
%TO.N,+3V3*%
X91000000Y-92450000D03*
X100785000Y-91916500D03*
X96407300Y-91172600D03*
X106900000Y-106450000D03*
X106900000Y-105650000D03*
X82278791Y-93928400D03*
X89000000Y-104400000D03*
X90475200Y-109247000D03*
X85839600Y-105394000D03*
X82200000Y-90600000D03*
X97250000Y-99350000D03*
X87800000Y-91600000D03*
X97900000Y-89800000D03*
X92996600Y-102700000D03*
X101750000Y-89850000D03*
X84000000Y-99800000D03*
X85800000Y-90800000D03*
%TO.N,FLASH_WP_MCU*%
X104797000Y-98250000D03*
X102258000Y-96400000D03*
%TO.N,FLASH_Q_MCU*%
X104900000Y-91600000D03*
D13*
X101900000Y-91950000D03*
D12*
%TO.N,CHG_ALLOW*%
X102288000Y-89365600D03*
X106962000Y-90510900D03*
X106864000Y-89589000D03*
X104880000Y-115599000D03*
X103705000Y-120996000D03*
%TO.N,VBUS*%
X112882000Y-103593000D03*
X116385000Y-97599700D03*
X114303000Y-100203000D03*
X83053400Y-88285700D03*
X83437100Y-111137300D03*
X86240500Y-101998000D03*
X82414300Y-104253000D03*
X109600000Y-108200000D03*
X114303600Y-92015000D03*
%TO.N,VSYS*%
X113600000Y-113415100D03*
X101400000Y-104471300D03*
X101400000Y-112717000D03*
X78846300Y-97569300D03*
X116396100Y-93513100D03*
%TO.N,DONE_N*%
X83351000Y-97121200D03*
X91490700Y-108943000D03*
%TO.N,LED_DONE_A*%
X81473000Y-103486000D03*
X85631400Y-97587200D03*
%TO.N,CHG_ALLOW_BASE*%
X106760000Y-121779000D03*
X107885000Y-112426000D03*
%TO.N,BAT_SENSE*%
X89382500Y-90538000D03*
X90461600Y-96219500D03*
%TO.N,BL_SOURCE*%
X91506600Y-115871000D03*
X89832700Y-112613000D03*
%TO.N,PWR_EN*%
X100690000Y-113960000D03*
X81471900Y-98999800D03*
X83659200Y-100531000D03*
X85072300Y-115513000D03*
%TO.N,LEDA*%
X89552400Y-117187000D03*
X95279800Y-115341000D03*
%TO.N,BL_BASE*%
X82774800Y-109722000D03*
X84751900Y-111477000D03*
%TO.N,CHG_INHIBIT*%
X93595900Y-100946000D03*
X109433000Y-112214000D03*
X87751800Y-99819700D03*
%TO.N,CC2*%
X120996000Y-106199000D03*
X118714000Y-98620000D03*
%TO.N,FLASH_WP*%
X106454000Y-97942500D03*
X113525000Y-94063900D03*
%TD*%
%TA.AperFunction,Conductor*%
%TO.N,GND*%
G36*
X109168430Y-77173277D02*
G01*
X109213329Y-77190512D01*
X109217269Y-77192103D01*
X109968378Y-77510929D01*
X110003742Y-77525941D01*
X110007696Y-77527702D01*
X110781961Y-77888748D01*
X110785851Y-77890645D01*
X111547079Y-78278510D01*
X111550891Y-78280537D01*
X112298122Y-78694734D01*
X112301820Y-78696868D01*
X113034190Y-79136920D01*
X113037825Y-79139193D01*
X113754342Y-79604504D01*
X113757900Y-79606904D01*
X114457761Y-80096951D01*
X114461216Y-80099461D01*
X115143543Y-80613632D01*
X115146954Y-80616297D01*
X115810899Y-81153949D01*
X115814214Y-81156731D01*
X116458968Y-81717208D01*
X116462185Y-81720104D01*
X117087024Y-82302775D01*
X117090137Y-82305782D01*
X117694216Y-82909861D01*
X117697223Y-82912974D01*
X118279894Y-83537813D01*
X118282790Y-83541030D01*
X118843267Y-84185784D01*
X118846049Y-84189099D01*
X119383701Y-84853044D01*
X119386366Y-84856455D01*
X119788645Y-85390297D01*
X119900520Y-85538759D01*
X119903054Y-85542248D01*
X120384632Y-86230012D01*
X120393084Y-86242083D01*
X120395504Y-86245671D01*
X120860794Y-86962155D01*
X120863088Y-86965825D01*
X121303115Y-87698153D01*
X121305279Y-87701902D01*
X121719456Y-88449098D01*
X121721488Y-88452919D01*
X122109353Y-89214147D01*
X122111250Y-89218037D01*
X122472296Y-89992302D01*
X122474057Y-89996256D01*
X122807880Y-90782693D01*
X122809498Y-90786699D01*
X123108601Y-91565887D01*
X123115668Y-91584298D01*
X123117148Y-91588366D01*
X123395279Y-92396118D01*
X123396617Y-92400234D01*
X123646403Y-93217247D01*
X123647595Y-93221403D01*
X123863268Y-94026308D01*
X123868715Y-94046634D01*
X123869762Y-94050834D01*
X124061942Y-94883261D01*
X124062842Y-94887495D01*
X124225859Y-95726143D01*
X124226610Y-95730405D01*
X124360252Y-96574185D01*
X124360855Y-96578471D01*
X124464975Y-97426463D01*
X124465427Y-97430768D01*
X124539886Y-98281830D01*
X124540188Y-98286147D01*
X124584900Y-99139312D01*
X124585051Y-99143638D01*
X124599962Y-99997835D01*
X124599962Y-100002163D01*
X124585051Y-100856360D01*
X124584900Y-100860686D01*
X124540188Y-101713851D01*
X124539886Y-101718168D01*
X124465427Y-102569230D01*
X124464975Y-102573535D01*
X124360855Y-103421527D01*
X124360252Y-103425813D01*
X124226610Y-104269593D01*
X124225859Y-104273855D01*
X124062842Y-105112503D01*
X124061942Y-105116737D01*
X123869762Y-105949164D01*
X123868715Y-105953364D01*
X123647596Y-106778591D01*
X123646403Y-106782751D01*
X123396617Y-107599764D01*
X123395279Y-107603880D01*
X123117148Y-108411632D01*
X123115668Y-108415700D01*
X122809501Y-109213292D01*
X122807880Y-109217305D01*
X122474057Y-110003742D01*
X122472296Y-110007696D01*
X122111250Y-110781961D01*
X122109353Y-110785851D01*
X121721488Y-111547079D01*
X121719456Y-111550900D01*
X121305279Y-112298096D01*
X121303115Y-112301845D01*
X120863088Y-113034173D01*
X120860794Y-113037843D01*
X120395504Y-113754327D01*
X120393084Y-113757915D01*
X119903064Y-114457737D01*
X119900520Y-114461239D01*
X119386366Y-115143543D01*
X119383701Y-115146954D01*
X118846049Y-115810899D01*
X118843267Y-115814214D01*
X118282790Y-116458968D01*
X118279894Y-116462185D01*
X117697223Y-117087024D01*
X117694216Y-117090137D01*
X117090137Y-117694216D01*
X117087024Y-117697223D01*
X116462185Y-118279894D01*
X116458968Y-118282790D01*
X115814214Y-118843267D01*
X115810899Y-118846049D01*
X115146954Y-119383701D01*
X115143543Y-119386366D01*
X114461239Y-119900520D01*
X114457737Y-119903064D01*
X113757915Y-120393084D01*
X113754327Y-120395504D01*
X113037843Y-120860794D01*
X113034173Y-120863088D01*
X112301845Y-121303115D01*
X112298096Y-121305279D01*
X111550900Y-121719456D01*
X111547079Y-121721488D01*
X110785851Y-122109353D01*
X110781961Y-122111250D01*
X110007696Y-122472296D01*
X110003742Y-122474057D01*
X109217305Y-122807880D01*
X109213292Y-122809501D01*
X108415700Y-123115668D01*
X108411632Y-123117148D01*
X107603880Y-123395279D01*
X107599764Y-123396617D01*
X106782751Y-123646403D01*
X106778591Y-123647596D01*
X105953364Y-123868715D01*
X105949164Y-123869762D01*
X105116737Y-124061942D01*
X105112503Y-124062842D01*
X104273855Y-124225859D01*
X104269593Y-124226610D01*
X103425813Y-124360252D01*
X103421527Y-124360855D01*
X102573535Y-124464975D01*
X102569230Y-124465427D01*
X101718168Y-124539886D01*
X101713851Y-124540188D01*
X100860686Y-124584900D01*
X100856360Y-124585051D01*
X100002163Y-124599962D01*
X99997835Y-124599962D01*
X99143638Y-124585051D01*
X99139312Y-124584900D01*
X98286147Y-124540188D01*
X98281830Y-124539886D01*
X97430768Y-124465427D01*
X97426463Y-124464975D01*
X96578471Y-124360855D01*
X96574185Y-124360252D01*
X95730405Y-124226610D01*
X95726143Y-124225859D01*
X94887495Y-124062842D01*
X94883261Y-124061942D01*
X94230744Y-123911297D01*
X94050824Y-123869759D01*
X94046645Y-123868717D01*
X93221403Y-123647595D01*
X93217247Y-123646403D01*
X92400234Y-123396617D01*
X92396118Y-123395279D01*
X91588366Y-123117148D01*
X91584298Y-123115668D01*
X90786706Y-122809501D01*
X90782693Y-122807880D01*
X89996256Y-122474057D01*
X89992302Y-122472296D01*
X89218037Y-122111250D01*
X89214147Y-122109353D01*
X88650281Y-121822049D01*
X88452919Y-121721488D01*
X88449540Y-121719691D01*
X106309500Y-121719691D01*
X106309500Y-121838309D01*
X106340201Y-121952886D01*
X106399511Y-122055613D01*
X106483387Y-122139489D01*
X106586114Y-122198799D01*
X106700691Y-122229500D01*
X106700694Y-122229500D01*
X106819306Y-122229500D01*
X106819309Y-122229500D01*
X106933886Y-122198799D01*
X107036613Y-122139489D01*
X107120489Y-122055613D01*
X107179799Y-121952886D01*
X107210500Y-121838309D01*
X107210500Y-121719691D01*
X107179799Y-121605114D01*
X107120489Y-121502387D01*
X107036613Y-121418511D01*
X106933886Y-121359201D01*
X106819309Y-121328500D01*
X106700691Y-121328500D01*
X106586114Y-121359201D01*
X106586112Y-121359201D01*
X106586112Y-121359202D01*
X106483387Y-121418511D01*
X106483384Y-121418513D01*
X106399513Y-121502384D01*
X106399511Y-121502387D01*
X106340201Y-121605114D01*
X106309500Y-121719691D01*
X88449540Y-121719691D01*
X88449098Y-121719456D01*
X87799183Y-121359202D01*
X87701896Y-121305275D01*
X87698154Y-121303115D01*
X87088322Y-120936691D01*
X103254500Y-120936691D01*
X103254500Y-121055309D01*
X103285201Y-121169886D01*
X103344511Y-121272613D01*
X103428387Y-121356489D01*
X103531114Y-121415799D01*
X103645691Y-121446500D01*
X103645694Y-121446500D01*
X103764306Y-121446500D01*
X103764309Y-121446500D01*
X103878886Y-121415799D01*
X103981613Y-121356489D01*
X104065489Y-121272613D01*
X104124799Y-121169886D01*
X104155500Y-121055309D01*
X104155500Y-120936691D01*
X104124799Y-120822114D01*
X104065489Y-120719387D01*
X103981613Y-120635511D01*
X103878886Y-120576201D01*
X103764309Y-120545500D01*
X103645691Y-120545500D01*
X103531114Y-120576201D01*
X103531112Y-120576201D01*
X103531112Y-120576202D01*
X103428387Y-120635511D01*
X103428384Y-120635513D01*
X103344513Y-120719384D01*
X103344511Y-120719387D01*
X103285201Y-120822114D01*
X103254500Y-120936691D01*
X87088322Y-120936691D01*
X86965824Y-120863087D01*
X86962155Y-120860794D01*
X86615249Y-120635511D01*
X86245669Y-120395503D01*
X86242083Y-120393084D01*
X85542261Y-119903064D01*
X85538759Y-119900520D01*
X84856455Y-119386366D01*
X84853044Y-119383701D01*
X84189099Y-118846049D01*
X84185784Y-118843267D01*
X83837711Y-118540691D01*
X103349500Y-118540691D01*
X103349500Y-118659309D01*
X103380201Y-118773886D01*
X103439511Y-118876613D01*
X103523387Y-118960489D01*
X103626114Y-119019799D01*
X103740691Y-119050500D01*
X103740694Y-119050500D01*
X103859306Y-119050500D01*
X103859309Y-119050500D01*
X103973886Y-119019799D01*
X104076613Y-118960489D01*
X104160489Y-118876613D01*
X104219799Y-118773886D01*
X104250500Y-118659309D01*
X104250500Y-118540691D01*
X104219799Y-118426114D01*
X104160489Y-118323387D01*
X104076613Y-118239511D01*
X103973886Y-118180201D01*
X103859309Y-118149500D01*
X103740691Y-118149500D01*
X103626114Y-118180201D01*
X103611180Y-118188822D01*
X103611180Y-118188823D01*
X103523387Y-118239511D01*
X103523384Y-118239513D01*
X103439513Y-118323384D01*
X103439511Y-118323387D01*
X103410355Y-118373887D01*
X103380201Y-118426114D01*
X103349500Y-118540691D01*
X83837711Y-118540691D01*
X83541030Y-118282790D01*
X83537813Y-118279894D01*
X82912974Y-117697223D01*
X82909861Y-117694216D01*
X82343336Y-117127691D01*
X89101900Y-117127691D01*
X89101900Y-117246309D01*
X89132601Y-117360886D01*
X89191911Y-117463613D01*
X89275787Y-117547489D01*
X89378514Y-117606799D01*
X89493091Y-117637500D01*
X89493094Y-117637500D01*
X89611706Y-117637500D01*
X89611709Y-117637500D01*
X89726286Y-117606799D01*
X89829013Y-117547489D01*
X89835811Y-117540691D01*
X97149500Y-117540691D01*
X97149500Y-117659309D01*
X97180201Y-117773886D01*
X97239511Y-117876613D01*
X97323387Y-117960489D01*
X97426114Y-118019799D01*
X97540691Y-118050500D01*
X97540694Y-118050500D01*
X97659306Y-118050500D01*
X97659309Y-118050500D01*
X97773886Y-118019799D01*
X97876613Y-117960489D01*
X97960489Y-117876613D01*
X98019799Y-117773886D01*
X98050500Y-117659309D01*
X98050500Y-117540691D01*
X98019799Y-117426114D01*
X97960489Y-117323387D01*
X97876613Y-117239511D01*
X97773886Y-117180201D01*
X97659309Y-117149500D01*
X97540691Y-117149500D01*
X97426114Y-117180201D01*
X97426112Y-117180201D01*
X97426112Y-117180202D01*
X97323387Y-117239511D01*
X97323384Y-117239513D01*
X97239513Y-117323384D01*
X97239511Y-117323387D01*
X97200540Y-117390887D01*
X97180201Y-117426114D01*
X97149500Y-117540691D01*
X89835811Y-117540691D01*
X89912889Y-117463613D01*
X89972199Y-117360886D01*
X90002900Y-117246309D01*
X90002900Y-117145691D01*
X98801000Y-117145691D01*
X98801000Y-117264309D01*
X98831701Y-117378886D01*
X98891011Y-117481613D01*
X98974887Y-117565489D01*
X99077614Y-117624799D01*
X99192191Y-117655500D01*
X99192194Y-117655500D01*
X99310806Y-117655500D01*
X99310809Y-117655500D01*
X99425386Y-117624799D01*
X99528113Y-117565489D01*
X99611989Y-117481613D01*
X99671299Y-117378886D01*
X99702000Y-117264309D01*
X99702000Y-117157691D01*
X101299500Y-117157691D01*
X101299500Y-117276309D01*
X101330201Y-117390886D01*
X101389511Y-117493613D01*
X101473387Y-117577489D01*
X101576114Y-117636799D01*
X101659093Y-117659033D01*
X101718751Y-117695397D01*
X101746146Y-117751793D01*
X101747397Y-117751458D01*
X101749135Y-117757947D01*
X101749280Y-117758244D01*
X101749362Y-117758791D01*
X101749500Y-117759306D01*
X101749500Y-117759309D01*
X101780201Y-117873886D01*
X101839511Y-117976613D01*
X101923387Y-118060489D01*
X102026114Y-118119799D01*
X102140691Y-118150500D01*
X102140694Y-118150500D01*
X102259306Y-118150500D01*
X102259309Y-118150500D01*
X102295916Y-118140691D01*
X107949500Y-118140691D01*
X107949500Y-118259309D01*
X107980201Y-118373886D01*
X108039511Y-118476613D01*
X108123387Y-118560489D01*
X108226114Y-118619799D01*
X108340691Y-118650500D01*
X108340694Y-118650500D01*
X108459306Y-118650500D01*
X108459309Y-118650500D01*
X108573886Y-118619799D01*
X108676613Y-118560489D01*
X108760489Y-118476613D01*
X108819799Y-118373886D01*
X108850500Y-118259309D01*
X108850500Y-118140691D01*
X108819799Y-118026114D01*
X108760489Y-117923387D01*
X108676613Y-117839511D01*
X108573886Y-117780201D01*
X108459309Y-117749500D01*
X108340691Y-117749500D01*
X108226114Y-117780201D01*
X108226112Y-117780201D01*
X108226112Y-117780202D01*
X108123387Y-117839511D01*
X108123384Y-117839513D01*
X108039513Y-117923384D01*
X108039511Y-117923387D01*
X108008780Y-117976615D01*
X107980201Y-118026114D01*
X107949500Y-118140691D01*
X102295916Y-118140691D01*
X102373886Y-118119799D01*
X102476613Y-118060489D01*
X102560489Y-117976613D01*
X102619799Y-117873886D01*
X102650500Y-117759309D01*
X102650500Y-117640691D01*
X102619799Y-117526114D01*
X102569902Y-117439691D01*
X103049500Y-117439691D01*
X103049500Y-117558309D01*
X103080201Y-117672886D01*
X103139511Y-117775613D01*
X103223387Y-117859489D01*
X103326114Y-117918799D01*
X103440691Y-117949500D01*
X103440694Y-117949500D01*
X103546150Y-117949500D01*
X103559309Y-117949500D01*
X103673886Y-117918799D01*
X103776613Y-117859489D01*
X103860489Y-117775613D01*
X103919799Y-117672886D01*
X103950500Y-117558309D01*
X103950500Y-117440691D01*
X106949500Y-117440691D01*
X106949500Y-117559309D01*
X106980201Y-117673886D01*
X107039511Y-117776613D01*
X107123387Y-117860489D01*
X107226114Y-117919799D01*
X107340691Y-117950500D01*
X107340694Y-117950500D01*
X107459306Y-117950500D01*
X107459309Y-117950500D01*
X107573886Y-117919799D01*
X107676613Y-117860489D01*
X107760489Y-117776613D01*
X107819799Y-117673886D01*
X107850500Y-117559309D01*
X107850500Y-117440691D01*
X107819799Y-117326114D01*
X107760489Y-117223387D01*
X107676613Y-117139511D01*
X107573886Y-117080201D01*
X107459309Y-117049500D01*
X107340691Y-117049500D01*
X107226114Y-117080201D01*
X107226112Y-117080201D01*
X107226112Y-117080202D01*
X107123387Y-117139511D01*
X107123384Y-117139513D01*
X107039513Y-117223384D01*
X107039511Y-117223387D01*
X106980780Y-117325112D01*
X106980201Y-117326114D01*
X106949500Y-117440691D01*
X103950500Y-117440691D01*
X103950500Y-117439691D01*
X103919799Y-117325114D01*
X103860489Y-117222387D01*
X103776613Y-117138511D01*
X103673886Y-117079201D01*
X103559309Y-117048500D01*
X103440691Y-117048500D01*
X103326114Y-117079201D01*
X103326112Y-117079201D01*
X103326112Y-117079202D01*
X103223387Y-117138511D01*
X103223384Y-117138513D01*
X103139513Y-117222384D01*
X103139511Y-117222387D01*
X103108381Y-117276306D01*
X103080201Y-117325114D01*
X103049500Y-117439691D01*
X102569902Y-117439691D01*
X102560489Y-117423387D01*
X102476613Y-117339511D01*
X102425249Y-117309856D01*
X102373887Y-117280201D01*
X102290908Y-117257967D01*
X102231247Y-117221601D01*
X102203853Y-117165206D01*
X102202603Y-117165542D01*
X102200864Y-117159053D01*
X102200719Y-117158754D01*
X102200636Y-117158202D01*
X102200500Y-117157693D01*
X102200500Y-117157691D01*
X102169799Y-117043114D01*
X102110489Y-116940387D01*
X102026613Y-116856511D01*
X101923886Y-116797201D01*
X101809309Y-116766500D01*
X101690691Y-116766500D01*
X101576114Y-116797201D01*
X101576112Y-116797201D01*
X101576112Y-116797202D01*
X101473387Y-116856511D01*
X101473384Y-116856513D01*
X101389513Y-116940384D01*
X101389511Y-116940387D01*
X101330201Y-117043114D01*
X101299500Y-117157691D01*
X99702000Y-117157691D01*
X99702000Y-117145691D01*
X99671299Y-117031114D01*
X99611989Y-116928387D01*
X99528113Y-116844511D01*
X99425386Y-116785201D01*
X99310809Y-116754500D01*
X99192191Y-116754500D01*
X99077614Y-116785201D01*
X99077612Y-116785201D01*
X99077612Y-116785202D01*
X98974887Y-116844511D01*
X98974884Y-116844513D01*
X98891013Y-116928384D01*
X98891011Y-116928387D01*
X98842095Y-117013112D01*
X98831701Y-117031114D01*
X98801000Y-117145691D01*
X90002900Y-117145691D01*
X90002900Y-117127691D01*
X89972199Y-117013114D01*
X89912889Y-116910387D01*
X89829013Y-116826511D01*
X89726286Y-116767201D01*
X89611709Y-116736500D01*
X89493091Y-116736500D01*
X89378514Y-116767201D01*
X89378512Y-116767201D01*
X89378512Y-116767202D01*
X89275787Y-116826511D01*
X89275784Y-116826513D01*
X89191913Y-116910384D01*
X89191911Y-116910387D01*
X89132601Y-117013114D01*
X89101900Y-117127691D01*
X82343336Y-117127691D01*
X82305782Y-117090137D01*
X82302775Y-117087024D01*
X81720104Y-116462185D01*
X81717208Y-116458968D01*
X81156731Y-115814214D01*
X81153949Y-115810899D01*
X80921299Y-115523600D01*
X80864688Y-115453691D01*
X84621800Y-115453691D01*
X84621800Y-115572309D01*
X84652501Y-115686886D01*
X84711811Y-115789613D01*
X84795687Y-115873489D01*
X84898414Y-115932799D01*
X85012991Y-115963500D01*
X85012994Y-115963500D01*
X85131606Y-115963500D01*
X85131609Y-115963500D01*
X85246186Y-115932799D01*
X85348913Y-115873489D01*
X85410711Y-115811691D01*
X91056100Y-115811691D01*
X91056100Y-115930309D01*
X91086801Y-116044886D01*
X91146111Y-116147613D01*
X91229987Y-116231489D01*
X91332714Y-116290799D01*
X91447291Y-116321500D01*
X91447294Y-116321500D01*
X91565906Y-116321500D01*
X91565909Y-116321500D01*
X91680486Y-116290799D01*
X91783213Y-116231489D01*
X91867089Y-116147613D01*
X91926399Y-116044886D01*
X91957100Y-115930309D01*
X91957100Y-115811691D01*
X91926399Y-115697114D01*
X91867089Y-115594387D01*
X91783213Y-115510511D01*
X91680486Y-115451201D01*
X91565909Y-115420500D01*
X91447291Y-115420500D01*
X91332714Y-115451201D01*
X91332712Y-115451201D01*
X91332712Y-115451202D01*
X91229987Y-115510511D01*
X91229984Y-115510513D01*
X91146113Y-115594384D01*
X91146111Y-115594387D01*
X91092706Y-115686887D01*
X91086801Y-115697114D01*
X91056100Y-115811691D01*
X85410711Y-115811691D01*
X85432789Y-115789613D01*
X85442446Y-115772887D01*
X85460532Y-115741563D01*
X85492097Y-115686889D01*
X85492098Y-115686887D01*
X85492099Y-115686886D01*
X85522800Y-115572309D01*
X85522800Y-115453691D01*
X85492099Y-115339114D01*
X85458946Y-115281691D01*
X94829300Y-115281691D01*
X94829300Y-115400309D01*
X94860001Y-115514886D01*
X94919311Y-115617613D01*
X95003187Y-115701489D01*
X95105914Y-115760799D01*
X95220491Y-115791500D01*
X95220494Y-115791500D01*
X95339106Y-115791500D01*
X95339109Y-115791500D01*
X95453686Y-115760799D01*
X95556413Y-115701489D01*
X95640289Y-115617613D01*
X95699599Y-115514886D01*
X95730300Y-115400309D01*
X95730300Y-115281691D01*
X95699599Y-115167114D01*
X95642774Y-115068691D01*
X98797800Y-115068691D01*
X98797800Y-115187309D01*
X98828501Y-115301886D01*
X98887811Y-115404613D01*
X98971687Y-115488489D01*
X99074414Y-115547799D01*
X99188991Y-115578500D01*
X99188994Y-115578500D01*
X99307606Y-115578500D01*
X99307609Y-115578500D01*
X99422186Y-115547799D01*
X99524913Y-115488489D01*
X99608789Y-115404613D01*
X99668099Y-115301886D01*
X99698800Y-115187309D01*
X99698800Y-115073806D01*
X99718485Y-115006767D01*
X99771289Y-114961012D01*
X99806622Y-114950866D01*
X99809401Y-114950500D01*
X99809409Y-114950500D01*
X99923986Y-114919799D01*
X99975804Y-114889881D01*
X100043702Y-114873408D01*
X100109729Y-114896259D01*
X100125485Y-114909587D01*
X100150387Y-114934489D01*
X100249711Y-114991834D01*
X100253114Y-114993799D01*
X100254938Y-114994288D01*
X100256302Y-114995119D01*
X100260618Y-114996907D01*
X100260339Y-114997580D01*
X100314598Y-115030653D01*
X100345126Y-115093501D01*
X100336831Y-115162876D01*
X100330233Y-115176057D01*
X100330203Y-115176108D01*
X100330202Y-115176109D01*
X100324678Y-115196726D01*
X100299500Y-115290691D01*
X100299500Y-115409309D01*
X100330201Y-115523886D01*
X100389511Y-115626613D01*
X100473387Y-115710489D01*
X100576114Y-115769799D01*
X100690691Y-115800500D01*
X100690694Y-115800500D01*
X100809306Y-115800500D01*
X100809309Y-115800500D01*
X100923886Y-115769799D01*
X101026613Y-115710489D01*
X101110489Y-115626613D01*
X101169799Y-115523886D01*
X101200500Y-115409309D01*
X101200500Y-115290691D01*
X101169799Y-115176114D01*
X101110489Y-115073387D01*
X101026613Y-114989511D01*
X100959043Y-114950499D01*
X100923885Y-114930200D01*
X100923881Y-114930199D01*
X100922053Y-114929709D01*
X100920685Y-114928875D01*
X100916382Y-114927093D01*
X100916660Y-114926421D01*
X100862395Y-114893339D01*
X100831871Y-114830490D01*
X100840172Y-114761115D01*
X100846769Y-114747937D01*
X100846799Y-114747886D01*
X100877500Y-114633309D01*
X100877500Y-114514691D01*
X100871069Y-114490691D01*
X102799500Y-114490691D01*
X102799500Y-114609309D01*
X102830201Y-114723886D01*
X102889511Y-114826613D01*
X102973387Y-114910489D01*
X103076114Y-114969799D01*
X103190691Y-115000500D01*
X103190694Y-115000500D01*
X103248822Y-115000500D01*
X103315861Y-115020185D01*
X103361616Y-115072989D01*
X103368595Y-115092402D01*
X103369023Y-115093997D01*
X103428333Y-115196724D01*
X103512209Y-115280600D01*
X103614936Y-115339910D01*
X103724592Y-115369292D01*
X103784251Y-115405656D01*
X103812270Y-115456969D01*
X103830201Y-115523886D01*
X103889511Y-115626613D01*
X103973387Y-115710489D01*
X104076114Y-115769799D01*
X104190691Y-115800500D01*
X104190694Y-115800500D01*
X104309307Y-115800500D01*
X104309309Y-115800500D01*
X104361885Y-115786412D01*
X104431734Y-115788074D01*
X104489597Y-115827235D01*
X104501365Y-115844185D01*
X104519506Y-115875606D01*
X104519509Y-115875610D01*
X104519511Y-115875613D01*
X104603387Y-115959489D01*
X104706114Y-116018799D01*
X104820691Y-116049500D01*
X104820694Y-116049500D01*
X104939306Y-116049500D01*
X104939309Y-116049500D01*
X105053886Y-116018799D01*
X105156613Y-115959489D01*
X105240489Y-115875613D01*
X105299799Y-115772886D01*
X105330500Y-115658309D01*
X105330500Y-115539691D01*
X105299799Y-115425114D01*
X105240489Y-115322387D01*
X105156613Y-115238511D01*
X105053886Y-115179201D01*
X104939309Y-115148500D01*
X104820691Y-115148500D01*
X104820689Y-115148500D01*
X104768112Y-115162588D01*
X104698263Y-115160925D01*
X104640400Y-115121762D01*
X104628633Y-115104813D01*
X104610491Y-115073390D01*
X104610486Y-115073384D01*
X104526615Y-114989513D01*
X104526613Y-114989511D01*
X104423886Y-114930201D01*
X104314228Y-114900818D01*
X104254570Y-114864454D01*
X104226551Y-114813141D01*
X104208621Y-114746225D01*
X104149311Y-114643498D01*
X104065435Y-114559622D01*
X103962708Y-114500312D01*
X103848131Y-114469611D01*
X103790000Y-114469611D01*
X103722961Y-114449926D01*
X103677206Y-114397122D01*
X103670226Y-114377708D01*
X103669799Y-114376114D01*
X103610489Y-114273387D01*
X103526613Y-114189511D01*
X103473570Y-114158886D01*
X103425356Y-114108319D01*
X103412134Y-114039712D01*
X103438102Y-113974847D01*
X103495017Y-113934319D01*
X103535572Y-113927500D01*
X103636306Y-113927500D01*
X103636309Y-113927500D01*
X103750886Y-113896799D01*
X103853613Y-113837489D01*
X103937489Y-113753613D01*
X103996799Y-113650886D01*
X104027500Y-113536309D01*
X104027500Y-113417691D01*
X104006868Y-113340691D01*
X104349500Y-113340691D01*
X104349500Y-113459309D01*
X104380201Y-113573886D01*
X104439511Y-113676613D01*
X104523387Y-113760489D01*
X104626114Y-113819799D01*
X104740691Y-113850500D01*
X104740694Y-113850500D01*
X104859306Y-113850500D01*
X104859309Y-113850500D01*
X104973886Y-113819799D01*
X105076613Y-113760489D01*
X105160489Y-113676613D01*
X105219799Y-113573886D01*
X105250500Y-113459309D01*
X105250500Y-113355791D01*
X113149500Y-113355791D01*
X113149500Y-113474409D01*
X113180201Y-113588986D01*
X113239511Y-113691713D01*
X113323387Y-113775589D01*
X113426114Y-113834899D01*
X113540691Y-113865600D01*
X113540694Y-113865600D01*
X113659306Y-113865600D01*
X113659309Y-113865600D01*
X113773886Y-113834899D01*
X113876613Y-113775589D01*
X113960489Y-113691713D01*
X114019799Y-113588986D01*
X114050500Y-113474409D01*
X114050500Y-113355791D01*
X114019799Y-113241214D01*
X113960489Y-113138487D01*
X113876613Y-113054611D01*
X113773886Y-112995301D01*
X113659309Y-112964600D01*
X113540691Y-112964600D01*
X113426114Y-112995301D01*
X113426112Y-112995301D01*
X113426112Y-112995302D01*
X113323387Y-113054611D01*
X113323384Y-113054613D01*
X113239513Y-113138484D01*
X113239511Y-113138487D01*
X113190494Y-113223387D01*
X113180201Y-113241214D01*
X113149500Y-113355791D01*
X105250500Y-113355791D01*
X105250500Y-113340691D01*
X105219799Y-113226114D01*
X105160489Y-113123387D01*
X105076613Y-113039511D01*
X104973886Y-112980201D01*
X104859309Y-112949500D01*
X104740691Y-112949500D01*
X104626114Y-112980201D01*
X104626112Y-112980201D01*
X104626112Y-112980202D01*
X104523387Y-113039511D01*
X104523384Y-113039513D01*
X104439513Y-113123384D01*
X104439511Y-113123387D01*
X104431768Y-113136799D01*
X104380201Y-113226114D01*
X104349500Y-113340691D01*
X104006868Y-113340691D01*
X103996799Y-113303114D01*
X103937489Y-113200387D01*
X103853613Y-113116511D01*
X103750886Y-113057201D01*
X103636309Y-113026500D01*
X103517691Y-113026500D01*
X103403114Y-113057201D01*
X103403112Y-113057201D01*
X103403112Y-113057202D01*
X103300387Y-113116511D01*
X103300384Y-113116513D01*
X103216513Y-113200384D01*
X103216511Y-113200387D01*
X103179384Y-113264693D01*
X103157201Y-113303114D01*
X103126500Y-113417691D01*
X103126500Y-113536309D01*
X103157201Y-113650886D01*
X103216511Y-113753613D01*
X103300387Y-113837489D01*
X103353429Y-113868113D01*
X103401644Y-113918681D01*
X103414866Y-113987288D01*
X103388898Y-114052153D01*
X103331983Y-114092681D01*
X103291428Y-114099500D01*
X103190691Y-114099500D01*
X103076114Y-114130201D01*
X103076112Y-114130201D01*
X103076112Y-114130202D01*
X102973387Y-114189511D01*
X102973384Y-114189513D01*
X102889513Y-114273384D01*
X102889511Y-114273387D01*
X102830201Y-114376114D01*
X102799500Y-114490691D01*
X100871069Y-114490691D01*
X100868999Y-114482965D01*
X100870662Y-114413120D01*
X100909824Y-114355258D01*
X100926766Y-114343494D01*
X100966613Y-114320489D01*
X101050489Y-114236613D01*
X101109799Y-114133886D01*
X101140500Y-114019309D01*
X101140500Y-113900691D01*
X101109799Y-113786114D01*
X101050489Y-113683387D01*
X100966613Y-113599511D01*
X100863886Y-113540201D01*
X100749309Y-113509500D01*
X100630691Y-113509500D01*
X100516114Y-113540201D01*
X100516112Y-113540201D01*
X100516112Y-113540202D01*
X100413387Y-113599511D01*
X100413384Y-113599513D01*
X100329513Y-113683384D01*
X100329511Y-113683387D01*
X100286491Y-113757900D01*
X100270201Y-113786114D01*
X100239500Y-113900691D01*
X100239500Y-113900693D01*
X100239500Y-114019313D01*
X100241608Y-114027178D01*
X100239944Y-114097028D01*
X100200781Y-114154890D01*
X100136552Y-114182392D01*
X100067650Y-114170804D01*
X100034152Y-114146950D01*
X100026715Y-114139513D01*
X100026713Y-114139511D01*
X99923986Y-114080201D01*
X99809409Y-114049500D01*
X99690791Y-114049500D01*
X99576214Y-114080201D01*
X99576212Y-114080201D01*
X99576212Y-114080202D01*
X99473487Y-114139511D01*
X99473484Y-114139513D01*
X99389613Y-114223384D01*
X99389611Y-114223387D01*
X99333549Y-114320489D01*
X99330301Y-114326114D01*
X99299600Y-114440691D01*
X99299600Y-114440693D01*
X99299600Y-114554193D01*
X99279915Y-114621232D01*
X99227111Y-114666987D01*
X99191789Y-114677132D01*
X99188992Y-114677500D01*
X99188991Y-114677500D01*
X99074414Y-114708201D01*
X99074412Y-114708201D01*
X99074412Y-114708202D01*
X98971687Y-114767511D01*
X98971684Y-114767513D01*
X98887813Y-114851384D01*
X98887811Y-114851387D01*
X98830588Y-114950500D01*
X98828501Y-114954114D01*
X98797800Y-115068691D01*
X95642774Y-115068691D01*
X95640289Y-115064387D01*
X95556413Y-114980511D01*
X95453686Y-114921201D01*
X95339109Y-114890500D01*
X95220491Y-114890500D01*
X95105914Y-114921201D01*
X95105912Y-114921201D01*
X95105912Y-114921202D01*
X95003187Y-114980511D01*
X95003184Y-114980513D01*
X94919313Y-115064384D01*
X94919311Y-115064387D01*
X94902216Y-115093997D01*
X94860001Y-115167114D01*
X94829300Y-115281691D01*
X85458946Y-115281691D01*
X85432789Y-115236387D01*
X85348913Y-115152511D01*
X85246186Y-115093201D01*
X85131609Y-115062500D01*
X85012991Y-115062500D01*
X84898414Y-115093201D01*
X84898412Y-115093201D01*
X84898412Y-115093202D01*
X84795687Y-115152511D01*
X84795684Y-115152513D01*
X84711813Y-115236384D01*
X84711811Y-115236387D01*
X84652501Y-115339114D01*
X84621800Y-115453691D01*
X80864688Y-115453691D01*
X80628957Y-115162588D01*
X80616295Y-115146952D01*
X80613632Y-115143543D01*
X80575697Y-115093202D01*
X80099461Y-114461216D01*
X80096935Y-114457738D01*
X80046487Y-114385691D01*
X96379700Y-114385691D01*
X96379700Y-114504309D01*
X96410401Y-114618886D01*
X96469711Y-114721613D01*
X96553587Y-114805489D01*
X96656314Y-114864799D01*
X96770891Y-114895500D01*
X96770894Y-114895500D01*
X96889506Y-114895500D01*
X96889509Y-114895500D01*
X97004086Y-114864799D01*
X97106813Y-114805489D01*
X97190689Y-114721613D01*
X97249999Y-114618886D01*
X97280700Y-114504309D01*
X97280700Y-114385691D01*
X97249999Y-114271114D01*
X97190689Y-114168387D01*
X97106813Y-114084511D01*
X97004086Y-114025201D01*
X96889509Y-113994500D01*
X96770891Y-113994500D01*
X96656314Y-114025201D01*
X96656312Y-114025201D01*
X96656312Y-114025202D01*
X96553587Y-114084511D01*
X96553584Y-114084513D01*
X96469713Y-114168384D01*
X96469711Y-114168387D01*
X96427005Y-114242356D01*
X96410401Y-114271114D01*
X96379700Y-114385691D01*
X80046487Y-114385691D01*
X79606904Y-113757900D01*
X79604494Y-113754327D01*
X79597656Y-113743797D01*
X79286521Y-113264691D01*
X95929200Y-113264691D01*
X95929200Y-113383309D01*
X95959901Y-113497886D01*
X96019211Y-113600613D01*
X96103087Y-113684489D01*
X96205814Y-113743799D01*
X96320391Y-113774500D01*
X96320394Y-113774500D01*
X96439006Y-113774500D01*
X96439009Y-113774500D01*
X96553586Y-113743799D01*
X96656313Y-113684489D01*
X96740189Y-113600613D01*
X96799499Y-113497886D01*
X96814824Y-113440691D01*
X98049500Y-113440691D01*
X98049500Y-113559309D01*
X98080201Y-113673886D01*
X98139511Y-113776613D01*
X98223387Y-113860489D01*
X98326114Y-113919799D01*
X98440691Y-113950500D01*
X98440694Y-113950500D01*
X98559306Y-113950500D01*
X98559309Y-113950500D01*
X98673886Y-113919799D01*
X98776613Y-113860489D01*
X98860489Y-113776613D01*
X98919799Y-113673886D01*
X98950500Y-113559309D01*
X98950500Y-113440691D01*
X98919799Y-113326114D01*
X98860489Y-113223387D01*
X98776613Y-113139511D01*
X98673886Y-113080201D01*
X98559309Y-113049500D01*
X98440691Y-113049500D01*
X98326114Y-113080201D01*
X98326112Y-113080201D01*
X98326112Y-113080202D01*
X98223387Y-113139511D01*
X98223384Y-113139513D01*
X98139513Y-113223384D01*
X98139511Y-113223387D01*
X98080201Y-113326114D01*
X98049500Y-113440691D01*
X96814824Y-113440691D01*
X96830200Y-113383309D01*
X96830200Y-113264691D01*
X96799499Y-113150114D01*
X96740189Y-113047387D01*
X96656313Y-112963511D01*
X96553586Y-112904201D01*
X96439009Y-112873500D01*
X96320391Y-112873500D01*
X96205814Y-112904201D01*
X96205812Y-112904201D01*
X96205812Y-112904202D01*
X96103087Y-112963511D01*
X96103084Y-112963513D01*
X96019213Y-113047384D01*
X96019211Y-113047387D01*
X95966022Y-113139513D01*
X95959901Y-113150114D01*
X95929200Y-113264691D01*
X79286521Y-113264691D01*
X79139193Y-113037825D01*
X79136910Y-113034173D01*
X78718914Y-112338510D01*
X79652828Y-112338510D01*
X79652828Y-112483460D01*
X79684025Y-112599886D01*
X79690345Y-112623473D01*
X79762816Y-112748996D01*
X79762818Y-112748998D01*
X79762819Y-112749000D01*
X79865313Y-112851494D01*
X79865314Y-112851495D01*
X79865316Y-112851496D01*
X79990839Y-112923967D01*
X79990840Y-112923967D01*
X79990843Y-112923969D01*
X80130853Y-112961485D01*
X80130856Y-112961485D01*
X80275800Y-112961485D01*
X80275803Y-112961485D01*
X80415813Y-112923969D01*
X80541343Y-112851494D01*
X80643837Y-112749000D01*
X80716312Y-112623470D01*
X80735009Y-112553691D01*
X89382200Y-112553691D01*
X89382200Y-112672309D01*
X89412901Y-112786886D01*
X89472211Y-112889613D01*
X89556087Y-112973489D01*
X89658814Y-113032799D01*
X89773391Y-113063500D01*
X89773394Y-113063500D01*
X89892006Y-113063500D01*
X89892009Y-113063500D01*
X90006586Y-113032799D01*
X90107475Y-112974549D01*
X90175371Y-112958077D01*
X90241398Y-112980928D01*
X90257154Y-112994256D01*
X90323387Y-113060489D01*
X90426114Y-113119799D01*
X90540691Y-113150500D01*
X90540694Y-113150500D01*
X90659306Y-113150500D01*
X90659309Y-113150500D01*
X90773886Y-113119799D01*
X90876613Y-113060489D01*
X90960489Y-112976613D01*
X91019799Y-112873886D01*
X91050500Y-112759309D01*
X91050500Y-112657691D01*
X100949500Y-112657691D01*
X100949500Y-112776309D01*
X100980201Y-112890886D01*
X101039511Y-112993613D01*
X101123387Y-113077489D01*
X101226114Y-113136799D01*
X101340691Y-113167500D01*
X101340694Y-113167500D01*
X101459306Y-113167500D01*
X101459309Y-113167500D01*
X101573886Y-113136799D01*
X101676613Y-113077489D01*
X101760489Y-112993613D01*
X101819799Y-112890886D01*
X101850500Y-112776309D01*
X101850500Y-112657691D01*
X101819799Y-112543114D01*
X101760489Y-112440387D01*
X101686793Y-112366691D01*
X107434500Y-112366691D01*
X107434500Y-112485309D01*
X107465201Y-112599886D01*
X107524511Y-112702613D01*
X107608387Y-112786489D01*
X107711114Y-112845799D01*
X107825691Y-112876500D01*
X107825694Y-112876500D01*
X107944306Y-112876500D01*
X107944309Y-112876500D01*
X108058886Y-112845799D01*
X108161613Y-112786489D01*
X108245489Y-112702613D01*
X108304799Y-112599886D01*
X108335500Y-112485309D01*
X108335500Y-112366691D01*
X108304799Y-112252114D01*
X108248551Y-112154691D01*
X108982500Y-112154691D01*
X108982500Y-112273309D01*
X109013201Y-112387886D01*
X109072511Y-112490613D01*
X109156387Y-112574489D01*
X109259114Y-112633799D01*
X109373691Y-112664500D01*
X109373694Y-112664500D01*
X109492306Y-112664500D01*
X109492309Y-112664500D01*
X109606886Y-112633799D01*
X109709613Y-112574489D01*
X109793489Y-112490613D01*
X109852799Y-112387886D01*
X109883500Y-112273309D01*
X109883500Y-112154691D01*
X109852799Y-112040114D01*
X109793489Y-111937387D01*
X109709613Y-111853511D01*
X109606886Y-111794201D01*
X109492309Y-111763500D01*
X109373691Y-111763500D01*
X109259114Y-111794201D01*
X109259112Y-111794201D01*
X109259112Y-111794202D01*
X109156387Y-111853511D01*
X109156384Y-111853513D01*
X109072513Y-111937384D01*
X109072511Y-111937387D01*
X109013201Y-112040114D01*
X108982500Y-112154691D01*
X108248551Y-112154691D01*
X108245489Y-112149387D01*
X108161613Y-112065511D01*
X108058886Y-112006201D01*
X107944309Y-111975500D01*
X107825691Y-111975500D01*
X107711114Y-112006201D01*
X107711112Y-112006201D01*
X107711112Y-112006202D01*
X107608387Y-112065511D01*
X107608384Y-112065513D01*
X107524513Y-112149384D01*
X107524511Y-112149387D01*
X107465201Y-112252114D01*
X107434500Y-112366691D01*
X101686793Y-112366691D01*
X101676613Y-112356511D01*
X101573886Y-112297201D01*
X101459309Y-112266500D01*
X101340691Y-112266500D01*
X101226114Y-112297201D01*
X101226112Y-112297201D01*
X101226112Y-112297202D01*
X101123387Y-112356511D01*
X101123384Y-112356513D01*
X101039513Y-112440384D01*
X101039512Y-112440386D01*
X101039511Y-112440387D01*
X100980201Y-112543114D01*
X100949500Y-112657691D01*
X91050500Y-112657691D01*
X91050500Y-112640691D01*
X91019799Y-112526114D01*
X90960489Y-112423387D01*
X90876613Y-112339511D01*
X90773886Y-112280201D01*
X90659309Y-112249500D01*
X90540691Y-112249500D01*
X90426114Y-112280201D01*
X90325226Y-112338449D01*
X90257327Y-112354922D01*
X90191300Y-112332070D01*
X90175545Y-112318743D01*
X90109315Y-112252513D01*
X90109313Y-112252511D01*
X90006586Y-112193201D01*
X89892009Y-112162500D01*
X89773391Y-112162500D01*
X89658814Y-112193201D01*
X89658812Y-112193201D01*
X89658812Y-112193202D01*
X89556087Y-112252511D01*
X89556084Y-112252513D01*
X89472213Y-112336384D01*
X89472211Y-112336387D01*
X89412901Y-112439114D01*
X89382200Y-112553691D01*
X80735009Y-112553691D01*
X80753828Y-112483460D01*
X80753828Y-112338510D01*
X80716312Y-112198500D01*
X80695527Y-112162500D01*
X80643839Y-112072973D01*
X80643834Y-112072967D01*
X80541345Y-111970478D01*
X80541339Y-111970473D01*
X80415816Y-111898002D01*
X80415817Y-111898002D01*
X80404334Y-111894925D01*
X80275803Y-111860485D01*
X80130853Y-111860485D01*
X80002321Y-111894925D01*
X79990839Y-111898002D01*
X79865316Y-111970473D01*
X79865310Y-111970478D01*
X79762821Y-112072967D01*
X79762816Y-112072973D01*
X79690345Y-112198496D01*
X79690344Y-112198500D01*
X79652828Y-112338510D01*
X78718914Y-112338510D01*
X78696883Y-112301844D01*
X78694733Y-112298121D01*
X78280537Y-111550891D01*
X78278510Y-111547079D01*
X78192998Y-111379253D01*
X77931619Y-110866267D01*
X78802828Y-110866267D01*
X78802828Y-111011217D01*
X78840344Y-111151227D01*
X78840345Y-111151230D01*
X78912816Y-111276753D01*
X78912818Y-111276755D01*
X78912819Y-111276757D01*
X79015313Y-111379251D01*
X79015314Y-111379252D01*
X79015316Y-111379253D01*
X79140839Y-111451724D01*
X79140840Y-111451724D01*
X79140843Y-111451726D01*
X79280853Y-111489242D01*
X79280856Y-111489242D01*
X79425800Y-111489242D01*
X79425803Y-111489242D01*
X79565813Y-111451726D01*
X79691343Y-111379251D01*
X79793837Y-111276757D01*
X79866312Y-111151227D01*
X79885936Y-111077991D01*
X82986600Y-111077991D01*
X82986600Y-111196609D01*
X83017301Y-111311186D01*
X83076611Y-111413913D01*
X83160487Y-111497789D01*
X83263214Y-111557099D01*
X83377791Y-111587800D01*
X83377794Y-111587800D01*
X83496406Y-111587800D01*
X83496409Y-111587800D01*
X83610986Y-111557099D01*
X83713713Y-111497789D01*
X83793811Y-111417691D01*
X84301400Y-111417691D01*
X84301400Y-111536309D01*
X84332101Y-111650886D01*
X84391411Y-111753613D01*
X84475287Y-111837489D01*
X84578014Y-111896799D01*
X84692591Y-111927500D01*
X84692594Y-111927500D01*
X84811206Y-111927500D01*
X84811209Y-111927500D01*
X84925786Y-111896799D01*
X85028513Y-111837489D01*
X85112389Y-111753613D01*
X85171699Y-111650886D01*
X85202400Y-111536309D01*
X85202400Y-111417691D01*
X85171699Y-111303114D01*
X85112389Y-111200387D01*
X85028513Y-111116511D01*
X84925786Y-111057201D01*
X84811209Y-111026500D01*
X84692591Y-111026500D01*
X84578014Y-111057201D01*
X84578012Y-111057201D01*
X84578012Y-111057202D01*
X84475287Y-111116511D01*
X84475284Y-111116513D01*
X84391413Y-111200384D01*
X84391411Y-111200387D01*
X84332101Y-111303114D01*
X84301400Y-111417691D01*
X83793811Y-111417691D01*
X83797589Y-111413913D01*
X83856899Y-111311186D01*
X83887600Y-111196609D01*
X83887600Y-111077991D01*
X83856899Y-110963414D01*
X83797589Y-110860687D01*
X83713713Y-110776811D01*
X83610986Y-110717501D01*
X83496409Y-110686800D01*
X83377791Y-110686800D01*
X83263214Y-110717501D01*
X83263212Y-110717501D01*
X83263212Y-110717502D01*
X83160487Y-110776811D01*
X83160484Y-110776813D01*
X83076613Y-110860684D01*
X83076611Y-110860687D01*
X83017301Y-110963414D01*
X82986600Y-111077991D01*
X79885936Y-111077991D01*
X79903828Y-111011217D01*
X79903828Y-110866267D01*
X79866312Y-110726257D01*
X79861257Y-110717502D01*
X79793839Y-110600730D01*
X79793834Y-110600724D01*
X79691345Y-110498235D01*
X79691339Y-110498230D01*
X79565816Y-110425759D01*
X79565817Y-110425759D01*
X79554334Y-110422682D01*
X79425803Y-110388242D01*
X79280853Y-110388242D01*
X79152321Y-110422682D01*
X79140839Y-110425759D01*
X79015316Y-110498230D01*
X79015310Y-110498235D01*
X78912821Y-110600724D01*
X78912816Y-110600730D01*
X78840345Y-110726253D01*
X78840344Y-110726257D01*
X78802828Y-110866267D01*
X77931619Y-110866267D01*
X77890645Y-110785851D01*
X77888748Y-110781961D01*
X77527702Y-110007696D01*
X77525941Y-110003742D01*
X77398290Y-109703015D01*
X77381173Y-109662691D01*
X82324300Y-109662691D01*
X82324300Y-109781309D01*
X82355001Y-109895886D01*
X82414311Y-109998613D01*
X82498187Y-110082489D01*
X82600914Y-110141799D01*
X82715491Y-110172500D01*
X82715494Y-110172500D01*
X82834106Y-110172500D01*
X82834109Y-110172500D01*
X82948686Y-110141799D01*
X83051413Y-110082489D01*
X83135289Y-109998613D01*
X83194599Y-109895886D01*
X83225300Y-109781309D01*
X83225300Y-109662691D01*
X83194599Y-109548114D01*
X83135289Y-109445387D01*
X83051413Y-109361511D01*
X82948686Y-109302201D01*
X82834109Y-109271500D01*
X82715491Y-109271500D01*
X82600914Y-109302201D01*
X82600912Y-109302201D01*
X82600912Y-109302202D01*
X82498187Y-109361511D01*
X82498184Y-109361513D01*
X82414313Y-109445384D01*
X82414311Y-109445387D01*
X82355001Y-109548114D01*
X82324300Y-109662691D01*
X77381173Y-109662691D01*
X77357741Y-109607488D01*
X77192103Y-109217269D01*
X77190512Y-109213329D01*
X77180670Y-109187691D01*
X90024700Y-109187691D01*
X90024700Y-109306309D01*
X90055401Y-109420886D01*
X90114711Y-109523613D01*
X90198587Y-109607489D01*
X90301314Y-109666799D01*
X90415891Y-109697500D01*
X90415894Y-109697500D01*
X90534506Y-109697500D01*
X90534509Y-109697500D01*
X90649086Y-109666799D01*
X90751813Y-109607489D01*
X90835689Y-109523613D01*
X90894999Y-109420886D01*
X90925700Y-109306309D01*
X90925700Y-109306294D01*
X90926756Y-109298279D01*
X90955021Y-109234381D01*
X91013344Y-109195908D01*
X91083209Y-109195074D01*
X91137377Y-109226779D01*
X91214087Y-109303489D01*
X91316814Y-109362799D01*
X91431391Y-109393500D01*
X91431394Y-109393500D01*
X91550006Y-109393500D01*
X91550009Y-109393500D01*
X91664586Y-109362799D01*
X91767313Y-109303489D01*
X91851189Y-109219613D01*
X91910499Y-109116886D01*
X91941200Y-109002309D01*
X91941200Y-108883691D01*
X91910499Y-108769114D01*
X91851189Y-108666387D01*
X91830493Y-108645691D01*
X93803200Y-108645691D01*
X93803200Y-108764309D01*
X93833901Y-108878886D01*
X93893211Y-108981613D01*
X93977087Y-109065489D01*
X94079814Y-109124799D01*
X94194391Y-109155500D01*
X94194394Y-109155500D01*
X94313006Y-109155500D01*
X94313009Y-109155500D01*
X94427586Y-109124799D01*
X94530313Y-109065489D01*
X94614189Y-108981613D01*
X94673499Y-108878886D01*
X94704200Y-108764309D01*
X94704200Y-108645691D01*
X94673499Y-108531114D01*
X94614189Y-108428387D01*
X94530313Y-108344511D01*
X94427586Y-108285201D01*
X94313009Y-108254500D01*
X94194391Y-108254500D01*
X94079814Y-108285201D01*
X94079812Y-108285201D01*
X94079812Y-108285202D01*
X93977087Y-108344511D01*
X93977084Y-108344513D01*
X93893213Y-108428384D01*
X93893211Y-108428387D01*
X93838470Y-108523201D01*
X93833901Y-108531114D01*
X93803200Y-108645691D01*
X91830493Y-108645691D01*
X91767313Y-108582511D01*
X91664586Y-108523201D01*
X91550009Y-108492500D01*
X91431391Y-108492500D01*
X91316814Y-108523201D01*
X91316812Y-108523201D01*
X91316812Y-108523202D01*
X91214087Y-108582511D01*
X91214084Y-108582513D01*
X91130213Y-108666384D01*
X91130211Y-108666387D01*
X91070901Y-108769114D01*
X91040200Y-108883691D01*
X91040200Y-108883692D01*
X91039142Y-108891729D01*
X91010873Y-108955624D01*
X90952547Y-108994093D01*
X90882682Y-108994922D01*
X90828522Y-108963220D01*
X90751815Y-108886513D01*
X90751813Y-108886511D01*
X90649086Y-108827201D01*
X90534509Y-108796500D01*
X90415891Y-108796500D01*
X90301314Y-108827201D01*
X90301312Y-108827201D01*
X90301312Y-108827202D01*
X90198587Y-108886511D01*
X90198584Y-108886513D01*
X90114713Y-108970384D01*
X90114711Y-108970387D01*
X90055401Y-109073114D01*
X90024700Y-109187691D01*
X77180670Y-109187691D01*
X76884318Y-108415667D01*
X76882862Y-108411665D01*
X76720692Y-107940691D01*
X82346100Y-107940691D01*
X82346100Y-108059309D01*
X82376801Y-108173886D01*
X82436111Y-108276613D01*
X82519987Y-108360489D01*
X82622714Y-108419799D01*
X82737291Y-108450500D01*
X82737294Y-108450500D01*
X82855906Y-108450500D01*
X82855909Y-108450500D01*
X82970486Y-108419799D01*
X83073213Y-108360489D01*
X83157089Y-108276613D01*
X83216399Y-108173886D01*
X83225294Y-108140691D01*
X102549500Y-108140691D01*
X102549500Y-108259309D01*
X102580201Y-108373886D01*
X102639511Y-108476613D01*
X102723387Y-108560489D01*
X102826114Y-108619799D01*
X102940691Y-108650500D01*
X102940694Y-108650500D01*
X103059306Y-108650500D01*
X103059309Y-108650500D01*
X103173886Y-108619799D01*
X103276613Y-108560489D01*
X103360489Y-108476613D01*
X103419799Y-108373886D01*
X103450500Y-108259309D01*
X103450500Y-108140691D01*
X109149500Y-108140691D01*
X109149500Y-108259309D01*
X109180201Y-108373886D01*
X109239511Y-108476613D01*
X109323387Y-108560489D01*
X109426114Y-108619799D01*
X109540691Y-108650500D01*
X109540694Y-108650500D01*
X109659306Y-108650500D01*
X109659309Y-108650500D01*
X109773886Y-108619799D01*
X109876613Y-108560489D01*
X109960489Y-108476613D01*
X110019799Y-108373886D01*
X110050500Y-108259309D01*
X110050500Y-108140691D01*
X110019799Y-108026114D01*
X109960489Y-107923387D01*
X109876613Y-107839511D01*
X109773886Y-107780201D01*
X109659309Y-107749500D01*
X109540691Y-107749500D01*
X109426114Y-107780201D01*
X109426112Y-107780201D01*
X109426112Y-107780202D01*
X109323387Y-107839511D01*
X109323384Y-107839513D01*
X109239513Y-107923384D01*
X109239511Y-107923387D01*
X109180201Y-108026114D01*
X109149500Y-108140691D01*
X103450500Y-108140691D01*
X103419799Y-108026114D01*
X103360489Y-107923387D01*
X103276613Y-107839511D01*
X103173886Y-107780201D01*
X103059309Y-107749500D01*
X102940691Y-107749500D01*
X102826114Y-107780201D01*
X102826112Y-107780201D01*
X102826112Y-107780202D01*
X102723387Y-107839511D01*
X102723384Y-107839513D01*
X102639513Y-107923384D01*
X102639511Y-107923387D01*
X102580201Y-108026114D01*
X102549500Y-108140691D01*
X83225294Y-108140691D01*
X83247100Y-108059309D01*
X83247100Y-107940691D01*
X83216399Y-107826114D01*
X83157089Y-107723387D01*
X83073213Y-107639511D01*
X82970486Y-107580201D01*
X82855909Y-107549500D01*
X82737291Y-107549500D01*
X82622714Y-107580201D01*
X82622712Y-107580201D01*
X82622712Y-107580202D01*
X82519987Y-107639511D01*
X82519984Y-107639513D01*
X82436113Y-107723384D01*
X82436111Y-107723387D01*
X82403309Y-107780202D01*
X82376801Y-107826114D01*
X82346100Y-107940691D01*
X76720692Y-107940691D01*
X76604718Y-107603879D01*
X76603381Y-107599764D01*
X76532774Y-107368818D01*
X76524175Y-107340691D01*
X95949500Y-107340691D01*
X95949500Y-107459309D01*
X95980201Y-107573886D01*
X96039511Y-107676613D01*
X96123387Y-107760489D01*
X96226114Y-107819799D01*
X96340691Y-107850500D01*
X96340694Y-107850500D01*
X96459306Y-107850500D01*
X96459309Y-107850500D01*
X96573886Y-107819799D01*
X96676613Y-107760489D01*
X96760489Y-107676613D01*
X96819799Y-107573886D01*
X96850500Y-107459309D01*
X96850500Y-107340691D01*
X96819799Y-107226114D01*
X96760489Y-107123387D01*
X96676613Y-107039511D01*
X96573886Y-106980201D01*
X96459309Y-106949500D01*
X96340691Y-106949500D01*
X96226114Y-106980201D01*
X96226112Y-106980201D01*
X96226112Y-106980202D01*
X96123387Y-107039511D01*
X96123384Y-107039513D01*
X96039513Y-107123384D01*
X96039511Y-107123387D01*
X96012665Y-107169886D01*
X95980201Y-107226114D01*
X95949500Y-107340691D01*
X76524175Y-107340691D01*
X76441354Y-107069797D01*
X76353583Y-106782709D01*
X76352414Y-106778632D01*
X76302055Y-106590691D01*
X91545800Y-106590691D01*
X91545800Y-106709309D01*
X91576501Y-106823886D01*
X91635811Y-106926613D01*
X91719687Y-107010489D01*
X91822414Y-107069799D01*
X91936991Y-107100500D01*
X91936994Y-107100500D01*
X92055606Y-107100500D01*
X92055609Y-107100500D01*
X92170186Y-107069799D01*
X92272913Y-107010489D01*
X92356789Y-106926613D01*
X92416099Y-106823886D01*
X92446800Y-106709309D01*
X92446800Y-106590691D01*
X92416099Y-106476114D01*
X92372154Y-106400000D01*
X104250000Y-106400000D01*
X104750000Y-106400000D01*
X104750000Y-105590691D01*
X106449500Y-105590691D01*
X106449500Y-105709309D01*
X106480201Y-105823886D01*
X106539511Y-105926613D01*
X106539513Y-105926615D01*
X106575217Y-105962319D01*
X106608702Y-106023642D01*
X106603718Y-106093334D01*
X106575217Y-106137681D01*
X106539513Y-106173384D01*
X106539511Y-106173387D01*
X106490483Y-106258306D01*
X106480201Y-106276114D01*
X106449500Y-106390691D01*
X106449500Y-106509309D01*
X106480201Y-106623886D01*
X106539511Y-106726613D01*
X106623387Y-106810489D01*
X106726114Y-106869799D01*
X106840691Y-106900500D01*
X106840694Y-106900500D01*
X106959306Y-106900500D01*
X106959309Y-106900500D01*
X107073886Y-106869799D01*
X107176613Y-106810489D01*
X107260489Y-106726613D01*
X107319799Y-106623886D01*
X107350500Y-106509309D01*
X107350500Y-106440691D01*
X108849500Y-106440691D01*
X108849500Y-106559309D01*
X108880201Y-106673886D01*
X108939511Y-106776613D01*
X109023387Y-106860489D01*
X109126114Y-106919799D01*
X109240691Y-106950500D01*
X109240694Y-106950500D01*
X109359306Y-106950500D01*
X109359309Y-106950500D01*
X109473886Y-106919799D01*
X109576613Y-106860489D01*
X109660489Y-106776613D01*
X109719799Y-106673886D01*
X109750500Y-106559309D01*
X109750500Y-106440691D01*
X109736567Y-106388691D01*
X114552500Y-106388691D01*
X114552500Y-106507309D01*
X114583201Y-106621886D01*
X114642511Y-106724613D01*
X114726387Y-106808489D01*
X114829114Y-106867799D01*
X114943691Y-106898500D01*
X114943694Y-106898500D01*
X115062306Y-106898500D01*
X115062309Y-106898500D01*
X115176886Y-106867799D01*
X115279613Y-106808489D01*
X115363489Y-106724613D01*
X115422799Y-106621886D01*
X115453500Y-106507309D01*
X115453500Y-106388691D01*
X115422799Y-106274114D01*
X115363489Y-106171387D01*
X115331793Y-106139691D01*
X120545500Y-106139691D01*
X120545500Y-106258309D01*
X120576201Y-106372886D01*
X120635511Y-106475613D01*
X120719387Y-106559489D01*
X120822114Y-106618799D01*
X120936691Y-106649500D01*
X120936694Y-106649500D01*
X121055306Y-106649500D01*
X121055309Y-106649500D01*
X121169886Y-106618799D01*
X121272613Y-106559489D01*
X121356489Y-106475613D01*
X121415799Y-106372886D01*
X121446500Y-106258309D01*
X121446500Y-106139691D01*
X121415799Y-106025114D01*
X121356489Y-105922387D01*
X121272613Y-105838511D01*
X121169886Y-105779201D01*
X121055309Y-105748500D01*
X120936691Y-105748500D01*
X120822114Y-105779201D01*
X120822112Y-105779201D01*
X120822112Y-105779202D01*
X120719387Y-105838511D01*
X120719384Y-105838513D01*
X120635513Y-105922384D01*
X120635511Y-105922387D01*
X120576201Y-106025114D01*
X120545500Y-106139691D01*
X115331793Y-106139691D01*
X115279613Y-106087511D01*
X115176886Y-106028201D01*
X115062309Y-105997500D01*
X114943691Y-105997500D01*
X114829114Y-106028201D01*
X114829112Y-106028201D01*
X114829112Y-106028202D01*
X114726387Y-106087511D01*
X114726384Y-106087513D01*
X114642513Y-106171384D01*
X114642511Y-106171387D01*
X114612489Y-106223387D01*
X114583201Y-106274114D01*
X114552500Y-106388691D01*
X109736567Y-106388691D01*
X109719799Y-106326114D01*
X109660489Y-106223387D01*
X109576613Y-106139511D01*
X109473886Y-106080201D01*
X109359309Y-106049500D01*
X109240691Y-106049500D01*
X109126114Y-106080201D01*
X109126112Y-106080201D01*
X109126112Y-106080202D01*
X109023387Y-106139511D01*
X109023384Y-106139513D01*
X108939513Y-106223384D01*
X108939511Y-106223387D01*
X108880201Y-106326114D01*
X108849500Y-106440691D01*
X107350500Y-106440691D01*
X107350500Y-106390691D01*
X107319799Y-106276114D01*
X107260489Y-106173387D01*
X107224783Y-106137681D01*
X107191298Y-106076358D01*
X107196282Y-106006666D01*
X107224783Y-105962319D01*
X107237938Y-105949164D01*
X107260489Y-105926613D01*
X107319799Y-105823886D01*
X107350500Y-105709309D01*
X107350500Y-105590691D01*
X107319799Y-105476114D01*
X107260489Y-105373387D01*
X107176613Y-105289511D01*
X107073886Y-105230201D01*
X106959309Y-105199500D01*
X106840691Y-105199500D01*
X106726114Y-105230201D01*
X106726112Y-105230201D01*
X106726112Y-105230202D01*
X106623387Y-105289511D01*
X106623384Y-105289513D01*
X106539513Y-105373384D01*
X106539511Y-105373387D01*
X106493368Y-105453309D01*
X106480201Y-105476114D01*
X106449500Y-105590691D01*
X104750000Y-105590691D01*
X104750000Y-104300000D01*
X104250000Y-104300000D01*
X104250000Y-106400000D01*
X92372154Y-106400000D01*
X92356789Y-106373387D01*
X92272913Y-106289511D01*
X92170186Y-106230201D01*
X92055609Y-106199500D01*
X91936991Y-106199500D01*
X91822414Y-106230201D01*
X91822412Y-106230201D01*
X91822412Y-106230202D01*
X91719687Y-106289511D01*
X91719684Y-106289513D01*
X91635813Y-106373384D01*
X91635811Y-106373387D01*
X91596952Y-106440693D01*
X91576501Y-106476114D01*
X91545800Y-106590691D01*
X76302055Y-106590691D01*
X76131270Y-105953313D01*
X76130248Y-105949215D01*
X76093650Y-105790691D01*
X80131100Y-105790691D01*
X80131100Y-105909309D01*
X80161801Y-106023886D01*
X80221111Y-106126613D01*
X80304987Y-106210489D01*
X80407714Y-106269799D01*
X80522291Y-106300500D01*
X80522294Y-106300500D01*
X80640906Y-106300500D01*
X80640909Y-106300500D01*
X80755486Y-106269799D01*
X80858213Y-106210489D01*
X80942089Y-106126613D01*
X81001399Y-106023886D01*
X81032100Y-105909309D01*
X81032100Y-105790691D01*
X81001399Y-105676114D01*
X80942089Y-105573387D01*
X80858213Y-105489511D01*
X80755486Y-105430201D01*
X80640909Y-105399500D01*
X80522291Y-105399500D01*
X80407714Y-105430201D01*
X80407712Y-105430201D01*
X80407712Y-105430202D01*
X80304987Y-105489511D01*
X80304984Y-105489513D01*
X80221113Y-105573384D01*
X80221111Y-105573387D01*
X80164978Y-105670612D01*
X80161801Y-105676114D01*
X80131100Y-105790691D01*
X76093650Y-105790691D01*
X75988374Y-105334691D01*
X85389100Y-105334691D01*
X85389100Y-105453309D01*
X85419801Y-105567886D01*
X85479111Y-105670613D01*
X85562987Y-105754489D01*
X85665714Y-105813799D01*
X85780291Y-105844500D01*
X85780294Y-105844500D01*
X85898906Y-105844500D01*
X85898909Y-105844500D01*
X86013486Y-105813799D01*
X86116213Y-105754489D01*
X86200089Y-105670613D01*
X86259399Y-105567886D01*
X86290100Y-105453309D01*
X86290100Y-105334691D01*
X86259399Y-105220114D01*
X86213544Y-105140691D01*
X94949500Y-105140691D01*
X94949500Y-105259309D01*
X94980201Y-105373886D01*
X95039511Y-105476613D01*
X95123387Y-105560489D01*
X95226114Y-105619799D01*
X95340691Y-105650500D01*
X95340694Y-105650500D01*
X95459306Y-105650500D01*
X95459309Y-105650500D01*
X95573886Y-105619799D01*
X95676613Y-105560489D01*
X95760489Y-105476613D01*
X95819799Y-105373886D01*
X95850500Y-105259309D01*
X95850500Y-105140691D01*
X95819799Y-105026114D01*
X95760489Y-104923387D01*
X95676613Y-104839511D01*
X95573886Y-104780201D01*
X95459309Y-104749500D01*
X95340691Y-104749500D01*
X95226114Y-104780201D01*
X95226112Y-104780201D01*
X95226112Y-104780202D01*
X95123387Y-104839511D01*
X95123384Y-104839513D01*
X95039513Y-104923384D01*
X95039511Y-104923387D01*
X94998454Y-104994500D01*
X94980201Y-105026114D01*
X94949500Y-105140691D01*
X86213544Y-105140691D01*
X86200089Y-105117387D01*
X86116213Y-105033511D01*
X86013486Y-104974201D01*
X85898909Y-104943500D01*
X85780291Y-104943500D01*
X85665714Y-104974201D01*
X85665712Y-104974201D01*
X85665712Y-104974202D01*
X85562987Y-105033511D01*
X85562984Y-105033513D01*
X85479113Y-105117384D01*
X85479111Y-105117387D01*
X85431703Y-105199500D01*
X85419801Y-105220114D01*
X85389100Y-105334691D01*
X75988374Y-105334691D01*
X75938054Y-105116729D01*
X75937156Y-105112503D01*
X75921802Y-105033513D01*
X75774137Y-104273847D01*
X75773388Y-104269593D01*
X75770364Y-104250500D01*
X75761366Y-104193691D01*
X81963800Y-104193691D01*
X81963800Y-104312309D01*
X81994501Y-104426886D01*
X82053811Y-104529613D01*
X82137687Y-104613489D01*
X82240414Y-104672799D01*
X82354991Y-104703500D01*
X82354994Y-104703500D01*
X82473606Y-104703500D01*
X82473609Y-104703500D01*
X82588186Y-104672799D01*
X82690913Y-104613489D01*
X82774789Y-104529613D01*
X82834099Y-104426886D01*
X82837367Y-104414691D01*
X83729000Y-104414691D01*
X83729000Y-104533309D01*
X83759701Y-104647886D01*
X83819011Y-104750613D01*
X83902887Y-104834489D01*
X84005614Y-104893799D01*
X84120191Y-104924500D01*
X84120194Y-104924500D01*
X84238806Y-104924500D01*
X84238809Y-104924500D01*
X84353386Y-104893799D01*
X84456113Y-104834489D01*
X84539989Y-104750613D01*
X84599299Y-104647886D01*
X84630000Y-104533309D01*
X84630000Y-104414691D01*
X84610172Y-104340691D01*
X87549500Y-104340691D01*
X87549500Y-104459309D01*
X87580201Y-104573886D01*
X87639511Y-104676613D01*
X87723387Y-104760489D01*
X87826114Y-104819799D01*
X87940691Y-104850500D01*
X87940694Y-104850500D01*
X88059306Y-104850500D01*
X88059309Y-104850500D01*
X88173886Y-104819799D01*
X88276613Y-104760489D01*
X88360489Y-104676613D01*
X88392613Y-104620972D01*
X88443180Y-104572757D01*
X88511787Y-104559535D01*
X88576652Y-104585503D01*
X88607386Y-104620972D01*
X88639511Y-104676613D01*
X88723387Y-104760489D01*
X88826114Y-104819799D01*
X88940691Y-104850500D01*
X88940694Y-104850500D01*
X89059306Y-104850500D01*
X89059309Y-104850500D01*
X89173886Y-104819799D01*
X89276613Y-104760489D01*
X89360489Y-104676613D01*
X89419799Y-104573886D01*
X89443699Y-104484691D01*
X97537200Y-104484691D01*
X97537200Y-104603309D01*
X97567901Y-104717886D01*
X97627211Y-104820613D01*
X97711087Y-104904489D01*
X97813814Y-104963799D01*
X97928391Y-104994500D01*
X97928394Y-104994500D01*
X98047006Y-104994500D01*
X98047009Y-104994500D01*
X98161586Y-104963799D01*
X98264313Y-104904489D01*
X98348189Y-104820613D01*
X98407499Y-104717886D01*
X98438200Y-104603309D01*
X98438200Y-104484691D01*
X98407499Y-104370114D01*
X98348189Y-104267387D01*
X98321493Y-104240691D01*
X99849500Y-104240691D01*
X99849500Y-104359309D01*
X99880201Y-104473886D01*
X99939511Y-104576613D01*
X100023387Y-104660489D01*
X100126114Y-104719799D01*
X100240691Y-104750500D01*
X100240694Y-104750500D01*
X100359306Y-104750500D01*
X100359309Y-104750500D01*
X100473886Y-104719799D01*
X100576613Y-104660489D01*
X100660489Y-104576613D01*
X100718121Y-104476791D01*
X100768687Y-104428577D01*
X100837294Y-104415354D01*
X100902159Y-104441322D01*
X100942687Y-104498237D01*
X100948445Y-104522602D01*
X100949498Y-104530600D01*
X100949500Y-104530606D01*
X100949500Y-104530609D01*
X100980201Y-104645186D01*
X101039511Y-104747913D01*
X101123387Y-104831789D01*
X101226114Y-104891099D01*
X101340691Y-104921800D01*
X101340694Y-104921800D01*
X101459306Y-104921800D01*
X101459309Y-104921800D01*
X101573886Y-104891099D01*
X101676613Y-104831789D01*
X101760489Y-104747913D01*
X101819799Y-104645186D01*
X101850500Y-104530609D01*
X101850500Y-104411991D01*
X101819799Y-104297414D01*
X101760489Y-104194687D01*
X101676613Y-104110811D01*
X101573886Y-104051501D01*
X101459309Y-104020800D01*
X101340691Y-104020800D01*
X101226114Y-104051501D01*
X101226112Y-104051501D01*
X101226112Y-104051502D01*
X101123387Y-104110811D01*
X101123384Y-104110813D01*
X101039513Y-104194684D01*
X101039507Y-104194693D01*
X100981878Y-104294507D01*
X100931311Y-104342722D01*
X100862704Y-104355944D01*
X100797839Y-104329976D01*
X100757311Y-104273061D01*
X100751553Y-104248691D01*
X100750500Y-104240694D01*
X100750500Y-104240693D01*
X100750500Y-104240691D01*
X100719799Y-104126114D01*
X100660489Y-104023387D01*
X100576613Y-103939511D01*
X100473886Y-103880201D01*
X100369901Y-103852338D01*
X100363041Y-103850500D01*
X100359309Y-103849500D01*
X100240691Y-103849500D01*
X100126114Y-103880201D01*
X100126112Y-103880201D01*
X100126112Y-103880202D01*
X100023387Y-103939511D01*
X100023384Y-103939513D01*
X99939513Y-104023384D01*
X99939511Y-104023387D01*
X99908780Y-104076615D01*
X99880201Y-104126114D01*
X99849500Y-104240691D01*
X98321493Y-104240691D01*
X98264313Y-104183511D01*
X98161586Y-104124201D01*
X98047009Y-104093500D01*
X97928391Y-104093500D01*
X97813814Y-104124201D01*
X97813812Y-104124201D01*
X97813812Y-104124202D01*
X97711087Y-104183511D01*
X97711084Y-104183513D01*
X97627213Y-104267384D01*
X97627211Y-104267387D01*
X97584087Y-104342080D01*
X97567901Y-104370114D01*
X97537200Y-104484691D01*
X89443699Y-104484691D01*
X89450500Y-104459309D01*
X89450500Y-104340691D01*
X89419799Y-104226114D01*
X89360489Y-104123387D01*
X89276613Y-104039511D01*
X89173886Y-103980201D01*
X89059309Y-103949500D01*
X88940691Y-103949500D01*
X88826114Y-103980201D01*
X88826112Y-103980201D01*
X88826112Y-103980202D01*
X88723387Y-104039511D01*
X88723384Y-104039513D01*
X88639513Y-104123384D01*
X88639511Y-104123387D01*
X88607387Y-104179027D01*
X88556819Y-104227242D01*
X88488212Y-104240464D01*
X88423347Y-104214496D01*
X88392613Y-104179027D01*
X88381908Y-104160486D01*
X88360489Y-104123387D01*
X88276613Y-104039511D01*
X88173886Y-103980201D01*
X88059309Y-103949500D01*
X87940691Y-103949500D01*
X87826114Y-103980201D01*
X87826112Y-103980201D01*
X87826112Y-103980202D01*
X87723387Y-104039511D01*
X87723384Y-104039513D01*
X87639513Y-104123384D01*
X87639511Y-104123387D01*
X87598346Y-104194687D01*
X87580201Y-104226114D01*
X87549500Y-104340691D01*
X84610172Y-104340691D01*
X84599299Y-104300114D01*
X84539989Y-104197387D01*
X84456113Y-104113511D01*
X84353386Y-104054201D01*
X84238809Y-104023500D01*
X84120191Y-104023500D01*
X84005614Y-104054201D01*
X84005612Y-104054201D01*
X84005612Y-104054202D01*
X83902887Y-104113511D01*
X83902884Y-104113513D01*
X83819013Y-104197384D01*
X83819011Y-104197387D01*
X83759701Y-104300114D01*
X83729000Y-104414691D01*
X82837367Y-104414691D01*
X82864800Y-104312309D01*
X82864800Y-104193691D01*
X82834099Y-104079114D01*
X82774789Y-103976387D01*
X82690913Y-103892511D01*
X82588186Y-103833201D01*
X82473609Y-103802500D01*
X82354991Y-103802500D01*
X82240414Y-103833201D01*
X82240412Y-103833201D01*
X82240412Y-103833202D01*
X82137687Y-103892511D01*
X82137684Y-103892513D01*
X82053813Y-103976384D01*
X82053811Y-103976387D01*
X81995946Y-104076612D01*
X81994501Y-104079114D01*
X81963800Y-104193691D01*
X75761366Y-104193691D01*
X75647365Y-103473920D01*
X77049399Y-103473920D01*
X77078240Y-103618907D01*
X77078243Y-103618917D01*
X77134812Y-103755488D01*
X77134819Y-103755501D01*
X77216948Y-103878415D01*
X77216951Y-103878419D01*
X77321480Y-103982948D01*
X77321484Y-103982951D01*
X77444398Y-104065080D01*
X77444411Y-104065087D01*
X77561318Y-104113511D01*
X77580987Y-104121658D01*
X77580991Y-104121658D01*
X77580992Y-104121659D01*
X77725979Y-104150500D01*
X77725982Y-104150500D01*
X77873820Y-104150500D01*
X77971362Y-104131096D01*
X78018813Y-104121658D01*
X78141105Y-104071003D01*
X78141106Y-104071003D01*
X78145732Y-104069086D01*
X78155395Y-104065084D01*
X78278316Y-103982951D01*
X78382851Y-103878416D01*
X78464984Y-103755495D01*
X78521558Y-103618913D01*
X78540560Y-103523387D01*
X78550400Y-103473920D01*
X78550400Y-103426691D01*
X81022500Y-103426691D01*
X81022500Y-103545309D01*
X81053201Y-103659886D01*
X81112511Y-103762613D01*
X81196387Y-103846489D01*
X81299114Y-103905799D01*
X81413691Y-103936500D01*
X81413694Y-103936500D01*
X81532306Y-103936500D01*
X81532309Y-103936500D01*
X81646886Y-103905799D01*
X81749613Y-103846489D01*
X81833489Y-103762613D01*
X81846146Y-103740691D01*
X102149500Y-103740691D01*
X102149500Y-103859309D01*
X102180201Y-103973886D01*
X102239511Y-104076613D01*
X102323387Y-104160489D01*
X102426114Y-104219799D01*
X102540691Y-104250500D01*
X102540694Y-104250500D01*
X102659306Y-104250500D01*
X102659309Y-104250500D01*
X102773886Y-104219799D01*
X102876613Y-104160489D01*
X102896411Y-104140691D01*
X107249500Y-104140691D01*
X107249500Y-104259309D01*
X107280201Y-104373886D01*
X107339511Y-104476613D01*
X107423387Y-104560489D01*
X107526114Y-104619799D01*
X107640691Y-104650500D01*
X107640694Y-104650500D01*
X107759306Y-104650500D01*
X107759309Y-104650500D01*
X107873886Y-104619799D01*
X107976613Y-104560489D01*
X108060489Y-104476613D01*
X108119799Y-104373886D01*
X108150500Y-104259309D01*
X108150500Y-104140691D01*
X108123705Y-104040691D01*
X108849500Y-104040691D01*
X108849500Y-104159309D01*
X108880201Y-104273886D01*
X108939511Y-104376613D01*
X109023387Y-104460489D01*
X109126114Y-104519799D01*
X109240691Y-104550500D01*
X109240694Y-104550500D01*
X109359306Y-104550500D01*
X109359309Y-104550500D01*
X109473886Y-104519799D01*
X109576613Y-104460489D01*
X109660489Y-104376613D01*
X109719799Y-104273886D01*
X109750500Y-104159309D01*
X109750500Y-104040691D01*
X109719799Y-103926114D01*
X109660489Y-103823387D01*
X109576613Y-103739511D01*
X109473886Y-103680201D01*
X109359309Y-103649500D01*
X109240691Y-103649500D01*
X109126114Y-103680201D01*
X109126112Y-103680201D01*
X109126112Y-103680202D01*
X109023387Y-103739511D01*
X109023384Y-103739513D01*
X108939513Y-103823384D01*
X108939511Y-103823387D01*
X108906709Y-103880202D01*
X108880201Y-103926114D01*
X108849500Y-104040691D01*
X108123705Y-104040691D01*
X108119799Y-104026114D01*
X108060489Y-103923387D01*
X107976613Y-103839511D01*
X107873886Y-103780201D01*
X107759309Y-103749500D01*
X107640691Y-103749500D01*
X107526114Y-103780201D01*
X107526112Y-103780201D01*
X107526112Y-103780202D01*
X107423387Y-103839511D01*
X107423384Y-103839513D01*
X107339513Y-103923384D01*
X107339511Y-103923387D01*
X107306709Y-103980202D01*
X107280201Y-104026114D01*
X107249500Y-104140691D01*
X102896411Y-104140691D01*
X102960489Y-104076613D01*
X103019799Y-103973886D01*
X103050500Y-103859309D01*
X103050500Y-103740691D01*
X103019799Y-103626114D01*
X102960489Y-103523387D01*
X102876613Y-103439511D01*
X102773886Y-103380201D01*
X102659309Y-103349500D01*
X102540691Y-103349500D01*
X102426114Y-103380201D01*
X102426112Y-103380201D01*
X102426112Y-103380202D01*
X102323387Y-103439511D01*
X102323384Y-103439513D01*
X102239513Y-103523384D01*
X102239511Y-103523387D01*
X102184359Y-103618913D01*
X102180201Y-103626114D01*
X102149500Y-103740691D01*
X81846146Y-103740691D01*
X81892799Y-103659886D01*
X81923500Y-103545309D01*
X81923500Y-103426691D01*
X81900456Y-103340691D01*
X110749500Y-103340691D01*
X110749500Y-103459309D01*
X110780201Y-103573886D01*
X110839511Y-103676613D01*
X110923387Y-103760489D01*
X111026114Y-103819799D01*
X111140691Y-103850500D01*
X111140694Y-103850500D01*
X111259306Y-103850500D01*
X111259309Y-103850500D01*
X111373886Y-103819799D01*
X111476613Y-103760489D01*
X111560489Y-103676613D01*
X111619799Y-103573886D01*
X111630569Y-103533691D01*
X112431500Y-103533691D01*
X112431500Y-103652309D01*
X112462201Y-103766886D01*
X112521511Y-103869613D01*
X112605387Y-103953489D01*
X112708114Y-104012799D01*
X112822691Y-104043500D01*
X112822694Y-104043500D01*
X112941306Y-104043500D01*
X112941309Y-104043500D01*
X113055886Y-104012799D01*
X113158613Y-103953489D01*
X113242489Y-103869613D01*
X113301799Y-103766886D01*
X113332500Y-103652309D01*
X113332500Y-103533691D01*
X113301799Y-103419114D01*
X113242489Y-103316387D01*
X113158613Y-103232511D01*
X113055886Y-103173201D01*
X112941309Y-103142500D01*
X112822691Y-103142500D01*
X112708114Y-103173201D01*
X112708112Y-103173201D01*
X112708112Y-103173202D01*
X112605387Y-103232511D01*
X112605384Y-103232513D01*
X112521513Y-103316384D01*
X112521511Y-103316387D01*
X112462201Y-103419114D01*
X112431500Y-103533691D01*
X111630569Y-103533691D01*
X111650500Y-103459309D01*
X111650500Y-103340691D01*
X111619799Y-103226114D01*
X111560489Y-103123387D01*
X111476613Y-103039511D01*
X111373886Y-102980201D01*
X111259309Y-102949500D01*
X111140691Y-102949500D01*
X111026114Y-102980201D01*
X111026112Y-102980201D01*
X111026112Y-102980202D01*
X110923387Y-103039511D01*
X110923384Y-103039513D01*
X110839513Y-103123384D01*
X110839511Y-103123387D01*
X110806198Y-103181087D01*
X110780201Y-103226114D01*
X110749500Y-103340691D01*
X81900456Y-103340691D01*
X81892799Y-103312114D01*
X81833489Y-103209387D01*
X81749613Y-103125511D01*
X81646886Y-103066201D01*
X81532309Y-103035500D01*
X81413691Y-103035500D01*
X81299114Y-103066201D01*
X81299112Y-103066201D01*
X81299112Y-103066202D01*
X81196387Y-103125511D01*
X81196384Y-103125513D01*
X81112513Y-103209384D01*
X81112511Y-103209387D01*
X81096043Y-103237911D01*
X81053201Y-103312114D01*
X81022500Y-103426691D01*
X78550400Y-103426691D01*
X78550400Y-103326079D01*
X78521559Y-103181092D01*
X78521558Y-103181091D01*
X78521558Y-103181087D01*
X78516711Y-103169386D01*
X78464987Y-103044511D01*
X78464980Y-103044498D01*
X78382851Y-102921584D01*
X78382848Y-102921580D01*
X78278316Y-102817048D01*
X78156518Y-102735666D01*
X78156517Y-102735665D01*
X78156515Y-102735664D01*
X78155399Y-102734918D01*
X78155388Y-102734912D01*
X78018817Y-102678343D01*
X78018807Y-102678340D01*
X77873820Y-102649500D01*
X77873818Y-102649500D01*
X77725982Y-102649500D01*
X77725980Y-102649500D01*
X77580992Y-102678340D01*
X77580982Y-102678343D01*
X77444411Y-102734912D01*
X77444398Y-102734919D01*
X77321484Y-102817048D01*
X77321480Y-102817051D01*
X77216951Y-102921580D01*
X77216948Y-102921584D01*
X77134819Y-103044498D01*
X77134812Y-103044511D01*
X77078243Y-103181082D01*
X77078240Y-103181092D01*
X77049400Y-103326079D01*
X77049400Y-103326082D01*
X77049400Y-103473918D01*
X77049400Y-103473920D01*
X77049399Y-103473920D01*
X75647365Y-103473920D01*
X75639743Y-103425794D01*
X75639143Y-103421527D01*
X75543269Y-102640691D01*
X92546100Y-102640691D01*
X92546100Y-102759309D01*
X92576801Y-102873886D01*
X92636111Y-102976613D01*
X92719987Y-103060489D01*
X92822714Y-103119799D01*
X92937291Y-103150500D01*
X92937294Y-103150500D01*
X93055906Y-103150500D01*
X93055909Y-103150500D01*
X93170486Y-103119799D01*
X93273213Y-103060489D01*
X93357089Y-102976613D01*
X93416399Y-102873886D01*
X93447100Y-102759309D01*
X93447100Y-102640691D01*
X94052900Y-102640691D01*
X94052900Y-102759309D01*
X94083601Y-102873886D01*
X94142911Y-102976613D01*
X94226787Y-103060489D01*
X94329514Y-103119799D01*
X94444091Y-103150500D01*
X94444094Y-103150500D01*
X94562706Y-103150500D01*
X94562709Y-103150500D01*
X94677286Y-103119799D01*
X94780013Y-103060489D01*
X94863889Y-102976613D01*
X94923199Y-102873886D01*
X94931633Y-102842406D01*
X94967997Y-102782747D01*
X95030844Y-102752217D01*
X95051408Y-102750500D01*
X95059306Y-102750500D01*
X95059309Y-102750500D01*
X95062701Y-102749591D01*
X100386100Y-102749591D01*
X100386100Y-102868209D01*
X100416801Y-102982786D01*
X100476111Y-103085513D01*
X100559987Y-103169389D01*
X100662714Y-103228699D01*
X100777291Y-103259400D01*
X100777294Y-103259400D01*
X100895906Y-103259400D01*
X100895909Y-103259400D01*
X101010486Y-103228699D01*
X101113213Y-103169389D01*
X101197089Y-103085513D01*
X101256399Y-102982786D01*
X101287100Y-102868209D01*
X101287100Y-102827425D01*
X118181600Y-102827425D01*
X118181600Y-102972375D01*
X118211916Y-103085513D01*
X118219117Y-103112388D01*
X118291588Y-103237911D01*
X118291590Y-103237913D01*
X118291591Y-103237915D01*
X118394085Y-103340409D01*
X118394086Y-103340410D01*
X118394088Y-103340411D01*
X118519611Y-103412882D01*
X118519612Y-103412882D01*
X118519615Y-103412884D01*
X118659625Y-103450400D01*
X118659628Y-103450400D01*
X118804572Y-103450400D01*
X118804575Y-103450400D01*
X118944585Y-103412884D01*
X119070115Y-103340409D01*
X119172609Y-103237915D01*
X119245084Y-103112385D01*
X119282600Y-102972375D01*
X119282600Y-102827425D01*
X119245084Y-102687415D01*
X119239846Y-102678343D01*
X119172611Y-102561888D01*
X119172606Y-102561882D01*
X119070117Y-102459393D01*
X119070111Y-102459388D01*
X118944588Y-102386917D01*
X118944589Y-102386917D01*
X118933106Y-102383840D01*
X118804575Y-102349400D01*
X118659625Y-102349400D01*
X118531093Y-102383840D01*
X118519611Y-102386917D01*
X118394088Y-102459388D01*
X118394082Y-102459393D01*
X118291593Y-102561882D01*
X118291588Y-102561888D01*
X118219117Y-102687411D01*
X118219116Y-102687415D01*
X118181600Y-102827425D01*
X101287100Y-102827425D01*
X101287100Y-102749591D01*
X101256399Y-102635014D01*
X101197089Y-102532287D01*
X101113213Y-102448411D01*
X101010486Y-102389101D01*
X100895909Y-102358400D01*
X100777291Y-102358400D01*
X100662714Y-102389101D01*
X100662712Y-102389101D01*
X100662712Y-102389102D01*
X100559987Y-102448411D01*
X100559984Y-102448413D01*
X100476113Y-102532284D01*
X100476111Y-102532287D01*
X100416801Y-102635014D01*
X100386100Y-102749591D01*
X95062701Y-102749591D01*
X95173886Y-102719799D01*
X95276613Y-102660489D01*
X95360489Y-102576613D01*
X95419799Y-102473886D01*
X95450500Y-102359309D01*
X95450500Y-102240691D01*
X95419799Y-102126114D01*
X95360489Y-102023387D01*
X95276613Y-101939511D01*
X95173886Y-101880201D01*
X95059309Y-101849500D01*
X94940691Y-101849500D01*
X94826114Y-101880201D01*
X94826112Y-101880201D01*
X94826112Y-101880202D01*
X94723387Y-101939511D01*
X94723384Y-101939513D01*
X94639513Y-102023384D01*
X94639511Y-102023387D01*
X94580201Y-102126113D01*
X94580201Y-102126114D01*
X94571766Y-102157593D01*
X94535403Y-102217253D01*
X94472556Y-102247783D01*
X94451992Y-102249500D01*
X94444091Y-102249500D01*
X94329514Y-102280201D01*
X94329512Y-102280201D01*
X94329512Y-102280202D01*
X94226787Y-102339511D01*
X94226784Y-102339513D01*
X94142913Y-102423384D01*
X94142911Y-102423387D01*
X94113755Y-102473887D01*
X94083601Y-102526114D01*
X94052900Y-102640691D01*
X93447100Y-102640691D01*
X93416399Y-102526114D01*
X93357089Y-102423387D01*
X93273213Y-102339511D01*
X93170486Y-102280201D01*
X93055909Y-102249500D01*
X92937291Y-102249500D01*
X92822714Y-102280201D01*
X92822712Y-102280201D01*
X92822712Y-102280202D01*
X92719987Y-102339511D01*
X92719984Y-102339513D01*
X92636113Y-102423384D01*
X92636111Y-102423387D01*
X92606955Y-102473887D01*
X92576801Y-102526114D01*
X92546100Y-102640691D01*
X75543269Y-102640691D01*
X75535022Y-102573526D01*
X75534571Y-102569230D01*
X75530799Y-102526112D01*
X75479406Y-101938691D01*
X85790000Y-101938691D01*
X85790000Y-102057309D01*
X85820701Y-102171886D01*
X85880011Y-102274613D01*
X85963887Y-102358489D01*
X86066614Y-102417799D01*
X86181191Y-102448500D01*
X86181194Y-102448500D01*
X86299806Y-102448500D01*
X86299809Y-102448500D01*
X86414386Y-102417799D01*
X86517113Y-102358489D01*
X86600989Y-102274613D01*
X86660299Y-102171886D01*
X86691000Y-102057309D01*
X86691000Y-101938691D01*
X86660299Y-101824114D01*
X86600989Y-101721387D01*
X86517113Y-101637511D01*
X86414386Y-101578201D01*
X86299809Y-101547500D01*
X86181191Y-101547500D01*
X86066614Y-101578201D01*
X86066612Y-101578201D01*
X86066612Y-101578202D01*
X85963887Y-101637511D01*
X85963884Y-101637513D01*
X85880013Y-101721384D01*
X85880011Y-101721387D01*
X85820701Y-101824114D01*
X85790000Y-101938691D01*
X75479406Y-101938691D01*
X75460108Y-101718117D01*
X75459813Y-101713902D01*
X75450735Y-101540691D01*
X96949500Y-101540691D01*
X96949500Y-101659309D01*
X96980201Y-101773886D01*
X97039511Y-101876613D01*
X97123387Y-101960489D01*
X97226114Y-102019799D01*
X97340691Y-102050500D01*
X97340694Y-102050500D01*
X97459306Y-102050500D01*
X97459309Y-102050500D01*
X97573886Y-102019799D01*
X97676613Y-101960489D01*
X97760489Y-101876613D01*
X97819799Y-101773886D01*
X97850500Y-101659309D01*
X97850500Y-101540691D01*
X97819799Y-101426114D01*
X97819797Y-101426110D01*
X97801585Y-101394566D01*
X97801584Y-101394565D01*
X97770480Y-101340691D01*
X106849500Y-101340691D01*
X106849500Y-101459309D01*
X106880201Y-101573886D01*
X106939511Y-101676613D01*
X107023387Y-101760489D01*
X107126114Y-101819799D01*
X107240691Y-101850500D01*
X107240694Y-101850500D01*
X107359306Y-101850500D01*
X107359309Y-101850500D01*
X107473886Y-101819799D01*
X107576613Y-101760489D01*
X107660489Y-101676613D01*
X107719799Y-101573886D01*
X107750500Y-101459309D01*
X107750500Y-101340691D01*
X107719799Y-101226114D01*
X107699347Y-101190691D01*
X108849500Y-101190691D01*
X108849500Y-101309309D01*
X108880201Y-101423886D01*
X108939511Y-101526613D01*
X109023387Y-101610489D01*
X109126114Y-101669799D01*
X109240691Y-101700500D01*
X109240694Y-101700500D01*
X109359306Y-101700500D01*
X109359309Y-101700500D01*
X109473886Y-101669799D01*
X109576613Y-101610489D01*
X109660489Y-101526613D01*
X109719799Y-101423886D01*
X109740483Y-101346691D01*
X115907500Y-101346691D01*
X115907500Y-101465309D01*
X115938201Y-101579886D01*
X115997511Y-101682613D01*
X116081387Y-101766489D01*
X116184114Y-101825799D01*
X116298691Y-101856500D01*
X116298694Y-101856500D01*
X116417306Y-101856500D01*
X116417309Y-101856500D01*
X116531886Y-101825799D01*
X116634613Y-101766489D01*
X116718489Y-101682613D01*
X116777799Y-101579886D01*
X116808500Y-101465309D01*
X116808500Y-101346691D01*
X116777799Y-101232114D01*
X116718489Y-101129387D01*
X116634613Y-101045511D01*
X116531886Y-100986201D01*
X116417309Y-100955500D01*
X116298691Y-100955500D01*
X116184114Y-100986201D01*
X116184112Y-100986201D01*
X116184112Y-100986202D01*
X116081387Y-101045511D01*
X116081384Y-101045513D01*
X115997513Y-101129384D01*
X115997511Y-101129387D01*
X115938201Y-101232114D01*
X115907500Y-101346691D01*
X109740483Y-101346691D01*
X109750500Y-101309309D01*
X109750500Y-101190691D01*
X109719799Y-101076114D01*
X109660489Y-100973387D01*
X109576613Y-100889511D01*
X109473886Y-100830201D01*
X109359309Y-100799500D01*
X109240691Y-100799500D01*
X109126114Y-100830201D01*
X109126112Y-100830201D01*
X109126112Y-100830202D01*
X109023387Y-100889511D01*
X109023384Y-100889513D01*
X108939513Y-100973384D01*
X108939511Y-100973387D01*
X108880201Y-101076114D01*
X108849500Y-101190691D01*
X107699347Y-101190691D01*
X107660489Y-101123387D01*
X107576613Y-101039511D01*
X107473886Y-100980201D01*
X107359309Y-100949500D01*
X107240691Y-100949500D01*
X107126114Y-100980201D01*
X107126112Y-100980201D01*
X107126112Y-100980202D01*
X107023387Y-101039511D01*
X107023384Y-101039513D01*
X106939513Y-101123384D01*
X106939511Y-101123387D01*
X106900652Y-101190693D01*
X106880201Y-101226114D01*
X106849500Y-101340691D01*
X97770480Y-101340691D01*
X97760489Y-101323387D01*
X97676613Y-101239511D01*
X97573886Y-101180201D01*
X97459309Y-101149500D01*
X97340691Y-101149500D01*
X97226114Y-101180201D01*
X97226112Y-101180201D01*
X97226112Y-101180202D01*
X97123387Y-101239511D01*
X97123384Y-101239513D01*
X97039513Y-101323384D01*
X97039511Y-101323387D01*
X96980201Y-101426114D01*
X96949500Y-101540691D01*
X75450735Y-101540691D01*
X75415097Y-100860677D01*
X75414947Y-100856360D01*
X75414490Y-100830202D01*
X75408233Y-100471691D01*
X83208700Y-100471691D01*
X83208700Y-100590309D01*
X83239401Y-100704886D01*
X83298711Y-100807613D01*
X83382587Y-100891489D01*
X83485314Y-100950799D01*
X83599891Y-100981500D01*
X83599894Y-100981500D01*
X83718506Y-100981500D01*
X83718509Y-100981500D01*
X83833086Y-100950799D01*
X83935813Y-100891489D01*
X84019689Y-100807613D01*
X84078999Y-100704886D01*
X84109700Y-100590309D01*
X84109700Y-100471691D01*
X84083119Y-100372490D01*
X84084782Y-100302644D01*
X84123944Y-100244782D01*
X84170798Y-100220626D01*
X84173886Y-100219799D01*
X84276613Y-100160489D01*
X84360489Y-100076613D01*
X84419799Y-99973886D01*
X84450500Y-99859309D01*
X84450500Y-99760391D01*
X87301300Y-99760391D01*
X87301300Y-99879009D01*
X87332001Y-99993586D01*
X87391311Y-100096313D01*
X87475187Y-100180189D01*
X87577914Y-100239499D01*
X87692491Y-100270200D01*
X87692494Y-100270200D01*
X87811106Y-100270200D01*
X87811109Y-100270200D01*
X87921237Y-100240691D01*
X92749500Y-100240691D01*
X92749500Y-100359309D01*
X92780201Y-100473886D01*
X92839511Y-100576613D01*
X92923387Y-100660489D01*
X93026114Y-100719799D01*
X93059358Y-100728706D01*
X93119018Y-100765071D01*
X93149547Y-100827918D01*
X93147040Y-100880570D01*
X93145400Y-100886691D01*
X93145400Y-101005309D01*
X93176101Y-101119886D01*
X93235411Y-101222613D01*
X93319287Y-101306489D01*
X93422014Y-101365799D01*
X93536591Y-101396500D01*
X93536594Y-101396500D01*
X93655206Y-101396500D01*
X93655209Y-101396500D01*
X93769786Y-101365799D01*
X93872513Y-101306489D01*
X93956389Y-101222613D01*
X94015699Y-101119886D01*
X94046400Y-101005309D01*
X94046400Y-100886691D01*
X94015699Y-100772114D01*
X93956389Y-100669387D01*
X93872513Y-100585511D01*
X93769786Y-100526201D01*
X93769088Y-100526014D01*
X93761717Y-100521822D01*
X93742596Y-100502029D01*
X93721166Y-100484764D01*
X93718667Y-100477259D01*
X93713172Y-100471571D01*
X93707787Y-100444582D01*
X93706491Y-100440691D01*
X94949500Y-100440691D01*
X94949500Y-100559309D01*
X94980201Y-100673886D01*
X95039511Y-100776613D01*
X95123387Y-100860489D01*
X95226114Y-100919799D01*
X95340691Y-100950500D01*
X95340694Y-100950500D01*
X95459306Y-100950500D01*
X95459309Y-100950500D01*
X95573886Y-100919799D01*
X95676613Y-100860489D01*
X95760489Y-100776613D01*
X95819799Y-100673886D01*
X95850500Y-100559309D01*
X95850500Y-100440691D01*
X95819799Y-100326114D01*
X95760489Y-100223387D01*
X95676613Y-100139511D01*
X95573886Y-100080201D01*
X95459309Y-100049500D01*
X95340691Y-100049500D01*
X95226114Y-100080201D01*
X95226112Y-100080201D01*
X95226112Y-100080202D01*
X95123387Y-100139511D01*
X95123384Y-100139513D01*
X95039513Y-100223384D01*
X95039511Y-100223387D01*
X94993457Y-100303155D01*
X94980201Y-100326114D01*
X94949500Y-100440691D01*
X93706491Y-100440691D01*
X93699094Y-100418473D01*
X93701048Y-100410809D01*
X93699501Y-100403051D01*
X93709563Y-100377432D01*
X93716365Y-100350771D01*
X93722152Y-100345380D01*
X93725045Y-100338018D01*
X93747359Y-100321907D01*
X93767496Y-100303155D01*
X93779812Y-100298476D01*
X93781693Y-100297119D01*
X93783668Y-100297011D01*
X93790915Y-100294258D01*
X93848986Y-100278699D01*
X93951713Y-100219389D01*
X94035589Y-100135513D01*
X94094899Y-100032786D01*
X94125600Y-99918209D01*
X94125600Y-99799591D01*
X94094899Y-99685014D01*
X94035589Y-99582287D01*
X93951713Y-99498411D01*
X93848986Y-99439101D01*
X93734409Y-99408400D01*
X93615791Y-99408400D01*
X93501214Y-99439101D01*
X93501212Y-99439101D01*
X93501212Y-99439102D01*
X93398487Y-99498411D01*
X93398484Y-99498413D01*
X93314613Y-99582284D01*
X93314611Y-99582287D01*
X93255300Y-99685014D01*
X93255300Y-99685015D01*
X93235211Y-99759987D01*
X93198846Y-99819647D01*
X93147531Y-99847667D01*
X93026112Y-99880201D01*
X92923387Y-99939511D01*
X92923384Y-99939513D01*
X92839513Y-100023384D01*
X92839511Y-100023387D01*
X92806709Y-100080202D01*
X92780201Y-100126114D01*
X92749500Y-100240691D01*
X87921237Y-100240691D01*
X87925686Y-100239499D01*
X88028413Y-100180189D01*
X88112289Y-100096313D01*
X88171599Y-99993586D01*
X88202300Y-99879009D01*
X88202300Y-99760391D01*
X88171599Y-99645814D01*
X88112289Y-99543087D01*
X88028413Y-99459211D01*
X87996336Y-99440691D01*
X89149500Y-99440691D01*
X89149500Y-99559309D01*
X89180201Y-99673886D01*
X89239511Y-99776613D01*
X89323387Y-99860489D01*
X89426114Y-99919799D01*
X89540691Y-99950500D01*
X89540694Y-99950500D01*
X89659306Y-99950500D01*
X89659309Y-99950500D01*
X89773886Y-99919799D01*
X89876613Y-99860489D01*
X89960489Y-99776613D01*
X90019799Y-99673886D01*
X90050500Y-99559309D01*
X90050500Y-99440691D01*
X91849500Y-99440691D01*
X91849500Y-99559309D01*
X91880201Y-99673886D01*
X91939511Y-99776613D01*
X92023387Y-99860489D01*
X92126114Y-99919799D01*
X92240691Y-99950500D01*
X92240694Y-99950500D01*
X92359306Y-99950500D01*
X92359309Y-99950500D01*
X92473886Y-99919799D01*
X92576613Y-99860489D01*
X92660489Y-99776613D01*
X92719799Y-99673886D01*
X92750500Y-99559309D01*
X92750500Y-99440691D01*
X92719799Y-99326114D01*
X92660489Y-99223387D01*
X92576613Y-99139511D01*
X92473886Y-99080201D01*
X92359309Y-99049500D01*
X92240691Y-99049500D01*
X92126114Y-99080201D01*
X92126112Y-99080201D01*
X92126112Y-99080202D01*
X92023387Y-99139511D01*
X92023384Y-99139513D01*
X91939513Y-99223384D01*
X91939511Y-99223387D01*
X91900652Y-99290693D01*
X91880201Y-99326114D01*
X91849500Y-99440691D01*
X90050500Y-99440691D01*
X90019799Y-99326114D01*
X89960489Y-99223387D01*
X89876613Y-99139511D01*
X89773886Y-99080201D01*
X89659309Y-99049500D01*
X89540691Y-99049500D01*
X89426114Y-99080201D01*
X89426112Y-99080201D01*
X89426112Y-99080202D01*
X89323387Y-99139511D01*
X89323384Y-99139513D01*
X89239513Y-99223384D01*
X89239511Y-99223387D01*
X89200652Y-99290693D01*
X89180201Y-99326114D01*
X89149500Y-99440691D01*
X87996336Y-99440691D01*
X87925686Y-99399901D01*
X87811109Y-99369200D01*
X87692491Y-99369200D01*
X87577914Y-99399901D01*
X87577912Y-99399901D01*
X87577912Y-99399902D01*
X87475187Y-99459211D01*
X87475184Y-99459213D01*
X87391313Y-99543084D01*
X87391311Y-99543087D01*
X87332001Y-99645814D01*
X87301300Y-99760391D01*
X84450500Y-99760391D01*
X84450500Y-99740691D01*
X84419799Y-99626114D01*
X84360489Y-99523387D01*
X84276613Y-99439511D01*
X84173886Y-99380201D01*
X84059309Y-99349500D01*
X83940691Y-99349500D01*
X83826114Y-99380201D01*
X83826112Y-99380201D01*
X83826112Y-99380202D01*
X83723387Y-99439511D01*
X83723384Y-99439513D01*
X83639513Y-99523384D01*
X83639511Y-99523387D01*
X83580201Y-99626114D01*
X83549500Y-99740691D01*
X83549500Y-99859309D01*
X83565282Y-99918209D01*
X83576080Y-99958506D01*
X83574417Y-100028355D01*
X83535254Y-100086218D01*
X83488409Y-100110371D01*
X83485316Y-100111199D01*
X83485314Y-100111200D01*
X83382587Y-100170511D01*
X83382584Y-100170513D01*
X83298713Y-100254384D01*
X83298711Y-100254387D01*
X83270555Y-100303155D01*
X83239401Y-100357114D01*
X83208700Y-100471691D01*
X75408233Y-100471691D01*
X75400037Y-100002119D01*
X75400037Y-99997880D01*
X75414947Y-99143626D01*
X75415098Y-99139312D01*
X75418705Y-99070500D01*
X75425518Y-98940491D01*
X81021400Y-98940491D01*
X81021400Y-99059109D01*
X81052101Y-99173686D01*
X81111411Y-99276413D01*
X81195287Y-99360289D01*
X81298014Y-99419599D01*
X81412591Y-99450300D01*
X81412594Y-99450300D01*
X81531206Y-99450300D01*
X81531209Y-99450300D01*
X81645786Y-99419599D01*
X81748513Y-99360289D01*
X81832389Y-99276413D01*
X81891699Y-99173686D01*
X81922400Y-99059109D01*
X81922400Y-98940491D01*
X81891699Y-98825914D01*
X81832389Y-98723187D01*
X81748513Y-98639311D01*
X81645786Y-98580001D01*
X81531209Y-98549300D01*
X81412591Y-98549300D01*
X81298014Y-98580001D01*
X81298012Y-98580001D01*
X81298012Y-98580002D01*
X81195287Y-98639311D01*
X81195284Y-98639313D01*
X81111413Y-98723184D01*
X81111411Y-98723187D01*
X81070593Y-98793886D01*
X81052101Y-98825914D01*
X81021400Y-98940491D01*
X75425518Y-98940491D01*
X75446470Y-98540691D01*
X87849500Y-98540691D01*
X87849500Y-98659309D01*
X87880201Y-98773886D01*
X87939511Y-98876613D01*
X88023387Y-98960489D01*
X88126114Y-99019799D01*
X88240691Y-99050500D01*
X88240694Y-99050500D01*
X88359306Y-99050500D01*
X88359309Y-99050500D01*
X88473886Y-99019799D01*
X88576613Y-98960489D01*
X88660489Y-98876613D01*
X88719799Y-98773886D01*
X88750500Y-98659309D01*
X88750500Y-98540691D01*
X88719799Y-98426114D01*
X88660489Y-98323387D01*
X88577793Y-98240691D01*
X89149500Y-98240691D01*
X89149500Y-98359309D01*
X89180201Y-98473886D01*
X89239511Y-98576613D01*
X89323387Y-98660489D01*
X89426114Y-98719799D01*
X89540691Y-98750500D01*
X89540694Y-98750500D01*
X89659306Y-98750500D01*
X89659309Y-98750500D01*
X89773886Y-98719799D01*
X89876613Y-98660489D01*
X89960489Y-98576613D01*
X90019799Y-98473886D01*
X90050500Y-98359309D01*
X90050500Y-98240691D01*
X90019799Y-98126114D01*
X89960489Y-98023387D01*
X89876613Y-97939511D01*
X89773886Y-97880201D01*
X89659309Y-97849500D01*
X89540691Y-97849500D01*
X89426114Y-97880201D01*
X89426112Y-97880201D01*
X89426112Y-97880202D01*
X89323387Y-97939511D01*
X89323384Y-97939513D01*
X89239513Y-98023384D01*
X89239511Y-98023387D01*
X89185818Y-98116386D01*
X89180201Y-98126114D01*
X89149500Y-98240691D01*
X88577793Y-98240691D01*
X88576613Y-98239511D01*
X88473886Y-98180201D01*
X88359309Y-98149500D01*
X88240691Y-98149500D01*
X88126114Y-98180201D01*
X88126112Y-98180201D01*
X88126112Y-98180202D01*
X88023387Y-98239511D01*
X88023384Y-98239513D01*
X87939513Y-98323384D01*
X87939511Y-98323387D01*
X87899320Y-98393000D01*
X87880201Y-98426114D01*
X87849500Y-98540691D01*
X75446470Y-98540691D01*
X75459813Y-98286092D01*
X75460108Y-98281885D01*
X75534572Y-97430754D01*
X75535023Y-97426463D01*
X75536702Y-97412788D01*
X75627423Y-96673920D01*
X77049399Y-96673920D01*
X77078240Y-96818907D01*
X77078243Y-96818917D01*
X77134812Y-96955488D01*
X77134819Y-96955501D01*
X77216948Y-97078415D01*
X77216951Y-97078419D01*
X77321480Y-97182948D01*
X77321484Y-97182951D01*
X77444398Y-97265080D01*
X77444411Y-97265087D01*
X77559090Y-97312588D01*
X77580987Y-97321658D01*
X77580991Y-97321658D01*
X77580992Y-97321659D01*
X77725979Y-97350500D01*
X77725982Y-97350500D01*
X77873820Y-97350500D01*
X77982330Y-97328915D01*
X78018813Y-97321658D01*
X78155395Y-97265084D01*
X78277097Y-97183765D01*
X78343772Y-97162888D01*
X78411152Y-97181372D01*
X78457843Y-97233351D01*
X78469019Y-97302321D01*
X78453374Y-97348867D01*
X78426502Y-97395411D01*
X78426502Y-97395412D01*
X78426501Y-97395414D01*
X78395800Y-97509991D01*
X78395800Y-97628609D01*
X78426501Y-97743186D01*
X78485811Y-97845913D01*
X78569687Y-97929789D01*
X78672414Y-97989099D01*
X78786991Y-98019800D01*
X78786994Y-98019800D01*
X78905606Y-98019800D01*
X78905609Y-98019800D01*
X79020186Y-97989099D01*
X79122913Y-97929789D01*
X79206789Y-97845913D01*
X79266099Y-97743186D01*
X79296800Y-97628609D01*
X79296800Y-97509991D01*
X79266099Y-97395414D01*
X79206789Y-97292687D01*
X79122913Y-97208811D01*
X79020186Y-97149501D01*
X78905609Y-97118800D01*
X78786991Y-97118800D01*
X78681805Y-97146984D01*
X78672410Y-97149502D01*
X78584216Y-97200422D01*
X78516316Y-97216895D01*
X78450289Y-97194043D01*
X78407099Y-97139122D01*
X78400457Y-97069568D01*
X78403610Y-97061891D01*
X82900500Y-97061891D01*
X82900500Y-97180509D01*
X82931201Y-97295086D01*
X82990511Y-97397813D01*
X83074387Y-97481689D01*
X83177114Y-97540999D01*
X83291691Y-97571700D01*
X83291694Y-97571700D01*
X83410306Y-97571700D01*
X83410309Y-97571700D01*
X83524886Y-97540999D01*
X83547590Y-97527891D01*
X85180900Y-97527891D01*
X85180900Y-97646509D01*
X85211601Y-97761086D01*
X85270911Y-97863813D01*
X85354787Y-97947689D01*
X85457514Y-98006999D01*
X85572091Y-98037700D01*
X85572094Y-98037700D01*
X85690706Y-98037700D01*
X85690709Y-98037700D01*
X85805286Y-98006999D01*
X85908013Y-97947689D01*
X85991889Y-97863813D01*
X86034106Y-97790691D01*
X94949500Y-97790691D01*
X94949500Y-97909309D01*
X94980201Y-98023886D01*
X95039511Y-98126613D01*
X95123387Y-98210489D01*
X95226114Y-98269799D01*
X95340691Y-98300500D01*
X95340694Y-98300500D01*
X95448717Y-98300500D01*
X95515756Y-98320185D01*
X95556103Y-98362499D01*
X95614417Y-98463499D01*
X95630891Y-98531399D01*
X95608039Y-98597426D01*
X95553119Y-98640617D01*
X95507031Y-98649500D01*
X95390691Y-98649500D01*
X95276114Y-98680201D01*
X95276112Y-98680201D01*
X95276112Y-98680202D01*
X95173387Y-98739511D01*
X95173384Y-98739513D01*
X95089513Y-98823384D01*
X95089511Y-98823387D01*
X95047234Y-98896613D01*
X95030201Y-98926114D01*
X94999500Y-99040691D01*
X94999500Y-99159309D01*
X95030201Y-99273886D01*
X95089511Y-99376613D01*
X95173387Y-99460489D01*
X95276114Y-99519799D01*
X95390691Y-99550500D01*
X95390694Y-99550500D01*
X95509306Y-99550500D01*
X95509309Y-99550500D01*
X95623886Y-99519799D01*
X95726613Y-99460489D01*
X95810489Y-99376613D01*
X95860097Y-99290691D01*
X96799500Y-99290691D01*
X96799500Y-99409309D01*
X96830201Y-99523886D01*
X96889511Y-99626613D01*
X96889513Y-99626615D01*
X96975216Y-99712318D01*
X97008701Y-99773641D01*
X97003717Y-99843333D01*
X96975218Y-99887678D01*
X96939514Y-99923383D01*
X96939511Y-99923387D01*
X96892442Y-100004913D01*
X96880201Y-100026114D01*
X96849500Y-100140691D01*
X96849500Y-100259309D01*
X96880201Y-100373886D01*
X96939511Y-100476613D01*
X97023387Y-100560489D01*
X97126114Y-100619799D01*
X97240691Y-100650500D01*
X97240694Y-100650500D01*
X97359306Y-100650500D01*
X97359309Y-100650500D01*
X97473886Y-100619799D01*
X97576613Y-100560489D01*
X97660489Y-100476613D01*
X97719799Y-100373886D01*
X97750500Y-100259309D01*
X97750500Y-100140691D01*
X98849500Y-100140691D01*
X98849500Y-100259309D01*
X98880201Y-100373886D01*
X98939511Y-100476613D01*
X99023387Y-100560489D01*
X99126114Y-100619799D01*
X99240691Y-100650500D01*
X99240694Y-100650500D01*
X99359306Y-100650500D01*
X99359309Y-100650500D01*
X99473886Y-100619799D01*
X99576613Y-100560489D01*
X99660489Y-100476613D01*
X99719799Y-100373886D01*
X99737965Y-100306091D01*
X103007100Y-100306091D01*
X103007100Y-100424709D01*
X103037801Y-100539286D01*
X103097111Y-100642013D01*
X103180987Y-100725889D01*
X103283714Y-100785199D01*
X103398291Y-100815900D01*
X103398294Y-100815900D01*
X103516906Y-100815900D01*
X103516909Y-100815900D01*
X103631486Y-100785199D01*
X103734213Y-100725889D01*
X103818089Y-100642013D01*
X103877399Y-100539286D01*
X103908100Y-100424709D01*
X103908100Y-100306091D01*
X103877399Y-100191514D01*
X103870860Y-100180189D01*
X103863382Y-100167236D01*
X103849788Y-100143691D01*
X113852500Y-100143691D01*
X113852500Y-100262309D01*
X113883201Y-100376886D01*
X113942511Y-100479613D01*
X114026387Y-100563489D01*
X114129114Y-100622799D01*
X114243691Y-100653500D01*
X114243694Y-100653500D01*
X114362306Y-100653500D01*
X114362309Y-100653500D01*
X114476886Y-100622799D01*
X114579613Y-100563489D01*
X114663489Y-100479613D01*
X114722799Y-100376886D01*
X114753500Y-100262309D01*
X114753500Y-100143691D01*
X114722799Y-100029114D01*
X114663489Y-99926387D01*
X114579613Y-99842511D01*
X114476886Y-99783201D01*
X114362309Y-99752500D01*
X114243691Y-99752500D01*
X114129114Y-99783201D01*
X114129112Y-99783201D01*
X114129112Y-99783202D01*
X114026387Y-99842511D01*
X114026384Y-99842513D01*
X113942513Y-99926384D01*
X113942511Y-99926387D01*
X113886508Y-100023387D01*
X113883201Y-100029114D01*
X113852500Y-100143691D01*
X103849788Y-100143691D01*
X103818089Y-100088787D01*
X103734213Y-100004911D01*
X103631486Y-99945601D01*
X103516909Y-99914900D01*
X103398291Y-99914900D01*
X103283714Y-99945601D01*
X103283712Y-99945601D01*
X103283712Y-99945602D01*
X103180987Y-100004911D01*
X103180984Y-100004913D01*
X103097113Y-100088784D01*
X103097111Y-100088787D01*
X103044340Y-100180189D01*
X103037801Y-100191514D01*
X103007100Y-100306091D01*
X99737965Y-100306091D01*
X99750500Y-100259309D01*
X99750500Y-100140691D01*
X99719799Y-100026114D01*
X99660489Y-99923387D01*
X99576613Y-99839511D01*
X99473886Y-99780201D01*
X99359309Y-99749500D01*
X99240691Y-99749500D01*
X99126114Y-99780201D01*
X99126112Y-99780201D01*
X99126112Y-99780202D01*
X99023387Y-99839511D01*
X99023384Y-99839513D01*
X98939513Y-99923384D01*
X98939511Y-99923387D01*
X98892442Y-100004913D01*
X98880201Y-100026114D01*
X98849500Y-100140691D01*
X97750500Y-100140691D01*
X97719799Y-100026114D01*
X97660489Y-99923387D01*
X97576613Y-99839511D01*
X97574783Y-99837681D01*
X97541298Y-99776358D01*
X97546282Y-99706666D01*
X97574783Y-99662319D01*
X97591290Y-99645812D01*
X97610489Y-99626613D01*
X97669799Y-99523886D01*
X97700500Y-99409309D01*
X97700500Y-99290691D01*
X97669799Y-99176114D01*
X97610489Y-99073387D01*
X97526613Y-98989511D01*
X97423886Y-98930201D01*
X97309309Y-98899500D01*
X97190691Y-98899500D01*
X97076114Y-98930201D01*
X97076112Y-98930201D01*
X97076112Y-98930202D01*
X96973387Y-98989511D01*
X96973384Y-98989513D01*
X96889513Y-99073384D01*
X96889511Y-99073387D01*
X96839905Y-99159307D01*
X96830201Y-99176114D01*
X96799500Y-99290691D01*
X95860097Y-99290691D01*
X95869799Y-99273886D01*
X95900500Y-99159309D01*
X95900500Y-99040691D01*
X95869799Y-98926114D01*
X95811881Y-98825798D01*
X95795409Y-98757901D01*
X95801365Y-98740691D01*
X99749500Y-98740691D01*
X99749500Y-98859309D01*
X99780201Y-98973886D01*
X99839511Y-99076613D01*
X99923387Y-99160489D01*
X100026114Y-99219799D01*
X100140691Y-99250500D01*
X100140694Y-99250500D01*
X100259306Y-99250500D01*
X100259309Y-99250500D01*
X100373886Y-99219799D01*
X100476613Y-99160489D01*
X100560489Y-99076613D01*
X100619799Y-98973886D01*
X100650500Y-98859309D01*
X100650500Y-98740691D01*
X100619799Y-98626114D01*
X100560489Y-98523387D01*
X100476613Y-98439511D01*
X100373886Y-98380201D01*
X100259309Y-98349500D01*
X100140691Y-98349500D01*
X100026114Y-98380201D01*
X100026112Y-98380201D01*
X100026112Y-98380202D01*
X99923387Y-98439511D01*
X99923384Y-98439513D01*
X99839513Y-98523384D01*
X99839511Y-98523387D01*
X99782456Y-98622209D01*
X99780201Y-98626114D01*
X99749500Y-98740691D01*
X95801365Y-98740691D01*
X95818261Y-98691874D01*
X95873182Y-98648683D01*
X95919269Y-98639800D01*
X96035606Y-98639800D01*
X96035609Y-98639800D01*
X96150186Y-98609099D01*
X96252913Y-98549789D01*
X96336789Y-98465913D01*
X96396099Y-98363186D01*
X96426800Y-98248609D01*
X96426800Y-98190691D01*
X104346500Y-98190691D01*
X104346500Y-98309309D01*
X104377201Y-98423886D01*
X104436511Y-98526613D01*
X104436513Y-98526615D01*
X104469951Y-98560053D01*
X104503436Y-98621376D01*
X104498452Y-98691068D01*
X104489658Y-98709733D01*
X104480202Y-98726111D01*
X104480202Y-98726112D01*
X104480201Y-98726114D01*
X104449500Y-98840691D01*
X104449500Y-98959309D01*
X104480201Y-99073886D01*
X104539511Y-99176613D01*
X104623387Y-99260489D01*
X104726114Y-99319799D01*
X104840691Y-99350500D01*
X104840694Y-99350500D01*
X104959306Y-99350500D01*
X104959309Y-99350500D01*
X105073886Y-99319799D01*
X105176613Y-99260489D01*
X105260489Y-99176613D01*
X105319799Y-99073886D01*
X105350500Y-98959309D01*
X105350500Y-98840691D01*
X105319799Y-98726114D01*
X105260489Y-98623387D01*
X105225892Y-98588790D01*
X105224767Y-98587604D01*
X105210979Y-98560691D01*
X118263500Y-98560691D01*
X118263500Y-98679309D01*
X118294201Y-98793886D01*
X118353511Y-98896613D01*
X118437387Y-98980489D01*
X118540114Y-99039799D01*
X118654691Y-99070500D01*
X118654694Y-99070500D01*
X118773306Y-99070500D01*
X118773309Y-99070500D01*
X118887886Y-99039799D01*
X118990613Y-98980489D01*
X119074489Y-98896613D01*
X119133799Y-98793886D01*
X119164500Y-98679309D01*
X119164500Y-98560691D01*
X119133799Y-98446114D01*
X119074489Y-98343387D01*
X118990613Y-98259511D01*
X118887886Y-98200201D01*
X118773309Y-98169500D01*
X118654691Y-98169500D01*
X118540114Y-98200201D01*
X118540112Y-98200201D01*
X118540112Y-98200202D01*
X118437387Y-98259511D01*
X118437384Y-98259513D01*
X118353513Y-98343384D01*
X118353511Y-98343387D01*
X118294201Y-98446114D01*
X118263500Y-98560691D01*
X105210979Y-98560691D01*
X105209554Y-98557909D01*
X105193563Y-98528623D01*
X105193684Y-98526929D01*
X105192910Y-98525419D01*
X105196166Y-98492211D01*
X105198547Y-98458931D01*
X105199663Y-98456561D01*
X105199730Y-98455883D01*
X105200356Y-98455090D01*
X105207340Y-98440268D01*
X105216799Y-98423886D01*
X105247500Y-98309309D01*
X105247500Y-98190691D01*
X105216799Y-98076114D01*
X105157489Y-97973387D01*
X105073613Y-97889511D01*
X105062667Y-97883191D01*
X106003500Y-97883191D01*
X106003500Y-98001809D01*
X106034201Y-98116386D01*
X106093511Y-98219113D01*
X106177387Y-98302989D01*
X106280114Y-98362299D01*
X106394691Y-98393000D01*
X106394694Y-98393000D01*
X106513306Y-98393000D01*
X106513309Y-98393000D01*
X106627886Y-98362299D01*
X106730613Y-98302989D01*
X106814489Y-98219113D01*
X106873799Y-98116386D01*
X106904500Y-98001809D01*
X106904500Y-97883191D01*
X106873799Y-97768614D01*
X106814489Y-97665887D01*
X106730613Y-97582011D01*
X106627886Y-97522701D01*
X106513309Y-97492000D01*
X106394691Y-97492000D01*
X106280114Y-97522701D01*
X106280112Y-97522701D01*
X106280112Y-97522702D01*
X106177387Y-97582011D01*
X106177384Y-97582013D01*
X106093513Y-97665884D01*
X106093511Y-97665887D01*
X106039811Y-97758898D01*
X106034201Y-97768614D01*
X106003500Y-97883191D01*
X105062667Y-97883191D01*
X104970886Y-97830201D01*
X104856309Y-97799500D01*
X104737691Y-97799500D01*
X104623114Y-97830201D01*
X104623112Y-97830201D01*
X104623112Y-97830202D01*
X104520387Y-97889511D01*
X104520384Y-97889513D01*
X104436513Y-97973384D01*
X104436511Y-97973387D01*
X104392163Y-98050200D01*
X104377201Y-98076114D01*
X104346500Y-98190691D01*
X96426800Y-98190691D01*
X96426800Y-98129991D01*
X96396099Y-98015414D01*
X96336789Y-97912687D01*
X96252913Y-97828811D01*
X96150186Y-97769501D01*
X96035609Y-97738800D01*
X95927583Y-97738800D01*
X95860544Y-97719115D01*
X95820196Y-97676801D01*
X95798427Y-97639097D01*
X95760489Y-97573387D01*
X95676613Y-97489511D01*
X95573886Y-97430201D01*
X95459309Y-97399500D01*
X95340691Y-97399500D01*
X95226114Y-97430201D01*
X95226112Y-97430201D01*
X95226112Y-97430202D01*
X95123387Y-97489511D01*
X95123384Y-97489513D01*
X95039513Y-97573384D01*
X95039511Y-97573387D01*
X94986106Y-97665887D01*
X94980201Y-97676114D01*
X94949500Y-97790691D01*
X86034106Y-97790691D01*
X86051199Y-97761086D01*
X86081900Y-97646509D01*
X86081900Y-97527891D01*
X86051199Y-97413314D01*
X85991889Y-97310587D01*
X85908013Y-97226711D01*
X85805286Y-97167401D01*
X85690709Y-97136700D01*
X85572091Y-97136700D01*
X85457514Y-97167401D01*
X85457512Y-97167401D01*
X85457512Y-97167402D01*
X85354787Y-97226711D01*
X85354784Y-97226713D01*
X85270913Y-97310584D01*
X85270911Y-97310587D01*
X85219577Y-97399500D01*
X85211601Y-97413314D01*
X85180900Y-97527891D01*
X83547590Y-97527891D01*
X83627613Y-97481689D01*
X83711489Y-97397813D01*
X83770799Y-97295086D01*
X83801500Y-97180509D01*
X83801500Y-97061891D01*
X83789362Y-97016591D01*
X93623600Y-97016591D01*
X93623600Y-97135209D01*
X93654301Y-97249786D01*
X93713611Y-97352513D01*
X93797487Y-97436389D01*
X93900214Y-97495699D01*
X94014791Y-97526400D01*
X94014794Y-97526400D01*
X94133406Y-97526400D01*
X94133409Y-97526400D01*
X94247986Y-97495699D01*
X94350713Y-97436389D01*
X94434589Y-97352513D01*
X94493899Y-97249786D01*
X94524600Y-97135209D01*
X94524600Y-97016591D01*
X94493899Y-96902014D01*
X94434589Y-96799287D01*
X94350713Y-96715411D01*
X94247986Y-96656101D01*
X94133409Y-96625400D01*
X94014791Y-96625400D01*
X93900214Y-96656101D01*
X93900212Y-96656101D01*
X93900212Y-96656102D01*
X93797487Y-96715411D01*
X93797484Y-96715413D01*
X93713613Y-96799284D01*
X93713611Y-96799287D01*
X93667927Y-96878414D01*
X93654301Y-96902014D01*
X93623600Y-97016591D01*
X83789362Y-97016591D01*
X83770799Y-96947314D01*
X83770100Y-96946103D01*
X83767572Y-96941724D01*
X83751097Y-96873824D01*
X83773947Y-96807797D01*
X83828868Y-96764605D01*
X83898421Y-96757961D01*
X83915149Y-96762980D01*
X83920810Y-96764497D01*
X83920814Y-96764499D01*
X84035391Y-96795200D01*
X84035394Y-96795200D01*
X84154006Y-96795200D01*
X84154009Y-96795200D01*
X84268586Y-96764499D01*
X84371313Y-96705189D01*
X84455189Y-96621313D01*
X84514499Y-96518586D01*
X84545200Y-96404009D01*
X84545200Y-96285391D01*
X84514499Y-96170814D01*
X84455189Y-96068087D01*
X84371313Y-95984211D01*
X84268586Y-95924901D01*
X84154009Y-95894200D01*
X84035391Y-95894200D01*
X83920814Y-95924901D01*
X83920812Y-95924901D01*
X83920812Y-95924902D01*
X83818087Y-95984211D01*
X83818084Y-95984213D01*
X83734213Y-96068084D01*
X83734211Y-96068087D01*
X83678757Y-96164136D01*
X83674901Y-96170814D01*
X83644200Y-96285391D01*
X83644200Y-96404009D01*
X83668880Y-96496115D01*
X83674902Y-96518589D01*
X83678129Y-96524178D01*
X83694602Y-96592078D01*
X83671750Y-96658105D01*
X83616829Y-96701295D01*
X83547275Y-96707937D01*
X83530551Y-96702919D01*
X83524490Y-96701295D01*
X83410309Y-96670700D01*
X83291691Y-96670700D01*
X83177114Y-96701401D01*
X83177112Y-96701401D01*
X83177112Y-96701402D01*
X83074387Y-96760711D01*
X83074384Y-96760713D01*
X82990513Y-96844584D01*
X82990511Y-96844587D01*
X82938856Y-96934056D01*
X82931201Y-96947314D01*
X82900500Y-97061891D01*
X78403610Y-97061891D01*
X78419112Y-97024146D01*
X78464984Y-96955495D01*
X78466344Y-96952213D01*
X78477802Y-96924547D01*
X78521558Y-96818913D01*
X78532684Y-96762980D01*
X78550400Y-96673920D01*
X78550400Y-96526079D01*
X78521559Y-96381092D01*
X78521558Y-96381091D01*
X78521558Y-96381087D01*
X78521556Y-96381082D01*
X78464987Y-96244511D01*
X78464980Y-96244498D01*
X78382851Y-96121584D01*
X78382848Y-96121580D01*
X78278319Y-96017051D01*
X78278315Y-96017048D01*
X78155401Y-95934919D01*
X78155388Y-95934912D01*
X78018817Y-95878343D01*
X78018807Y-95878340D01*
X77873820Y-95849500D01*
X77873818Y-95849500D01*
X77725982Y-95849500D01*
X77725980Y-95849500D01*
X77580992Y-95878340D01*
X77580982Y-95878343D01*
X77444411Y-95934912D01*
X77444398Y-95934919D01*
X77321484Y-96017048D01*
X77321480Y-96017051D01*
X77216951Y-96121580D01*
X77216948Y-96121584D01*
X77134819Y-96244498D01*
X77134812Y-96244511D01*
X77078243Y-96381082D01*
X77078240Y-96381092D01*
X77049400Y-96526079D01*
X77049400Y-96526082D01*
X77049400Y-96673918D01*
X77049400Y-96673920D01*
X77049399Y-96673920D01*
X75627423Y-96673920D01*
X75639146Y-96578444D01*
X75639746Y-96574185D01*
X75773391Y-95730387D01*
X75774139Y-95726143D01*
X75774675Y-95723387D01*
X75810187Y-95540691D01*
X88549500Y-95540691D01*
X88549500Y-95659309D01*
X88580201Y-95773886D01*
X88639511Y-95876613D01*
X88723387Y-95960489D01*
X88826114Y-96019799D01*
X88940691Y-96050500D01*
X88951992Y-96050500D01*
X89019031Y-96070185D01*
X89064786Y-96122989D01*
X89071764Y-96142401D01*
X89080201Y-96173886D01*
X89139511Y-96276613D01*
X89223387Y-96360489D01*
X89326114Y-96419799D01*
X89440691Y-96450500D01*
X89440694Y-96450500D01*
X89559306Y-96450500D01*
X89559309Y-96450500D01*
X89673886Y-96419799D01*
X89776613Y-96360489D01*
X89826941Y-96310160D01*
X89888262Y-96276676D01*
X89957954Y-96281660D01*
X90013887Y-96323531D01*
X90034394Y-96365745D01*
X90041801Y-96393386D01*
X90101111Y-96496113D01*
X90184987Y-96579989D01*
X90287714Y-96639299D01*
X90402291Y-96670000D01*
X90402294Y-96670000D01*
X90520906Y-96670000D01*
X90520909Y-96670000D01*
X90635486Y-96639299D01*
X90738213Y-96579989D01*
X90822089Y-96496113D01*
X90881399Y-96393386D01*
X90896456Y-96337191D01*
X91902900Y-96337191D01*
X91902900Y-96455809D01*
X91933601Y-96570386D01*
X91992911Y-96673113D01*
X92076787Y-96756989D01*
X92179514Y-96816299D01*
X92294091Y-96847000D01*
X92294094Y-96847000D01*
X92412706Y-96847000D01*
X92412709Y-96847000D01*
X92527286Y-96816299D01*
X92630013Y-96756989D01*
X92713889Y-96673113D01*
X92773199Y-96570386D01*
X92803900Y-96455809D01*
X92803900Y-96337191D01*
X92773199Y-96222614D01*
X92713889Y-96119887D01*
X92630013Y-96036011D01*
X92527286Y-95976701D01*
X92412709Y-95946000D01*
X92294091Y-95946000D01*
X92179514Y-95976701D01*
X92179512Y-95976701D01*
X92179512Y-95976702D01*
X92076787Y-96036011D01*
X92076784Y-96036013D01*
X91992913Y-96119884D01*
X91992911Y-96119887D01*
X91933601Y-96222614D01*
X91902900Y-96337191D01*
X90896456Y-96337191D01*
X90912100Y-96278809D01*
X90912100Y-96160191D01*
X90881399Y-96045614D01*
X90822089Y-95942887D01*
X90738213Y-95859011D01*
X90635486Y-95799701D01*
X90520909Y-95769000D01*
X90402291Y-95769000D01*
X90287714Y-95799701D01*
X90287712Y-95799701D01*
X90287712Y-95799702D01*
X90184987Y-95859011D01*
X90184983Y-95859014D01*
X90134658Y-95909339D01*
X90073335Y-95942823D01*
X90003643Y-95937838D01*
X89947710Y-95895967D01*
X89927204Y-95853750D01*
X89919799Y-95826114D01*
X89860489Y-95723387D01*
X89776613Y-95639511D01*
X89673886Y-95580201D01*
X89559309Y-95549500D01*
X89559306Y-95549500D01*
X89548008Y-95549500D01*
X89480969Y-95529815D01*
X89435214Y-95477011D01*
X89428235Y-95457598D01*
X89419799Y-95426114D01*
X89360489Y-95323387D01*
X89276613Y-95239511D01*
X89173886Y-95180201D01*
X89059309Y-95149500D01*
X88940691Y-95149500D01*
X88826114Y-95180201D01*
X88826112Y-95180201D01*
X88826112Y-95180202D01*
X88723387Y-95239511D01*
X88723384Y-95239513D01*
X88639513Y-95323384D01*
X88639511Y-95323387D01*
X88580201Y-95426114D01*
X88549500Y-95540691D01*
X75810187Y-95540691D01*
X75937159Y-94887476D01*
X75938056Y-94883261D01*
X75944346Y-94856017D01*
X75945206Y-94852291D01*
X85088000Y-94852291D01*
X85088000Y-94970909D01*
X85118701Y-95085486D01*
X85178011Y-95188213D01*
X85261887Y-95272089D01*
X85364614Y-95331399D01*
X85479191Y-95362100D01*
X85479194Y-95362100D01*
X85597806Y-95362100D01*
X85597809Y-95362100D01*
X85712386Y-95331399D01*
X85815113Y-95272089D01*
X85898989Y-95188213D01*
X85958299Y-95085486D01*
X85989000Y-94970909D01*
X85989000Y-94852291D01*
X85972494Y-94790691D01*
X94899500Y-94790691D01*
X94899500Y-94909309D01*
X94930201Y-95023886D01*
X94989511Y-95126613D01*
X95073387Y-95210489D01*
X95176114Y-95269799D01*
X95290691Y-95300500D01*
X95290694Y-95300500D01*
X95409306Y-95300500D01*
X95409309Y-95300500D01*
X95523886Y-95269799D01*
X95626613Y-95210489D01*
X95710489Y-95126613D01*
X95769799Y-95023886D01*
X95800500Y-94909309D01*
X95800500Y-94790691D01*
X95769799Y-94676114D01*
X95710489Y-94573387D01*
X95626613Y-94489511D01*
X95523886Y-94430201D01*
X95409309Y-94399500D01*
X95290691Y-94399500D01*
X95176114Y-94430201D01*
X95176112Y-94430201D01*
X95176112Y-94430202D01*
X95073387Y-94489511D01*
X95073384Y-94489513D01*
X94989513Y-94573384D01*
X94989511Y-94573387D01*
X94938778Y-94661259D01*
X94930201Y-94676114D01*
X94899500Y-94790691D01*
X85972494Y-94790691D01*
X85958299Y-94737714D01*
X85898989Y-94634987D01*
X85815113Y-94551111D01*
X85712386Y-94491801D01*
X85597809Y-94461100D01*
X85479191Y-94461100D01*
X85364614Y-94491801D01*
X85364612Y-94491801D01*
X85364612Y-94491802D01*
X85261887Y-94551111D01*
X85261884Y-94551113D01*
X85178013Y-94634984D01*
X85178011Y-94634987D01*
X85118701Y-94737714D01*
X85088000Y-94852291D01*
X75945206Y-94852291D01*
X76130251Y-94050770D01*
X76131266Y-94046698D01*
X76178856Y-93869091D01*
X81828291Y-93869091D01*
X81828291Y-93987709D01*
X81858992Y-94102286D01*
X81918302Y-94205013D01*
X82002178Y-94288889D01*
X82104905Y-94348199D01*
X82219482Y-94378900D01*
X82219485Y-94378900D01*
X82338097Y-94378900D01*
X82338100Y-94378900D01*
X82452677Y-94348199D01*
X82555404Y-94288889D01*
X82639280Y-94205013D01*
X82698590Y-94102286D01*
X82729291Y-93987709D01*
X82729291Y-93869091D01*
X82698590Y-93754514D01*
X82639280Y-93651787D01*
X82555404Y-93567911D01*
X82452677Y-93508601D01*
X82338100Y-93477900D01*
X82219482Y-93477900D01*
X82104905Y-93508601D01*
X82104903Y-93508601D01*
X82104903Y-93508602D01*
X82002178Y-93567911D01*
X82002175Y-93567913D01*
X81918304Y-93651784D01*
X81918302Y-93651787D01*
X81894378Y-93693225D01*
X81858992Y-93754514D01*
X81828291Y-93869091D01*
X76178856Y-93869091D01*
X76320441Y-93340691D01*
X87949500Y-93340691D01*
X87949500Y-93459309D01*
X87980201Y-93573886D01*
X88039511Y-93676613D01*
X88039513Y-93676615D01*
X88126342Y-93763444D01*
X88159827Y-93824767D01*
X88154843Y-93894459D01*
X88142927Y-93915975D01*
X88143575Y-93916349D01*
X88139512Y-93923385D01*
X88139511Y-93923387D01*
X88080201Y-94026114D01*
X88049500Y-94140691D01*
X88049500Y-94259309D01*
X88080201Y-94373886D01*
X88139511Y-94476613D01*
X88223387Y-94560489D01*
X88326114Y-94619799D01*
X88440691Y-94650500D01*
X88440694Y-94650500D01*
X88559306Y-94650500D01*
X88559309Y-94650500D01*
X88673886Y-94619799D01*
X88776613Y-94560489D01*
X88860489Y-94476613D01*
X88919799Y-94373886D01*
X88950500Y-94259309D01*
X88950500Y-94140691D01*
X88919799Y-94026114D01*
X88919797Y-94026110D01*
X88906349Y-94002817D01*
X88906346Y-94002814D01*
X88870479Y-93940691D01*
X92149500Y-93940691D01*
X92149500Y-94059309D01*
X92180201Y-94173886D01*
X92239511Y-94276613D01*
X92323387Y-94360489D01*
X92426114Y-94419799D01*
X92540691Y-94450500D01*
X92540694Y-94450500D01*
X92659306Y-94450500D01*
X92659309Y-94450500D01*
X92773886Y-94419799D01*
X92876613Y-94360489D01*
X92960489Y-94276613D01*
X93019799Y-94173886D01*
X93050500Y-94059309D01*
X93050500Y-93940691D01*
X93019799Y-93826114D01*
X92960489Y-93723387D01*
X92876613Y-93639511D01*
X92773886Y-93580201D01*
X92659309Y-93549500D01*
X92540691Y-93549500D01*
X92426114Y-93580201D01*
X92426112Y-93580201D01*
X92426112Y-93580202D01*
X92323387Y-93639511D01*
X92323384Y-93639513D01*
X92239513Y-93723384D01*
X92239511Y-93723387D01*
X92180201Y-93826114D01*
X92149500Y-93940691D01*
X88870479Y-93940691D01*
X88860489Y-93923387D01*
X88776613Y-93839511D01*
X88773787Y-93837879D01*
X88764685Y-93826554D01*
X88753818Y-93800223D01*
X88740172Y-93775232D01*
X88740664Y-93768349D01*
X88738031Y-93761969D01*
X88743124Y-93733945D01*
X88745156Y-93705540D01*
X88749816Y-93697127D01*
X88750526Y-93693225D01*
X88754099Y-93689396D01*
X88757074Y-93684026D01*
X88756425Y-93683651D01*
X88760487Y-93676614D01*
X88760489Y-93676613D01*
X88819799Y-93573886D01*
X88850500Y-93459309D01*
X88850500Y-93340691D01*
X88819799Y-93226114D01*
X88760489Y-93123387D01*
X88676613Y-93039511D01*
X88573886Y-92980201D01*
X88459309Y-92949500D01*
X88340691Y-92949500D01*
X88226114Y-92980201D01*
X88226112Y-92980201D01*
X88226112Y-92980202D01*
X88123387Y-93039511D01*
X88123384Y-93039513D01*
X88039513Y-93123384D01*
X88039511Y-93123387D01*
X87982952Y-93221350D01*
X87980201Y-93226114D01*
X87949500Y-93340691D01*
X76320441Y-93340691D01*
X76352418Y-93221350D01*
X76353578Y-93217304D01*
X76603386Y-92400216D01*
X76604719Y-92396118D01*
X76676624Y-92187291D01*
X83299500Y-92187291D01*
X83299500Y-92305909D01*
X83330201Y-92420486D01*
X83389511Y-92523213D01*
X83473387Y-92607089D01*
X83576114Y-92666399D01*
X83690691Y-92697100D01*
X83690694Y-92697100D01*
X83809306Y-92697100D01*
X83809309Y-92697100D01*
X83923886Y-92666399D01*
X84026613Y-92607089D01*
X84110489Y-92523213D01*
X84169799Y-92420486D01*
X84200500Y-92305909D01*
X84200500Y-92187291D01*
X84169799Y-92072714D01*
X84110489Y-91969987D01*
X84026613Y-91886111D01*
X83923886Y-91826801D01*
X83809309Y-91796100D01*
X83690691Y-91796100D01*
X83576114Y-91826801D01*
X83576112Y-91826801D01*
X83576112Y-91826802D01*
X83473387Y-91886111D01*
X83473384Y-91886113D01*
X83389513Y-91969984D01*
X83389511Y-91969987D01*
X83354746Y-92030202D01*
X83330201Y-92072714D01*
X83299500Y-92187291D01*
X76676624Y-92187291D01*
X76882868Y-91588315D01*
X76884318Y-91584331D01*
X76954158Y-91402391D01*
X84996400Y-91402391D01*
X84996400Y-91521009D01*
X85027101Y-91635586D01*
X85086411Y-91738313D01*
X85086413Y-91738315D01*
X85092052Y-91743954D01*
X85125537Y-91805277D01*
X85120553Y-91874969D01*
X85111760Y-91893631D01*
X85110503Y-91895806D01*
X85110502Y-91895809D01*
X85098589Y-91940267D01*
X85079800Y-92010391D01*
X85079800Y-92129009D01*
X85110501Y-92243586D01*
X85169811Y-92346313D01*
X85253687Y-92430189D01*
X85356414Y-92489499D01*
X85470991Y-92520200D01*
X85470994Y-92520200D01*
X85589606Y-92520200D01*
X85589609Y-92520200D01*
X85704186Y-92489499D01*
X85806913Y-92430189D01*
X85846411Y-92390691D01*
X90549500Y-92390691D01*
X90549500Y-92509309D01*
X90580201Y-92623886D01*
X90639511Y-92726613D01*
X90723387Y-92810489D01*
X90826114Y-92869799D01*
X90940691Y-92900500D01*
X90940694Y-92900500D01*
X91059307Y-92900500D01*
X91059309Y-92900500D01*
X91147007Y-92877001D01*
X91216855Y-92878663D01*
X91274718Y-92917824D01*
X91286487Y-92934774D01*
X91294989Y-92949500D01*
X91339511Y-93026613D01*
X91423387Y-93110489D01*
X91526114Y-93169799D01*
X91640691Y-93200500D01*
X91640694Y-93200500D01*
X91759306Y-93200500D01*
X91759309Y-93200500D01*
X91873886Y-93169799D01*
X91918948Y-93143782D01*
X96224500Y-93143782D01*
X96224500Y-93255818D01*
X96253497Y-93364037D01*
X96309515Y-93461063D01*
X96309517Y-93461065D01*
X96360621Y-93512169D01*
X96394106Y-93573492D01*
X96389122Y-93643184D01*
X96360621Y-93687531D01*
X96309517Y-93738634D01*
X96309513Y-93738640D01*
X96253498Y-93835660D01*
X96253497Y-93835663D01*
X96224500Y-93943882D01*
X96224500Y-94055918D01*
X96247216Y-94140693D01*
X96253497Y-94164136D01*
X96253498Y-94164139D01*
X96259126Y-94173887D01*
X96309515Y-94261163D01*
X96309517Y-94261165D01*
X96360621Y-94312269D01*
X96394106Y-94373592D01*
X96389122Y-94443284D01*
X96360621Y-94487631D01*
X96309517Y-94538734D01*
X96309513Y-94538740D01*
X96253498Y-94635760D01*
X96253497Y-94635763D01*
X96224500Y-94743982D01*
X96224500Y-94856018D01*
X96253497Y-94964237D01*
X96309515Y-95061263D01*
X96309517Y-95061265D01*
X96360521Y-95112269D01*
X96394006Y-95173592D01*
X96389022Y-95243284D01*
X96360521Y-95287631D01*
X96309517Y-95338634D01*
X96309513Y-95338640D01*
X96253498Y-95435660D01*
X96253497Y-95435663D01*
X96224500Y-95543882D01*
X96224500Y-95655918D01*
X96246665Y-95738637D01*
X96253497Y-95764136D01*
X96253498Y-95764139D01*
X96259126Y-95773887D01*
X96309515Y-95861163D01*
X96309517Y-95861165D01*
X96360621Y-95912269D01*
X96394106Y-95973592D01*
X96389122Y-96043284D01*
X96360621Y-96087631D01*
X96309517Y-96138734D01*
X96309513Y-96138740D01*
X96253498Y-96235760D01*
X96253497Y-96235763D01*
X96224500Y-96343982D01*
X96224500Y-96456018D01*
X96253497Y-96564237D01*
X96309515Y-96661263D01*
X96309517Y-96661265D01*
X96360471Y-96712219D01*
X96393956Y-96773542D01*
X96388972Y-96843234D01*
X96360471Y-96887581D01*
X96309517Y-96938534D01*
X96309513Y-96938540D01*
X96253498Y-97035560D01*
X96253497Y-97035563D01*
X96224500Y-97143782D01*
X96224500Y-97255818D01*
X96253497Y-97364037D01*
X96309515Y-97461063D01*
X96388737Y-97540285D01*
X96485763Y-97596303D01*
X96593982Y-97625300D01*
X96593984Y-97625300D01*
X96706015Y-97625300D01*
X96706018Y-97625300D01*
X96814237Y-97596303D01*
X96814242Y-97596299D01*
X96815664Y-97595919D01*
X96885514Y-97597582D01*
X96943376Y-97636744D01*
X96955145Y-97653694D01*
X96959515Y-97661263D01*
X97038737Y-97740485D01*
X97135763Y-97796503D01*
X97243982Y-97825500D01*
X97243984Y-97825500D01*
X97356016Y-97825500D01*
X97356018Y-97825500D01*
X97464237Y-97796503D01*
X97561263Y-97740485D01*
X97612319Y-97689429D01*
X97673642Y-97655944D01*
X97743334Y-97660928D01*
X97787681Y-97689429D01*
X97838737Y-97740485D01*
X97935763Y-97796503D01*
X98043982Y-97825500D01*
X98043984Y-97825500D01*
X98156016Y-97825500D01*
X98156018Y-97825500D01*
X98264237Y-97796503D01*
X98361263Y-97740485D01*
X98440485Y-97661263D01*
X98446577Y-97650710D01*
X98497138Y-97602495D01*
X98565744Y-97589268D01*
X98630611Y-97615232D01*
X98641646Y-97625026D01*
X98648487Y-97631867D01*
X98751214Y-97691177D01*
X98865791Y-97721878D01*
X98865794Y-97721878D01*
X98984406Y-97721878D01*
X98984409Y-97721878D01*
X99098986Y-97691177D01*
X99201713Y-97631867D01*
X99276958Y-97556622D01*
X99338281Y-97523137D01*
X99407973Y-97528121D01*
X99452320Y-97556622D01*
X99475487Y-97579789D01*
X99578214Y-97639099D01*
X99692791Y-97669800D01*
X99692794Y-97669800D01*
X99811406Y-97669800D01*
X99811409Y-97669800D01*
X99925986Y-97639099D01*
X100028713Y-97579789D01*
X100112589Y-97495913D01*
X100171899Y-97393186D01*
X100202600Y-97278609D01*
X100202600Y-97159991D01*
X100171899Y-97045414D01*
X100141632Y-96992991D01*
X108865100Y-96992991D01*
X108865100Y-97111609D01*
X108895801Y-97226186D01*
X108955111Y-97328913D01*
X109038987Y-97412789D01*
X109141714Y-97472099D01*
X109256291Y-97502800D01*
X109256294Y-97502800D01*
X109374906Y-97502800D01*
X109374909Y-97502800D01*
X109489486Y-97472099D01*
X109592213Y-97412789D01*
X109676089Y-97328913D01*
X109719692Y-97253391D01*
X115093500Y-97253391D01*
X115093500Y-97372009D01*
X115124201Y-97486586D01*
X115183511Y-97589313D01*
X115267387Y-97673189D01*
X115370114Y-97732499D01*
X115484691Y-97763200D01*
X115484694Y-97763200D01*
X115603306Y-97763200D01*
X115603309Y-97763200D01*
X115717886Y-97732499D01*
X115782583Y-97695145D01*
X115850481Y-97678672D01*
X115916508Y-97701523D01*
X115959700Y-97756444D01*
X115964354Y-97770425D01*
X115965201Y-97773586D01*
X116024511Y-97876313D01*
X116108387Y-97960189D01*
X116211114Y-98019499D01*
X116325691Y-98050200D01*
X116325694Y-98050200D01*
X116444306Y-98050200D01*
X116444309Y-98050200D01*
X116558886Y-98019499D01*
X116661613Y-97960189D01*
X116745489Y-97876313D01*
X116804799Y-97773586D01*
X116835500Y-97659009D01*
X116835500Y-97540391D01*
X116804799Y-97425814D01*
X116745489Y-97323087D01*
X116661613Y-97239211D01*
X116558886Y-97179901D01*
X116444309Y-97149200D01*
X116325691Y-97149200D01*
X116238455Y-97172575D01*
X116211110Y-97179902D01*
X116146416Y-97217254D01*
X116078516Y-97233727D01*
X116012489Y-97210875D01*
X115974068Y-97166429D01*
X115968055Y-97154698D01*
X115963799Y-97138814D01*
X115929168Y-97078833D01*
X115929162Y-97078820D01*
X115907070Y-97040558D01*
X115904489Y-97036087D01*
X115896027Y-97027625D01*
X118181600Y-97027625D01*
X118181600Y-97172575D01*
X118216366Y-97302321D01*
X118219117Y-97312588D01*
X118291588Y-97438111D01*
X118291590Y-97438113D01*
X118291591Y-97438115D01*
X118394085Y-97540609D01*
X118394086Y-97540610D01*
X118394088Y-97540611D01*
X118519611Y-97613082D01*
X118519612Y-97613082D01*
X118519615Y-97613084D01*
X118659625Y-97650600D01*
X118659628Y-97650600D01*
X118804572Y-97650600D01*
X118804575Y-97650600D01*
X118944585Y-97613084D01*
X119070115Y-97540609D01*
X119172609Y-97438115D01*
X119245084Y-97312585D01*
X119282600Y-97172575D01*
X119282600Y-97027625D01*
X119245084Y-96887615D01*
X119245064Y-96887581D01*
X119172611Y-96762088D01*
X119172606Y-96762082D01*
X119070117Y-96659593D01*
X119070111Y-96659588D01*
X118944588Y-96587117D01*
X118944589Y-96587117D01*
X118917983Y-96579988D01*
X118804575Y-96549600D01*
X118659625Y-96549600D01*
X118546217Y-96579988D01*
X118519611Y-96587117D01*
X118394088Y-96659588D01*
X118394082Y-96659593D01*
X118291593Y-96762082D01*
X118291588Y-96762088D01*
X118219117Y-96887611D01*
X118219116Y-96887615D01*
X118181600Y-97027625D01*
X115896027Y-97027625D01*
X115820613Y-96952211D01*
X115717886Y-96892901D01*
X115603309Y-96862200D01*
X115484691Y-96862200D01*
X115370114Y-96892901D01*
X115370112Y-96892901D01*
X115370112Y-96892902D01*
X115267387Y-96952211D01*
X115267384Y-96952213D01*
X115183513Y-97036084D01*
X115183511Y-97036087D01*
X115125422Y-97136700D01*
X115124201Y-97138814D01*
X115093500Y-97253391D01*
X109719692Y-97253391D01*
X109735399Y-97226186D01*
X109766100Y-97111609D01*
X109766100Y-96992991D01*
X109735399Y-96878414D01*
X109676089Y-96775687D01*
X109592213Y-96691811D01*
X109489486Y-96632501D01*
X109374909Y-96601800D01*
X109256291Y-96601800D01*
X109141714Y-96632501D01*
X109141712Y-96632501D01*
X109141712Y-96632502D01*
X109038987Y-96691811D01*
X109038984Y-96691813D01*
X108955113Y-96775684D01*
X108955111Y-96775687D01*
X108920428Y-96835760D01*
X108895801Y-96878414D01*
X108865100Y-96992991D01*
X100141632Y-96992991D01*
X100112589Y-96942687D01*
X100028713Y-96858811D01*
X99925986Y-96799501D01*
X99811409Y-96768800D01*
X99692791Y-96768800D01*
X99578214Y-96799501D01*
X99578212Y-96799501D01*
X99578212Y-96799502D01*
X99475487Y-96858811D01*
X99475484Y-96858813D01*
X99400242Y-96934056D01*
X99338919Y-96967541D01*
X99269227Y-96962557D01*
X99224880Y-96934056D01*
X99201715Y-96910891D01*
X99201713Y-96910889D01*
X99098986Y-96851579D01*
X98984409Y-96820878D01*
X98865791Y-96820878D01*
X98751214Y-96851579D01*
X98751212Y-96851579D01*
X98751212Y-96851580D01*
X98648487Y-96910889D01*
X98648484Y-96910891D01*
X98564613Y-96994762D01*
X98564609Y-96994768D01*
X98546971Y-97025317D01*
X98496403Y-97073532D01*
X98427796Y-97086753D01*
X98368412Y-97063388D01*
X98368302Y-97063579D01*
X98367027Y-97062843D01*
X98364099Y-97061691D01*
X98361263Y-97059515D01*
X98264239Y-97003498D01*
X98264238Y-97003497D01*
X98238726Y-96996661D01*
X98201098Y-96986579D01*
X98141440Y-96950215D01*
X98113420Y-96898899D01*
X98096503Y-96835763D01*
X98040485Y-96738737D01*
X97961263Y-96659515D01*
X97864237Y-96603497D01*
X97756018Y-96574500D01*
X97643982Y-96574500D01*
X97535763Y-96603497D01*
X97535760Y-96603498D01*
X97438740Y-96659513D01*
X97438734Y-96659517D01*
X97359517Y-96738734D01*
X97359513Y-96738740D01*
X97303498Y-96835760D01*
X97303497Y-96835761D01*
X97286580Y-96898899D01*
X97250214Y-96958559D01*
X97198899Y-96986579D01*
X97135763Y-97003497D01*
X97135761Y-97003497D01*
X97134335Y-97003880D01*
X97064485Y-97002217D01*
X97006622Y-96963055D01*
X96994853Y-96946103D01*
X96990485Y-96938537D01*
X96939529Y-96887581D01*
X96906044Y-96826258D01*
X96911028Y-96756566D01*
X96939529Y-96712219D01*
X96959937Y-96691811D01*
X96990485Y-96661263D01*
X97046503Y-96564237D01*
X97059615Y-96515298D01*
X97095979Y-96455639D01*
X97148827Y-96429965D01*
X97148168Y-96427503D01*
X97156016Y-96425400D01*
X97156018Y-96425400D01*
X97264237Y-96396403D01*
X97360733Y-96340691D01*
X101807500Y-96340691D01*
X101807500Y-96459309D01*
X101838201Y-96573886D01*
X101897511Y-96676613D01*
X101981387Y-96760489D01*
X102084114Y-96819799D01*
X102198691Y-96850500D01*
X102198694Y-96850500D01*
X102317306Y-96850500D01*
X102317309Y-96850500D01*
X102431886Y-96819799D01*
X102534613Y-96760489D01*
X102618489Y-96676613D01*
X102677799Y-96573886D01*
X102708500Y-96459309D01*
X102708500Y-96340691D01*
X102677799Y-96226114D01*
X102618489Y-96123387D01*
X102534613Y-96039511D01*
X102431886Y-95980201D01*
X102317309Y-95949500D01*
X102198691Y-95949500D01*
X102084114Y-95980201D01*
X102084112Y-95980201D01*
X102084112Y-95980202D01*
X101981387Y-96039511D01*
X101981384Y-96039513D01*
X101897513Y-96123384D01*
X101897511Y-96123387D01*
X101838201Y-96226114D01*
X101807500Y-96340691D01*
X97360733Y-96340691D01*
X97361263Y-96340385D01*
X97440485Y-96261163D01*
X97496503Y-96164137D01*
X97525500Y-96055918D01*
X97525500Y-95943882D01*
X97496503Y-95835663D01*
X97440485Y-95738637D01*
X97389379Y-95687531D01*
X97355894Y-95626208D01*
X97360878Y-95556516D01*
X97389379Y-95512169D01*
X97440485Y-95461063D01*
X97496503Y-95364037D01*
X97525500Y-95255818D01*
X97525500Y-95143782D01*
X97496503Y-95035563D01*
X97440485Y-94938537D01*
X97389529Y-94887581D01*
X97356044Y-94826258D01*
X97361028Y-94756566D01*
X97389529Y-94712219D01*
X97395077Y-94706671D01*
X97440485Y-94661263D01*
X97496503Y-94564237D01*
X97525500Y-94456018D01*
X97525500Y-94343982D01*
X97496503Y-94235763D01*
X97440485Y-94138737D01*
X97389379Y-94087631D01*
X97355894Y-94026308D01*
X97360878Y-93956616D01*
X97389379Y-93912269D01*
X97411636Y-93890012D01*
X97440485Y-93861163D01*
X97496503Y-93764137D01*
X97525500Y-93655918D01*
X97525500Y-93543882D01*
X97521376Y-93528491D01*
X106005500Y-93528491D01*
X106005500Y-93647109D01*
X106036201Y-93761686D01*
X106095511Y-93864413D01*
X106179387Y-93948289D01*
X106282114Y-94007599D01*
X106396691Y-94038300D01*
X106396694Y-94038300D01*
X106515306Y-94038300D01*
X106515309Y-94038300D01*
X106629886Y-94007599D01*
X106635096Y-94004591D01*
X113074500Y-94004591D01*
X113074500Y-94123209D01*
X113105201Y-94237786D01*
X113164511Y-94340513D01*
X113248387Y-94424389D01*
X113351114Y-94483699D01*
X113465691Y-94514400D01*
X113465694Y-94514400D01*
X113584306Y-94514400D01*
X113584309Y-94514400D01*
X113698886Y-94483699D01*
X113801613Y-94424389D01*
X113885489Y-94340513D01*
X113944799Y-94237786D01*
X113975500Y-94123209D01*
X113975500Y-94004591D01*
X113944799Y-93890014D01*
X113885489Y-93787287D01*
X113801613Y-93703411D01*
X113698886Y-93644101D01*
X113584309Y-93613400D01*
X113465691Y-93613400D01*
X113351114Y-93644101D01*
X113351112Y-93644101D01*
X113351112Y-93644102D01*
X113248387Y-93703411D01*
X113248384Y-93703413D01*
X113164513Y-93787284D01*
X113164511Y-93787287D01*
X113121861Y-93861159D01*
X113105201Y-93890014D01*
X113074500Y-94004591D01*
X106635096Y-94004591D01*
X106732613Y-93948289D01*
X106816489Y-93864413D01*
X106875799Y-93761686D01*
X106906500Y-93647109D01*
X106906500Y-93528491D01*
X106886484Y-93453791D01*
X115945600Y-93453791D01*
X115945600Y-93572409D01*
X115976301Y-93686986D01*
X116035611Y-93789713D01*
X116119487Y-93873589D01*
X116222214Y-93932899D01*
X116336791Y-93963600D01*
X116336794Y-93963600D01*
X116455406Y-93963600D01*
X116455409Y-93963600D01*
X116569986Y-93932899D01*
X116672713Y-93873589D01*
X116756589Y-93789713D01*
X116815899Y-93686986D01*
X116846600Y-93572409D01*
X116846600Y-93453791D01*
X116815899Y-93339214D01*
X116756589Y-93236487D01*
X116672713Y-93152611D01*
X116569986Y-93093301D01*
X116455409Y-93062600D01*
X116336791Y-93062600D01*
X116222214Y-93093301D01*
X116222212Y-93093301D01*
X116222212Y-93093302D01*
X116119487Y-93152611D01*
X116119484Y-93152613D01*
X116035613Y-93236484D01*
X116035611Y-93236487D01*
X115992483Y-93311187D01*
X115976301Y-93339214D01*
X115945600Y-93453791D01*
X106886484Y-93453791D01*
X106875799Y-93413914D01*
X106816489Y-93311187D01*
X106732613Y-93227311D01*
X106629886Y-93168001D01*
X106515309Y-93137300D01*
X106396691Y-93137300D01*
X106282114Y-93168001D01*
X106282112Y-93168001D01*
X106282112Y-93168002D01*
X106179387Y-93227311D01*
X106179384Y-93227313D01*
X106095513Y-93311184D01*
X106095511Y-93311187D01*
X106036201Y-93413914D01*
X106005500Y-93528491D01*
X97521376Y-93528491D01*
X97496503Y-93435663D01*
X97440485Y-93338637D01*
X97361263Y-93259415D01*
X97264237Y-93203397D01*
X97156018Y-93174400D01*
X97156017Y-93174400D01*
X97148168Y-93172297D01*
X97149029Y-93169083D01*
X97099273Y-93147050D01*
X97060823Y-93088711D01*
X97059623Y-93084528D01*
X97046503Y-93035563D01*
X97042269Y-93028230D01*
X97025796Y-92960332D01*
X97048647Y-92894305D01*
X97103568Y-92851113D01*
X97117551Y-92846458D01*
X97219286Y-92819199D01*
X97322013Y-92759889D01*
X97405889Y-92676013D01*
X97465199Y-92573286D01*
X97495900Y-92458709D01*
X97495900Y-92340091D01*
X97465199Y-92225514D01*
X97405889Y-92122787D01*
X97322013Y-92038911D01*
X97219286Y-91979601D01*
X97104709Y-91948900D01*
X96986091Y-91948900D01*
X96871514Y-91979601D01*
X96871512Y-91979601D01*
X96871512Y-91979602D01*
X96768787Y-92038911D01*
X96768784Y-92038913D01*
X96684913Y-92122784D01*
X96684911Y-92122787D01*
X96638607Y-92202988D01*
X96625601Y-92225514D01*
X96594900Y-92340091D01*
X96594900Y-92458709D01*
X96625601Y-92573286D01*
X96625602Y-92573289D01*
X96641071Y-92600082D01*
X96657544Y-92667982D01*
X96634691Y-92734009D01*
X96579770Y-92777200D01*
X96565778Y-92781857D01*
X96485761Y-92803297D01*
X96485760Y-92803298D01*
X96388740Y-92859313D01*
X96388734Y-92859317D01*
X96309517Y-92938534D01*
X96309513Y-92938540D01*
X96253498Y-93035560D01*
X96253497Y-93035563D01*
X96224500Y-93143782D01*
X91918948Y-93143782D01*
X91976613Y-93110489D01*
X92060489Y-93026613D01*
X92119799Y-92923886D01*
X92150500Y-92809309D01*
X92150500Y-92690691D01*
X92119799Y-92576114D01*
X92060489Y-92473387D01*
X91976613Y-92389511D01*
X91873886Y-92330201D01*
X91759309Y-92299500D01*
X91640691Y-92299500D01*
X91552992Y-92322999D01*
X91483142Y-92321336D01*
X91425280Y-92282173D01*
X91413512Y-92265225D01*
X91411823Y-92262299D01*
X91360489Y-92173387D01*
X91276613Y-92089511D01*
X91173886Y-92030201D01*
X91059309Y-91999500D01*
X90940691Y-91999500D01*
X90826114Y-92030201D01*
X90826112Y-92030201D01*
X90826112Y-92030202D01*
X90723387Y-92089511D01*
X90723384Y-92089513D01*
X90639513Y-92173384D01*
X90639511Y-92173387D01*
X90580201Y-92276114D01*
X90549500Y-92390691D01*
X85846411Y-92390691D01*
X85890789Y-92346313D01*
X85950099Y-92243586D01*
X85980800Y-92129009D01*
X85980800Y-92010391D01*
X85950099Y-91895814D01*
X85890789Y-91793087D01*
X85885147Y-91787445D01*
X85851662Y-91726122D01*
X85853665Y-91665468D01*
X85857858Y-91650898D01*
X85866699Y-91635586D01*
X85892126Y-91540691D01*
X87349500Y-91540691D01*
X87349500Y-91659309D01*
X87380201Y-91773886D01*
X87439511Y-91876613D01*
X87523387Y-91960489D01*
X87626114Y-92019799D01*
X87740691Y-92050500D01*
X87740694Y-92050500D01*
X87859306Y-92050500D01*
X87859309Y-92050500D01*
X87973886Y-92019799D01*
X88076613Y-91960489D01*
X88160489Y-91876613D01*
X88214427Y-91783191D01*
X98449700Y-91783191D01*
X98449700Y-91901809D01*
X98480401Y-92016386D01*
X98539711Y-92119113D01*
X98623587Y-92202989D01*
X98726314Y-92262299D01*
X98840891Y-92293000D01*
X98840894Y-92293000D01*
X98959506Y-92293000D01*
X98959509Y-92293000D01*
X99074086Y-92262299D01*
X99176813Y-92202989D01*
X99260689Y-92119113D01*
X99319999Y-92016386D01*
X99350700Y-91901809D01*
X99350700Y-91857191D01*
X100334500Y-91857191D01*
X100334500Y-91975809D01*
X100365201Y-92090386D01*
X100424511Y-92193113D01*
X100508387Y-92276989D01*
X100611114Y-92336299D01*
X100725691Y-92367000D01*
X100725694Y-92367000D01*
X100844306Y-92367000D01*
X100844309Y-92367000D01*
X100958886Y-92336299D01*
X101061613Y-92276989D01*
X101145489Y-92193113D01*
X101204799Y-92090386D01*
X101235500Y-91975809D01*
X101235500Y-91893982D01*
X101474500Y-91893982D01*
X101474500Y-92006018D01*
X101497106Y-92090387D01*
X101503497Y-92114236D01*
X101503498Y-92114239D01*
X101506312Y-92119113D01*
X101559515Y-92211263D01*
X101638737Y-92290485D01*
X101735763Y-92346503D01*
X101843982Y-92375500D01*
X101843984Y-92375500D01*
X101956016Y-92375500D01*
X101956018Y-92375500D01*
X102064237Y-92346503D01*
X102161263Y-92290485D01*
X102240485Y-92211263D01*
X102296503Y-92114237D01*
X102325500Y-92006018D01*
X102325500Y-91893982D01*
X102296503Y-91785763D01*
X102240485Y-91688737D01*
X102161263Y-91609515D01*
X102068595Y-91556013D01*
X102064239Y-91553498D01*
X102064238Y-91553497D01*
X102064237Y-91553497D01*
X102016444Y-91540691D01*
X104449500Y-91540691D01*
X104449500Y-91659309D01*
X104480201Y-91773886D01*
X104539511Y-91876613D01*
X104623387Y-91960489D01*
X104726114Y-92019799D01*
X104840691Y-92050500D01*
X104840694Y-92050500D01*
X104959306Y-92050500D01*
X104959309Y-92050500D01*
X105073886Y-92019799D01*
X105176613Y-91960489D01*
X105181411Y-91955691D01*
X113853100Y-91955691D01*
X113853100Y-92074309D01*
X113883801Y-92188886D01*
X113943111Y-92291613D01*
X114026987Y-92375489D01*
X114129714Y-92434799D01*
X114244291Y-92465500D01*
X114244294Y-92465500D01*
X114362906Y-92465500D01*
X114362909Y-92465500D01*
X114477486Y-92434799D01*
X114580213Y-92375489D01*
X114664089Y-92291613D01*
X114723399Y-92188886D01*
X114754100Y-92074309D01*
X114754100Y-91955691D01*
X114723399Y-91841114D01*
X114664089Y-91738387D01*
X114580213Y-91654511D01*
X114477486Y-91595201D01*
X114362909Y-91564500D01*
X114244291Y-91564500D01*
X114129714Y-91595201D01*
X114129712Y-91595201D01*
X114129712Y-91595202D01*
X114026987Y-91654511D01*
X114026984Y-91654513D01*
X113943113Y-91738384D01*
X113943111Y-91738387D01*
X113883801Y-91841114D01*
X113853100Y-91955691D01*
X105181411Y-91955691D01*
X105260489Y-91876613D01*
X105319799Y-91773886D01*
X105350500Y-91659309D01*
X105350500Y-91540691D01*
X105319799Y-91426114D01*
X105260489Y-91323387D01*
X105176613Y-91239511D01*
X105073886Y-91180201D01*
X104959309Y-91149500D01*
X104840691Y-91149500D01*
X104726114Y-91180201D01*
X104726112Y-91180201D01*
X104726112Y-91180202D01*
X104623387Y-91239511D01*
X104623384Y-91239513D01*
X104539513Y-91323384D01*
X104539511Y-91323387D01*
X104482172Y-91422701D01*
X104480201Y-91426114D01*
X104449500Y-91540691D01*
X102016444Y-91540691D01*
X101956018Y-91524500D01*
X101843982Y-91524500D01*
X101735763Y-91553497D01*
X101735760Y-91553498D01*
X101638740Y-91609513D01*
X101638734Y-91609517D01*
X101559517Y-91688734D01*
X101559513Y-91688740D01*
X101503498Y-91785760D01*
X101503498Y-91785761D01*
X101503497Y-91785763D01*
X101474500Y-91893982D01*
X101235500Y-91893982D01*
X101235500Y-91857191D01*
X101204799Y-91742614D01*
X101145489Y-91639887D01*
X101061613Y-91556011D01*
X100958886Y-91496701D01*
X100844309Y-91466000D01*
X100725691Y-91466000D01*
X100611114Y-91496701D01*
X100611112Y-91496701D01*
X100611112Y-91496702D01*
X100508387Y-91556011D01*
X100508384Y-91556013D01*
X100424513Y-91639884D01*
X100424511Y-91639887D01*
X100365201Y-91742614D01*
X100334500Y-91857191D01*
X99350700Y-91857191D01*
X99350700Y-91783191D01*
X99319999Y-91668614D01*
X99260689Y-91565887D01*
X99176813Y-91482011D01*
X99074086Y-91422701D01*
X98959509Y-91392000D01*
X98840891Y-91392000D01*
X98726314Y-91422701D01*
X98726312Y-91422701D01*
X98726312Y-91422702D01*
X98623587Y-91482011D01*
X98623584Y-91482013D01*
X98539713Y-91565884D01*
X98539711Y-91565887D01*
X98480401Y-91668614D01*
X98449700Y-91783191D01*
X88214427Y-91783191D01*
X88219799Y-91773886D01*
X88250500Y-91659309D01*
X88250500Y-91540691D01*
X88219799Y-91426114D01*
X88160489Y-91323387D01*
X88076613Y-91239511D01*
X87973886Y-91180201D01*
X87859309Y-91149500D01*
X87740691Y-91149500D01*
X87626114Y-91180201D01*
X87626112Y-91180201D01*
X87626112Y-91180202D01*
X87523387Y-91239511D01*
X87523384Y-91239513D01*
X87439513Y-91323384D01*
X87439511Y-91323387D01*
X87382172Y-91422701D01*
X87380201Y-91426114D01*
X87349500Y-91540691D01*
X85892126Y-91540691D01*
X85897400Y-91521009D01*
X85897400Y-91402391D01*
X85885765Y-91358970D01*
X85884988Y-91346629D01*
X85890082Y-91324133D01*
X85890631Y-91301077D01*
X85897652Y-91290702D01*
X85900419Y-91278485D01*
X85916865Y-91262314D01*
X85929793Y-91243214D01*
X85943454Y-91236172D01*
X85950241Y-91229500D01*
X85960590Y-91227340D01*
X85966876Y-91224100D01*
X85966382Y-91222907D01*
X85973883Y-91219799D01*
X85973886Y-91219799D01*
X86076613Y-91160489D01*
X86123811Y-91113291D01*
X95956800Y-91113291D01*
X95956800Y-91231909D01*
X95987501Y-91346486D01*
X96046811Y-91449213D01*
X96130687Y-91533089D01*
X96233414Y-91592399D01*
X96347991Y-91623100D01*
X96347994Y-91623100D01*
X96466606Y-91623100D01*
X96466609Y-91623100D01*
X96581186Y-91592399D01*
X96683913Y-91533089D01*
X96767789Y-91449213D01*
X96827099Y-91346486D01*
X96857800Y-91231909D01*
X96857800Y-91113291D01*
X96827099Y-90998714D01*
X96767789Y-90895987D01*
X96683913Y-90812111D01*
X96581186Y-90752801D01*
X96466609Y-90722100D01*
X96347991Y-90722100D01*
X96233414Y-90752801D01*
X96233412Y-90752801D01*
X96233412Y-90752802D01*
X96130687Y-90812111D01*
X96130684Y-90812113D01*
X96046813Y-90895984D01*
X96046811Y-90895987D01*
X96001836Y-90973886D01*
X95987501Y-90998714D01*
X95956800Y-91113291D01*
X86123811Y-91113291D01*
X86160489Y-91076613D01*
X86219799Y-90973886D01*
X86250500Y-90859309D01*
X86250500Y-90740691D01*
X86219799Y-90626114D01*
X86219797Y-90626111D01*
X86219797Y-90626109D01*
X86219796Y-90626108D01*
X86165788Y-90532565D01*
X86165787Y-90532563D01*
X86165786Y-90532562D01*
X86160489Y-90523387D01*
X86115793Y-90478691D01*
X88932000Y-90478691D01*
X88932000Y-90597309D01*
X88962701Y-90711886D01*
X89022011Y-90814613D01*
X89105887Y-90898489D01*
X89208614Y-90957799D01*
X89323191Y-90988500D01*
X89323194Y-90988500D01*
X89441806Y-90988500D01*
X89441809Y-90988500D01*
X89556386Y-90957799D01*
X89659113Y-90898489D01*
X89742989Y-90814613D01*
X89802299Y-90711886D01*
X89833000Y-90597309D01*
X89833000Y-90499191D01*
X92977100Y-90499191D01*
X92977100Y-90617809D01*
X93007801Y-90732386D01*
X93067111Y-90835113D01*
X93150987Y-90918989D01*
X93253714Y-90978299D01*
X93368291Y-91009000D01*
X93368294Y-91009000D01*
X93486906Y-91009000D01*
X93486909Y-91009000D01*
X93601486Y-90978299D01*
X93704213Y-90918989D01*
X93788089Y-90835113D01*
X93847399Y-90732386D01*
X93878100Y-90617809D01*
X93878100Y-90499191D01*
X93847399Y-90384614D01*
X93788089Y-90281887D01*
X93704213Y-90198011D01*
X93601486Y-90138701D01*
X93486909Y-90108000D01*
X93368291Y-90108000D01*
X93253714Y-90138701D01*
X93253712Y-90138701D01*
X93253712Y-90138702D01*
X93150987Y-90198011D01*
X93150984Y-90198013D01*
X93067113Y-90281884D01*
X93067111Y-90281887D01*
X93007801Y-90384614D01*
X92977100Y-90499191D01*
X89833000Y-90499191D01*
X89833000Y-90478691D01*
X89802299Y-90364114D01*
X89742989Y-90261387D01*
X89659113Y-90177511D01*
X89556386Y-90118201D01*
X89441809Y-90087500D01*
X89323191Y-90087500D01*
X89208614Y-90118201D01*
X89208612Y-90118201D01*
X89208612Y-90118202D01*
X89105887Y-90177511D01*
X89105884Y-90177513D01*
X89022013Y-90261384D01*
X89022011Y-90261387D01*
X88962701Y-90364114D01*
X88932000Y-90478691D01*
X86115793Y-90478691D01*
X86076613Y-90439511D01*
X85973886Y-90380201D01*
X85859309Y-90349500D01*
X85740691Y-90349500D01*
X85626114Y-90380201D01*
X85626112Y-90380201D01*
X85626112Y-90380202D01*
X85523387Y-90439511D01*
X85523384Y-90439513D01*
X85439513Y-90523384D01*
X85439511Y-90523387D01*
X85380201Y-90626114D01*
X85349500Y-90740691D01*
X85349500Y-90740693D01*
X85349500Y-90859310D01*
X85357931Y-90890775D01*
X85356268Y-90960625D01*
X85317105Y-91018487D01*
X85280025Y-91037603D01*
X85280518Y-91038793D01*
X85273014Y-91041900D01*
X85170287Y-91101211D01*
X85170284Y-91101213D01*
X85086413Y-91185084D01*
X85086411Y-91185087D01*
X85041824Y-91262314D01*
X85027101Y-91287814D01*
X84996400Y-91402391D01*
X76954158Y-91402391D01*
X77190519Y-90786649D01*
X77192095Y-90782749D01*
X77525949Y-89996237D01*
X77527702Y-89992302D01*
X77543089Y-89959306D01*
X77598400Y-89840691D01*
X81749500Y-89840691D01*
X81749500Y-89959309D01*
X81780201Y-90073886D01*
X81839511Y-90176613D01*
X81839512Y-90176614D01*
X81843575Y-90183651D01*
X81841824Y-90184661D01*
X81863095Y-90239689D01*
X81849053Y-90308133D01*
X81841822Y-90319384D01*
X81806709Y-90380202D01*
X81780201Y-90426114D01*
X81749500Y-90540691D01*
X81749500Y-90659309D01*
X81780201Y-90773886D01*
X81839511Y-90876613D01*
X81923387Y-90960489D01*
X82026114Y-91019799D01*
X82140691Y-91050500D01*
X82140694Y-91050500D01*
X82259306Y-91050500D01*
X82259309Y-91050500D01*
X82373886Y-91019799D01*
X82476613Y-90960489D01*
X82560489Y-90876613D01*
X82619799Y-90773886D01*
X82650500Y-90659309D01*
X82650500Y-90540691D01*
X82619799Y-90426114D01*
X82560489Y-90323387D01*
X82560487Y-90323385D01*
X82556425Y-90316349D01*
X82558177Y-90315337D01*
X82536906Y-90260329D01*
X82550938Y-90191883D01*
X82558167Y-90180632D01*
X82560485Y-90176616D01*
X82560489Y-90176613D01*
X82619799Y-90073886D01*
X82650500Y-89959309D01*
X82650500Y-89840691D01*
X82619799Y-89726114D01*
X82560489Y-89623387D01*
X82540593Y-89603491D01*
X85071300Y-89603491D01*
X85071300Y-89722109D01*
X85102001Y-89836686D01*
X85161311Y-89939413D01*
X85245187Y-90023289D01*
X85347914Y-90082599D01*
X85462491Y-90113300D01*
X85462494Y-90113300D01*
X85581106Y-90113300D01*
X85581109Y-90113300D01*
X85695686Y-90082599D01*
X85798413Y-90023289D01*
X85882289Y-89939413D01*
X85941599Y-89836686D01*
X85972300Y-89722109D01*
X85972300Y-89603491D01*
X85941599Y-89488914D01*
X85882289Y-89386187D01*
X85798413Y-89302311D01*
X85695686Y-89243001D01*
X85581109Y-89212300D01*
X85462491Y-89212300D01*
X85347914Y-89243001D01*
X85347912Y-89243001D01*
X85347912Y-89243002D01*
X85245187Y-89302311D01*
X85245184Y-89302313D01*
X85161313Y-89386184D01*
X85161311Y-89386187D01*
X85104771Y-89484117D01*
X85102001Y-89488914D01*
X85071300Y-89603491D01*
X82540593Y-89603491D01*
X82476613Y-89539511D01*
X82373886Y-89480201D01*
X82259309Y-89449500D01*
X82140691Y-89449500D01*
X82026114Y-89480201D01*
X82026112Y-89480201D01*
X82026112Y-89480202D01*
X81923387Y-89539511D01*
X81923384Y-89539513D01*
X81839513Y-89623384D01*
X81839511Y-89623387D01*
X81780201Y-89726114D01*
X81749500Y-89840691D01*
X77598400Y-89840691D01*
X77888754Y-89218022D01*
X77890645Y-89214147D01*
X77891586Y-89212300D01*
X78005562Y-88988610D01*
X78802928Y-88988610D01*
X78802928Y-89133560D01*
X78834986Y-89253200D01*
X78840445Y-89273573D01*
X78912916Y-89399096D01*
X78912918Y-89399098D01*
X78912919Y-89399100D01*
X79015413Y-89501594D01*
X79015414Y-89501595D01*
X79015416Y-89501596D01*
X79140939Y-89574067D01*
X79140940Y-89574067D01*
X79140943Y-89574069D01*
X79280953Y-89611585D01*
X79280956Y-89611585D01*
X79425900Y-89611585D01*
X79425903Y-89611585D01*
X79565913Y-89574069D01*
X79691443Y-89501594D01*
X79793937Y-89399100D01*
X79866412Y-89273570D01*
X79903928Y-89133560D01*
X79903928Y-88988610D01*
X79891088Y-88940691D01*
X89749500Y-88940691D01*
X89749500Y-89059309D01*
X89780201Y-89173886D01*
X89839511Y-89276613D01*
X89923387Y-89360489D01*
X90026114Y-89419799D01*
X90140691Y-89450500D01*
X90140694Y-89450500D01*
X90259306Y-89450500D01*
X90259309Y-89450500D01*
X90373886Y-89419799D01*
X90388454Y-89411387D01*
X90456353Y-89394913D01*
X90522380Y-89417763D01*
X90565573Y-89472683D01*
X90570228Y-89486669D01*
X90580201Y-89523886D01*
X90639511Y-89626613D01*
X90723387Y-89710489D01*
X90826114Y-89769799D01*
X90940691Y-89800500D01*
X90940694Y-89800500D01*
X91059306Y-89800500D01*
X91059309Y-89800500D01*
X91173886Y-89769799D01*
X91276613Y-89710489D01*
X91355419Y-89631683D01*
X91416742Y-89598198D01*
X91486434Y-89603182D01*
X91542367Y-89645054D01*
X91566784Y-89710518D01*
X91567100Y-89719364D01*
X91567100Y-89825109D01*
X91597801Y-89939686D01*
X91657111Y-90042413D01*
X91740987Y-90126289D01*
X91843714Y-90185599D01*
X91958291Y-90216300D01*
X91958294Y-90216300D01*
X92076906Y-90216300D01*
X92076909Y-90216300D01*
X92191486Y-90185599D01*
X92294213Y-90126289D01*
X92378089Y-90042413D01*
X92437399Y-89939686D01*
X92468100Y-89825109D01*
X92468100Y-89740691D01*
X97449500Y-89740691D01*
X97449500Y-89859309D01*
X97480201Y-89973886D01*
X97539511Y-90076613D01*
X97623387Y-90160489D01*
X97726114Y-90219799D01*
X97840691Y-90250500D01*
X97840694Y-90250500D01*
X97959306Y-90250500D01*
X97959309Y-90250500D01*
X98073886Y-90219799D01*
X98176613Y-90160489D01*
X98260489Y-90076613D01*
X98319799Y-89973886D01*
X98350500Y-89859309D01*
X98350500Y-89790691D01*
X101299500Y-89790691D01*
X101299500Y-89909309D01*
X101330201Y-90023886D01*
X101389511Y-90126613D01*
X101473387Y-90210489D01*
X101576114Y-90269799D01*
X101690691Y-90300500D01*
X101690694Y-90300500D01*
X101809306Y-90300500D01*
X101809309Y-90300500D01*
X101923886Y-90269799D01*
X102026613Y-90210489D01*
X102110489Y-90126613D01*
X102169799Y-90023886D01*
X102200500Y-89909309D01*
X102200500Y-89909305D01*
X102200848Y-89908007D01*
X102237213Y-89848346D01*
X102300060Y-89817817D01*
X102320623Y-89816100D01*
X102347306Y-89816100D01*
X102347309Y-89816100D01*
X102461886Y-89785399D01*
X102564613Y-89726089D01*
X102648489Y-89642213D01*
X102707799Y-89539486D01*
X102710424Y-89529691D01*
X106413500Y-89529691D01*
X106413500Y-89648309D01*
X106444201Y-89762886D01*
X106503511Y-89865613D01*
X106587387Y-89949489D01*
X106636946Y-89978102D01*
X106685162Y-90028669D01*
X106698384Y-90097276D01*
X106672416Y-90162141D01*
X106662628Y-90173170D01*
X106601511Y-90234287D01*
X106550069Y-90323387D01*
X106542201Y-90337014D01*
X106511500Y-90451591D01*
X106511500Y-90570209D01*
X106542201Y-90684786D01*
X106601511Y-90787513D01*
X106685387Y-90871389D01*
X106788114Y-90930699D01*
X106902691Y-90961400D01*
X106902694Y-90961400D01*
X107021306Y-90961400D01*
X107021309Y-90961400D01*
X107135886Y-90930699D01*
X107238613Y-90871389D01*
X107322489Y-90787513D01*
X107349522Y-90740691D01*
X109946100Y-90740691D01*
X109946100Y-90859309D01*
X109976801Y-90973886D01*
X110036111Y-91076613D01*
X110119987Y-91160489D01*
X110222714Y-91219799D01*
X110337291Y-91250500D01*
X110337294Y-91250500D01*
X110455906Y-91250500D01*
X110455909Y-91250500D01*
X110570486Y-91219799D01*
X110673213Y-91160489D01*
X110757089Y-91076613D01*
X110816399Y-90973886D01*
X110847100Y-90859309D01*
X110847100Y-90740691D01*
X111452900Y-90740691D01*
X111452900Y-90859309D01*
X111483601Y-90973886D01*
X111542911Y-91076613D01*
X111626787Y-91160489D01*
X111729514Y-91219799D01*
X111844091Y-91250500D01*
X111844094Y-91250500D01*
X111962706Y-91250500D01*
X111962709Y-91250500D01*
X112077286Y-91219799D01*
X112180013Y-91160489D01*
X112263889Y-91076613D01*
X112323199Y-90973886D01*
X112353900Y-90859309D01*
X112353900Y-90740691D01*
X112323199Y-90626114D01*
X112263889Y-90523387D01*
X112180013Y-90439511D01*
X112077286Y-90380201D01*
X111962709Y-90349500D01*
X111844091Y-90349500D01*
X111729514Y-90380201D01*
X111729512Y-90380201D01*
X111729512Y-90380202D01*
X111626787Y-90439511D01*
X111626784Y-90439513D01*
X111542913Y-90523384D01*
X111542911Y-90523387D01*
X111483601Y-90626114D01*
X111452900Y-90740691D01*
X110847100Y-90740691D01*
X110816399Y-90626114D01*
X110757089Y-90523387D01*
X110673213Y-90439511D01*
X110570486Y-90380201D01*
X110455909Y-90349500D01*
X110337291Y-90349500D01*
X110222714Y-90380201D01*
X110222712Y-90380201D01*
X110222712Y-90380202D01*
X110119987Y-90439511D01*
X110119984Y-90439513D01*
X110036113Y-90523384D01*
X110036111Y-90523387D01*
X109976801Y-90626114D01*
X109946100Y-90740691D01*
X107349522Y-90740691D01*
X107381799Y-90684786D01*
X107412500Y-90570209D01*
X107412500Y-90451591D01*
X107381799Y-90337014D01*
X107322489Y-90234287D01*
X107238613Y-90150411D01*
X107189051Y-90121796D01*
X107140837Y-90071229D01*
X107127615Y-90002622D01*
X107153583Y-89937758D01*
X107163356Y-89926745D01*
X107224489Y-89865613D01*
X107283799Y-89762886D01*
X107314500Y-89648309D01*
X107314500Y-89644391D01*
X114749500Y-89644391D01*
X114749500Y-89763009D01*
X114780201Y-89877586D01*
X114839511Y-89980313D01*
X114923387Y-90064189D01*
X115026114Y-90123499D01*
X115140691Y-90154200D01*
X115140694Y-90154200D01*
X115259306Y-90154200D01*
X115259309Y-90154200D01*
X115373886Y-90123499D01*
X115476613Y-90064189D01*
X115560489Y-89980313D01*
X115619799Y-89877586D01*
X115650500Y-89763009D01*
X115650500Y-89644391D01*
X115619799Y-89529814D01*
X115560489Y-89427087D01*
X115476613Y-89343211D01*
X115373886Y-89283901D01*
X115259309Y-89253200D01*
X115140691Y-89253200D01*
X115026114Y-89283901D01*
X115026112Y-89283901D01*
X115026112Y-89283902D01*
X114923387Y-89343211D01*
X114923384Y-89343213D01*
X114839513Y-89427084D01*
X114839511Y-89427087D01*
X114783624Y-89523886D01*
X114780201Y-89529814D01*
X114749500Y-89644391D01*
X107314500Y-89644391D01*
X107314500Y-89529691D01*
X107283799Y-89415114D01*
X107224489Y-89312387D01*
X107140613Y-89228511D01*
X107037886Y-89169201D01*
X106923309Y-89138500D01*
X106804691Y-89138500D01*
X106690114Y-89169201D01*
X106690112Y-89169201D01*
X106690112Y-89169202D01*
X106587387Y-89228511D01*
X106587384Y-89228513D01*
X106503513Y-89312384D01*
X106503511Y-89312387D01*
X106447553Y-89409309D01*
X106444201Y-89415114D01*
X106413500Y-89529691D01*
X102710424Y-89529691D01*
X102738500Y-89424909D01*
X102738500Y-89306291D01*
X102707799Y-89191714D01*
X102648489Y-89088987D01*
X102564613Y-89005111D01*
X102461886Y-88945801D01*
X102347309Y-88915100D01*
X102228691Y-88915100D01*
X102114114Y-88945801D01*
X102114112Y-88945801D01*
X102114112Y-88945802D01*
X102011387Y-89005111D01*
X102011384Y-89005113D01*
X101927513Y-89088984D01*
X101927511Y-89088987D01*
X101868201Y-89191712D01*
X101862685Y-89212300D01*
X101837500Y-89306291D01*
X101837500Y-89306293D01*
X101837152Y-89307593D01*
X101800787Y-89367254D01*
X101737940Y-89397783D01*
X101717377Y-89399500D01*
X101690691Y-89399500D01*
X101576114Y-89430201D01*
X101576112Y-89430201D01*
X101576112Y-89430202D01*
X101473387Y-89489511D01*
X101473384Y-89489513D01*
X101389513Y-89573384D01*
X101389511Y-89573387D01*
X101349775Y-89642212D01*
X101330201Y-89676114D01*
X101299500Y-89790691D01*
X98350500Y-89790691D01*
X98350500Y-89740691D01*
X98319799Y-89626114D01*
X98260489Y-89523387D01*
X98176613Y-89439511D01*
X98073886Y-89380201D01*
X97959309Y-89349500D01*
X97840691Y-89349500D01*
X97726114Y-89380201D01*
X97726112Y-89380201D01*
X97726112Y-89380202D01*
X97623387Y-89439511D01*
X97623384Y-89439513D01*
X97539513Y-89523384D01*
X97539511Y-89523387D01*
X97493263Y-89603491D01*
X97480201Y-89626114D01*
X97449500Y-89740691D01*
X92468100Y-89740691D01*
X92468100Y-89706491D01*
X92437399Y-89591914D01*
X92378089Y-89489187D01*
X92294213Y-89405311D01*
X92191486Y-89346001D01*
X92076909Y-89315300D01*
X91958291Y-89315300D01*
X91843714Y-89346001D01*
X91843712Y-89346001D01*
X91843712Y-89346002D01*
X91740987Y-89405311D01*
X91740984Y-89405313D01*
X91662181Y-89484117D01*
X91600858Y-89517602D01*
X91531166Y-89512618D01*
X91475233Y-89470746D01*
X91450816Y-89405282D01*
X91450500Y-89396436D01*
X91450500Y-89290693D01*
X91450500Y-89290691D01*
X91419799Y-89176114D01*
X91360489Y-89073387D01*
X91276613Y-88989511D01*
X91173886Y-88930201D01*
X91059309Y-88899500D01*
X90940691Y-88899500D01*
X90860151Y-88921080D01*
X90826109Y-88930202D01*
X90826108Y-88930203D01*
X90811540Y-88938614D01*
X90743640Y-88955085D01*
X90677613Y-88932232D01*
X90634424Y-88877310D01*
X90629771Y-88863330D01*
X90619799Y-88826114D01*
X90560489Y-88723387D01*
X90476613Y-88639511D01*
X90373886Y-88580201D01*
X90259309Y-88549500D01*
X90140691Y-88549500D01*
X90026114Y-88580201D01*
X90026112Y-88580201D01*
X90026112Y-88580202D01*
X89923387Y-88639511D01*
X89923384Y-88639513D01*
X89839513Y-88723384D01*
X89839511Y-88723387D01*
X89780201Y-88826114D01*
X89749500Y-88940691D01*
X79891088Y-88940691D01*
X79866412Y-88848600D01*
X79794118Y-88723384D01*
X79793939Y-88723073D01*
X79793934Y-88723067D01*
X79691445Y-88620578D01*
X79691439Y-88620573D01*
X79565916Y-88548102D01*
X79565917Y-88548102D01*
X79554434Y-88545025D01*
X79425903Y-88510585D01*
X79280953Y-88510585D01*
X79152421Y-88545025D01*
X79140939Y-88548102D01*
X79015416Y-88620573D01*
X79015410Y-88620578D01*
X78912921Y-88723067D01*
X78912916Y-88723073D01*
X78840445Y-88848596D01*
X78840444Y-88848600D01*
X78802928Y-88988610D01*
X78005562Y-88988610D01*
X78278526Y-88452887D01*
X78280524Y-88449130D01*
X78403990Y-88226391D01*
X82602900Y-88226391D01*
X82602900Y-88345009D01*
X82633601Y-88459586D01*
X82692911Y-88562313D01*
X82776787Y-88646189D01*
X82879514Y-88705499D01*
X82994091Y-88736200D01*
X82994094Y-88736200D01*
X83112706Y-88736200D01*
X83112709Y-88736200D01*
X83227286Y-88705499D01*
X83330013Y-88646189D01*
X83413889Y-88562313D01*
X83473199Y-88459586D01*
X83503900Y-88345009D01*
X83503900Y-88226391D01*
X83473199Y-88111814D01*
X83413889Y-88009087D01*
X83330013Y-87925211D01*
X83227286Y-87865901D01*
X83112709Y-87835200D01*
X82994091Y-87835200D01*
X82879514Y-87865901D01*
X82879512Y-87865901D01*
X82879512Y-87865902D01*
X82776787Y-87925211D01*
X82776784Y-87925213D01*
X82692913Y-88009084D01*
X82692911Y-88009087D01*
X82639368Y-88101826D01*
X82633601Y-88111814D01*
X82602900Y-88226391D01*
X78403990Y-88226391D01*
X78694747Y-87701851D01*
X78696853Y-87698203D01*
X78806111Y-87516367D01*
X79652928Y-87516367D01*
X79652928Y-87661317D01*
X79663803Y-87701902D01*
X79690445Y-87801330D01*
X79762916Y-87926853D01*
X79762918Y-87926855D01*
X79762919Y-87926857D01*
X79865413Y-88029351D01*
X79865414Y-88029352D01*
X79865416Y-88029353D01*
X79990939Y-88101824D01*
X79990940Y-88101824D01*
X79990943Y-88101826D01*
X80130953Y-88139342D01*
X80130956Y-88139342D01*
X80275900Y-88139342D01*
X80275903Y-88139342D01*
X80415913Y-88101826D01*
X80541443Y-88029351D01*
X80643937Y-87926857D01*
X80716412Y-87801327D01*
X80753928Y-87661317D01*
X80753928Y-87516367D01*
X80716412Y-87376357D01*
X80643937Y-87250827D01*
X80541443Y-87148333D01*
X80541441Y-87148332D01*
X80541439Y-87148330D01*
X80415916Y-87075859D01*
X80415917Y-87075859D01*
X80404434Y-87072782D01*
X80275903Y-87038342D01*
X80130953Y-87038342D01*
X80002421Y-87072782D01*
X79990939Y-87075859D01*
X79865416Y-87148330D01*
X79865410Y-87148335D01*
X79762921Y-87250824D01*
X79762916Y-87250830D01*
X79690445Y-87376353D01*
X79690444Y-87376357D01*
X79652928Y-87516367D01*
X78806111Y-87516367D01*
X79136936Y-86965782D01*
X79139176Y-86962198D01*
X79587077Y-86272491D01*
X83635400Y-86272491D01*
X83635400Y-86391109D01*
X83666101Y-86505686D01*
X83725411Y-86608413D01*
X83809287Y-86692289D01*
X83912014Y-86751599D01*
X84026591Y-86782300D01*
X84026594Y-86782300D01*
X84145206Y-86782300D01*
X84145209Y-86782300D01*
X84259786Y-86751599D01*
X84362513Y-86692289D01*
X84446389Y-86608413D01*
X84505699Y-86505686D01*
X84536400Y-86391109D01*
X84536400Y-86272491D01*
X84505699Y-86157914D01*
X84446389Y-86055187D01*
X84362513Y-85971311D01*
X84259786Y-85912001D01*
X84192945Y-85894091D01*
X117599500Y-85894091D01*
X117599500Y-86012709D01*
X117630201Y-86127286D01*
X117689511Y-86230013D01*
X117773387Y-86313889D01*
X117876114Y-86373199D01*
X117990691Y-86403900D01*
X117990694Y-86403900D01*
X118109306Y-86403900D01*
X118109309Y-86403900D01*
X118223886Y-86373199D01*
X118326613Y-86313889D01*
X118410489Y-86230013D01*
X118469799Y-86127286D01*
X118500500Y-86012709D01*
X118500500Y-85894091D01*
X118469799Y-85779514D01*
X118410489Y-85676787D01*
X118326613Y-85592911D01*
X118223886Y-85533601D01*
X118109309Y-85502900D01*
X117990691Y-85502900D01*
X117876114Y-85533601D01*
X117876112Y-85533601D01*
X117876112Y-85533602D01*
X117773387Y-85592911D01*
X117773384Y-85592913D01*
X117689513Y-85676784D01*
X117689511Y-85676787D01*
X117630201Y-85779514D01*
X117599500Y-85894091D01*
X84192945Y-85894091D01*
X84145209Y-85881300D01*
X84026591Y-85881300D01*
X83912014Y-85912001D01*
X83912012Y-85912001D01*
X83912012Y-85912002D01*
X83809287Y-85971311D01*
X83809284Y-85971313D01*
X83725413Y-86055184D01*
X83725411Y-86055187D01*
X83666101Y-86157914D01*
X83635400Y-86272491D01*
X79587077Y-86272491D01*
X79604521Y-86245630D01*
X79606886Y-86242124D01*
X80096970Y-85542210D01*
X80099441Y-85538809D01*
X80572386Y-84911191D01*
X87602900Y-84911191D01*
X87602900Y-85029809D01*
X87633601Y-85144386D01*
X87692911Y-85247113D01*
X87776787Y-85330989D01*
X87879514Y-85390299D01*
X87994091Y-85421000D01*
X87994094Y-85421000D01*
X88112706Y-85421000D01*
X88112709Y-85421000D01*
X88227286Y-85390299D01*
X88330013Y-85330989D01*
X88413889Y-85247113D01*
X88473199Y-85144386D01*
X88503900Y-85029809D01*
X88503900Y-84911191D01*
X88473199Y-84796614D01*
X88413889Y-84693887D01*
X88330013Y-84610011D01*
X88227286Y-84550701D01*
X88112709Y-84520000D01*
X87994091Y-84520000D01*
X87879514Y-84550701D01*
X87879512Y-84550701D01*
X87879512Y-84550702D01*
X87776787Y-84610011D01*
X87776784Y-84610013D01*
X87692913Y-84693884D01*
X87692911Y-84693887D01*
X87633601Y-84796614D01*
X87602900Y-84911191D01*
X80572386Y-84911191D01*
X80613656Y-84856424D01*
X80616273Y-84853074D01*
X81153966Y-84189078D01*
X81156713Y-84185805D01*
X81717230Y-83541005D01*
X81720082Y-83537837D01*
X82302802Y-82912945D01*
X82305753Y-82909890D01*
X82909890Y-82305753D01*
X82912945Y-82302802D01*
X83537837Y-81720082D01*
X83541005Y-81717230D01*
X84185805Y-81156713D01*
X84189078Y-81153966D01*
X84853074Y-80616273D01*
X84856424Y-80613656D01*
X85538809Y-80099441D01*
X85542210Y-80096970D01*
X86242124Y-79606886D01*
X86245630Y-79604521D01*
X86962198Y-79139176D01*
X86965782Y-79136936D01*
X87698203Y-78696853D01*
X87701851Y-78694747D01*
X88449130Y-78280524D01*
X88452887Y-78278526D01*
X89214161Y-77890638D01*
X89218022Y-77888754D01*
X89992322Y-77527692D01*
X89996237Y-77525949D01*
X90782748Y-77192095D01*
X90786689Y-77190504D01*
X90813688Y-77180140D01*
X90831564Y-77173279D01*
X90901205Y-77167632D01*
X90962844Y-77200532D01*
X90996910Y-77261534D01*
X91000000Y-77289043D01*
X91000000Y-84900000D01*
X109000000Y-84900000D01*
X109000000Y-84287691D01*
X114520200Y-84287691D01*
X114520200Y-84406309D01*
X114550901Y-84520886D01*
X114610211Y-84623613D01*
X114694087Y-84707489D01*
X114796814Y-84766799D01*
X114911391Y-84797500D01*
X114911394Y-84797500D01*
X115030006Y-84797500D01*
X115030009Y-84797500D01*
X115144586Y-84766799D01*
X115247313Y-84707489D01*
X115331189Y-84623613D01*
X115390499Y-84520886D01*
X115421200Y-84406309D01*
X115421200Y-84287691D01*
X115390499Y-84173114D01*
X115331189Y-84070387D01*
X115247313Y-83986511D01*
X115144586Y-83927201D01*
X115030009Y-83896500D01*
X114911391Y-83896500D01*
X114796814Y-83927201D01*
X114796812Y-83927201D01*
X114796812Y-83927202D01*
X114694087Y-83986511D01*
X114694084Y-83986513D01*
X114610213Y-84070384D01*
X114610211Y-84070387D01*
X114550901Y-84173114D01*
X114520200Y-84287691D01*
X109000000Y-84287691D01*
X109000000Y-77289043D01*
X109019685Y-77222004D01*
X109072489Y-77176249D01*
X109141647Y-77166305D01*
X109168430Y-77173277D01*
G37*
%TD.AperFunction*%
%TD*%
M02*
