%TF.GenerationSoftware,KiCad,Pcbnew,10.0.6*%
%TF.CreationDate,2026-09-09T21:08:25+08:00*%
%TF.ProjectId,JXBadge_V1,4a584261-6467-4655-9f56-312e6b696361,rev?*%
%TF.SameCoordinates,Original*%
%TF.FileFunction,Soldermask,Top*%
%TF.FilePolarity,Negative*%
%FSLAX46Y46*%
G04 Gerber Fmt 4.6, Leading zero omitted, Abs format (unit mm)*
G04 Created by KiCad (PCBNEW 10.0.6) date 2026-09-09 21:08:25*
%MOMM*%
%LPD*%
G01*
G04 APERTURE LIST*
G04 APERTURE END LIST*
G36*
X105049850Y-123332000D02*
G01*
X104243350Y-123332000D01*
X104243350Y-122468000D01*
X105049850Y-122468000D01*
X105049850Y-123332000D01*
G37*
G36*
X106556650Y-123332000D02*
G01*
X105750150Y-123332000D01*
X105750150Y-122468000D01*
X106556650Y-122468000D01*
X106556650Y-123332000D01*
G37*
G36*
X108549850Y-121432000D02*
G01*
X107743350Y-121432000D01*
X107743350Y-120568000D01*
X108549850Y-120568000D01*
X108549850Y-121432000D01*
G37*
G36*
X110056650Y-121432000D02*
G01*
X109250150Y-121432000D01*
X109250150Y-120568000D01*
X110056650Y-120568000D01*
X110056650Y-121432000D01*
G37*
G36*
X92350000Y-120800000D02*
G01*
X91450000Y-120800000D01*
X91450000Y-120000000D01*
X92350000Y-120000000D01*
X92350000Y-120800000D01*
G37*
G36*
X95060100Y-120025000D02*
G01*
X93060100Y-120025000D01*
X93060100Y-117525000D01*
X95060100Y-117525000D01*
X95060100Y-120025000D01*
G37*
G36*
X87890285Y-118043060D02*
G01*
X88071397Y-118118079D01*
X88234393Y-118226990D01*
X88373010Y-118365607D01*
X88481921Y-118528603D01*
X88556940Y-118709715D01*
X88595185Y-118901983D01*
X88595185Y-119098017D01*
X88556940Y-119290285D01*
X88481921Y-119471397D01*
X88373010Y-119634393D01*
X88234393Y-119773010D01*
X88071397Y-119881921D01*
X87890285Y-119956940D01*
X87698017Y-119995185D01*
X87501983Y-119995185D01*
X87309715Y-119956940D01*
X87128603Y-119881921D01*
X86965607Y-119773010D01*
X86826990Y-119634393D01*
X86718079Y-119471397D01*
X86643060Y-119290285D01*
X86604815Y-119098017D01*
X86604815Y-118901983D01*
X86643060Y-118709715D01*
X86718079Y-118528603D01*
X86826990Y-118365607D01*
X86965607Y-118226990D01*
X87128603Y-118118079D01*
X87309715Y-118043060D01*
X87501983Y-118004815D01*
X87698017Y-118004815D01*
X87890285Y-118043060D01*
G37*
G36*
X106940100Y-119990000D02*
G01*
X104940100Y-119990000D01*
X104940100Y-117490000D01*
X106940100Y-117490000D01*
X106940100Y-119990000D01*
G37*
G36*
X110191342Y-118538060D02*
G01*
X110304381Y-118603323D01*
X110396677Y-118695619D01*
X110461940Y-118808658D01*
X110495722Y-118934737D01*
X110495722Y-119065263D01*
X110461940Y-119191342D01*
X110396677Y-119304381D01*
X110304381Y-119396677D01*
X110191342Y-119461940D01*
X110065263Y-119495722D01*
X109934737Y-119495722D01*
X109808658Y-119461940D01*
X109695619Y-119396677D01*
X109603323Y-119304381D01*
X109538060Y-119191342D01*
X109504278Y-119065263D01*
X109504278Y-118934737D01*
X109538060Y-118808658D01*
X109603323Y-118695619D01*
X109695619Y-118603323D01*
X109808658Y-118538060D01*
X109934737Y-118504278D01*
X110065263Y-118504278D01*
X110191342Y-118538060D01*
G37*
G36*
X92350000Y-119400000D02*
G01*
X91450000Y-119400000D01*
X91450000Y-118600000D01*
X92350000Y-118600000D01*
X92350000Y-119400000D01*
G37*
G36*
X112391342Y-118438060D02*
G01*
X112504381Y-118503323D01*
X112596677Y-118595619D01*
X112661940Y-118708658D01*
X112695722Y-118834737D01*
X112695722Y-118965263D01*
X112661940Y-119091342D01*
X112596677Y-119204381D01*
X112504381Y-119296677D01*
X112391342Y-119361940D01*
X112265263Y-119395722D01*
X112134737Y-119395722D01*
X112008658Y-119361940D01*
X111895619Y-119296677D01*
X111803323Y-119204381D01*
X111738060Y-119091342D01*
X111704278Y-118965263D01*
X111704278Y-118834737D01*
X111738060Y-118708658D01*
X111803323Y-118595619D01*
X111895619Y-118503323D01*
X112008658Y-118438060D01*
X112134737Y-118404278D01*
X112265263Y-118404278D01*
X112391342Y-118438060D01*
G37*
G36*
X90749850Y-117432000D02*
G01*
X89943350Y-117432000D01*
X89943350Y-116568000D01*
X90749850Y-116568000D01*
X90749850Y-117432000D01*
G37*
G36*
X92256650Y-117432000D02*
G01*
X91450150Y-117432000D01*
X91450150Y-116568000D01*
X92256650Y-116568000D01*
X92256650Y-117432000D01*
G37*
G36*
X85491342Y-115938060D02*
G01*
X85604381Y-116003323D01*
X85696677Y-116095619D01*
X85761940Y-116208658D01*
X85795722Y-116334737D01*
X85795722Y-116465263D01*
X85761940Y-116591342D01*
X85696677Y-116704381D01*
X85604381Y-116796677D01*
X85491342Y-116861940D01*
X85365263Y-116895722D01*
X85234737Y-116895722D01*
X85108658Y-116861940D01*
X84995619Y-116796677D01*
X84903323Y-116704381D01*
X84838060Y-116591342D01*
X84804278Y-116465263D01*
X84804278Y-116334737D01*
X84838060Y-116208658D01*
X84903323Y-116095619D01*
X84995619Y-116003323D01*
X85108658Y-115938060D01*
X85234737Y-115904278D01*
X85365263Y-115904278D01*
X85491342Y-115938060D01*
G37*
G36*
X87791342Y-115938060D02*
G01*
X87904381Y-116003323D01*
X87996677Y-116095619D01*
X88061940Y-116208658D01*
X88095722Y-116334737D01*
X88095722Y-116465263D01*
X88061940Y-116591342D01*
X87996677Y-116704381D01*
X87904381Y-116796677D01*
X87791342Y-116861940D01*
X87665263Y-116895722D01*
X87534737Y-116895722D01*
X87408658Y-116861940D01*
X87295619Y-116796677D01*
X87203323Y-116704381D01*
X87138060Y-116591342D01*
X87104278Y-116465263D01*
X87104278Y-116334737D01*
X87138060Y-116208658D01*
X87203323Y-116095619D01*
X87295619Y-116003323D01*
X87408658Y-115938060D01*
X87534737Y-115904278D01*
X87665263Y-115904278D01*
X87791342Y-115938060D01*
G37*
G36*
X95900100Y-116825000D02*
G01*
X95600100Y-116825000D01*
X95600100Y-115575000D01*
X95900100Y-115575000D01*
X95900100Y-116825000D01*
G37*
G36*
X96400000Y-116825000D02*
G01*
X96100000Y-116825000D01*
X96100000Y-115575000D01*
X96400000Y-115575000D01*
X96400000Y-116825000D01*
G37*
G36*
X96900100Y-116825000D02*
G01*
X96600100Y-116825000D01*
X96600100Y-115575000D01*
X96900100Y-115575000D01*
X96900100Y-116825000D01*
G37*
G36*
X97400000Y-116825000D02*
G01*
X97100000Y-116825000D01*
X97100000Y-115575000D01*
X97400000Y-115575000D01*
X97400000Y-116825000D01*
G37*
G36*
X97900100Y-116825000D02*
G01*
X97600100Y-116825000D01*
X97600100Y-115575000D01*
X97900100Y-115575000D01*
X97900100Y-116825000D01*
G37*
G36*
X98400000Y-116825000D02*
G01*
X98100000Y-116825000D01*
X98100000Y-115575000D01*
X98400000Y-115575000D01*
X98400000Y-116825000D01*
G37*
G36*
X98900100Y-116825000D02*
G01*
X98600100Y-116825000D01*
X98600100Y-115575000D01*
X98900100Y-115575000D01*
X98900100Y-116825000D01*
G37*
G36*
X99400000Y-116825000D02*
G01*
X99100000Y-116825000D01*
X99100000Y-115575000D01*
X99400000Y-115575000D01*
X99400000Y-116825000D01*
G37*
G36*
X99900100Y-116825000D02*
G01*
X99600100Y-116825000D01*
X99600100Y-115575000D01*
X99900100Y-115575000D01*
X99900100Y-116825000D01*
G37*
G36*
X100400000Y-116825000D02*
G01*
X100100000Y-116825000D01*
X100100000Y-115575000D01*
X100400000Y-115575000D01*
X100400000Y-116825000D01*
G37*
G36*
X100900100Y-116825000D02*
G01*
X100600100Y-116825000D01*
X100600100Y-115575000D01*
X100900100Y-115575000D01*
X100900100Y-116825000D01*
G37*
G36*
X101400000Y-116825000D02*
G01*
X101100000Y-116825000D01*
X101100000Y-115575000D01*
X101400000Y-115575000D01*
X101400000Y-116825000D01*
G37*
G36*
X101899900Y-116825000D02*
G01*
X101599900Y-116825000D01*
X101599900Y-115575000D01*
X101899900Y-115575000D01*
X101899900Y-116825000D01*
G37*
G36*
X102400000Y-116825000D02*
G01*
X102100000Y-116825000D01*
X102100000Y-115575000D01*
X102400000Y-115575000D01*
X102400000Y-116825000D01*
G37*
G36*
X102899900Y-116825000D02*
G01*
X102599900Y-116825000D01*
X102599900Y-115575000D01*
X102899900Y-115575000D01*
X102899900Y-116825000D01*
G37*
G36*
X103400000Y-116825000D02*
G01*
X103100000Y-116825000D01*
X103100000Y-115575000D01*
X103400000Y-115575000D01*
X103400000Y-116825000D01*
G37*
G36*
X103899900Y-116825000D02*
G01*
X103599900Y-116825000D01*
X103599900Y-115575000D01*
X103899900Y-115575000D01*
X103899900Y-116825000D01*
G37*
G36*
X104400000Y-116825000D02*
G01*
X104100000Y-116825000D01*
X104100000Y-115575000D01*
X104400000Y-115575000D01*
X104400000Y-116825000D01*
G37*
G36*
X114200000Y-115035000D02*
G01*
X113000000Y-115035000D01*
X113000000Y-113835000D01*
X114200000Y-113835000D01*
X114200000Y-115035000D01*
G37*
G36*
X94950000Y-114900000D02*
G01*
X94050000Y-114900000D01*
X94050000Y-114100000D01*
X94950000Y-114100000D01*
X94950000Y-114900000D01*
G37*
G36*
X92079200Y-114750000D02*
G01*
X91079200Y-114750000D01*
X91079200Y-113950000D01*
X92079200Y-113950000D01*
X92079200Y-114750000D01*
G37*
G36*
X85862400Y-114650000D02*
G01*
X84792400Y-114650000D01*
X84792400Y-114050000D01*
X85862400Y-114050000D01*
X85862400Y-114650000D01*
G37*
G36*
X104391342Y-113638060D02*
G01*
X104504381Y-113703323D01*
X104596677Y-113795619D01*
X104661940Y-113908658D01*
X104695722Y-114034737D01*
X104695722Y-114165263D01*
X104661940Y-114291342D01*
X104596677Y-114404381D01*
X104504381Y-114496677D01*
X104391342Y-114561940D01*
X104265263Y-114595722D01*
X104134737Y-114595722D01*
X104008658Y-114561940D01*
X103895619Y-114496677D01*
X103803323Y-114404381D01*
X103738060Y-114291342D01*
X103704278Y-114165263D01*
X103704278Y-114034737D01*
X103738060Y-113908658D01*
X103803323Y-113795619D01*
X103895619Y-113703323D01*
X104008658Y-113638060D01*
X104134737Y-113604278D01*
X104265263Y-113604278D01*
X104391342Y-113638060D01*
G37*
G36*
X81005160Y-113699999D02*
G01*
X81119129Y-113897399D01*
X81119129Y-113897401D01*
X81121592Y-113901666D01*
X80082362Y-114501666D01*
X79888140Y-114165263D01*
X79784824Y-113986316D01*
X79784822Y-113986311D01*
X79782362Y-113982050D01*
X80035645Y-113835817D01*
X80817329Y-113384511D01*
X80817330Y-113384510D01*
X80821592Y-113382050D01*
X81005160Y-113699999D01*
G37*
G36*
X108144800Y-114150000D02*
G01*
X107074800Y-114150000D01*
X107074800Y-113550000D01*
X108144800Y-113550000D01*
X108144800Y-114150000D01*
G37*
G36*
X89779200Y-113800000D02*
G01*
X88779200Y-113800000D01*
X88779200Y-113000000D01*
X89779200Y-113000000D01*
X89779200Y-113800000D01*
G37*
G36*
X87842800Y-113700000D02*
G01*
X86772800Y-113700000D01*
X86772800Y-113100000D01*
X87842800Y-113100000D01*
X87842800Y-113700000D01*
G37*
G36*
X94950000Y-113500000D02*
G01*
X94050000Y-113500000D01*
X94050000Y-112700000D01*
X94950000Y-112700000D01*
X94950000Y-113500000D01*
G37*
G36*
X118491342Y-112438060D02*
G01*
X118604381Y-112503323D01*
X118696677Y-112595619D01*
X118761940Y-112708658D01*
X118795722Y-112834737D01*
X118795722Y-112965263D01*
X118761940Y-113091342D01*
X118696677Y-113204381D01*
X118604381Y-113296677D01*
X118491342Y-113361940D01*
X118365263Y-113395722D01*
X118234737Y-113395722D01*
X118108658Y-113361940D01*
X117995619Y-113296677D01*
X117903323Y-113204381D01*
X117838060Y-113091342D01*
X117804278Y-112965263D01*
X117804278Y-112834737D01*
X117838060Y-112708658D01*
X117903323Y-112595619D01*
X117995619Y-112503323D01*
X118108658Y-112438060D01*
X118234737Y-112404278D01*
X118365263Y-112404278D01*
X118491342Y-112438060D01*
G37*
G36*
X82561240Y-112695208D02*
G01*
X81435406Y-113345208D01*
X80835406Y-112305978D01*
X81104153Y-112150817D01*
X81956973Y-111658440D01*
X81956979Y-111658437D01*
X81961240Y-111655978D01*
X82561240Y-112695208D01*
G37*
G36*
X110125200Y-113200000D02*
G01*
X109055200Y-113200000D01*
X109055200Y-112600000D01*
X110125200Y-112600000D01*
X110125200Y-113200000D01*
G37*
G36*
X92079200Y-112850000D02*
G01*
X91079200Y-112850000D01*
X91079200Y-112050000D01*
X92079200Y-112050000D01*
X92079200Y-112850000D01*
G37*
G36*
X85862400Y-112750000D02*
G01*
X84792400Y-112750000D01*
X84792400Y-112150000D01*
X85862400Y-112150000D01*
X85862400Y-112750000D01*
G37*
G36*
X80318133Y-112133821D02*
G01*
X80385956Y-112172979D01*
X80441334Y-112228357D01*
X80480492Y-112296180D01*
X80500761Y-112371827D01*
X80500761Y-112450143D01*
X80480492Y-112525790D01*
X80441334Y-112593613D01*
X80385956Y-112648991D01*
X80318133Y-112688149D01*
X80242486Y-112708418D01*
X80164170Y-112708418D01*
X80088523Y-112688149D01*
X80020700Y-112648991D01*
X79965322Y-112593613D01*
X79926164Y-112525790D01*
X79905895Y-112450143D01*
X79905895Y-112371827D01*
X79926164Y-112296180D01*
X79965322Y-112228357D01*
X80020700Y-112172979D01*
X80088523Y-112133821D01*
X80164170Y-112113552D01*
X80242486Y-112113552D01*
X80318133Y-112133821D01*
G37*
G36*
X104232000Y-112356650D02*
G01*
X103368000Y-112356650D01*
X103368000Y-111550150D01*
X104232000Y-111550150D01*
X104232000Y-112356650D01*
G37*
G36*
X105832000Y-112356650D02*
G01*
X104968000Y-112356650D01*
X104968000Y-111550150D01*
X105832000Y-111550150D01*
X105832000Y-112356650D01*
G37*
G36*
X108144800Y-112250000D02*
G01*
X107074800Y-112250000D01*
X107074800Y-111650000D01*
X108144800Y-111650000D01*
X108144800Y-112250000D01*
G37*
G36*
X100105000Y-112225000D02*
G01*
X98695000Y-112225000D01*
X98695000Y-110875000D01*
X100105000Y-110875000D01*
X100105000Y-112225000D01*
G37*
G36*
X102105000Y-112225000D02*
G01*
X100695000Y-112225000D01*
X100695000Y-110875000D01*
X102105000Y-110875000D01*
X102105000Y-112225000D01*
G37*
G36*
X114200000Y-111765000D02*
G01*
X113000000Y-111765000D01*
X113000000Y-110565000D01*
X114200000Y-110565000D01*
X114200000Y-111765000D01*
G37*
G36*
X79468133Y-110661578D02*
G01*
X79535956Y-110700736D01*
X79591334Y-110756114D01*
X79630492Y-110823937D01*
X79650761Y-110899584D01*
X79650761Y-110977900D01*
X79630492Y-111053547D01*
X79591334Y-111121370D01*
X79535956Y-111176748D01*
X79468133Y-111215906D01*
X79392486Y-111236175D01*
X79314170Y-111236175D01*
X79238523Y-111215906D01*
X79170700Y-111176748D01*
X79115322Y-111121370D01*
X79076164Y-111053547D01*
X79055895Y-110977900D01*
X79055895Y-110899584D01*
X79076164Y-110823937D01*
X79115322Y-110756114D01*
X79170700Y-110700736D01*
X79238523Y-110661578D01*
X79314170Y-110641309D01*
X79392486Y-110641309D01*
X79468133Y-110661578D01*
G37*
G36*
X91349850Y-111032000D02*
G01*
X90543350Y-111032000D01*
X90543350Y-110168000D01*
X91349850Y-110168000D01*
X91349850Y-111032000D01*
G37*
G36*
X92856650Y-111032000D02*
G01*
X92050150Y-111032000D01*
X92050150Y-110168000D01*
X92856650Y-110168000D01*
X92856650Y-111032000D01*
G37*
G36*
X84800000Y-110950000D02*
G01*
X84000000Y-110950000D01*
X84000000Y-110050000D01*
X84800000Y-110050000D01*
X84800000Y-110950000D01*
G37*
G36*
X86200000Y-110950000D02*
G01*
X85400000Y-110950000D01*
X85400000Y-110050000D01*
X86200000Y-110050000D01*
X86200000Y-110950000D01*
G37*
G36*
X104232000Y-110849850D02*
G01*
X103368000Y-110849850D01*
X103368000Y-110043350D01*
X104232000Y-110043350D01*
X104232000Y-110849850D01*
G37*
G36*
X105832000Y-110849850D02*
G01*
X104968000Y-110849850D01*
X104968000Y-110043350D01*
X105832000Y-110043350D01*
X105832000Y-110849850D01*
G37*
G36*
X88200000Y-110800000D02*
G01*
X87400000Y-110800000D01*
X87400000Y-109900000D01*
X88200000Y-109900000D01*
X88200000Y-110800000D01*
G37*
G36*
X89600000Y-110800000D02*
G01*
X88800000Y-110800000D01*
X88800000Y-109900000D01*
X89600000Y-109900000D01*
X89600000Y-110800000D01*
G37*
G36*
X78721783Y-109745075D02*
G01*
X78819129Y-109913683D01*
X78819129Y-109913685D01*
X78821592Y-109917950D01*
X77782362Y-110517950D01*
X77580790Y-110168817D01*
X77484824Y-110002600D01*
X77484822Y-110002595D01*
X77482362Y-109998334D01*
X77831980Y-109796482D01*
X78517329Y-109400795D01*
X78517330Y-109400794D01*
X78521592Y-109398334D01*
X78721783Y-109745075D01*
G37*
G36*
X80886240Y-109794022D02*
G01*
X79760406Y-110444022D01*
X79160406Y-109404792D01*
X79362135Y-109288324D01*
X80281973Y-108757254D01*
X80281979Y-108757251D01*
X80286240Y-108754792D01*
X80886240Y-109794022D01*
G37*
G36*
X97700000Y-109750000D02*
G01*
X96900000Y-109750000D01*
X96900000Y-108850000D01*
X97700000Y-108850000D01*
X97700000Y-109750000D01*
G37*
G36*
X99100000Y-109750000D02*
G01*
X98300000Y-109750000D01*
X98300000Y-108850000D01*
X99100000Y-108850000D01*
X99100000Y-109750000D01*
G37*
G36*
X108300000Y-109750000D02*
G01*
X107500000Y-109750000D01*
X107500000Y-108850000D01*
X108300000Y-108850000D01*
X108300000Y-109750000D01*
G37*
G36*
X109700000Y-109750000D02*
G01*
X108900000Y-109750000D01*
X108900000Y-108850000D01*
X109700000Y-108850000D01*
X109700000Y-109750000D01*
G37*
G36*
X111532000Y-109456650D02*
G01*
X110668000Y-109456650D01*
X110668000Y-108650150D01*
X111532000Y-108650150D01*
X111532000Y-109456650D01*
G37*
G36*
X85432000Y-109356650D02*
G01*
X84568000Y-109356650D01*
X84568000Y-108550150D01*
X85432000Y-108550150D01*
X85432000Y-109356650D01*
G37*
G36*
X103601851Y-108702855D02*
G01*
X103614017Y-108710983D01*
X103622145Y-108723149D01*
X103625000Y-108737500D01*
X103625000Y-109262500D01*
X103622145Y-109276851D01*
X103614017Y-109289017D01*
X103601851Y-109297145D01*
X103587500Y-109300000D01*
X103412500Y-109300000D01*
X103398149Y-109297145D01*
X103385983Y-109289017D01*
X103377855Y-109276851D01*
X103375000Y-109262500D01*
X103375000Y-108737500D01*
X103377855Y-108723149D01*
X103385983Y-108710983D01*
X103398149Y-108702855D01*
X103412500Y-108700000D01*
X103587500Y-108700000D01*
X103601851Y-108702855D01*
G37*
G36*
X104101851Y-108702855D02*
G01*
X104114017Y-108710983D01*
X104122145Y-108723149D01*
X104125000Y-108737500D01*
X104125000Y-109262500D01*
X104122145Y-109276851D01*
X104114017Y-109289017D01*
X104101851Y-109297145D01*
X104087500Y-109300000D01*
X103912500Y-109300000D01*
X103898149Y-109297145D01*
X103885983Y-109289017D01*
X103877855Y-109276851D01*
X103875000Y-109262500D01*
X103875000Y-108737500D01*
X103877855Y-108723149D01*
X103885983Y-108710983D01*
X103898149Y-108702855D01*
X103912500Y-108700000D01*
X104087500Y-108700000D01*
X104101851Y-108702855D01*
G37*
G36*
X104601851Y-108702855D02*
G01*
X104614017Y-108710983D01*
X104622145Y-108723149D01*
X104625000Y-108737500D01*
X104625000Y-109262500D01*
X104622145Y-109276851D01*
X104614017Y-109289017D01*
X104601851Y-109297145D01*
X104587500Y-109300000D01*
X104412500Y-109300000D01*
X104398149Y-109297145D01*
X104385983Y-109289017D01*
X104377855Y-109276851D01*
X104375000Y-109262500D01*
X104375000Y-108737500D01*
X104377855Y-108723149D01*
X104385983Y-108710983D01*
X104398149Y-108702855D01*
X104412500Y-108700000D01*
X104587500Y-108700000D01*
X104601851Y-108702855D01*
G37*
G36*
X105101851Y-108702855D02*
G01*
X105114017Y-108710983D01*
X105122145Y-108723149D01*
X105125000Y-108737500D01*
X105125000Y-109262500D01*
X105122145Y-109276851D01*
X105114017Y-109289017D01*
X105101851Y-109297145D01*
X105087500Y-109300000D01*
X104912500Y-109300000D01*
X104898149Y-109297145D01*
X104885983Y-109289017D01*
X104877855Y-109276851D01*
X104875000Y-109262500D01*
X104875000Y-108737500D01*
X104877855Y-108723149D01*
X104885983Y-108710983D01*
X104898149Y-108702855D01*
X104912500Y-108700000D01*
X105087500Y-108700000D01*
X105101851Y-108702855D01*
G37*
G36*
X105601851Y-108702855D02*
G01*
X105614017Y-108710983D01*
X105622145Y-108723149D01*
X105625000Y-108737500D01*
X105625000Y-109262500D01*
X105622145Y-109276851D01*
X105614017Y-109289017D01*
X105601851Y-109297145D01*
X105587500Y-109300000D01*
X105412500Y-109300000D01*
X105398149Y-109297145D01*
X105385983Y-109289017D01*
X105377855Y-109276851D01*
X105375000Y-109262500D01*
X105375000Y-108737500D01*
X105377855Y-108723149D01*
X105385983Y-108710983D01*
X105398149Y-108702855D01*
X105412500Y-108700000D01*
X105587500Y-108700000D01*
X105601851Y-108702855D01*
G37*
G36*
X95700000Y-109100000D02*
G01*
X94800000Y-109100000D01*
X94800000Y-108300000D01*
X95700000Y-108300000D01*
X95700000Y-109100000D01*
G37*
G36*
X87539158Y-108407567D02*
G01*
X87614805Y-108427836D01*
X87682628Y-108466994D01*
X87738006Y-108522372D01*
X87777164Y-108590195D01*
X87797433Y-108665842D01*
X87797433Y-108744158D01*
X87777164Y-108819805D01*
X87738006Y-108887628D01*
X87682628Y-108943006D01*
X87614805Y-108982164D01*
X87539158Y-109002433D01*
X87500000Y-109005000D01*
X87498363Y-109005000D01*
X86501637Y-109005000D01*
X86500000Y-109005000D01*
X86460842Y-109002433D01*
X86385195Y-108982164D01*
X86317372Y-108943006D01*
X86261994Y-108887628D01*
X86222836Y-108819805D01*
X86202567Y-108744158D01*
X86202567Y-108665842D01*
X86222836Y-108590195D01*
X86261994Y-108522372D01*
X86317372Y-108466994D01*
X86385195Y-108427836D01*
X86460842Y-108407567D01*
X86500000Y-108405000D01*
X87500000Y-108405000D01*
X87539158Y-108407567D01*
G37*
G36*
X93539158Y-108407567D02*
G01*
X93614805Y-108427836D01*
X93682628Y-108466994D01*
X93738006Y-108522372D01*
X93777164Y-108590195D01*
X93797433Y-108665842D01*
X93797433Y-108744158D01*
X93777164Y-108819805D01*
X93738006Y-108887628D01*
X93682628Y-108943006D01*
X93614805Y-108982164D01*
X93539158Y-109002433D01*
X93500000Y-109005000D01*
X93498363Y-109005000D01*
X92501637Y-109005000D01*
X92500000Y-109005000D01*
X92460842Y-109002433D01*
X92385195Y-108982164D01*
X92317372Y-108943006D01*
X92261994Y-108887628D01*
X92222836Y-108819805D01*
X92202567Y-108744158D01*
X92202567Y-108665842D01*
X92222836Y-108590195D01*
X92261994Y-108522372D01*
X92317372Y-108466994D01*
X92385195Y-108427836D01*
X92460842Y-108407567D01*
X92500000Y-108405000D01*
X93500000Y-108405000D01*
X93539158Y-108407567D01*
G37*
G36*
X91500000Y-108550000D02*
G01*
X88500000Y-108550000D01*
X88500000Y-105050000D01*
X91500000Y-105050000D01*
X91500000Y-108550000D01*
G37*
G36*
X82549850Y-108432000D02*
G01*
X81743350Y-108432000D01*
X81743350Y-107568000D01*
X82549850Y-107568000D01*
X82549850Y-108432000D01*
G37*
G36*
X84056650Y-108432000D02*
G01*
X83250150Y-108432000D01*
X83250150Y-107568000D01*
X84056650Y-107568000D01*
X84056650Y-108432000D01*
G37*
G36*
X104601851Y-106902855D02*
G01*
X104614017Y-106910983D01*
X104622145Y-106923149D01*
X104625000Y-106937500D01*
X104625000Y-108162500D01*
X104622145Y-108176851D01*
X104614017Y-108189017D01*
X104601851Y-108197145D01*
X104587500Y-108200000D01*
X104412500Y-108200000D01*
X104398149Y-108197145D01*
X104385983Y-108189017D01*
X104377855Y-108176851D01*
X104375000Y-108162500D01*
X104375000Y-106937500D01*
X104377855Y-106923149D01*
X104385983Y-106910983D01*
X104398149Y-106902855D01*
X104412500Y-106900000D01*
X104587500Y-106900000D01*
X104601851Y-106902855D01*
G37*
G36*
X111532000Y-107949850D02*
G01*
X110668000Y-107949850D01*
X110668000Y-107143350D01*
X111532000Y-107143350D01*
X111532000Y-107949850D01*
G37*
G36*
X98000000Y-107900000D02*
G01*
X97100000Y-107900000D01*
X97100000Y-107100000D01*
X98000000Y-107100000D01*
X98000000Y-107900000D01*
G37*
G36*
X85432000Y-107849850D02*
G01*
X84568000Y-107849850D01*
X84568000Y-107043350D01*
X85432000Y-107043350D01*
X85432000Y-107849850D01*
G37*
G36*
X100950000Y-107800000D02*
G01*
X100150000Y-107800000D01*
X100150000Y-106900000D01*
X100950000Y-106900000D01*
X100950000Y-107800000D01*
G37*
G36*
X102350000Y-107800000D02*
G01*
X101550000Y-107800000D01*
X101550000Y-106900000D01*
X102350000Y-106900000D01*
X102350000Y-107800000D01*
G37*
G36*
X103601851Y-106902855D02*
G01*
X103614017Y-106910983D01*
X103622145Y-106923149D01*
X103625000Y-106937500D01*
X103625000Y-107762500D01*
X103622145Y-107776851D01*
X103614017Y-107789017D01*
X103601851Y-107797145D01*
X103587500Y-107800000D01*
X103412500Y-107800000D01*
X103398149Y-107797145D01*
X103385983Y-107789017D01*
X103377855Y-107776851D01*
X103375000Y-107762500D01*
X103375000Y-106937500D01*
X103377855Y-106923149D01*
X103385983Y-106910983D01*
X103398149Y-106902855D01*
X103412500Y-106900000D01*
X103587500Y-106900000D01*
X103601851Y-106902855D01*
G37*
G36*
X104101851Y-106902855D02*
G01*
X104114017Y-106910983D01*
X104122145Y-106923149D01*
X104125000Y-106937500D01*
X104125000Y-107762500D01*
X104122145Y-107776851D01*
X104114017Y-107789017D01*
X104101851Y-107797145D01*
X104087500Y-107800000D01*
X103912500Y-107800000D01*
X103898149Y-107797145D01*
X103885983Y-107789017D01*
X103877855Y-107776851D01*
X103875000Y-107762500D01*
X103875000Y-106937500D01*
X103877855Y-106923149D01*
X103885983Y-106910983D01*
X103898149Y-106902855D01*
X103912500Y-106900000D01*
X104087500Y-106900000D01*
X104101851Y-106902855D01*
G37*
G36*
X105101851Y-106902855D02*
G01*
X105114017Y-106910983D01*
X105122145Y-106923149D01*
X105125000Y-106937500D01*
X105125000Y-107762500D01*
X105122145Y-107776851D01*
X105114017Y-107789017D01*
X105101851Y-107797145D01*
X105087500Y-107800000D01*
X104912500Y-107800000D01*
X104898149Y-107797145D01*
X104885983Y-107789017D01*
X104877855Y-107776851D01*
X104875000Y-107762500D01*
X104875000Y-106937500D01*
X104877855Y-106923149D01*
X104885983Y-106910983D01*
X104898149Y-106902855D01*
X104912500Y-106900000D01*
X105087500Y-106900000D01*
X105101851Y-106902855D01*
G37*
G36*
X105601851Y-106902855D02*
G01*
X105614017Y-106910983D01*
X105622145Y-106923149D01*
X105625000Y-106937500D01*
X105625000Y-107762500D01*
X105622145Y-107776851D01*
X105614017Y-107789017D01*
X105601851Y-107797145D01*
X105587500Y-107800000D01*
X105412500Y-107800000D01*
X105398149Y-107797145D01*
X105385983Y-107789017D01*
X105377855Y-107776851D01*
X105375000Y-107762500D01*
X105375000Y-106937500D01*
X105377855Y-106923149D01*
X105385983Y-106910983D01*
X105398149Y-106902855D01*
X105412500Y-106900000D01*
X105587500Y-106900000D01*
X105601851Y-106902855D01*
G37*
G36*
X107450000Y-107800000D02*
G01*
X106650000Y-107800000D01*
X106650000Y-106900000D01*
X107450000Y-106900000D01*
X107450000Y-107800000D01*
G37*
G36*
X108850000Y-107800000D02*
G01*
X108050000Y-107800000D01*
X108050000Y-106900000D01*
X108850000Y-106900000D01*
X108850000Y-107800000D01*
G37*
G36*
X87539158Y-107137567D02*
G01*
X87614805Y-107157836D01*
X87682628Y-107196994D01*
X87738006Y-107252372D01*
X87777164Y-107320195D01*
X87797433Y-107395842D01*
X87797433Y-107474158D01*
X87777164Y-107549805D01*
X87738006Y-107617628D01*
X87682628Y-107673006D01*
X87614805Y-107712164D01*
X87539158Y-107732433D01*
X87500000Y-107735000D01*
X87498363Y-107735000D01*
X86501637Y-107735000D01*
X86500000Y-107735000D01*
X86460842Y-107732433D01*
X86385195Y-107712164D01*
X86317372Y-107673006D01*
X86261994Y-107617628D01*
X86222836Y-107549805D01*
X86202567Y-107474158D01*
X86202567Y-107395842D01*
X86222836Y-107320195D01*
X86261994Y-107252372D01*
X86317372Y-107196994D01*
X86385195Y-107157836D01*
X86460842Y-107137567D01*
X86500000Y-107135000D01*
X87500000Y-107135000D01*
X87539158Y-107137567D01*
G37*
G36*
X93539158Y-107137567D02*
G01*
X93614805Y-107157836D01*
X93682628Y-107196994D01*
X93738006Y-107252372D01*
X93777164Y-107320195D01*
X93797433Y-107395842D01*
X93797433Y-107474158D01*
X93777164Y-107549805D01*
X93738006Y-107617628D01*
X93682628Y-107673006D01*
X93614805Y-107712164D01*
X93539158Y-107732433D01*
X93500000Y-107735000D01*
X93498363Y-107735000D01*
X92501637Y-107735000D01*
X92500000Y-107735000D01*
X92460842Y-107732433D01*
X92385195Y-107712164D01*
X92317372Y-107673006D01*
X92261994Y-107617628D01*
X92222836Y-107549805D01*
X92202567Y-107474158D01*
X92202567Y-107395842D01*
X92222836Y-107320195D01*
X92261994Y-107252372D01*
X92317372Y-107196994D01*
X92385195Y-107157836D01*
X92460842Y-107137567D01*
X92500000Y-107135000D01*
X93500000Y-107135000D01*
X93539158Y-107137567D01*
G37*
G36*
X95700000Y-107700000D02*
G01*
X94800000Y-107700000D01*
X94800000Y-106900000D01*
X95700000Y-106900000D01*
X95700000Y-107700000D01*
G37*
G36*
X114549850Y-107632000D02*
G01*
X113743350Y-107632000D01*
X113743350Y-106768000D01*
X114549850Y-106768000D01*
X114549850Y-107632000D01*
G37*
G36*
X116056650Y-107632000D02*
G01*
X115250150Y-107632000D01*
X115250150Y-106768000D01*
X116056650Y-106768000D01*
X116056650Y-107632000D01*
G37*
G36*
X117549850Y-106832000D02*
G01*
X116743350Y-106832000D01*
X116743350Y-105968000D01*
X117549850Y-105968000D01*
X117549850Y-106832000D01*
G37*
G36*
X119056650Y-106832000D02*
G01*
X118250150Y-106832000D01*
X118250150Y-105968000D01*
X119056650Y-105968000D01*
X119056650Y-106832000D01*
G37*
G36*
X98000000Y-106500000D02*
G01*
X97100000Y-106500000D01*
X97100000Y-105700000D01*
X98000000Y-105700000D01*
X98000000Y-106500000D01*
G37*
G36*
X87539158Y-105867567D02*
G01*
X87614805Y-105887836D01*
X87682628Y-105926994D01*
X87738006Y-105982372D01*
X87777164Y-106050195D01*
X87797433Y-106125842D01*
X87797433Y-106204158D01*
X87777164Y-106279805D01*
X87738006Y-106347628D01*
X87682628Y-106403006D01*
X87614805Y-106442164D01*
X87539158Y-106462433D01*
X87500000Y-106465000D01*
X87498363Y-106465000D01*
X86501637Y-106465000D01*
X86500000Y-106465000D01*
X86460842Y-106462433D01*
X86385195Y-106442164D01*
X86317372Y-106403006D01*
X86261994Y-106347628D01*
X86222836Y-106279805D01*
X86202567Y-106204158D01*
X86202567Y-106125842D01*
X86222836Y-106050195D01*
X86261994Y-105982372D01*
X86317372Y-105926994D01*
X86385195Y-105887836D01*
X86460842Y-105867567D01*
X86500000Y-105865000D01*
X87500000Y-105865000D01*
X87539158Y-105867567D01*
G37*
G36*
X93539158Y-105867567D02*
G01*
X93614805Y-105887836D01*
X93682628Y-105926994D01*
X93738006Y-105982372D01*
X93777164Y-106050195D01*
X93797433Y-106125842D01*
X93797433Y-106204158D01*
X93777164Y-106279805D01*
X93738006Y-106347628D01*
X93682628Y-106403006D01*
X93614805Y-106442164D01*
X93539158Y-106462433D01*
X93500000Y-106465000D01*
X93498363Y-106465000D01*
X92501637Y-106465000D01*
X92500000Y-106465000D01*
X92460842Y-106462433D01*
X92385195Y-106442164D01*
X92317372Y-106403006D01*
X92261994Y-106347628D01*
X92222836Y-106279805D01*
X92202567Y-106204158D01*
X92202567Y-106125842D01*
X92222836Y-106050195D01*
X92261994Y-105982372D01*
X92317372Y-105926994D01*
X92385195Y-105887836D01*
X92460842Y-105867567D01*
X92500000Y-105865000D01*
X93500000Y-105865000D01*
X93539158Y-105867567D01*
G37*
G36*
X82249850Y-106332000D02*
G01*
X81443350Y-106332000D01*
X81443350Y-105468000D01*
X82249850Y-105468000D01*
X82249850Y-106332000D01*
G37*
G36*
X83756650Y-106332000D02*
G01*
X82950150Y-106332000D01*
X82950150Y-105468000D01*
X83756650Y-105468000D01*
X83756650Y-106332000D01*
G37*
G36*
X100105000Y-106275000D02*
G01*
X98695000Y-106275000D01*
X98695000Y-104925000D01*
X100105000Y-104925000D01*
X100105000Y-106275000D01*
G37*
G36*
X102105000Y-106275000D02*
G01*
X100695000Y-106275000D01*
X100695000Y-104925000D01*
X102105000Y-104925000D01*
X102105000Y-106275000D01*
G37*
G36*
X85432000Y-106256650D02*
G01*
X84568000Y-106256650D01*
X84568000Y-105450150D01*
X85432000Y-105450150D01*
X85432000Y-106256650D01*
G37*
G36*
X104100000Y-106250000D02*
G01*
X102900000Y-106250000D01*
X102900000Y-104450000D01*
X104100000Y-104450000D01*
X104100000Y-106250000D01*
G37*
G36*
X106100000Y-106250000D02*
G01*
X104900000Y-106250000D01*
X104900000Y-104450000D01*
X106100000Y-104450000D01*
X106100000Y-106250000D01*
G37*
G36*
X108300000Y-106050000D02*
G01*
X107500000Y-106050000D01*
X107500000Y-105150000D01*
X108300000Y-105150000D01*
X108300000Y-106050000D01*
G37*
G36*
X109700000Y-106050000D02*
G01*
X108900000Y-106050000D01*
X108900000Y-105150000D01*
X109700000Y-105150000D01*
X109700000Y-106050000D01*
G37*
G36*
X111700000Y-105250000D02*
G01*
X110400000Y-105250000D01*
X110400000Y-103850000D01*
X111700000Y-103850000D01*
X111700000Y-105250000D01*
G37*
G36*
X114600000Y-105250000D02*
G01*
X113300000Y-105250000D01*
X113300000Y-103850000D01*
X114600000Y-103850000D01*
X114600000Y-105250000D01*
G37*
G36*
X87539158Y-104597567D02*
G01*
X87614805Y-104617836D01*
X87682628Y-104656994D01*
X87738006Y-104712372D01*
X87777164Y-104780195D01*
X87797433Y-104855842D01*
X87797433Y-104934158D01*
X87777164Y-105009805D01*
X87738006Y-105077628D01*
X87682628Y-105133006D01*
X87614805Y-105172164D01*
X87539158Y-105192433D01*
X87500000Y-105195000D01*
X87498363Y-105195000D01*
X86501637Y-105195000D01*
X86500000Y-105195000D01*
X86460842Y-105192433D01*
X86385195Y-105172164D01*
X86317372Y-105133006D01*
X86261994Y-105077628D01*
X86222836Y-105009805D01*
X86202567Y-104934158D01*
X86202567Y-104855842D01*
X86222836Y-104780195D01*
X86261994Y-104712372D01*
X86317372Y-104656994D01*
X86385195Y-104617836D01*
X86460842Y-104597567D01*
X86500000Y-104595000D01*
X87500000Y-104595000D01*
X87539158Y-104597567D01*
G37*
G36*
X93539158Y-104597567D02*
G01*
X93614805Y-104617836D01*
X93682628Y-104656994D01*
X93738006Y-104712372D01*
X93777164Y-104780195D01*
X93797433Y-104855842D01*
X93797433Y-104934158D01*
X93777164Y-105009805D01*
X93738006Y-105077628D01*
X93682628Y-105133006D01*
X93614805Y-105172164D01*
X93539158Y-105192433D01*
X93500000Y-105195000D01*
X93498363Y-105195000D01*
X92501637Y-105195000D01*
X92500000Y-105195000D01*
X92460842Y-105192433D01*
X92385195Y-105172164D01*
X92317372Y-105133006D01*
X92261994Y-105077628D01*
X92222836Y-105009805D01*
X92202567Y-104934158D01*
X92202567Y-104855842D01*
X92222836Y-104780195D01*
X92261994Y-104712372D01*
X92317372Y-104656994D01*
X92385195Y-104617836D01*
X92460842Y-104597567D01*
X92500000Y-104595000D01*
X93500000Y-104595000D01*
X93539158Y-104597567D01*
G37*
G36*
X118635686Y-103725341D02*
G01*
X118689577Y-103727989D01*
X118696210Y-103729308D01*
X118710316Y-103730233D01*
X118737562Y-103737533D01*
X118806099Y-103751166D01*
X118838448Y-103764565D01*
X118861610Y-103770772D01*
X118882377Y-103782762D01*
X118914722Y-103796160D01*
X118972816Y-103834977D01*
X118997257Y-103849088D01*
X119003946Y-103855777D01*
X119012481Y-103861480D01*
X119095619Y-103944618D01*
X119101321Y-103953152D01*
X119108012Y-103959843D01*
X119122124Y-103984286D01*
X119160939Y-104042377D01*
X119174335Y-104074718D01*
X119186328Y-104095490D01*
X119192535Y-104118655D01*
X119205933Y-104151000D01*
X119219565Y-104219533D01*
X119226867Y-104246784D01*
X119226867Y-104256241D01*
X119228870Y-104266311D01*
X119228870Y-104383888D01*
X119226867Y-104393957D01*
X119226867Y-104403416D01*
X119219564Y-104430669D01*
X119205933Y-104499199D01*
X119192535Y-104531541D01*
X119186328Y-104554710D01*
X119174334Y-104575483D01*
X119160939Y-104607822D01*
X119122128Y-104665905D01*
X119108012Y-104690357D01*
X119101319Y-104697049D01*
X119095619Y-104705581D01*
X119012481Y-104788719D01*
X119003949Y-104794419D01*
X118997257Y-104801112D01*
X118972805Y-104815228D01*
X118914722Y-104854039D01*
X118882383Y-104867434D01*
X118861610Y-104879428D01*
X118838441Y-104885635D01*
X118806099Y-104899033D01*
X118737576Y-104912662D01*
X118710316Y-104919967D01*
X118696203Y-104920891D01*
X118689577Y-104922210D01*
X118635691Y-104924858D01*
X118632000Y-104925100D01*
X118630768Y-104925100D01*
X117833232Y-104925100D01*
X117832000Y-104925100D01*
X117828308Y-104924858D01*
X117774422Y-104922210D01*
X117767795Y-104920891D01*
X117753684Y-104919967D01*
X117726426Y-104912663D01*
X117657900Y-104899033D01*
X117625555Y-104885635D01*
X117602390Y-104879428D01*
X117581618Y-104867435D01*
X117549277Y-104854039D01*
X117491186Y-104815224D01*
X117466743Y-104801112D01*
X117460052Y-104794421D01*
X117451518Y-104788719D01*
X117368380Y-104705581D01*
X117362677Y-104697046D01*
X117355988Y-104690357D01*
X117341877Y-104665916D01*
X117303060Y-104607822D01*
X117289662Y-104575477D01*
X117277672Y-104554710D01*
X117271465Y-104531548D01*
X117258066Y-104499199D01*
X117244433Y-104430663D01*
X117237133Y-104403416D01*
X117237133Y-104393958D01*
X117235130Y-104383888D01*
X117235130Y-104266311D01*
X117237133Y-104256240D01*
X117237133Y-104246784D01*
X117244433Y-104219539D01*
X117258066Y-104151000D01*
X117271466Y-104118648D01*
X117277672Y-104095490D01*
X117289660Y-104074724D01*
X117303060Y-104042377D01*
X117341881Y-103984275D01*
X117355988Y-103959843D01*
X117362675Y-103953155D01*
X117368380Y-103944618D01*
X117451518Y-103861480D01*
X117460055Y-103855775D01*
X117466743Y-103849088D01*
X117491175Y-103834981D01*
X117549277Y-103796160D01*
X117581624Y-103782760D01*
X117602390Y-103770772D01*
X117625548Y-103764566D01*
X117657900Y-103751166D01*
X117726440Y-103737532D01*
X117753684Y-103730233D01*
X117767787Y-103729308D01*
X117774422Y-103727989D01*
X117828313Y-103725341D01*
X117832000Y-103725100D01*
X118632000Y-103725100D01*
X118635686Y-103725341D01*
G37*
G36*
X122715486Y-103725341D02*
G01*
X122769377Y-103727989D01*
X122776010Y-103729308D01*
X122790116Y-103730233D01*
X122817362Y-103737533D01*
X122885899Y-103751166D01*
X122918248Y-103764565D01*
X122941410Y-103770772D01*
X122962177Y-103782762D01*
X122994522Y-103796160D01*
X123052616Y-103834977D01*
X123077057Y-103849088D01*
X123083746Y-103855777D01*
X123092281Y-103861480D01*
X123175419Y-103944618D01*
X123181121Y-103953152D01*
X123187812Y-103959843D01*
X123201924Y-103984286D01*
X123240739Y-104042377D01*
X123254135Y-104074718D01*
X123266128Y-104095490D01*
X123272335Y-104118655D01*
X123285733Y-104151000D01*
X123299365Y-104219533D01*
X123306667Y-104246784D01*
X123306667Y-104256241D01*
X123308670Y-104266311D01*
X123308670Y-104383888D01*
X123306667Y-104393957D01*
X123306667Y-104403416D01*
X123299364Y-104430669D01*
X123285733Y-104499199D01*
X123272335Y-104531541D01*
X123266128Y-104554710D01*
X123254134Y-104575483D01*
X123240739Y-104607822D01*
X123201928Y-104665905D01*
X123187812Y-104690357D01*
X123181119Y-104697049D01*
X123175419Y-104705581D01*
X123092281Y-104788719D01*
X123083749Y-104794419D01*
X123077057Y-104801112D01*
X123052605Y-104815228D01*
X122994522Y-104854039D01*
X122962183Y-104867434D01*
X122941410Y-104879428D01*
X122918241Y-104885635D01*
X122885899Y-104899033D01*
X122817376Y-104912662D01*
X122790116Y-104919967D01*
X122776003Y-104920891D01*
X122769377Y-104922210D01*
X122715491Y-104924858D01*
X122711800Y-104925100D01*
X122710568Y-104925100D01*
X122113032Y-104925100D01*
X122111800Y-104925100D01*
X122108108Y-104924858D01*
X122054222Y-104922210D01*
X122047595Y-104920891D01*
X122033484Y-104919967D01*
X122006226Y-104912663D01*
X121937700Y-104899033D01*
X121905355Y-104885635D01*
X121882190Y-104879428D01*
X121861418Y-104867435D01*
X121829077Y-104854039D01*
X121770986Y-104815224D01*
X121746543Y-104801112D01*
X121739852Y-104794421D01*
X121731318Y-104788719D01*
X121648180Y-104705581D01*
X121642477Y-104697046D01*
X121635788Y-104690357D01*
X121621677Y-104665916D01*
X121582860Y-104607822D01*
X121569462Y-104575477D01*
X121557472Y-104554710D01*
X121551265Y-104531548D01*
X121537866Y-104499199D01*
X121524233Y-104430663D01*
X121516933Y-104403416D01*
X121516933Y-104393958D01*
X121514930Y-104383888D01*
X121514930Y-104266311D01*
X121516933Y-104256240D01*
X121516933Y-104246784D01*
X121524233Y-104219539D01*
X121537866Y-104151000D01*
X121551266Y-104118648D01*
X121557472Y-104095490D01*
X121569460Y-104074724D01*
X121582860Y-104042377D01*
X121621681Y-103984275D01*
X121635788Y-103959843D01*
X121642475Y-103953155D01*
X121648180Y-103944618D01*
X121731318Y-103861480D01*
X121739855Y-103855775D01*
X121746543Y-103849088D01*
X121770975Y-103834981D01*
X121829077Y-103796160D01*
X121861424Y-103782760D01*
X121882190Y-103770772D01*
X121905348Y-103764566D01*
X121937700Y-103751166D01*
X122006240Y-103737532D01*
X122033484Y-103730233D01*
X122047587Y-103729308D01*
X122054222Y-103727989D01*
X122108113Y-103725341D01*
X122111800Y-103725100D01*
X122711800Y-103725100D01*
X122715486Y-103725341D01*
G37*
G36*
X96550000Y-104900000D02*
G01*
X95650000Y-104900000D01*
X95650000Y-104100000D01*
X96550000Y-104100000D01*
X96550000Y-104900000D01*
G37*
G36*
X85432000Y-104749850D02*
G01*
X84568000Y-104749850D01*
X84568000Y-103943350D01*
X85432000Y-103943350D01*
X85432000Y-104749850D01*
G37*
G36*
X83732000Y-104656650D02*
G01*
X82868000Y-104656650D01*
X82868000Y-103850150D01*
X83732000Y-103850150D01*
X83732000Y-104656650D01*
G37*
G36*
X98590100Y-104125000D02*
G01*
X98310100Y-104125000D01*
X98310100Y-103625000D01*
X98590100Y-103625000D01*
X98590100Y-104125000D01*
G37*
G36*
X99089900Y-104125000D02*
G01*
X98809900Y-104125000D01*
X98809900Y-103625000D01*
X99089900Y-103625000D01*
X99089900Y-104125000D01*
G37*
G36*
X77991242Y-102938060D02*
G01*
X78104281Y-103003323D01*
X78196577Y-103095619D01*
X78261840Y-103208658D01*
X78295622Y-103334737D01*
X78295622Y-103465263D01*
X78261840Y-103591342D01*
X78196577Y-103704381D01*
X78104281Y-103796677D01*
X77991242Y-103861940D01*
X77865163Y-103895722D01*
X77734637Y-103895722D01*
X77608558Y-103861940D01*
X77495519Y-103796677D01*
X77403223Y-103704381D01*
X77337960Y-103591342D01*
X77304178Y-103465263D01*
X77304178Y-103334737D01*
X77337960Y-103208658D01*
X77403223Y-103095619D01*
X77495519Y-103003323D01*
X77608558Y-102938060D01*
X77734637Y-102904278D01*
X77865163Y-102904278D01*
X77991242Y-102938060D01*
G37*
G36*
X98075000Y-103890100D02*
G01*
X97575000Y-103890100D01*
X97575000Y-103610100D01*
X98075000Y-103610100D01*
X98075000Y-103890100D01*
G37*
G36*
X99825000Y-103890100D02*
G01*
X99325000Y-103890100D01*
X99325000Y-103610100D01*
X99825000Y-103610100D01*
X99825000Y-103890100D01*
G37*
G36*
X96550000Y-103500000D02*
G01*
X95650000Y-103500000D01*
X95650000Y-102700000D01*
X96550000Y-102700000D01*
X96550000Y-103500000D01*
G37*
G36*
X118113600Y-103499900D02*
G01*
X116813600Y-103499900D01*
X116813600Y-102899900D01*
X118113600Y-102899900D01*
X118113600Y-103499900D01*
G37*
G36*
X98075000Y-103389900D02*
G01*
X97575000Y-103389900D01*
X97575000Y-103109900D01*
X98075000Y-103109900D01*
X98075000Y-103389900D01*
G37*
G36*
X99825000Y-103389900D02*
G01*
X99325000Y-103389900D01*
X99325000Y-103109900D01*
X99825000Y-103109900D01*
X99825000Y-103389900D01*
G37*
G36*
X118846905Y-102622736D02*
G01*
X118914728Y-102661894D01*
X118970106Y-102717272D01*
X119009264Y-102785095D01*
X119029533Y-102860742D01*
X119029533Y-102939058D01*
X119009264Y-103014705D01*
X118970106Y-103082528D01*
X118914728Y-103137906D01*
X118846905Y-103177064D01*
X118771258Y-103197333D01*
X118692942Y-103197333D01*
X118617295Y-103177064D01*
X118549472Y-103137906D01*
X118494094Y-103082528D01*
X118454936Y-103014705D01*
X118434667Y-102939058D01*
X118434667Y-102860742D01*
X118454936Y-102785095D01*
X118494094Y-102717272D01*
X118549472Y-102661894D01*
X118617295Y-102622736D01*
X118692942Y-102602467D01*
X118771258Y-102602467D01*
X118846905Y-102622736D01*
G37*
G36*
X83732000Y-103149850D02*
G01*
X82868000Y-103149850D01*
X82868000Y-102343350D01*
X83732000Y-102343350D01*
X83732000Y-103149850D01*
G37*
G36*
X92749850Y-103132000D02*
G01*
X91943350Y-103132000D01*
X91943350Y-102268000D01*
X92749850Y-102268000D01*
X92749850Y-103132000D01*
G37*
G36*
X94256650Y-103132000D02*
G01*
X93450150Y-103132000D01*
X93450150Y-102268000D01*
X94256650Y-102268000D01*
X94256650Y-103132000D01*
G37*
G36*
X81800000Y-103100000D02*
G01*
X79300000Y-103100000D01*
X79300000Y-101900000D01*
X81800000Y-101900000D01*
X81800000Y-103100000D01*
G37*
G36*
X86062400Y-103050000D02*
G01*
X84992400Y-103050000D01*
X84992400Y-102450000D01*
X86062400Y-102450000D01*
X86062400Y-103050000D01*
G37*
G36*
X109011114Y-102579006D02*
G01*
X109066294Y-102634186D01*
X109096157Y-102706282D01*
X109096157Y-102784318D01*
X109066294Y-102856414D01*
X109011114Y-102911594D01*
X108939018Y-102941457D01*
X108860982Y-102941457D01*
X108788886Y-102911594D01*
X108733706Y-102856414D01*
X108703843Y-102784318D01*
X108703843Y-102706282D01*
X108733706Y-102634186D01*
X108788886Y-102579006D01*
X108860982Y-102549143D01*
X108939018Y-102549143D01*
X109011114Y-102579006D01*
G37*
G36*
X89699850Y-102932000D02*
G01*
X88893350Y-102932000D01*
X88893350Y-102068000D01*
X89699850Y-102068000D01*
X89699850Y-102932000D01*
G37*
G36*
X91206650Y-102932000D02*
G01*
X90400150Y-102932000D01*
X90400150Y-102068000D01*
X91206650Y-102068000D01*
X91206650Y-102932000D01*
G37*
G36*
X98075000Y-102890100D02*
G01*
X97575000Y-102890100D01*
X97575000Y-102610100D01*
X98075000Y-102610100D01*
X98075000Y-102890100D01*
G37*
G36*
X99825000Y-102890100D02*
G01*
X99325000Y-102890100D01*
X99325000Y-102610100D01*
X99825000Y-102610100D01*
X99825000Y-102890100D01*
G37*
G36*
X118113600Y-102700000D02*
G01*
X116813600Y-102700000D01*
X116813600Y-102100000D01*
X118113600Y-102100000D01*
X118113600Y-102700000D01*
G37*
G36*
X108111114Y-102083706D02*
G01*
X108166294Y-102138886D01*
X108196157Y-102210982D01*
X108196157Y-102289018D01*
X108166294Y-102361114D01*
X108111114Y-102416294D01*
X108039018Y-102446157D01*
X107960982Y-102446157D01*
X107888886Y-102416294D01*
X107833706Y-102361114D01*
X107803843Y-102289018D01*
X107803843Y-102210982D01*
X107833706Y-102138886D01*
X107888886Y-102083706D01*
X107960982Y-102053843D01*
X108039018Y-102053843D01*
X108111114Y-102083706D01*
G37*
G36*
X98075000Y-102389900D02*
G01*
X97575000Y-102389900D01*
X97575000Y-102109900D01*
X98075000Y-102109900D01*
X98075000Y-102389900D01*
G37*
G36*
X99825000Y-102389900D02*
G01*
X99325000Y-102389900D01*
X99325000Y-102109900D01*
X99825000Y-102109900D01*
X99825000Y-102389900D01*
G37*
G36*
X98590100Y-102375000D02*
G01*
X98310100Y-102375000D01*
X98310100Y-101875000D01*
X98590100Y-101875000D01*
X98590100Y-102375000D01*
G37*
G36*
X99089900Y-102375000D02*
G01*
X98809900Y-102375000D01*
X98809900Y-101875000D01*
X99089900Y-101875000D01*
X99089900Y-102375000D01*
G37*
G36*
X88042800Y-102100000D02*
G01*
X86972800Y-102100000D01*
X86972800Y-101500000D01*
X88042800Y-101500000D01*
X88042800Y-102100000D01*
G37*
G36*
X118113600Y-101900100D02*
G01*
X116813600Y-101900100D01*
X116813600Y-101600100D01*
X118113600Y-101600100D01*
X118113600Y-101900100D01*
G37*
G36*
X83432000Y-101656650D02*
G01*
X82568000Y-101656650D01*
X82568000Y-100850150D01*
X83432000Y-100850150D01*
X83432000Y-101656650D01*
G37*
G36*
X94932000Y-101456650D02*
G01*
X94068000Y-101456650D01*
X94068000Y-100650150D01*
X94932000Y-100650150D01*
X94932000Y-101456650D01*
G37*
G36*
X96632000Y-101456650D02*
G01*
X95768000Y-101456650D01*
X95768000Y-100650150D01*
X96632000Y-100650150D01*
X96632000Y-101456650D01*
G37*
G36*
X101282000Y-101456650D02*
G01*
X100418000Y-101456650D01*
X100418000Y-100650150D01*
X101282000Y-100650150D01*
X101282000Y-101456650D01*
G37*
G36*
X102782000Y-101456650D02*
G01*
X101918000Y-101456650D01*
X101918000Y-100650150D01*
X102782000Y-100650150D01*
X102782000Y-101456650D01*
G37*
G36*
X104750000Y-101450000D02*
G01*
X103850000Y-101450000D01*
X103850000Y-100650000D01*
X104750000Y-100650000D01*
X104750000Y-101450000D01*
G37*
G36*
X106350000Y-101450000D02*
G01*
X105450000Y-101450000D01*
X105450000Y-100650000D01*
X106350000Y-100650000D01*
X106350000Y-101450000D01*
G37*
G36*
X118113600Y-101399900D02*
G01*
X116813600Y-101399900D01*
X116813600Y-101099900D01*
X118113600Y-101099900D01*
X118113600Y-101399900D01*
G37*
G36*
X113486900Y-101216000D02*
G01*
X112414900Y-101216000D01*
X112414900Y-100684000D01*
X113486900Y-100684000D01*
X113486900Y-101216000D01*
G37*
G36*
X115785100Y-101216000D02*
G01*
X114713100Y-101216000D01*
X114713100Y-100684000D01*
X115785100Y-100684000D01*
X115785100Y-101216000D01*
G37*
G36*
X86062400Y-101150000D02*
G01*
X84992400Y-101150000D01*
X84992400Y-100550000D01*
X86062400Y-100550000D01*
X86062400Y-101150000D01*
G37*
G36*
X98550000Y-101150000D02*
G01*
X97650000Y-101150000D01*
X97650000Y-100350000D01*
X98550000Y-100350000D01*
X98550000Y-101150000D01*
G37*
G36*
X118113600Y-100900100D02*
G01*
X116813600Y-100900100D01*
X116813600Y-100600100D01*
X118113600Y-100600100D01*
X118113600Y-100900100D01*
G37*
G36*
X90649850Y-100732000D02*
G01*
X89843350Y-100732000D01*
X89843350Y-99868000D01*
X90649850Y-99868000D01*
X90649850Y-100732000D01*
G37*
G36*
X92156650Y-100732000D02*
G01*
X91350150Y-100732000D01*
X91350150Y-99868000D01*
X92156650Y-99868000D01*
X92156650Y-100732000D01*
G37*
G36*
X81800000Y-100600000D02*
G01*
X79300000Y-100600000D01*
X79300000Y-99400000D01*
X81800000Y-99400000D01*
X81800000Y-100600000D01*
G37*
G36*
X118113600Y-100399900D02*
G01*
X116813600Y-100399900D01*
X116813600Y-100099900D01*
X118113600Y-100099900D01*
X118113600Y-100399900D01*
G37*
G36*
X108450000Y-100350000D02*
G01*
X107550000Y-100350000D01*
X107550000Y-99550000D01*
X108450000Y-99550000D01*
X108450000Y-100350000D01*
G37*
G36*
X113486900Y-100266000D02*
G01*
X112414900Y-100266000D01*
X112414900Y-99734000D01*
X113486900Y-99734000D01*
X113486900Y-100266000D01*
G37*
G36*
X115785100Y-100266000D02*
G01*
X114713100Y-100266000D01*
X114713100Y-99734000D01*
X115785100Y-99734000D01*
X115785100Y-100266000D01*
G37*
G36*
X83432000Y-100149850D02*
G01*
X82568000Y-100149850D01*
X82568000Y-99343350D01*
X83432000Y-99343350D01*
X83432000Y-100149850D01*
G37*
G36*
X104750000Y-100050000D02*
G01*
X103850000Y-100050000D01*
X103850000Y-99250000D01*
X104750000Y-99250000D01*
X104750000Y-100050000D01*
G37*
G36*
X106350000Y-100050000D02*
G01*
X105450000Y-100050000D01*
X105450000Y-99250000D01*
X106350000Y-99250000D01*
X106350000Y-100050000D01*
G37*
G36*
X94932000Y-99949850D02*
G01*
X94068000Y-99949850D01*
X94068000Y-99143350D01*
X94932000Y-99143350D01*
X94932000Y-99949850D01*
G37*
G36*
X96632000Y-99949850D02*
G01*
X95768000Y-99949850D01*
X95768000Y-99143350D01*
X96632000Y-99143350D01*
X96632000Y-99949850D01*
G37*
G36*
X101282000Y-99949850D02*
G01*
X100418000Y-99949850D01*
X100418000Y-99143350D01*
X101282000Y-99143350D01*
X101282000Y-99949850D01*
G37*
G36*
X102782000Y-99949850D02*
G01*
X101918000Y-99949850D01*
X101918000Y-99143350D01*
X102782000Y-99143350D01*
X102782000Y-99949850D01*
G37*
G36*
X118113600Y-99900100D02*
G01*
X116813600Y-99900100D01*
X116813600Y-99600100D01*
X118113600Y-99600100D01*
X118113600Y-99900100D01*
G37*
G36*
X98550000Y-99750000D02*
G01*
X97650000Y-99750000D01*
X97650000Y-98950000D01*
X98550000Y-98950000D01*
X98550000Y-99750000D01*
G37*
G36*
X118113600Y-99399900D02*
G01*
X116813600Y-99399900D01*
X116813600Y-99099900D01*
X118113600Y-99099900D01*
X118113600Y-99399900D01*
G37*
G36*
X113486900Y-99316000D02*
G01*
X112414900Y-99316000D01*
X112414900Y-98784000D01*
X113486900Y-98784000D01*
X113486900Y-99316000D01*
G37*
G36*
X115785100Y-99316000D02*
G01*
X114713100Y-99316000D01*
X114713100Y-98784000D01*
X115785100Y-98784000D01*
X115785100Y-99316000D01*
G37*
G36*
X108450000Y-98950000D02*
G01*
X107550000Y-98950000D01*
X107550000Y-98150000D01*
X108450000Y-98150000D01*
X108450000Y-98950000D01*
G37*
G36*
X118113600Y-98900300D02*
G01*
X116813600Y-98900300D01*
X116813600Y-98600300D01*
X118113600Y-98600300D01*
X118113600Y-98900300D01*
G37*
G36*
X90649850Y-98832000D02*
G01*
X89843350Y-98832000D01*
X89843350Y-97968000D01*
X90649850Y-97968000D01*
X90649850Y-98832000D01*
G37*
G36*
X92156650Y-98832000D02*
G01*
X91350150Y-98832000D01*
X91350150Y-97968000D01*
X92156650Y-97968000D01*
X92156650Y-98832000D01*
G37*
G36*
X104549850Y-98682000D02*
G01*
X103743350Y-98682000D01*
X103743350Y-97818000D01*
X104549850Y-97818000D01*
X104549850Y-98682000D01*
G37*
G36*
X106056650Y-98682000D02*
G01*
X105250150Y-98682000D01*
X105250150Y-97818000D01*
X106056650Y-97818000D01*
X106056650Y-98682000D01*
G37*
G36*
X118113600Y-98399900D02*
G01*
X116813600Y-98399900D01*
X116813600Y-98099900D01*
X118113600Y-98099900D01*
X118113600Y-98399900D01*
G37*
G36*
X97000200Y-98340000D02*
G01*
X96800200Y-98340000D01*
X96800200Y-97675000D01*
X97000200Y-97675000D01*
X97000200Y-98340000D01*
G37*
G36*
X97400000Y-98340000D02*
G01*
X97200000Y-98340000D01*
X97200000Y-97675000D01*
X97400000Y-97675000D01*
X97400000Y-98340000D01*
G37*
G36*
X97800000Y-98340000D02*
G01*
X97600000Y-98340000D01*
X97600000Y-97675000D01*
X97800000Y-97675000D01*
X97800000Y-98340000D01*
G37*
G36*
X98200100Y-98340000D02*
G01*
X98000100Y-98340000D01*
X98000100Y-97675000D01*
X98200100Y-97675000D01*
X98200100Y-98340000D01*
G37*
G36*
X98600100Y-98340000D02*
G01*
X98400100Y-98340000D01*
X98400100Y-97675000D01*
X98600100Y-97675000D01*
X98600100Y-98340000D01*
G37*
G36*
X99000200Y-98340000D02*
G01*
X98800200Y-98340000D01*
X98800200Y-97675000D01*
X99000200Y-97675000D01*
X99000200Y-98340000D01*
G37*
G36*
X99400000Y-98340000D02*
G01*
X99200000Y-98340000D01*
X99200000Y-97675000D01*
X99400000Y-97675000D01*
X99400000Y-98340000D01*
G37*
G36*
X99800000Y-98340000D02*
G01*
X99600000Y-98340000D01*
X99600000Y-97675000D01*
X99800000Y-97675000D01*
X99800000Y-98340000D01*
G37*
G36*
X100200100Y-98340000D02*
G01*
X100000100Y-98340000D01*
X100000100Y-97675000D01*
X100200100Y-97675000D01*
X100200100Y-98340000D01*
G37*
G36*
X100600100Y-98340000D02*
G01*
X100400100Y-98340000D01*
X100400100Y-97675000D01*
X100600100Y-97675000D01*
X100600100Y-98340000D01*
G37*
G36*
X101000200Y-98340000D02*
G01*
X100800200Y-98340000D01*
X100800200Y-97675000D01*
X101000200Y-97675000D01*
X101000200Y-98340000D01*
G37*
G36*
X101400000Y-98340000D02*
G01*
X101200000Y-98340000D01*
X101200000Y-97675000D01*
X101400000Y-97675000D01*
X101400000Y-98340000D01*
G37*
G36*
X101800000Y-98340000D02*
G01*
X101600000Y-98340000D01*
X101600000Y-97675000D01*
X101800000Y-97675000D01*
X101800000Y-98340000D01*
G37*
G36*
X102200100Y-98340000D02*
G01*
X102000100Y-98340000D01*
X102000100Y-97675000D01*
X102200100Y-97675000D01*
X102200100Y-98340000D01*
G37*
G36*
X83751000Y-98300100D02*
G01*
X82951000Y-98300100D01*
X82951000Y-97500100D01*
X83751000Y-97500100D01*
X83751000Y-98300100D01*
G37*
G36*
X93750000Y-98300000D02*
G01*
X92950000Y-98300000D01*
X92950000Y-97400000D01*
X93750000Y-97400000D01*
X93750000Y-98300000D01*
G37*
G36*
X95150000Y-98300000D02*
G01*
X94350000Y-98300000D01*
X94350000Y-97400000D01*
X95150000Y-97400000D01*
X95150000Y-98300000D01*
G37*
G36*
X85249000Y-98299900D02*
G01*
X84449000Y-98299900D01*
X84449000Y-97499900D01*
X85249000Y-97499900D01*
X85249000Y-98299900D01*
G37*
G36*
X88532000Y-98156650D02*
G01*
X87668000Y-98156650D01*
X87668000Y-97350150D01*
X88532000Y-97350150D01*
X88532000Y-98156650D01*
G37*
G36*
X81800000Y-98100000D02*
G01*
X79300000Y-98100000D01*
X79300000Y-96900000D01*
X81800000Y-96900000D01*
X81800000Y-98100000D01*
G37*
G36*
X118113600Y-97899700D02*
G01*
X116813600Y-97899700D01*
X116813600Y-97299700D01*
X118113600Y-97299700D01*
X118113600Y-97899700D01*
G37*
G36*
X118846905Y-96822936D02*
G01*
X118914728Y-96862094D01*
X118970106Y-96917472D01*
X119009264Y-96985295D01*
X119029533Y-97060942D01*
X119029533Y-97139258D01*
X119009264Y-97214905D01*
X118970106Y-97282728D01*
X118914728Y-97338106D01*
X118846905Y-97377264D01*
X118771258Y-97397533D01*
X118692942Y-97397533D01*
X118617295Y-97377264D01*
X118549472Y-97338106D01*
X118494094Y-97282728D01*
X118454936Y-97214905D01*
X118434667Y-97139258D01*
X118434667Y-97060942D01*
X118454936Y-96985295D01*
X118494094Y-96917472D01*
X118549472Y-96862094D01*
X118617295Y-96822936D01*
X118692942Y-96802667D01*
X118771258Y-96802667D01*
X118846905Y-96822936D01*
G37*
G36*
X96425000Y-97299800D02*
G01*
X95760000Y-97299800D01*
X95760000Y-97099800D01*
X96425000Y-97099800D01*
X96425000Y-97299800D01*
G37*
G36*
X103240000Y-97299800D02*
G01*
X102575000Y-97299800D01*
X102575000Y-97099800D01*
X103240000Y-97099800D01*
X103240000Y-97299800D01*
G37*
G36*
X90649850Y-97232000D02*
G01*
X89843350Y-97232000D01*
X89843350Y-96368000D01*
X90649850Y-96368000D01*
X90649850Y-97232000D01*
G37*
G36*
X92156650Y-97232000D02*
G01*
X91350150Y-97232000D01*
X91350150Y-96368000D01*
X92156650Y-96368000D01*
X92156650Y-97232000D01*
G37*
G36*
X104549850Y-97182000D02*
G01*
X103743350Y-97182000D01*
X103743350Y-96318000D01*
X104549850Y-96318000D01*
X104549850Y-97182000D01*
G37*
G36*
X106056650Y-97182000D02*
G01*
X105250150Y-97182000D01*
X105250150Y-96318000D01*
X106056650Y-96318000D01*
X106056650Y-97182000D01*
G37*
G36*
X118113600Y-97099900D02*
G01*
X116813600Y-97099900D01*
X116813600Y-96499900D01*
X118113600Y-96499900D01*
X118113600Y-97099900D01*
G37*
G36*
X77991242Y-96138060D02*
G01*
X78104281Y-96203323D01*
X78196577Y-96295619D01*
X78261840Y-96408658D01*
X78295622Y-96534737D01*
X78295622Y-96665263D01*
X78261840Y-96791342D01*
X78196577Y-96904381D01*
X78104281Y-96996677D01*
X77991242Y-97061940D01*
X77865163Y-97095722D01*
X77734637Y-97095722D01*
X77608558Y-97061940D01*
X77495519Y-96996677D01*
X77403223Y-96904381D01*
X77337960Y-96791342D01*
X77304178Y-96665263D01*
X77304178Y-96534737D01*
X77337960Y-96408658D01*
X77403223Y-96295619D01*
X77495519Y-96203323D01*
X77608558Y-96138060D01*
X77734637Y-96104278D01*
X77865163Y-96104278D01*
X77991242Y-96138060D01*
G37*
G36*
X108821016Y-96292695D02*
G01*
X108900445Y-96313978D01*
X108971660Y-96355094D01*
X109029806Y-96413240D01*
X109070922Y-96484455D01*
X109092205Y-96563884D01*
X109092205Y-96646116D01*
X109070922Y-96725545D01*
X109029806Y-96796760D01*
X108971660Y-96854906D01*
X108900445Y-96896022D01*
X108821016Y-96917305D01*
X108779900Y-96920000D01*
X108778262Y-96920000D01*
X107161538Y-96920000D01*
X107159900Y-96920000D01*
X107118784Y-96917305D01*
X107039355Y-96896022D01*
X106968140Y-96854906D01*
X106909994Y-96796760D01*
X106868878Y-96725545D01*
X106847595Y-96646116D01*
X106847595Y-96563884D01*
X106868878Y-96484455D01*
X106909994Y-96413240D01*
X106968140Y-96355094D01*
X107039355Y-96313978D01*
X107118784Y-96292695D01*
X107159900Y-96290000D01*
X108779900Y-96290000D01*
X108821016Y-96292695D01*
G37*
G36*
X115881216Y-96292695D02*
G01*
X115960645Y-96313978D01*
X116031860Y-96355094D01*
X116090006Y-96413240D01*
X116131122Y-96484455D01*
X116152405Y-96563884D01*
X116152405Y-96646116D01*
X116131122Y-96725545D01*
X116090006Y-96796760D01*
X116031860Y-96854906D01*
X115960645Y-96896022D01*
X115881216Y-96917305D01*
X115840100Y-96920000D01*
X115838462Y-96920000D01*
X114221738Y-96920000D01*
X114220100Y-96920000D01*
X114178984Y-96917305D01*
X114099555Y-96896022D01*
X114028340Y-96854906D01*
X113970194Y-96796760D01*
X113929078Y-96725545D01*
X113907795Y-96646116D01*
X113907795Y-96563884D01*
X113929078Y-96484455D01*
X113970194Y-96413240D01*
X114028340Y-96355094D01*
X114099555Y-96313978D01*
X114178984Y-96292695D01*
X114220100Y-96290000D01*
X115840100Y-96290000D01*
X115881216Y-96292695D01*
G37*
G36*
X96425000Y-96900000D02*
G01*
X95760000Y-96900000D01*
X95760000Y-96700000D01*
X96425000Y-96700000D01*
X96425000Y-96900000D01*
G37*
G36*
X103240000Y-96900000D02*
G01*
X102575000Y-96900000D01*
X102575000Y-96700000D01*
X103240000Y-96700000D01*
X103240000Y-96900000D01*
G37*
G36*
X93750000Y-96800000D02*
G01*
X92950000Y-96800000D01*
X92950000Y-95900000D01*
X93750000Y-95900000D01*
X93750000Y-96800000D01*
G37*
G36*
X95150000Y-96800000D02*
G01*
X94350000Y-96800000D01*
X94350000Y-95900000D01*
X95150000Y-95900000D01*
X95150000Y-96800000D01*
G37*
G36*
X88532000Y-96649850D02*
G01*
X87668000Y-96649850D01*
X87668000Y-95843350D01*
X88532000Y-95843350D01*
X88532000Y-96649850D01*
G37*
G36*
X101500100Y-96599900D02*
G01*
X97500100Y-96599900D01*
X97500100Y-92599900D01*
X101500100Y-92599900D01*
X101500100Y-96599900D01*
G37*
G36*
X96425000Y-96500000D02*
G01*
X95760000Y-96500000D01*
X95760000Y-96300000D01*
X96425000Y-96300000D01*
X96425000Y-96500000D01*
G37*
G36*
X103240000Y-96500000D02*
G01*
X102575000Y-96500000D01*
X102575000Y-96300000D01*
X103240000Y-96300000D01*
X103240000Y-96500000D01*
G37*
G36*
X118635686Y-95075141D02*
G01*
X118689577Y-95077789D01*
X118696210Y-95079108D01*
X118710316Y-95080033D01*
X118737562Y-95087333D01*
X118806099Y-95100966D01*
X118838448Y-95114365D01*
X118861610Y-95120572D01*
X118882377Y-95132562D01*
X118914722Y-95145960D01*
X118972816Y-95184777D01*
X118997257Y-95198888D01*
X119003946Y-95205577D01*
X119012481Y-95211280D01*
X119095619Y-95294418D01*
X119101321Y-95302952D01*
X119108012Y-95309643D01*
X119122124Y-95334086D01*
X119160939Y-95392177D01*
X119174335Y-95424518D01*
X119186328Y-95445290D01*
X119192535Y-95468455D01*
X119205933Y-95500800D01*
X119219565Y-95569333D01*
X119226867Y-95596584D01*
X119226867Y-95606041D01*
X119228870Y-95616111D01*
X119228870Y-95733688D01*
X119226867Y-95743757D01*
X119226867Y-95753216D01*
X119219564Y-95780469D01*
X119205933Y-95848999D01*
X119192535Y-95881341D01*
X119186328Y-95904510D01*
X119174334Y-95925283D01*
X119160939Y-95957622D01*
X119122128Y-96015705D01*
X119108012Y-96040157D01*
X119101319Y-96046849D01*
X119095619Y-96055381D01*
X119012481Y-96138519D01*
X119003949Y-96144219D01*
X118997257Y-96150912D01*
X118972805Y-96165028D01*
X118914722Y-96203839D01*
X118882383Y-96217234D01*
X118861610Y-96229228D01*
X118838441Y-96235435D01*
X118806099Y-96248833D01*
X118737576Y-96262462D01*
X118710316Y-96269767D01*
X118696203Y-96270691D01*
X118689577Y-96272010D01*
X118635691Y-96274658D01*
X118632000Y-96274900D01*
X118630768Y-96274900D01*
X117833232Y-96274900D01*
X117832000Y-96274900D01*
X117828308Y-96274658D01*
X117774422Y-96272010D01*
X117767795Y-96270691D01*
X117753684Y-96269767D01*
X117726426Y-96262463D01*
X117657900Y-96248833D01*
X117625555Y-96235435D01*
X117602390Y-96229228D01*
X117581618Y-96217235D01*
X117549277Y-96203839D01*
X117491186Y-96165024D01*
X117466743Y-96150912D01*
X117460052Y-96144221D01*
X117451518Y-96138519D01*
X117368380Y-96055381D01*
X117362677Y-96046846D01*
X117355988Y-96040157D01*
X117341877Y-96015716D01*
X117303060Y-95957622D01*
X117289662Y-95925277D01*
X117277672Y-95904510D01*
X117271465Y-95881348D01*
X117258066Y-95848999D01*
X117244433Y-95780463D01*
X117237133Y-95753216D01*
X117237133Y-95743758D01*
X117235130Y-95733688D01*
X117235130Y-95616111D01*
X117237133Y-95606040D01*
X117237133Y-95596584D01*
X117244433Y-95569339D01*
X117258066Y-95500800D01*
X117271466Y-95468448D01*
X117277672Y-95445290D01*
X117289660Y-95424524D01*
X117303060Y-95392177D01*
X117341881Y-95334075D01*
X117355988Y-95309643D01*
X117362675Y-95302955D01*
X117368380Y-95294418D01*
X117451518Y-95211280D01*
X117460055Y-95205575D01*
X117466743Y-95198888D01*
X117491175Y-95184781D01*
X117549277Y-95145960D01*
X117581624Y-95132560D01*
X117602390Y-95120572D01*
X117625548Y-95114366D01*
X117657900Y-95100966D01*
X117726440Y-95087332D01*
X117753684Y-95080033D01*
X117767787Y-95079108D01*
X117774422Y-95077789D01*
X117828313Y-95075141D01*
X117832000Y-95074900D01*
X118632000Y-95074900D01*
X118635686Y-95075141D01*
G37*
G36*
X122715486Y-95075141D02*
G01*
X122769377Y-95077789D01*
X122776010Y-95079108D01*
X122790116Y-95080033D01*
X122817362Y-95087333D01*
X122885899Y-95100966D01*
X122918248Y-95114365D01*
X122941410Y-95120572D01*
X122962177Y-95132562D01*
X122994522Y-95145960D01*
X123052616Y-95184777D01*
X123077057Y-95198888D01*
X123083746Y-95205577D01*
X123092281Y-95211280D01*
X123175419Y-95294418D01*
X123181121Y-95302952D01*
X123187812Y-95309643D01*
X123201924Y-95334086D01*
X123240739Y-95392177D01*
X123254135Y-95424518D01*
X123266128Y-95445290D01*
X123272335Y-95468455D01*
X123285733Y-95500800D01*
X123299365Y-95569333D01*
X123306667Y-95596584D01*
X123306667Y-95606041D01*
X123308670Y-95616111D01*
X123308670Y-95733688D01*
X123306667Y-95743757D01*
X123306667Y-95753216D01*
X123299364Y-95780469D01*
X123285733Y-95848999D01*
X123272335Y-95881341D01*
X123266128Y-95904510D01*
X123254134Y-95925283D01*
X123240739Y-95957622D01*
X123201928Y-96015705D01*
X123187812Y-96040157D01*
X123181119Y-96046849D01*
X123175419Y-96055381D01*
X123092281Y-96138519D01*
X123083749Y-96144219D01*
X123077057Y-96150912D01*
X123052605Y-96165028D01*
X122994522Y-96203839D01*
X122962183Y-96217234D01*
X122941410Y-96229228D01*
X122918241Y-96235435D01*
X122885899Y-96248833D01*
X122817376Y-96262462D01*
X122790116Y-96269767D01*
X122776003Y-96270691D01*
X122769377Y-96272010D01*
X122715491Y-96274658D01*
X122711800Y-96274900D01*
X122710568Y-96274900D01*
X122113032Y-96274900D01*
X122111800Y-96274900D01*
X122108108Y-96274658D01*
X122054222Y-96272010D01*
X122047595Y-96270691D01*
X122033484Y-96269767D01*
X122006226Y-96262463D01*
X121937700Y-96248833D01*
X121905355Y-96235435D01*
X121882190Y-96229228D01*
X121861418Y-96217235D01*
X121829077Y-96203839D01*
X121770986Y-96165024D01*
X121746543Y-96150912D01*
X121739852Y-96144221D01*
X121731318Y-96138519D01*
X121648180Y-96055381D01*
X121642477Y-96046846D01*
X121635788Y-96040157D01*
X121621677Y-96015716D01*
X121582860Y-95957622D01*
X121569462Y-95925277D01*
X121557472Y-95904510D01*
X121551265Y-95881348D01*
X121537866Y-95848999D01*
X121524233Y-95780463D01*
X121516933Y-95753216D01*
X121516933Y-95743758D01*
X121514930Y-95733688D01*
X121514930Y-95616111D01*
X121516933Y-95606040D01*
X121516933Y-95596584D01*
X121524233Y-95569339D01*
X121537866Y-95500800D01*
X121551266Y-95468448D01*
X121557472Y-95445290D01*
X121569460Y-95424524D01*
X121582860Y-95392177D01*
X121621681Y-95334075D01*
X121635788Y-95309643D01*
X121642475Y-95302955D01*
X121648180Y-95294418D01*
X121731318Y-95211280D01*
X121739855Y-95205575D01*
X121746543Y-95198888D01*
X121770975Y-95184781D01*
X121829077Y-95145960D01*
X121861424Y-95132560D01*
X121882190Y-95120572D01*
X121905348Y-95114366D01*
X121937700Y-95100966D01*
X122006240Y-95087332D01*
X122033484Y-95080033D01*
X122047587Y-95079108D01*
X122054222Y-95077789D01*
X122108113Y-95075141D01*
X122111800Y-95074900D01*
X122711800Y-95074900D01*
X122715486Y-95075141D01*
G37*
G36*
X96425000Y-96099900D02*
G01*
X95760000Y-96099900D01*
X95760000Y-95899900D01*
X96425000Y-95899900D01*
X96425000Y-96099900D01*
G37*
G36*
X103240000Y-96099900D02*
G01*
X102575000Y-96099900D01*
X102575000Y-95899900D01*
X103240000Y-95899900D01*
X103240000Y-96099900D01*
G37*
G36*
X83750000Y-96000000D02*
G01*
X82950000Y-96000000D01*
X82950000Y-95200000D01*
X83750000Y-95200000D01*
X83750000Y-96000000D01*
G37*
G36*
X85250100Y-96000000D02*
G01*
X84450100Y-96000000D01*
X84450100Y-95200000D01*
X85250100Y-95200000D01*
X85250100Y-96000000D01*
G37*
G36*
X96425000Y-95699900D02*
G01*
X95760000Y-95699900D01*
X95760000Y-95499900D01*
X96425000Y-95499900D01*
X96425000Y-95699900D01*
G37*
G36*
X103240000Y-95699900D02*
G01*
X102575000Y-95699900D01*
X102575000Y-95499900D01*
X103240000Y-95499900D01*
X103240000Y-95699900D01*
G37*
G36*
X104549850Y-95682000D02*
G01*
X103743350Y-95682000D01*
X103743350Y-94818000D01*
X104549850Y-94818000D01*
X104549850Y-95682000D01*
G37*
G36*
X106056650Y-95682000D02*
G01*
X105250150Y-95682000D01*
X105250150Y-94818000D01*
X106056650Y-94818000D01*
X106056650Y-95682000D01*
G37*
G36*
X108821016Y-95022695D02*
G01*
X108900445Y-95043978D01*
X108971660Y-95085094D01*
X109029806Y-95143240D01*
X109070922Y-95214455D01*
X109092205Y-95293884D01*
X109092205Y-95376116D01*
X109070922Y-95455545D01*
X109029806Y-95526760D01*
X108971660Y-95584906D01*
X108900445Y-95626022D01*
X108821016Y-95647305D01*
X108779900Y-95650000D01*
X108778262Y-95650000D01*
X107161538Y-95650000D01*
X107159900Y-95650000D01*
X107118784Y-95647305D01*
X107039355Y-95626022D01*
X106968140Y-95584906D01*
X106909994Y-95526760D01*
X106868878Y-95455545D01*
X106847595Y-95376116D01*
X106847595Y-95293884D01*
X106868878Y-95214455D01*
X106909994Y-95143240D01*
X106968140Y-95085094D01*
X107039355Y-95043978D01*
X107118784Y-95022695D01*
X107159900Y-95020000D01*
X108779900Y-95020000D01*
X108821016Y-95022695D01*
G37*
G36*
X115881216Y-95022695D02*
G01*
X115960645Y-95043978D01*
X116031860Y-95085094D01*
X116090006Y-95143240D01*
X116131122Y-95214455D01*
X116152405Y-95293884D01*
X116152405Y-95376116D01*
X116131122Y-95455545D01*
X116090006Y-95526760D01*
X116031860Y-95584906D01*
X115960645Y-95626022D01*
X115881216Y-95647305D01*
X115840100Y-95650000D01*
X115838462Y-95650000D01*
X114221738Y-95650000D01*
X114220100Y-95650000D01*
X114178984Y-95647305D01*
X114099555Y-95626022D01*
X114028340Y-95584906D01*
X113970194Y-95526760D01*
X113929078Y-95455545D01*
X113907795Y-95376116D01*
X113907795Y-95293884D01*
X113929078Y-95214455D01*
X113970194Y-95143240D01*
X114028340Y-95085094D01*
X114099555Y-95043978D01*
X114178984Y-95022695D01*
X114220100Y-95020000D01*
X115840100Y-95020000D01*
X115881216Y-95022695D01*
G37*
G36*
X90649850Y-95632000D02*
G01*
X89843350Y-95632000D01*
X89843350Y-94768000D01*
X90649850Y-94768000D01*
X90649850Y-95632000D01*
G37*
G36*
X92156650Y-95632000D02*
G01*
X91350150Y-95632000D01*
X91350150Y-94768000D01*
X92156650Y-94768000D01*
X92156650Y-95632000D01*
G37*
G36*
X93550000Y-95300000D02*
G01*
X92750000Y-95300000D01*
X92750000Y-94400000D01*
X93550000Y-94400000D01*
X93550000Y-95300000D01*
G37*
G36*
X94950000Y-95300000D02*
G01*
X94150000Y-95300000D01*
X94150000Y-94400000D01*
X94950000Y-94400000D01*
X94950000Y-95300000D01*
G37*
G36*
X96425000Y-95299800D02*
G01*
X95760000Y-95299800D01*
X95760000Y-95099800D01*
X96425000Y-95099800D01*
X96425000Y-95299800D01*
G37*
G36*
X103240000Y-95299800D02*
G01*
X102575000Y-95299800D01*
X102575000Y-95099800D01*
X103240000Y-95099800D01*
X103240000Y-95299800D01*
G37*
G36*
X96425000Y-94900000D02*
G01*
X95760000Y-94900000D01*
X95760000Y-94700000D01*
X96425000Y-94700000D01*
X96425000Y-94900000D01*
G37*
G36*
X103240000Y-94900000D02*
G01*
X102575000Y-94900000D01*
X102575000Y-94700000D01*
X103240000Y-94700000D01*
X103240000Y-94900000D01*
G37*
G36*
X80349850Y-94632000D02*
G01*
X79543350Y-94632000D01*
X79543350Y-93768000D01*
X80349850Y-93768000D01*
X80349850Y-94632000D01*
G37*
G36*
X81856650Y-94632000D02*
G01*
X81050150Y-94632000D01*
X81050150Y-93768000D01*
X81856650Y-93768000D01*
X81856650Y-94632000D01*
G37*
G36*
X96425000Y-94500000D02*
G01*
X95760000Y-94500000D01*
X95760000Y-94300000D01*
X96425000Y-94300000D01*
X96425000Y-94500000D01*
G37*
G36*
X103240000Y-94500000D02*
G01*
X102575000Y-94500000D01*
X102575000Y-94300000D01*
X103240000Y-94300000D01*
X103240000Y-94500000D01*
G37*
G36*
X108821016Y-93752695D02*
G01*
X108900445Y-93773978D01*
X108971660Y-93815094D01*
X109029806Y-93873240D01*
X109070922Y-93944455D01*
X109092205Y-94023884D01*
X109092205Y-94106116D01*
X109070922Y-94185545D01*
X109029806Y-94256760D01*
X108971660Y-94314906D01*
X108900445Y-94356022D01*
X108821016Y-94377305D01*
X108779900Y-94380000D01*
X108778262Y-94380000D01*
X107161538Y-94380000D01*
X107159900Y-94380000D01*
X107118784Y-94377305D01*
X107039355Y-94356022D01*
X106968140Y-94314906D01*
X106909994Y-94256760D01*
X106868878Y-94185545D01*
X106847595Y-94106116D01*
X106847595Y-94023884D01*
X106868878Y-93944455D01*
X106909994Y-93873240D01*
X106968140Y-93815094D01*
X107039355Y-93773978D01*
X107118784Y-93752695D01*
X107159900Y-93750000D01*
X108779900Y-93750000D01*
X108821016Y-93752695D01*
G37*
G36*
X115881216Y-93752695D02*
G01*
X115960645Y-93773978D01*
X116031860Y-93815094D01*
X116090006Y-93873240D01*
X116131122Y-93944455D01*
X116152405Y-94023884D01*
X116152405Y-94106116D01*
X116131122Y-94185545D01*
X116090006Y-94256760D01*
X116031860Y-94314906D01*
X115960645Y-94356022D01*
X115881216Y-94377305D01*
X115840100Y-94380000D01*
X115838462Y-94380000D01*
X114221738Y-94380000D01*
X114220100Y-94380000D01*
X114178984Y-94377305D01*
X114099555Y-94356022D01*
X114028340Y-94314906D01*
X113970194Y-94256760D01*
X113929078Y-94185545D01*
X113907795Y-94106116D01*
X113907795Y-94023884D01*
X113929078Y-93944455D01*
X113970194Y-93873240D01*
X114028340Y-93815094D01*
X114099555Y-93773978D01*
X114178984Y-93752695D01*
X114220100Y-93750000D01*
X115840100Y-93750000D01*
X115881216Y-93752695D01*
G37*
G36*
X104549850Y-94182000D02*
G01*
X103743350Y-94182000D01*
X103743350Y-93318000D01*
X104549850Y-93318000D01*
X104549850Y-94182000D01*
G37*
G36*
X106056650Y-94182000D02*
G01*
X105250150Y-94182000D01*
X105250150Y-93318000D01*
X106056650Y-93318000D01*
X106056650Y-94182000D01*
G37*
G36*
X85332000Y-94156650D02*
G01*
X84468000Y-94156650D01*
X84468000Y-93350150D01*
X85332000Y-93350150D01*
X85332000Y-94156650D01*
G37*
G36*
X96425000Y-94099900D02*
G01*
X95760000Y-94099900D01*
X95760000Y-93899900D01*
X96425000Y-93899900D01*
X96425000Y-94099900D01*
G37*
G36*
X103240000Y-94099900D02*
G01*
X102575000Y-94099900D01*
X102575000Y-93899900D01*
X103240000Y-93899900D01*
X103240000Y-94099900D01*
G37*
G36*
X90700000Y-94050000D02*
G01*
X89900000Y-94050000D01*
X89900000Y-93150000D01*
X90700000Y-93150000D01*
X90700000Y-94050000D01*
G37*
G36*
X92100000Y-94050000D02*
G01*
X91300000Y-94050000D01*
X91300000Y-93150000D01*
X92100000Y-93150000D01*
X92100000Y-94050000D01*
G37*
G36*
X87062400Y-93850000D02*
G01*
X85992400Y-93850000D01*
X85992400Y-93250000D01*
X87062400Y-93250000D01*
X87062400Y-93850000D01*
G37*
G36*
X93750000Y-93800000D02*
G01*
X92950000Y-93800000D01*
X92950000Y-92900000D01*
X93750000Y-92900000D01*
X93750000Y-93800000D01*
G37*
G36*
X95150000Y-93800000D02*
G01*
X94350000Y-93800000D01*
X94350000Y-92900000D01*
X95150000Y-92900000D01*
X95150000Y-93800000D01*
G37*
G36*
X96425000Y-93699900D02*
G01*
X95760000Y-93699900D01*
X95760000Y-93499900D01*
X96425000Y-93499900D01*
X96425000Y-93699900D01*
G37*
G36*
X103240000Y-93699900D02*
G01*
X102575000Y-93699900D01*
X102575000Y-93499900D01*
X103240000Y-93499900D01*
X103240000Y-93699900D01*
G37*
G36*
X96425000Y-93299800D02*
G01*
X95760000Y-93299800D01*
X95760000Y-93099800D01*
X96425000Y-93099800D01*
X96425000Y-93299800D01*
G37*
G36*
X103240000Y-93299800D02*
G01*
X102575000Y-93299800D01*
X102575000Y-93099800D01*
X103240000Y-93099800D01*
X103240000Y-93299800D01*
G37*
G36*
X108821016Y-92482695D02*
G01*
X108900445Y-92503978D01*
X108971660Y-92545094D01*
X109029806Y-92603240D01*
X109070922Y-92674455D01*
X109092205Y-92753884D01*
X109092205Y-92836116D01*
X109070922Y-92915545D01*
X109029806Y-92986760D01*
X108971660Y-93044906D01*
X108900445Y-93086022D01*
X108821016Y-93107305D01*
X108779900Y-93110000D01*
X108778262Y-93110000D01*
X107161538Y-93110000D01*
X107159900Y-93110000D01*
X107118784Y-93107305D01*
X107039355Y-93086022D01*
X106968140Y-93044906D01*
X106909994Y-92986760D01*
X106868878Y-92915545D01*
X106847595Y-92836116D01*
X106847595Y-92753884D01*
X106868878Y-92674455D01*
X106909994Y-92603240D01*
X106968140Y-92545094D01*
X107039355Y-92503978D01*
X107118784Y-92482695D01*
X107159900Y-92480000D01*
X108779900Y-92480000D01*
X108821016Y-92482695D01*
G37*
G36*
X115881216Y-92482695D02*
G01*
X115960645Y-92503978D01*
X116031860Y-92545094D01*
X116090006Y-92603240D01*
X116131122Y-92674455D01*
X116152405Y-92753884D01*
X116152405Y-92836116D01*
X116131122Y-92915545D01*
X116090006Y-92986760D01*
X116031860Y-93044906D01*
X115960645Y-93086022D01*
X115881216Y-93107305D01*
X115840100Y-93110000D01*
X115838462Y-93110000D01*
X114221738Y-93110000D01*
X114220100Y-93110000D01*
X114178984Y-93107305D01*
X114099555Y-93086022D01*
X114028340Y-93044906D01*
X113970194Y-92986760D01*
X113929078Y-92915545D01*
X113907795Y-92836116D01*
X113907795Y-92753884D01*
X113929078Y-92674455D01*
X113970194Y-92603240D01*
X114028340Y-92545094D01*
X114099555Y-92503978D01*
X114178984Y-92482695D01*
X114220100Y-92480000D01*
X115840100Y-92480000D01*
X115881216Y-92482695D01*
G37*
G36*
X89042800Y-92900000D02*
G01*
X87972800Y-92900000D01*
X87972800Y-92300000D01*
X89042800Y-92300000D01*
X89042800Y-92900000D01*
G37*
G36*
X96425000Y-92900000D02*
G01*
X95760000Y-92900000D01*
X95760000Y-92700000D01*
X96425000Y-92700000D01*
X96425000Y-92900000D01*
G37*
G36*
X103240000Y-92900000D02*
G01*
X102575000Y-92900000D01*
X102575000Y-92700000D01*
X103240000Y-92700000D01*
X103240000Y-92900000D01*
G37*
G36*
X104549850Y-92682000D02*
G01*
X103743350Y-92682000D01*
X103743350Y-91818000D01*
X104549850Y-91818000D01*
X104549850Y-92682000D01*
G37*
G36*
X106056650Y-92682000D02*
G01*
X105250150Y-92682000D01*
X105250150Y-91818000D01*
X106056650Y-91818000D01*
X106056650Y-92682000D01*
G37*
G36*
X85332000Y-92649850D02*
G01*
X84468000Y-92649850D01*
X84468000Y-91843350D01*
X85332000Y-91843350D01*
X85332000Y-92649850D01*
G37*
G36*
X96425000Y-92500000D02*
G01*
X95760000Y-92500000D01*
X95760000Y-92300000D01*
X96425000Y-92300000D01*
X96425000Y-92500000D01*
G37*
G36*
X103240000Y-92500000D02*
G01*
X102575000Y-92500000D01*
X102575000Y-92300000D01*
X103240000Y-92300000D01*
X103240000Y-92500000D01*
G37*
G36*
X94298268Y-92057612D02*
G01*
X94330711Y-92079289D01*
X94352388Y-92111732D01*
X94360000Y-92150000D01*
X94360000Y-92350000D01*
X94352388Y-92388268D01*
X94330711Y-92420711D01*
X94298268Y-92442388D01*
X94260000Y-92450000D01*
X94000000Y-92450000D01*
X93961732Y-92442388D01*
X93929289Y-92420711D01*
X93907612Y-92388268D01*
X93900000Y-92350000D01*
X93900000Y-92150000D01*
X93907612Y-92111732D01*
X93929289Y-92079289D01*
X93961732Y-92057612D01*
X94000000Y-92050000D01*
X94260000Y-92050000D01*
X94298268Y-92057612D01*
G37*
G36*
X94938268Y-92057612D02*
G01*
X94970711Y-92079289D01*
X94992388Y-92111732D01*
X95000000Y-92150000D01*
X95000000Y-92350000D01*
X94992388Y-92388268D01*
X94970711Y-92420711D01*
X94938268Y-92442388D01*
X94900000Y-92450000D01*
X94640000Y-92450000D01*
X94601732Y-92442388D01*
X94569289Y-92420711D01*
X94547612Y-92388268D01*
X94540000Y-92350000D01*
X94540000Y-92150000D01*
X94547612Y-92111732D01*
X94569289Y-92079289D01*
X94601732Y-92057612D01*
X94640000Y-92050000D01*
X94900000Y-92050000D01*
X94938268Y-92057612D01*
G37*
G36*
X96425000Y-92099900D02*
G01*
X95760000Y-92099900D01*
X95760000Y-91899900D01*
X96425000Y-91899900D01*
X96425000Y-92099900D01*
G37*
G36*
X103240000Y-92099900D02*
G01*
X102575000Y-92099900D01*
X102575000Y-91899900D01*
X103240000Y-91899900D01*
X103240000Y-92099900D01*
G37*
G36*
X91432000Y-91999900D02*
G01*
X90568000Y-91999900D01*
X90568000Y-91199900D01*
X91432000Y-91199900D01*
X91432000Y-91999900D01*
G37*
G36*
X87062400Y-91950000D02*
G01*
X85992400Y-91950000D01*
X85992400Y-91350000D01*
X87062400Y-91350000D01*
X87062400Y-91950000D01*
G37*
G36*
X114650000Y-91550000D02*
G01*
X113850000Y-91550000D01*
X113850000Y-90550000D01*
X114650000Y-90550000D01*
X114650000Y-91550000D01*
G37*
G36*
X116550000Y-91550000D02*
G01*
X115750000Y-91550000D01*
X115750000Y-90550000D01*
X116550000Y-90550000D01*
X116550000Y-91550000D01*
G37*
G36*
X97000200Y-91525000D02*
G01*
X96800200Y-91525000D01*
X96800200Y-90860000D01*
X97000200Y-90860000D01*
X97000200Y-91525000D01*
G37*
G36*
X97400000Y-91525000D02*
G01*
X97200000Y-91525000D01*
X97200000Y-90860000D01*
X97400000Y-90860000D01*
X97400000Y-91525000D01*
G37*
G36*
X97800000Y-91525000D02*
G01*
X97600000Y-91525000D01*
X97600000Y-90860000D01*
X97800000Y-90860000D01*
X97800000Y-91525000D01*
G37*
G36*
X98200100Y-91525000D02*
G01*
X98000100Y-91525000D01*
X98000100Y-90860000D01*
X98200100Y-90860000D01*
X98200100Y-91525000D01*
G37*
G36*
X98600100Y-91525000D02*
G01*
X98400100Y-91525000D01*
X98400100Y-90860000D01*
X98600100Y-90860000D01*
X98600100Y-91525000D01*
G37*
G36*
X99000200Y-91525000D02*
G01*
X98800200Y-91525000D01*
X98800200Y-90860000D01*
X99000200Y-90860000D01*
X99000200Y-91525000D01*
G37*
G36*
X99400000Y-91525000D02*
G01*
X99200000Y-91525000D01*
X99200000Y-90860000D01*
X99400000Y-90860000D01*
X99400000Y-91525000D01*
G37*
G36*
X99800000Y-91525000D02*
G01*
X99600000Y-91525000D01*
X99600000Y-90860000D01*
X99800000Y-90860000D01*
X99800000Y-91525000D01*
G37*
G36*
X100200100Y-91525000D02*
G01*
X100000100Y-91525000D01*
X100000100Y-90860000D01*
X100200100Y-90860000D01*
X100200100Y-91525000D01*
G37*
G36*
X100600100Y-91525000D02*
G01*
X100400100Y-91525000D01*
X100400100Y-90860000D01*
X100600100Y-90860000D01*
X100600100Y-91525000D01*
G37*
G36*
X101000200Y-91525000D02*
G01*
X100800200Y-91525000D01*
X100800200Y-90860000D01*
X101000200Y-90860000D01*
X101000200Y-91525000D01*
G37*
G36*
X101400000Y-91525000D02*
G01*
X101200000Y-91525000D01*
X101200000Y-90860000D01*
X101400000Y-90860000D01*
X101400000Y-91525000D01*
G37*
G36*
X101800000Y-91525000D02*
G01*
X101600000Y-91525000D01*
X101600000Y-90860000D01*
X101800000Y-90860000D01*
X101800000Y-91525000D01*
G37*
G36*
X102200100Y-91525000D02*
G01*
X102000100Y-91525000D01*
X102000100Y-90860000D01*
X102200100Y-90860000D01*
X102200100Y-91525000D01*
G37*
G36*
X95012000Y-91358500D02*
G01*
X94688000Y-91358500D01*
X94688000Y-90990100D01*
X95012000Y-90990100D01*
X95012000Y-91358500D01*
G37*
G36*
X80131134Y-89770018D02*
G01*
X80881972Y-90203513D01*
X80881974Y-90203515D01*
X80886240Y-90205978D01*
X80286240Y-91245208D01*
X79504568Y-90793910D01*
X79164673Y-90597672D01*
X79164671Y-90597670D01*
X79160406Y-90595208D01*
X79162868Y-90590941D01*
X79162870Y-90590939D01*
X79757941Y-89560245D01*
X79757945Y-89560240D01*
X79760406Y-89555978D01*
X80131134Y-89770018D01*
G37*
G36*
X110149850Y-91232000D02*
G01*
X109343350Y-91232000D01*
X109343350Y-90368000D01*
X110149850Y-90368000D01*
X110149850Y-91232000D01*
G37*
G36*
X111656650Y-91232000D02*
G01*
X110850150Y-91232000D01*
X110850150Y-90368000D01*
X111656650Y-90368000D01*
X111656650Y-91232000D01*
G37*
G36*
X104549850Y-91182000D02*
G01*
X103743350Y-91182000D01*
X103743350Y-90318000D01*
X104549850Y-90318000D01*
X104549850Y-91182000D01*
G37*
G36*
X106056650Y-91182000D02*
G01*
X105250150Y-91182000D01*
X105250150Y-90318000D01*
X106056650Y-90318000D01*
X106056650Y-91182000D01*
G37*
G36*
X95012000Y-90809900D02*
G01*
X94688000Y-90809900D01*
X94688000Y-90441500D01*
X95012000Y-90441500D01*
X95012000Y-90809900D01*
G37*
G36*
X77786629Y-89484513D02*
G01*
X77786630Y-89484514D01*
X78817324Y-90079585D01*
X78817326Y-90079587D01*
X78821592Y-90082050D01*
X78521592Y-90601666D01*
X77903962Y-90245077D01*
X77486629Y-90004130D01*
X77486627Y-90004128D01*
X77482362Y-90001666D01*
X77501876Y-89967867D01*
X77779897Y-89486317D01*
X77779901Y-89486312D01*
X77782362Y-89482050D01*
X77786629Y-89484513D01*
G37*
G36*
X91432000Y-90600100D02*
G01*
X90568000Y-90600100D01*
X90568000Y-89800100D01*
X91432000Y-89800100D01*
X91432000Y-90600100D01*
G37*
G36*
X96300000Y-90250000D02*
G01*
X95500000Y-90250000D01*
X95500000Y-89350000D01*
X96300000Y-89350000D01*
X96300000Y-90250000D01*
G37*
G36*
X97700000Y-90250000D02*
G01*
X96900000Y-90250000D01*
X96900000Y-89350000D01*
X97700000Y-89350000D01*
X97700000Y-90250000D01*
G37*
G36*
X101350000Y-90250000D02*
G01*
X100450000Y-90250000D01*
X100450000Y-89450000D01*
X101350000Y-89450000D01*
X101350000Y-90250000D01*
G37*
G36*
X86920800Y-90150000D02*
G01*
X85920800Y-90150000D01*
X85920800Y-89350000D01*
X86920800Y-89350000D01*
X86920800Y-90150000D01*
G37*
G36*
X99028946Y-89401228D02*
G01*
X99076798Y-89433202D01*
X99108772Y-89481054D01*
X99120000Y-89537500D01*
X99120000Y-89832500D01*
X99108772Y-89888946D01*
X99076798Y-89936798D01*
X99028946Y-89968772D01*
X98972500Y-89980000D01*
X98627500Y-89980000D01*
X98571054Y-89968772D01*
X98523202Y-89936798D01*
X98491228Y-89888946D01*
X98480000Y-89832500D01*
X98480000Y-89537500D01*
X98491228Y-89481054D01*
X98523202Y-89433202D01*
X98571054Y-89401228D01*
X98627500Y-89390000D01*
X98972500Y-89390000D01*
X99028946Y-89401228D01*
G37*
G36*
X94298268Y-89407612D02*
G01*
X94330711Y-89429289D01*
X94352388Y-89461732D01*
X94360000Y-89500000D01*
X94360000Y-89700000D01*
X94352388Y-89738268D01*
X94330711Y-89770711D01*
X94298268Y-89792388D01*
X94260000Y-89800000D01*
X94000000Y-89800000D01*
X93961732Y-89792388D01*
X93929289Y-89770711D01*
X93907612Y-89738268D01*
X93900000Y-89700000D01*
X93900000Y-89500000D01*
X93907612Y-89461732D01*
X93929289Y-89429289D01*
X93961732Y-89407612D01*
X94000000Y-89400000D01*
X94260000Y-89400000D01*
X94298268Y-89407612D01*
G37*
G36*
X94938268Y-89407612D02*
G01*
X94970711Y-89429289D01*
X94992388Y-89461732D01*
X95000000Y-89500000D01*
X95000000Y-89700000D01*
X94992388Y-89738268D01*
X94970711Y-89770711D01*
X94938268Y-89792388D01*
X94900000Y-89800000D01*
X94640000Y-89800000D01*
X94601732Y-89792388D01*
X94569289Y-89770711D01*
X94547612Y-89738268D01*
X94540000Y-89700000D01*
X94540000Y-89500000D01*
X94547612Y-89461732D01*
X94569289Y-89429289D01*
X94601732Y-89407612D01*
X94640000Y-89400000D01*
X94900000Y-89400000D01*
X94938268Y-89407612D01*
G37*
G36*
X79468233Y-88783921D02*
G01*
X79536056Y-88823079D01*
X79591434Y-88878457D01*
X79630592Y-88946280D01*
X79650861Y-89021927D01*
X79650861Y-89100243D01*
X79630592Y-89175890D01*
X79591434Y-89243713D01*
X79536056Y-89299091D01*
X79468233Y-89338249D01*
X79392586Y-89358518D01*
X79314270Y-89358518D01*
X79238623Y-89338249D01*
X79170800Y-89299091D01*
X79115422Y-89243713D01*
X79076264Y-89175890D01*
X79055995Y-89100243D01*
X79055995Y-89021927D01*
X79076264Y-88946280D01*
X79115422Y-88878457D01*
X79170800Y-88823079D01*
X79238623Y-88783921D01*
X79314270Y-88763652D01*
X79392586Y-88763652D01*
X79468233Y-88783921D01*
G37*
G36*
X115600000Y-89250000D02*
G01*
X114800000Y-89250000D01*
X114800000Y-88250000D01*
X115600000Y-88250000D01*
X115600000Y-89250000D01*
G37*
G36*
X89220800Y-89200000D02*
G01*
X88220800Y-89200000D01*
X88220800Y-88400000D01*
X89220800Y-88400000D01*
X89220800Y-89200000D01*
G37*
G36*
X118540285Y-87243060D02*
G01*
X118721397Y-87318079D01*
X118884393Y-87426990D01*
X119023010Y-87565607D01*
X119131921Y-87728603D01*
X119206940Y-87909715D01*
X119245185Y-88101983D01*
X119245185Y-88298017D01*
X119206940Y-88490285D01*
X119131921Y-88671397D01*
X119023010Y-88834393D01*
X118884393Y-88973010D01*
X118721397Y-89081921D01*
X118540285Y-89156940D01*
X118348017Y-89195185D01*
X118151983Y-89195185D01*
X117959715Y-89156940D01*
X117778603Y-89081921D01*
X117615607Y-88973010D01*
X117476990Y-88834393D01*
X117368079Y-88671397D01*
X117293060Y-88490285D01*
X117254815Y-88298017D01*
X117254815Y-88101983D01*
X117293060Y-87909715D01*
X117368079Y-87728603D01*
X117476990Y-87565607D01*
X117615607Y-87426990D01*
X117778603Y-87318079D01*
X117959715Y-87243060D01*
X118151983Y-87204815D01*
X118348017Y-87204815D01*
X118540285Y-87243060D01*
G37*
G36*
X99028946Y-88431228D02*
G01*
X99076798Y-88463202D01*
X99108772Y-88511054D01*
X99120000Y-88567500D01*
X99120000Y-88862500D01*
X99108772Y-88918946D01*
X99076798Y-88966798D01*
X99028946Y-88998772D01*
X98972500Y-89010000D01*
X98627500Y-89010000D01*
X98571054Y-88998772D01*
X98523202Y-88966798D01*
X98491228Y-88918946D01*
X98480000Y-88862500D01*
X98480000Y-88567500D01*
X98491228Y-88511054D01*
X98523202Y-88463202D01*
X98571054Y-88431228D01*
X98627500Y-88420000D01*
X98972500Y-88420000D01*
X99028946Y-88431228D01*
G37*
G36*
X101350000Y-88850000D02*
G01*
X100450000Y-88850000D01*
X100450000Y-88050000D01*
X101350000Y-88050000D01*
X101350000Y-88850000D01*
G37*
G36*
X94250000Y-88700000D02*
G01*
X93350000Y-88700000D01*
X93350000Y-87900000D01*
X94250000Y-87900000D01*
X94250000Y-88700000D01*
G37*
G36*
X81896796Y-86921175D02*
G01*
X82556972Y-87302327D01*
X82556974Y-87302329D01*
X82561240Y-87304792D01*
X81961240Y-88344022D01*
X81132600Y-87865607D01*
X80839673Y-87696486D01*
X80839671Y-87696484D01*
X80835406Y-87694022D01*
X80837868Y-87689755D01*
X80837870Y-87689753D01*
X81432941Y-86659059D01*
X81432945Y-86659054D01*
X81435406Y-86654792D01*
X81896796Y-86921175D01*
G37*
G36*
X86920800Y-88250000D02*
G01*
X85920800Y-88250000D01*
X85920800Y-87450000D01*
X86920800Y-87450000D01*
X86920800Y-88250000D01*
G37*
G36*
X96350000Y-88249900D02*
G01*
X95450000Y-88249900D01*
X95450000Y-87449900D01*
X96350000Y-87449900D01*
X96350000Y-88249900D01*
G37*
G36*
X97750000Y-88249900D02*
G01*
X96850000Y-88249900D01*
X96850000Y-87449900D01*
X97750000Y-87449900D01*
X97750000Y-88249900D01*
G37*
G36*
X80318233Y-87311678D02*
G01*
X80386056Y-87350836D01*
X80441434Y-87406214D01*
X80480592Y-87474037D01*
X80500861Y-87549684D01*
X80500861Y-87628000D01*
X80480592Y-87703647D01*
X80441434Y-87771470D01*
X80386056Y-87826848D01*
X80318233Y-87866006D01*
X80242586Y-87886275D01*
X80164270Y-87886275D01*
X80088623Y-87866006D01*
X80020800Y-87826848D01*
X79965422Y-87771470D01*
X79926264Y-87703647D01*
X79905995Y-87628000D01*
X79905995Y-87549684D01*
X79926264Y-87474037D01*
X79965422Y-87406214D01*
X80020800Y-87350836D01*
X80088623Y-87311678D01*
X80164270Y-87291409D01*
X80242586Y-87291409D01*
X80318233Y-87311678D01*
G37*
G36*
X99300000Y-87350000D02*
G01*
X98500000Y-87350000D01*
X98500000Y-86450000D01*
X99300000Y-86450000D01*
X99300000Y-87350000D01*
G37*
G36*
X100700000Y-87350000D02*
G01*
X99900000Y-87350000D01*
X99900000Y-86450000D01*
X100700000Y-86450000D01*
X100700000Y-87350000D01*
G37*
G36*
X94250000Y-87300000D02*
G01*
X93350000Y-87300000D01*
X93350000Y-86500000D01*
X94250000Y-86500000D01*
X94250000Y-87300000D01*
G37*
G36*
X112350000Y-87200000D02*
G01*
X111550000Y-87200000D01*
X111550000Y-85600000D01*
X112350000Y-85600000D01*
X112350000Y-87200000D01*
G37*
G36*
X113350000Y-87200000D02*
G01*
X112550000Y-87200000D01*
X112550000Y-85600000D01*
X113350000Y-85600000D01*
X113350000Y-87200000D01*
G37*
G36*
X96350000Y-87150100D02*
G01*
X95450000Y-87150100D01*
X95450000Y-86350100D01*
X96350000Y-86350100D01*
X96350000Y-87150100D01*
G37*
G36*
X97750000Y-87150100D02*
G01*
X96850000Y-87150100D01*
X96850000Y-86350100D01*
X97750000Y-86350100D01*
X97750000Y-87150100D01*
G37*
G36*
X102349850Y-87132000D02*
G01*
X101543350Y-87132000D01*
X101543350Y-86268000D01*
X102349850Y-86268000D01*
X102349850Y-87132000D01*
G37*
G36*
X103856650Y-87132000D02*
G01*
X103050150Y-87132000D01*
X103050150Y-86268000D01*
X103856650Y-86268000D01*
X103856650Y-87132000D01*
G37*
G36*
X80086629Y-85500797D02*
G01*
X80086630Y-85500798D01*
X81117324Y-86095869D01*
X81117326Y-86095871D01*
X81121592Y-86098334D01*
X80821592Y-86617950D01*
X80367592Y-86355833D01*
X79786629Y-86020414D01*
X79786627Y-86020412D01*
X79782362Y-86017950D01*
X79936504Y-85750967D01*
X80079897Y-85502601D01*
X80079901Y-85502596D01*
X80082362Y-85498334D01*
X80086629Y-85500797D01*
G37*
G36*
X85332000Y-86556650D02*
G01*
X84468000Y-86556650D01*
X84468000Y-85750150D01*
X85332000Y-85750150D01*
X85332000Y-86556650D01*
G37*
G36*
X117832000Y-86356650D02*
G01*
X116968000Y-86356650D01*
X116968000Y-85550150D01*
X117832000Y-85550150D01*
X117832000Y-86356650D01*
G37*
G36*
X85332000Y-85049850D02*
G01*
X84468000Y-85049850D01*
X84468000Y-84243350D01*
X85332000Y-84243350D01*
X85332000Y-85049850D01*
G37*
G36*
X117832000Y-84849850D02*
G01*
X116968000Y-84849850D01*
X116968000Y-84043350D01*
X117832000Y-84043350D01*
X117832000Y-84849850D01*
G37*
G36*
X86949850Y-84532000D02*
G01*
X86143350Y-84532000D01*
X86143350Y-83668000D01*
X86949850Y-83668000D01*
X86949850Y-84532000D01*
G37*
G36*
X88456650Y-84532000D02*
G01*
X87650150Y-84532000D01*
X87650150Y-83668000D01*
X88456650Y-83668000D01*
X88456650Y-84532000D01*
G37*
G36*
X111200100Y-83950000D02*
G01*
X110200100Y-83950000D01*
X110200100Y-81650000D01*
X111200100Y-81650000D01*
X111200100Y-83950000D01*
G37*
G36*
X114699900Y-83950000D02*
G01*
X113699900Y-83950000D01*
X113699900Y-81650000D01*
X114699900Y-81650000D01*
X114699900Y-83950000D01*
G37*
G36*
X101000000Y-83900000D02*
G01*
X99000000Y-83900000D01*
X99000000Y-82900000D01*
X101000000Y-82900000D01*
X101000000Y-83900000D01*
G37*
G36*
X87290285Y-81043060D02*
G01*
X87471397Y-81118079D01*
X87634393Y-81226990D01*
X87773010Y-81365607D01*
X87881921Y-81528603D01*
X87956940Y-81709715D01*
X87995185Y-81901983D01*
X87995185Y-82098017D01*
X87956940Y-82290285D01*
X87881921Y-82471397D01*
X87773010Y-82634393D01*
X87634393Y-82773010D01*
X87471397Y-82881921D01*
X87290285Y-82956940D01*
X87098017Y-82995185D01*
X86901983Y-82995185D01*
X86709715Y-82956940D01*
X86528603Y-82881921D01*
X86365607Y-82773010D01*
X86226990Y-82634393D01*
X86118079Y-82471397D01*
X86043060Y-82290285D01*
X86004815Y-82098017D01*
X86004815Y-81901983D01*
X86043060Y-81709715D01*
X86118079Y-81528603D01*
X86226990Y-81365607D01*
X86365607Y-81226990D01*
X86528603Y-81118079D01*
X86709715Y-81043060D01*
X86901983Y-81004815D01*
X87098017Y-81004815D01*
X87290285Y-81043060D01*
G37*
G36*
X101000000Y-78500000D02*
G01*
X99000000Y-78500000D01*
X99000000Y-77500000D01*
X101000000Y-77500000D01*
X101000000Y-78500000D01*
G37*
M02*
