%TF.GenerationSoftware,KiCad,Pcbnew,10.0.6*%
%TF.CreationDate,2026-09-09T21:08:26+08:00*%
%TF.ProjectId,JXBadge_V1,4a584261-6467-4655-9f56-312e6b696361,rev?*%
%TF.SameCoordinates,Original*%
%TF.FileFunction,Paste,Top*%
%TF.FilePolarity,Positive*%
%FSLAX46Y46*%
G04 Gerber Fmt 4.6, Leading zero omitted, Abs format (unit mm)*
G04 Created by KiCad (PCBNEW 10.0.6) date 2026-09-09 21:08:26*
%MOMM*%
%LPD*%
G01*
G04 APERTURE LIST*
G04 Aperture macros list*
%AMRoundRect*
0 Rectangle with rounded corners*
0 $1 Rounding radius*
0 $2 $3 $4 $5 $6 $7 $8 $9 X,Y pos of 4 corners*
0 Add a 4 corners polygon primitive as box body*
4,1,4,$2,$3,$4,$5,$6,$7,$8,$9,$2,$3,0*
0 Add four circle primitives for the rounded corners*
1,1,$1+$1,$2,$3*
1,1,$1+$1,$4,$5*
1,1,$1+$1,$6,$7*
1,1,$1+$1,$8,$9*
0 Add four rect primitives between the rounded corners*
20,1,$1+$1,$2,$3,$4,$5,0*
20,1,$1+$1,$4,$5,$6,$7,0*
20,1,$1+$1,$6,$7,$8,$9,0*
20,1,$1+$1,$8,$9,$2,$3,0*%
%AMRotRect*
0 Rectangle, with rotation*
0 The origin of the aperture is its center*
0 $1 length*
0 $2 width*
0 $3 Rotation angle, in degrees counterclockwise*
0 Add horizontal line*
21,1,$1,$2,0,0,$3*%
G04 Aperture macros list end*
%ADD10R,0.806500X0.864000*%
%ADD11R,0.864000X0.806500*%
%ADD12R,0.800000X0.900000*%
%ADD13R,1.000000X2.300000*%
%ADD14R,0.800000X1.600000*%
%ADD15R,0.800000X0.800000*%
%ADD16R,1.050000X1.050000*%
%ADD17R,0.665000X0.200000*%
%ADD18R,0.200000X0.665000*%
%ADD19R,0.900000X0.800000*%
%ADD20R,0.500000X0.280000*%
%ADD21R,0.280000X0.500000*%
%ADD22R,0.800000X1.000000*%
%ADD23R,1.000000X0.800000*%
%ADD24R,2.000000X1.000000*%
%ADD25R,0.324000X0.368400*%
%ADD26R,1.070000X0.600000*%
%ADD27R,1.200000X1.800000*%
%ADD28R,1.300000X0.600000*%
%ADD29R,1.300000X0.300000*%
%ADD30RotRect,1.200000X1.300000X60.000000*%
%ADD31RotRect,0.600000X1.200000X60.000000*%
%ADD32R,2.000000X2.500000*%
%ADD33R,0.300000X1.250000*%
%ADD34R,1.200000X1.200000*%
%ADD35R,1.072000X0.532000*%
%ADD36R,1.410000X1.350000*%
%ADD37RoundRect,0.079500X-0.079500X-0.100500X0.079500X-0.100500X0.079500X0.100500X-0.079500X0.100500X0*%
%ADD38O,2.250000X0.630000*%
%ADD39R,1.300000X1.400000*%
%ADD40RoundRect,0.037500X-0.087500X-0.262500X0.087500X-0.262500X0.087500X0.262500X-0.087500X0.262500X0*%
%ADD41RoundRect,0.037500X-0.087500X-0.412500X0.087500X-0.412500X0.087500X0.412500X-0.087500X0.412500X0*%
%ADD42RoundRect,0.037500X-0.087500X-0.612500X0.087500X-0.612500X0.087500X0.612500X-0.087500X0.612500X0*%
%ADD43R,2.500000X1.200000*%
%ADD44RoundRect,0.147500X0.172500X-0.147500X0.172500X0.147500X-0.172500X0.147500X-0.172500X-0.147500X0*%
%ADD45R,0.864000X0.800000*%
%ADD46O,1.600000X0.600000*%
%ADD47R,3.000000X3.500000*%
%ADD48RotRect,1.200000X1.300000X120.000000*%
%ADD49RotRect,0.600000X1.200000X120.000000*%
G04 APERTURE END LIST*
D10*
%TO.C,R7*%
X109746600Y-90800000D03*
X111253400Y-90800000D03*
%TD*%
D11*
%TO.C,R8*%
X117400000Y-85953400D03*
X117400000Y-84446600D03*
%TD*%
D10*
%TO.C,R18*%
X115653400Y-107200000D03*
X114146600Y-107200000D03*
%TD*%
D12*
%TO.C,C5*%
X94750000Y-93350000D03*
X93350000Y-93350000D03*
%TD*%
D13*
%TO.C,J3*%
X114199900Y-82800000D03*
X110700100Y-82800000D03*
D14*
X112950000Y-86400000D03*
X111950000Y-86400000D03*
%TD*%
D10*
%TO.C,R9*%
X103453400Y-86700000D03*
X101946600Y-86700000D03*
%TD*%
D15*
%TO.C,D3*%
X83350000Y-95600000D03*
X84850100Y-95600000D03*
%TD*%
D16*
%TO.C,U1*%
X98170000Y-93270000D03*
X98170000Y-94600000D03*
X98170000Y-95930000D03*
X99500000Y-93270000D03*
X99500000Y-94600000D03*
X99500000Y-95930000D03*
X100830000Y-93270000D03*
X100830000Y-94600000D03*
X100830000Y-95930000D03*
D17*
X96092500Y-91999900D03*
X96092500Y-92400000D03*
X96092500Y-92800000D03*
X96092500Y-93199800D03*
X96092500Y-93599900D03*
X96092500Y-93999900D03*
X96092500Y-94400000D03*
X96092500Y-94800000D03*
X96092500Y-95199800D03*
X96092500Y-95599900D03*
X96092500Y-95999900D03*
X96092500Y-96400000D03*
X96092500Y-96800000D03*
X96092500Y-97199800D03*
D18*
X96900200Y-98007500D03*
X97300000Y-98007500D03*
X97700000Y-98007500D03*
X98100100Y-98007500D03*
X98500100Y-98007500D03*
X98900200Y-98007500D03*
X99300000Y-98007500D03*
X99700000Y-98007500D03*
X100100100Y-98007500D03*
X100500100Y-98007500D03*
X100900200Y-98007500D03*
X101300000Y-98007500D03*
X101700000Y-98007500D03*
X102100100Y-98007500D03*
D17*
X102907500Y-97199800D03*
X102907500Y-96800000D03*
X102907500Y-96400000D03*
X102907500Y-95999900D03*
X102907500Y-95599900D03*
X102907500Y-95199800D03*
X102907500Y-94800000D03*
X102907500Y-94400000D03*
X102907500Y-93999900D03*
X102907500Y-93599900D03*
X102907500Y-93199800D03*
X102907500Y-92800000D03*
X102907500Y-92400000D03*
X102907500Y-91999900D03*
D18*
X102100100Y-91192500D03*
X101700000Y-91192500D03*
X101300000Y-91192500D03*
X100900200Y-91192500D03*
X100500100Y-91192500D03*
X100100100Y-91192500D03*
X99700000Y-91192500D03*
X99300000Y-91192500D03*
X98900200Y-91192500D03*
X98500100Y-91192500D03*
X98100100Y-91192500D03*
X97700000Y-91192500D03*
X97300000Y-91192500D03*
X96900200Y-91192500D03*
%TD*%
D10*
%TO.C,R4*%
X104146600Y-95250000D03*
X105653400Y-95250000D03*
%TD*%
%TO.C,R38*%
X89296600Y-102500000D03*
X90803400Y-102500000D03*
%TD*%
D11*
%TO.C,R30*%
X84900000Y-93753400D03*
X84900000Y-92246600D03*
%TD*%
D10*
%TO.C,R29*%
X81453400Y-94200000D03*
X79946600Y-94200000D03*
%TD*%
D12*
%TO.C,C27*%
X94750000Y-96350000D03*
X93350000Y-96350000D03*
%TD*%
D11*
%TO.C,R31*%
X84900000Y-84646600D03*
X84900000Y-86153400D03*
%TD*%
D19*
%TO.C,C21*%
X95250000Y-108700000D03*
X95250000Y-107300000D03*
%TD*%
D11*
%TO.C,R21*%
X100850000Y-101053400D03*
X100850000Y-99546600D03*
%TD*%
D20*
%TO.C,U3*%
X97825000Y-102249900D03*
X97825000Y-102750100D03*
X97825000Y-103249900D03*
X97825000Y-103750100D03*
D21*
X98450100Y-103875000D03*
X98949900Y-103875000D03*
D20*
X99575000Y-103750100D03*
X99575000Y-103249900D03*
X99575000Y-102750100D03*
X99575000Y-102249900D03*
D21*
X98949900Y-102125000D03*
X98450100Y-102125000D03*
%TD*%
D12*
%TO.C,C25*%
X107900000Y-109300000D03*
X109300000Y-109300000D03*
%TD*%
%TO.C,C4*%
X91700000Y-93600000D03*
X90300000Y-93600000D03*
%TD*%
D19*
%TO.C,C1*%
X93800000Y-88300000D03*
X93800000Y-86900000D03*
%TD*%
D11*
%TO.C,R26*%
X105400000Y-111953400D03*
X105400000Y-110446600D03*
%TD*%
D22*
%TO.C,Q3*%
X114250000Y-91050000D03*
X116150000Y-91050000D03*
X115200000Y-88750000D03*
%TD*%
D15*
%TO.C,D4*%
X83351000Y-97900100D03*
X84849000Y-97899900D03*
%TD*%
D10*
%TO.C,R41*%
X108146600Y-121000000D03*
X109653400Y-121000000D03*
%TD*%
D23*
%TO.C,Q4*%
X86420800Y-87850000D03*
X86420800Y-89750000D03*
X88720800Y-88800000D03*
%TD*%
%TO.C,Q1*%
X91579200Y-114350000D03*
X91579200Y-112450000D03*
X89279200Y-113400000D03*
%TD*%
D12*
%TO.C,C2*%
X98900000Y-86900000D03*
X100300000Y-86900000D03*
%TD*%
D24*
%TO.C,AE1*%
X100000000Y-83400000D03*
X100000000Y-78000000D03*
%TD*%
D19*
%TO.C,C15*%
X91900000Y-120400000D03*
X91900000Y-119000000D03*
%TD*%
D12*
%TO.C,C8*%
X97300000Y-89800000D03*
X95900000Y-89800000D03*
%TD*%
D10*
%TO.C,R3*%
X104146600Y-93750000D03*
X105653400Y-93750000D03*
%TD*%
%TO.C,R13*%
X91853400Y-117000000D03*
X90346600Y-117000000D03*
%TD*%
D19*
%TO.C,C7*%
X100900000Y-89850000D03*
X100900000Y-88450000D03*
%TD*%
D25*
%TO.C,L2*%
X94850000Y-91174300D03*
X94850000Y-90625700D03*
%TD*%
D19*
%TO.C,C16*%
X96100000Y-103100000D03*
X96100000Y-104500000D03*
%TD*%
D12*
%TO.C,C20*%
X87800000Y-110350000D03*
X89200000Y-110350000D03*
%TD*%
D26*
%TO.C,Q2*%
X85327400Y-112450000D03*
X85327400Y-114350000D03*
X87307800Y-113400000D03*
%TD*%
D10*
%TO.C,R6*%
X104146600Y-90750000D03*
X105653400Y-90750000D03*
%TD*%
D11*
%TO.C,R15*%
X96200000Y-101053400D03*
X96200000Y-99546600D03*
%TD*%
D27*
%TO.C,L3*%
X103500000Y-105350000D03*
X105500000Y-105350000D03*
%TD*%
D12*
%TO.C,C3*%
X94550000Y-94850000D03*
X93150000Y-94850000D03*
%TD*%
D19*
%TO.C,C6*%
X98100000Y-99350000D03*
X98100000Y-100750000D03*
%TD*%
D10*
%TO.C,R36*%
X90246600Y-96800000D03*
X91753400Y-96800000D03*
%TD*%
D11*
%TO.C,R14*%
X85000000Y-105853400D03*
X85000000Y-104346600D03*
%TD*%
D10*
%TO.C,R39*%
X90246600Y-100300000D03*
X91753400Y-100300000D03*
%TD*%
%TO.C,R11*%
X82146600Y-108000000D03*
X83653400Y-108000000D03*
%TD*%
D11*
%TO.C,R22*%
X111100000Y-109053400D03*
X111100000Y-107546600D03*
%TD*%
D28*
%TO.C,J2*%
X117463600Y-103199900D03*
X117463600Y-102400000D03*
D29*
X117463600Y-101249900D03*
X117463600Y-100249900D03*
X117463600Y-99750100D03*
X117463600Y-98750300D03*
D28*
X117463600Y-97599700D03*
X117463600Y-96799900D03*
X117463600Y-96799900D03*
X117463600Y-97599700D03*
D29*
X117463600Y-98249900D03*
X117463600Y-99249900D03*
X117463600Y-100750100D03*
X117463600Y-101750100D03*
D28*
X117463600Y-102400000D03*
X117463600Y-103199900D03*
%TD*%
D10*
%TO.C,R33*%
X88053400Y-84100000D03*
X86546600Y-84100000D03*
%TD*%
D30*
%TO.C,SW2*%
X80023323Y-90400593D03*
X81698323Y-87499407D03*
D31*
X78151977Y-90041858D03*
X80451977Y-86058142D03*
%TD*%
D11*
%TO.C,R16*%
X94500000Y-101053400D03*
X94500000Y-99546600D03*
%TD*%
D32*
%TO.C,J1*%
X94060100Y-118775000D03*
X105940100Y-118740000D03*
D33*
X95750100Y-116200000D03*
X96250000Y-116200000D03*
X96750100Y-116200000D03*
X97250000Y-116200000D03*
X97750100Y-116200000D03*
X98250000Y-116200000D03*
X98750100Y-116200000D03*
X99250000Y-116200000D03*
X99750100Y-116200000D03*
X100250000Y-116200000D03*
X100750100Y-116200000D03*
X101250000Y-116200000D03*
X101749900Y-116200000D03*
X102250000Y-116200000D03*
X102749900Y-116200000D03*
X103250000Y-116200000D03*
X103749900Y-116200000D03*
X104250000Y-116200000D03*
%TD*%
D11*
%TO.C,R32*%
X83300000Y-104253400D03*
X83300000Y-102746600D03*
%TD*%
D34*
%TO.C,D2*%
X113600000Y-114435000D03*
X113600000Y-111165000D03*
%TD*%
D10*
%TO.C,R37*%
X90246600Y-98400000D03*
X91753400Y-98400000D03*
%TD*%
D35*
%TO.C,U4*%
X112950900Y-99050000D03*
X112950900Y-100000000D03*
X112950900Y-100950000D03*
X115249100Y-100950000D03*
X115249100Y-100000000D03*
X115249100Y-99050000D03*
%TD*%
D11*
%TO.C,R28*%
X83000000Y-101253400D03*
X83000000Y-99746600D03*
%TD*%
D10*
%TO.C,R19*%
X118653400Y-106400000D03*
X117146600Y-106400000D03*
%TD*%
%TO.C,R5*%
X104146600Y-92250000D03*
X105653400Y-92250000D03*
%TD*%
D19*
%TO.C,C11*%
X108000000Y-98550000D03*
X108000000Y-99950000D03*
%TD*%
D10*
%TO.C,R34*%
X90246600Y-95200000D03*
X91753400Y-95200000D03*
%TD*%
D19*
%TO.C,C17*%
X97550000Y-107500000D03*
X97550000Y-106100000D03*
%TD*%
%TO.C,C14*%
X94500000Y-114500000D03*
X94500000Y-113100000D03*
%TD*%
D36*
%TO.C,C22*%
X101400000Y-105600000D03*
X99400000Y-105600000D03*
%TD*%
D12*
%TO.C,C19*%
X84400000Y-110500000D03*
X85800000Y-110500000D03*
%TD*%
D26*
%TO.C,Q6*%
X85527400Y-100850000D03*
X85527400Y-102750000D03*
X87507800Y-101800000D03*
%TD*%
D10*
%TO.C,R2*%
X104146600Y-98250000D03*
X105653400Y-98250000D03*
%TD*%
D26*
%TO.C,Q5*%
X86527400Y-91650000D03*
X86527400Y-93550000D03*
X88507800Y-92600000D03*
%TD*%
D11*
%TO.C,R27*%
X103800000Y-110446600D03*
X103800000Y-111953400D03*
%TD*%
D10*
%TO.C,R17*%
X92346600Y-102700000D03*
X93853400Y-102700000D03*
%TD*%
D19*
%TO.C,C9*%
X105900000Y-99650000D03*
X105900000Y-101050000D03*
%TD*%
D37*
%TO.C,C12*%
X94105000Y-92250000D03*
X94795000Y-92250000D03*
%TD*%
D38*
%TO.C,U2*%
X115030100Y-96605000D03*
X115030100Y-95335000D03*
X115030100Y-94065000D03*
X115030100Y-92795000D03*
X107969900Y-92795000D03*
X107969900Y-94065000D03*
X107969900Y-95335000D03*
X107969900Y-96605000D03*
%TD*%
D19*
%TO.C,C10*%
X104300000Y-99650000D03*
X104300000Y-101050000D03*
%TD*%
D26*
%TO.C,Q7*%
X107609800Y-111950000D03*
X107609800Y-113850000D03*
X109590200Y-112900000D03*
%TD*%
D39*
%TO.C,D1*%
X111050000Y-104550000D03*
X113950000Y-104550000D03*
%TD*%
D12*
%TO.C,C18*%
X97300000Y-109300000D03*
X98700000Y-109300000D03*
%TD*%
D40*
%TO.C,U6*%
X103500000Y-109000000D03*
X104000000Y-109000000D03*
X104500000Y-109000000D03*
X105000000Y-109000000D03*
X105500000Y-109000000D03*
D41*
X105500000Y-107350000D03*
X105000000Y-107350000D03*
D42*
X104500000Y-107550000D03*
D41*
X104000000Y-107350000D03*
X103500000Y-107350000D03*
%TD*%
D43*
%TO.C,SW1*%
X80550000Y-97500000D03*
X80550000Y-100000000D03*
X80550000Y-102500000D03*
%TD*%
D11*
%TO.C,R35*%
X88100000Y-97753400D03*
X88100000Y-96246600D03*
%TD*%
D44*
%TO.C,L1*%
X98800000Y-89685000D03*
X98800000Y-88715000D03*
%TD*%
D10*
%TO.C,R40*%
X104646600Y-122900000D03*
X106153400Y-122900000D03*
%TD*%
D12*
%TO.C,C28*%
X94750000Y-97850000D03*
X93350000Y-97850000D03*
%TD*%
D45*
%TO.C,FB1*%
X91000000Y-91599900D03*
X91000000Y-90200100D03*
%TD*%
D46*
%TO.C,U5*%
X87000000Y-104895000D03*
X87000000Y-106165000D03*
X87000000Y-107435000D03*
X87000000Y-108705000D03*
X93000000Y-108705000D03*
X93000000Y-107435000D03*
X93000000Y-106165000D03*
X93000000Y-104895000D03*
D47*
X90000000Y-106800000D03*
%TD*%
D10*
%TO.C,R10*%
X92453400Y-110600000D03*
X90946600Y-110600000D03*
%TD*%
D19*
%TO.C,Y1*%
X95900000Y-87849900D03*
X97300000Y-87849900D03*
X97300000Y-86750100D03*
X95900000Y-86750100D03*
%TD*%
D36*
%TO.C,C29*%
X101400000Y-111550000D03*
X99400000Y-111550000D03*
%TD*%
D37*
%TO.C,C13*%
X94105000Y-89600000D03*
X94795000Y-89600000D03*
%TD*%
D11*
%TO.C,R23*%
X85000000Y-108953400D03*
X85000000Y-107446600D03*
%TD*%
D10*
%TO.C,R1*%
X104146600Y-96750000D03*
X105653400Y-96750000D03*
%TD*%
%TO.C,R12*%
X83353400Y-105900000D03*
X81846600Y-105900000D03*
%TD*%
D12*
%TO.C,C26*%
X107050000Y-107350000D03*
X108450000Y-107350000D03*
%TD*%
%TO.C,C23*%
X101950000Y-107350000D03*
X100550000Y-107350000D03*
%TD*%
D11*
%TO.C,R20*%
X102350000Y-101053400D03*
X102350000Y-99546600D03*
%TD*%
D48*
%TO.C,SW3*%
X81698323Y-112500593D03*
X80023323Y-109599407D03*
D49*
X80451977Y-113941858D03*
X78151977Y-109958142D03*
%TD*%
D12*
%TO.C,C24*%
X107900000Y-105600000D03*
X109300000Y-105600000D03*
%TD*%
M02*
